<svg width="500" height="500" viewBox="0 0 500 500" fill="none" xmlns="http://www.w3.org/2000/svg">
<path d="M252.36 443.74C351.484 443.74 431.84 429.977 431.84 413C431.84 396.023 351.484 382.26 252.36 382.26C153.236 382.26 72.8799 396.023 72.8799 413C72.8799 429.977 153.236 443.74 252.36 443.74Z" fill="#C53F3F"/>
<path opacity="0.5" d="M252.36 443.74C351.484 443.74 431.84 429.977 431.84 413C431.84 396.023 351.484 382.26 252.36 382.26C153.236 382.26 72.8799 396.023 72.8799 413C72.8799 429.977 153.236 443.74 252.36 443.74Z" fill="white"/>
<path d="M57.1499 383.17H448.23" stroke="#263238" strokeLinecap="round" strokeLinejoin="round"/>
<path d="M70.9199 329.26H203.32" stroke="#263238" strokeLinecap="round" strokeLinejoin="round"/>
<path d="M198.98 332.95H85.6299V354.66H198.98V332.95Z" stroke="#263238" strokeLinecap="round" strokeLinejoin="round"/>
<path d="M198.98 358.35H85.6299V380.06H198.98V358.35Z" stroke="#263238" strokeLinecap="round" strokeLinejoin="round"/>
<path d="M144.8 343.81C144.798 344.302 144.65 344.783 144.375 345.191C144.101 345.599 143.711 345.916 143.256 346.103C142.801 346.29 142.3 346.338 141.818 346.241C141.336 346.144 140.893 345.906 140.546 345.557C140.198 345.209 139.962 344.765 139.867 344.282C139.772 343.799 139.822 343.299 140.01 342.845C140.199 342.39 140.518 342.002 140.927 341.729C141.337 341.456 141.818 341.31 142.31 341.31C142.638 341.31 142.962 341.375 143.265 341.501C143.568 341.626 143.843 341.811 144.074 342.043C144.305 342.275 144.489 342.551 144.613 342.854C144.738 343.157 144.801 343.482 144.8 343.81Z" stroke="#263238" strokeLinecap="round" strokeLinejoin="round"/>
<path d="M144.8 369.2C144.8 369.692 144.654 370.174 144.38 370.583C144.107 370.993 143.718 371.312 143.263 371.5C142.808 371.689 142.307 371.738 141.824 371.642C141.341 371.546 140.897 371.309 140.549 370.961C140.201 370.612 139.964 370.169 139.868 369.686C139.772 369.203 139.821 368.702 140.009 368.247C140.198 367.792 140.517 367.403 140.926 367.13C141.336 366.856 141.817 366.71 142.31 366.71C142.637 366.71 142.961 366.774 143.263 366.9C143.565 367.025 143.839 367.208 144.071 367.439C144.302 367.67 144.485 367.945 144.61 368.247C144.735 368.549 144.8 368.873 144.8 369.2Z" stroke="#263238" strokeLinecap="round" strokeLinejoin="round"/>
<path d="M82.73 328.74H69.97V383.26H82.73V328.74Z" fill="#263238"/>
<path d="M203.32 383.27V329.26" stroke="#263238" strokeLinecap="round" strokeLinejoin="round"/>
<path d="M70.5 383.27H203.32" stroke="#263238" strokeLinecap="round" strokeLinejoin="round"/>
<path d="M400.51 218.62C400.51 218.62 400.51 214.35 394.51 208.36C388.51 202.37 384.71 198.96 384.71 198.96C384.71 198.96 381.71 208.76 387.27 214.75C391.35 218.966 395.783 222.827 400.52 226.29L400.51 218.62Z" fill="#C53F3F"/>
<path d="M391.83 245.3C391.83 245.3 391.83 241.03 385.83 235.05C379.83 229.07 376.03 225.65 376.03 225.65C376.03 225.65 373.03 235.45 378.59 241.44C382.674 245.662 387.11 249.53 391.85 253L391.83 245.3Z" fill="#C53F3F"/>
<path d="M400.14 225.89C400.14 225.89 400.58 221.64 407.14 216.33C413.7 211.02 417.93 208 417.93 208C417.93 208 419.87 218.09 413.71 223.45C409.2 227.208 404.387 230.586 399.32 233.55L400.14 225.89Z" fill="#C53F3F"/>
<path d="M389.65 257.41C389.65 257.41 390.54 253.23 397.65 248.63C404.76 244.03 409.23 241.5 409.23 241.5C409.23 241.5 410.1 251.74 403.41 256.42C398.521 259.684 393.366 262.531 388 264.93L389.65 257.41Z" fill="#C53F3F"/>
<path d="M391.62 291.77C391.62 291.77 391.62 287.5 397.62 281.51C403.62 275.52 407.45 272.11 407.45 272.11C407.45 272.11 410.45 281.91 404.88 287.9C400.796 292.122 396.363 295.992 391.63 299.47L391.62 291.77Z" fill="#C53F3F"/>
<path d="M391.52 300.15C391.52 300.15 392.13 295.92 387.05 289.15C381.97 282.38 378.66 278.45 378.66 278.45C378.66 278.45 374.31 287.75 378.95 294.45C382.399 299.198 386.239 303.651 390.43 307.76L391.52 300.15Z" fill="#C53F3F"/>
<path d="M385.62 325C385.62 325 385.62 320.72 391.62 314.74C397.62 308.76 401.42 305.34 401.42 305.34C401.42 305.34 404.42 315.15 398.86 321.14C394.781 325.351 390.356 329.211 385.63 332.68L385.62 325Z" fill="#C53F3F"/>
<path d="M389.61 347.54C389.61 347.54 388.53 343.41 392.81 336.11C397.09 328.81 399.93 324.52 399.93 324.52C399.93 324.52 405.31 333.27 401.45 340.46C398.569 345.577 395.261 350.441 391.56 355L389.61 347.54Z" fill="#C53F3F"/>
<path d="M401.05 217.52C400.752 221.97 400.208 226.4 399.42 230.79C397.05 243 391.14 250.89 388.78 261.92C386.42 272.95 393.2 287.17 391.38 301.35C389.56 315.53 384.04 323.43 385.62 332.86C387.2 342.29 395.47 367.93 395.47 367.93" stroke="#263238" strokeLinecap="round" strokeLinejoin="round"/>
<path d="M361.34 275.7C361.34 275.7 360.88 273.02 363.98 268.62C367.08 264.22 369.12 261.62 369.12 261.62C369.12 261.62 372.06 267.45 369.22 271.81C367.107 274.89 364.742 277.79 362.15 280.48L361.34 275.7Z" fill="#C53F3F"/>
<path d="M369.68 291.49C369.68 291.49 369.21 288.81 372.32 284.41C375.43 280.01 377.46 277.41 377.46 277.41C377.46 277.41 380.4 283.25 377.57 287.6C375.457 290.683 373.088 293.583 370.49 296.27L369.68 291.49Z" fill="#C53F3F"/>
<path d="M362.36 280.22C362.36 280.22 361.62 277.61 356.92 274.99C352.22 272.37 349.29 270.99 349.29 270.99C349.29 270.99 349.17 277.52 353.62 280.21C356.849 282.079 360.232 283.672 363.73 284.97L362.36 280.22Z" fill="#C53F3F"/>
<path d="M372.36 298.85C372.36 298.85 371.36 296.32 366.36 294.21C361.36 292.1 358.36 290.99 358.36 290.99C358.36 290.99 358.9 297.53 363.62 299.71C367.035 301.222 370.571 302.446 374.19 303.37L372.36 298.85Z" fill="#C53F3F"/>
<path d="M374.86 320.6C374.86 320.6 374.39 317.92 369.99 314.82C365.59 311.72 362.81 309.99 362.81 309.99C362.81 309.99 362 316.48 366.13 319.63C369.153 321.821 372.35 323.761 375.69 325.43L374.86 320.6Z" fill="#C53F3F"/>
<path d="M375.83 325.85C375.83 325.85 375 323.27 377.43 318.47C379.86 313.67 381.53 310.84 381.53 310.84C381.53 310.84 385.27 316.2 383.09 320.91C381.448 324.267 379.525 327.478 377.34 330.51L375.83 325.85Z" fill="#C53F3F"/>
<path d="M383.34 347.46C383.34 347.46 383.65 344.74 387.86 341.46C392.07 338.18 394.76 336.22 394.76 336.22C394.76 336.22 395.94 342.65 391.99 346.03C389.1 348.391 386.02 350.508 382.78 352.36L383.34 347.46Z" fill="#C53F3F"/>
<path d="M382.22 340.8C382.22 340.8 381.76 338.12 377.36 335.02C372.96 331.92 370.18 330.19 370.18 330.19C370.18 330.19 369.37 336.67 373.5 339.82C376.518 342.018 379.716 343.958 383.06 345.62L382.22 340.8Z" fill="#C53F3F"/>
<path d="M382.17 355.36C382.17 355.36 382.4 352.64 378.9 348.53C375.4 344.42 373.2 342.05 373.2 342.05C373.2 342.05 370.78 348.11 373.97 352.21C376.34 355.088 378.946 357.764 381.76 360.21L382.17 355.36Z" fill="#C53F3F"/>
<path d="M360.88 275.07C361.553 277.837 362.377 280.564 363.35 283.24C366.16 290.64 370.72 294.95 373.35 301.61C375.98 308.27 373.35 317.94 375.99 326.61C378.63 335.28 382.99 339.61 382.99 345.75C382.99 351.89 380.61 368.81 380.61 368.81" stroke="#263238" strokeLinecap="round" strokeLinejoin="round"/>
<path d="M368.46 365.83H407.62V380.25C407.62 380.501 407.571 380.749 407.475 380.981C407.379 381.213 407.238 381.423 407.061 381.6C406.883 381.778 406.673 381.918 406.441 382.014C406.209 382.11 405.961 382.16 405.71 382.16H370.4C370.149 382.16 369.901 382.11 369.669 382.014C369.437 381.918 369.227 381.778 369.049 381.6C368.872 381.423 368.731 381.213 368.635 380.981C368.539 380.749 368.49 380.501 368.49 380.25V365.83H368.46Z" fill="#263238" stroke="#263238" strokeLinecap="round" strokeLinejoin="round"/>
<path d="M407.28 370.93H368.49C367.677 370.93 366.898 370.608 366.323 370.034C365.747 369.461 365.423 368.683 365.42 367.87C365.425 367.059 365.751 366.284 366.326 365.712C366.901 365.141 367.679 364.82 368.49 364.82H407.28C408.091 364.82 408.87 365.142 409.444 365.716C410.018 366.29 410.34 367.069 410.34 367.88C410.337 368.69 410.014 369.466 409.44 370.037C408.867 370.609 408.09 370.93 407.28 370.93Z" fill="#263238" stroke="#263238" strokeLinecap="round" strokeLinejoin="round"/>
<path d="M370.03 371.06H398.19" stroke="white" strokeLinecap="round" strokeLinejoin="round"/>
<path d="M400.84 371.06H405.48" stroke="white" strokeLinecap="round" strokeLinejoin="round"/>
<path d="M400.51 218.62C400.51 218.62 400.51 214.35 394.51 208.36C388.51 202.37 384.71 198.96 384.71 198.96C384.71 198.96 381.71 208.76 387.27 214.75C391.35 218.966 395.783 222.827 400.52 226.29L400.51 218.62Z" fill="#263238"/>
<path d="M391.83 245.3C391.83 245.3 391.83 241.03 385.83 235.05C379.83 229.07 376.03 225.65 376.03 225.65C376.03 225.65 373.03 235.45 378.59 241.44C382.674 245.662 387.11 249.53 391.85 253L391.83 245.3Z" fill="#263238"/>
<path d="M400.14 225.89C400.14 225.89 400.58 221.64 407.14 216.33C413.7 211.02 417.93 208 417.93 208C417.93 208 419.87 218.09 413.71 223.45C409.2 227.208 404.387 230.586 399.32 233.55L400.14 225.89Z" fill="#263238"/>
<path d="M389.65 257.41C389.65 257.41 390.54 253.23 397.65 248.63C404.76 244.03 409.23 241.5 409.23 241.5C409.23 241.5 410.1 251.74 403.41 256.42C398.521 259.684 393.366 262.531 388 264.93L389.65 257.41Z" fill="#263238"/>
<path d="M391.62 291.77C391.62 291.77 391.62 287.5 397.62 281.51C403.62 275.52 407.45 272.11 407.45 272.11C407.45 272.11 410.45 281.91 404.88 287.9C400.796 292.122 396.363 295.992 391.63 299.47L391.62 291.77Z" fill="#263238"/>
<path d="M385.62 325C385.62 325 385.62 320.72 391.62 314.74C397.62 308.76 401.42 305.34 401.42 305.34C401.42 305.34 404.42 315.15 398.86 321.14C394.781 325.351 390.356 329.211 385.63 332.68L385.62 325Z" fill="#263238"/>
<path d="M361.34 275.7C361.34 275.7 360.88 273.02 363.98 268.62C367.08 264.22 369.12 261.62 369.12 261.62C369.12 261.62 372.06 267.45 369.22 271.81C367.107 274.89 364.742 277.79 362.15 280.48L361.34 275.7Z" fill="#263238"/>
<path d="M387.05 289.15C381.98 282.38 378.66 278.45 378.66 278.45C378.66 278.45 378.48 278.85 378.24 279.51C378.036 278.803 377.776 278.114 377.46 277.45C377.46 277.45 375.46 280.01 372.32 284.45C369.18 288.89 369.68 291.53 369.68 291.53L370.49 296.35C372.817 293.934 374.96 291.347 376.9 288.61C377.062 290.718 377.768 292.747 378.95 294.5C382.399 299.248 386.239 303.701 390.43 307.81L391.52 300.19C391.52 300.19 392.13 295.92 387.05 289.15Z" fill="#263238"/>
<path d="M362.36 280.22C362.36 280.22 361.62 277.61 356.92 274.99C352.22 272.37 349.29 270.99 349.29 270.99C349.29 270.99 349.17 277.52 353.62 280.21C356.849 282.079 360.232 283.672 363.73 284.97L362.36 280.22Z" fill="#263238"/>
<path d="M372.36 298.85C372.36 298.85 371.36 296.32 366.36 294.21C361.36 292.1 358.36 290.99 358.36 290.99C358.36 290.99 358.9 297.53 363.62 299.71C367.035 301.222 370.571 302.446 374.19 303.37L372.36 298.85Z" fill="#263238"/>
<path d="M374.86 320.6C374.86 320.6 374.39 317.92 369.99 314.82C365.59 311.72 362.81 309.99 362.81 309.99C362.81 309.99 362 316.48 366.13 319.63C369.153 321.821 372.35 323.761 375.69 325.43L374.86 320.6Z" fill="#263238"/>
<path d="M375.83 325.85C375.83 325.85 375 323.27 377.43 318.47C379.86 313.67 381.53 310.84 381.53 310.84C381.53 310.84 385.27 316.2 383.09 320.91C381.448 324.267 379.525 327.478 377.34 330.51L375.83 325.85Z" fill="#263238"/>
<path d="M399.93 324.52C399.93 324.52 397.09 328.8 392.81 336.11C392.29 336.99 391.81 337.83 391.48 338.62C390.46 339.387 389.253 340.32 387.86 341.42C383.65 344.74 383.34 347.42 383.34 347.42L382.78 352.28C385.17 350.913 387.475 349.4 389.68 347.75L391.56 354.94C395.26 350.387 398.568 345.53 401.45 340.42C405.31 333.27 399.93 324.52 399.93 324.52Z" fill="#263238"/>
<path d="M382.22 340.8C382.22 340.8 381.76 338.12 377.36 335.02C372.96 331.92 370.18 330.19 370.18 330.19C370.18 330.19 369.37 336.67 373.5 339.82C376.518 342.018 379.716 343.958 383.06 345.62L382.22 340.8Z" fill="#263238"/>
<path d="M382.17 355.36C382.17 355.36 382.4 352.64 378.9 348.53C375.4 344.42 373.2 342.05 373.2 342.05C373.2 342.05 370.78 348.11 373.97 352.21C376.34 355.088 378.946 357.764 381.76 360.21L382.17 355.36Z" fill="#263238"/>
<path d="M225.36 254.1L212.16 248.74V285.41C212.16 286.658 211.914 287.895 211.436 289.048C210.958 290.201 210.257 291.249 209.374 292.131C208.491 293.013 207.442 293.713 206.289 294.19C205.135 294.667 203.898 294.911 202.65 294.91H85.27C82.7505 294.91 80.3341 293.909 78.5525 292.127C76.7709 290.346 75.77 287.93 75.77 285.41V139C75.7687 137.752 76.0135 136.515 76.4903 135.361C76.9671 134.208 77.6667 133.159 78.549 132.276C79.4313 131.393 80.479 130.692 81.6322 130.214C82.7855 129.736 84.0216 129.49 85.27 129.49H202.65C205.172 129.49 207.591 130.492 209.375 132.275C211.158 134.059 212.16 136.478 212.16 139V232.84L225.36 254.1Z" fill="white" stroke="#263238" strokeLinecap="round" strokeLinejoin="round"/>
<path d="M87.78 169.72L92.72 162.81V141.22H171.59V180.89H92.72V170.09L87.78 169.72Z" fill="#263238"/>
<path d="M132.8 174.28C140.101 174.28 146.02 168.361 146.02 161.06C146.02 153.759 140.101 147.84 132.8 147.84C125.499 147.84 119.58 153.759 119.58 161.06C119.58 168.361 125.499 174.28 132.8 174.28Z" fill="white"/>
<path d="M130.38 168.5V153.47L139.89 160.98L130.38 168.5Z" fill="#C53F3F" stroke="#263238" strokeLinecap="round" strokeLinejoin="round"/>
<path d="M202.37 272.3L197.42 268.01V254.61H118.56V279.24H197.42V272.54L202.37 272.3Z" fill="#C53F3F" stroke="#263238" strokeLinecap="round" strokeLinejoin="round"/>
<path d="M147.6 262.17V271.17H145.93V267.3H141.25V271.17H139.58V262.17H141.25V265.9H145.93V262.17H147.6Z" fill="#263238"/>
<path d="M155.65 267.17V271.17H154.12V270.33C153.868 270.655 153.538 270.911 153.16 271.074C152.782 271.236 152.369 271.301 151.96 271.26C150.38 271.26 149.39 270.39 149.39 269.19C149.39 267.99 150.16 267.14 152.25 267.14H154V267.04C154 266.1 153.44 265.54 152.29 265.54C151.538 265.531 150.803 265.77 150.2 266.22L149.57 265.05C150.423 264.46 151.444 264.162 152.48 264.2C154.5 264.24 155.65 265.18 155.65 267.17ZM154 269.05V268.25H152.34C151.24 268.25 150.95 268.67 150.95 269.17C150.95 269.67 151.44 270.12 152.26 270.12C152.626 270.146 152.99 270.057 153.302 269.865C153.615 269.673 153.859 269.388 154 269.05Z" fill="#263238"/>
<path d="M164.5 267.26V271.21H162.89V267.46C162.89 266.24 162.29 265.65 161.25 265.65C160.98 265.632 160.71 265.675 160.459 265.775C160.207 265.875 159.982 266.03 159.798 266.228C159.614 266.427 159.477 266.663 159.396 266.921C159.315 267.179 159.292 267.452 159.33 267.72V271.21H157.72V261.63H159.33V265.12C159.632 264.822 159.992 264.591 160.388 264.439C160.784 264.288 161.207 264.22 161.63 264.24C162.028 264.21 162.427 264.269 162.799 264.412C163.171 264.556 163.506 264.78 163.781 265.069C164.056 265.358 164.263 265.705 164.387 266.084C164.511 266.463 164.55 266.864 164.5 267.26Z" fill="#263238"/>
<path d="M172.33 267.17V271.17H170.81V270.33C170.555 270.655 170.223 270.91 169.844 271.072C169.465 271.235 169.051 271.299 168.64 271.26C167.06 271.26 166.07 270.39 166.07 269.19C166.07 267.99 166.85 267.14 168.94 267.14H170.72V267.04C170.72 266.1 170.15 265.54 169 265.54C168.248 265.534 167.514 265.772 166.91 266.22L166.28 265.05C167.133 264.46 168.154 264.162 169.19 264.2C171.18 264.24 172.33 265.18 172.33 267.17ZM170.72 269.05V268.25H169.05C167.96 268.25 167.66 268.67 167.66 269.17C167.66 269.67 168.15 270.12 168.97 270.12C169.337 270.147 169.703 270.058 170.017 269.866C170.331 269.674 170.577 269.389 170.72 269.05Z" fill="#263238"/>
<path d="M181.19 267.26V271.21H179.57V267.46C179.57 266.24 178.97 265.65 177.93 265.65C177.661 265.634 177.391 265.678 177.141 265.779C176.89 265.88 176.665 266.034 176.482 266.232C176.299 266.43 176.161 266.666 176.079 266.923C175.998 267.18 175.974 267.452 176.01 267.72V271.21H174.4V261.63H176V265.12C176.302 264.822 176.662 264.591 177.058 264.439C177.454 264.288 177.877 264.22 178.3 264.24C178.699 264.207 179.101 264.264 179.475 264.406C179.85 264.548 180.188 264.771 180.465 265.061C180.742 265.35 180.951 265.698 181.076 266.078C181.202 266.459 181.24 266.862 181.19 267.26Z" fill="#263238"/>
<path d="M202.37 240.07L197.42 235.78V222.38H118.56V247H197.42V240.3L202.37 240.07Z" fill="#C53F3F" stroke="#263238" strokeLinecap="round" strokeLinejoin="round"/>
<path d="M160.46 243.42C165.281 243.42 169.19 239.511 169.19 234.69C169.19 229.869 165.281 225.96 160.46 225.96C155.639 225.96 151.73 229.869 151.73 234.69C151.73 239.511 155.639 243.42 160.46 243.42Z" fill="white" stroke="#263238" strokeLinecap="round" strokeLinejoin="round"/>
<path d="M136.39 243.42C141.212 243.42 145.12 239.511 145.12 234.69C145.12 229.869 141.212 225.96 136.39 225.96C131.569 225.96 127.66 229.869 127.66 234.69C127.66 239.511 131.569 243.42 136.39 243.42Z" fill="white" stroke="#263238" strokeLinecap="round" strokeLinejoin="round"/>
<path d="M183.49 243.42C188.311 243.42 192.22 239.511 192.22 234.69C192.22 229.869 188.311 225.96 183.49 225.96C178.669 225.96 174.76 229.869 174.76 234.69C174.76 239.511 178.669 243.42 183.49 243.42Z" fill="white" stroke="#263238" strokeLinecap="round" strokeLinejoin="round"/>
<path d="M131.62 229.83L134.01 232.8H130.66" stroke="#263238" strokeLinecap="round" strokeLinejoin="round"/>
<path d="M140.37 229.83L137.97 232.8H141.33" stroke="#263238" strokeLinecap="round" strokeLinejoin="round"/>
<path d="M130.08 235.2H142.25C142.25 235.2 140.88 241.33 136.39 241.33C131.29 241.33 130.08 235.2 130.08 235.2Z" fill="#C53F3F" stroke="#263238" strokeLinecap="round" strokeLinejoin="round"/>
<path d="M155.91 229.83L158.31 232.8H154.95" stroke="#263238" strokeLinecap="round" strokeLinejoin="round"/>
<path d="M164.67 229.83L162.27 232.8H165.63" stroke="#263238" strokeLinecap="round" strokeLinejoin="round"/>
<path d="M154.38 235.2H166.55C166.55 235.2 165.17 241.33 160.69 241.33C155.58 241.33 154.38 235.2 154.38 235.2Z" fill="#C53F3F" stroke="#263238" strokeLinecap="round" strokeLinejoin="round"/>
<path d="M178.94 229.83L181.34 232.8H177.98" stroke="#263238" strokeLinecap="round" strokeLinejoin="round"/>
<path d="M187.69 229.83L185.3 232.8H188.65" stroke="#263238" strokeLinecap="round" strokeLinejoin="round"/>
<path d="M177.41 235.2H189.58C189.58 235.2 188.2 241.33 183.71 241.33C178.61 241.33 177.41 235.2 177.41 235.2Z" fill="#C53F3F" stroke="#263238" strokeLinecap="round" strokeLinejoin="round"/>
<path d="M87.78 207.26L92.72 202.97V189.57H171.59V214.2H92.72V207.5L87.78 207.26Z" fill="#C53F3F" stroke="#263238" strokeLinecap="round" strokeLinejoin="round"/>
<path d="M128.37 197.06H130.05V204.67H134.77V206.09H128.37V197.06Z" fill="#263238"/>
<path d="M135.32 202.64C135.294 201.909 135.487 201.187 135.875 200.566C136.263 199.945 136.827 199.455 137.495 199.157C138.164 198.86 138.906 198.769 139.627 198.896C140.347 199.024 141.013 199.363 141.539 199.872C142.065 200.381 142.427 201.035 142.578 201.751C142.73 202.467 142.663 203.212 142.388 203.89C142.113 204.568 141.642 205.148 141.034 205.556C140.427 205.964 139.712 206.182 138.98 206.18C138.503 206.206 138.025 206.134 137.577 205.967C137.129 205.8 136.72 205.542 136.377 205.21C136.033 204.877 135.762 204.477 135.58 204.035C135.398 203.593 135.31 203.118 135.32 202.64ZM141.03 202.64C140.999 202.254 140.856 201.886 140.62 201.579C140.384 201.272 140.063 201.041 139.698 200.913C139.332 200.785 138.938 200.766 138.562 200.858C138.185 200.949 137.844 201.149 137.579 201.431C137.314 201.713 137.136 202.066 137.068 202.447C136.999 202.828 137.043 203.221 137.194 203.578C137.344 203.934 137.595 204.24 137.915 204.457C138.236 204.674 138.613 204.793 139 204.8C139.277 204.801 139.55 204.744 139.804 204.634C140.058 204.524 140.286 204.362 140.474 204.159C140.662 203.956 140.806 203.716 140.896 203.455C140.987 203.193 141.022 202.916 141 202.64H141.03Z" fill="#263238"/>
<path d="M143.64 202.64C143.612 201.906 143.804 201.181 144.192 200.558C144.579 199.934 145.144 199.441 145.814 199.141C146.485 198.841 147.229 198.749 147.952 198.875C148.675 199.002 149.344 199.342 149.872 199.851C150.401 200.361 150.765 201.017 150.917 201.735C151.07 202.453 151.004 203.201 150.729 203.881C150.453 204.562 149.98 205.144 149.371 205.554C148.762 205.963 148.044 206.182 147.31 206.18C146.832 206.208 146.353 206.136 145.904 205.97C145.455 205.803 145.045 205.546 144.7 205.213C144.356 204.881 144.083 204.481 143.901 204.038C143.718 203.595 143.63 203.119 143.64 202.64ZM149.36 202.64C149.329 202.255 149.187 201.887 148.952 201.581C148.716 201.275 148.397 201.044 148.032 200.915C147.668 200.786 147.274 200.766 146.899 200.856C146.523 200.947 146.182 201.144 145.916 201.424C145.65 201.704 145.471 202.055 145.4 202.435C145.33 202.815 145.371 203.207 145.518 203.564C145.665 203.921 145.913 204.228 146.231 204.447C146.549 204.667 146.924 204.789 147.31 204.8C147.591 204.808 147.87 204.757 148.13 204.649C148.39 204.542 148.624 204.381 148.817 204.178C149.011 203.974 149.159 203.732 149.252 203.467C149.346 203.202 149.383 202.92 149.36 202.64Z" fill="#263238"/>
<path d="M155.35 203.13L154.15 204.27V206.09H152.54V196.51H154.15V202.3L157.5 199.2H159.43L156.55 202.09L159.7 206.09H157.7L155.35 203.13Z" fill="#263238"/>
<path d="M160.46 205.17C160.46 204.972 160.519 204.779 160.628 204.614C160.738 204.45 160.895 204.322 161.077 204.246C161.26 204.17 161.461 204.151 161.655 204.189C161.849 204.228 162.027 204.323 162.167 204.463C162.307 204.603 162.402 204.781 162.441 204.975C162.479 205.169 162.46 205.37 162.384 205.553C162.308 205.735 162.18 205.892 162.016 206.002C161.851 206.111 161.658 206.17 161.46 206.17C161.195 206.17 160.94 206.065 160.753 205.877C160.565 205.69 160.46 205.435 160.46 205.17ZM160.55 197.06H162.46L162.13 203.06H160.86L160.55 197.06Z" fill="#263238"/>
<path d="M112.18 210.99C117.001 210.99 120.91 207.081 120.91 202.26C120.91 197.439 117.001 193.53 112.18 193.53C107.359 193.53 103.45 197.439 103.45 202.26C103.45 207.081 107.359 210.99 112.18 210.99Z" fill="white" stroke="#263238" strokeLinecap="round" strokeLinejoin="round"/>
<path d="M107.87 197.48L110.14 200.29H106.97" stroke="#263238" strokeLinecap="round" strokeLinejoin="round"/>
<path d="M116.16 197.48L113.89 200.29H117.07" stroke="#263238" strokeLinecap="round" strokeLinejoin="round"/>
<path d="M106.42 202.56H117.94C117.94 202.56 116.64 208.37 112.39 208.37C107.56 208.37 106.42 202.56 106.42 202.56Z" fill="#C53F3F" stroke="#263238" strokeLinecap="round" strokeLinejoin="round"/>
<path d="M238.56 83.78V237.72" stroke="#263238" strokeLinecap="round" strokeLinejoin="round"/>
<path d="M221.37 158.13H398.79" stroke="#263238" strokeLinecap="round" strokeLinejoin="round"/>
<path d="M362.73 83.78V205.48" stroke="#263238" strokeLinecap="round" strokeLinejoin="round"/>
<path d="M314.26 106.97L328.36 92.8701" stroke="#263238" strokeLinecap="round" strokeLinejoin="round"/>
<path d="M318.29 129.33L332.39 115.23" stroke="#263238" strokeLinecap="round" strokeLinejoin="round"/>
<path d="M310.08 118.13L342.49 85.72" stroke="#263238" strokeLinecap="round" strokeLinejoin="round"/>
<path d="M386.77 187.53L400.87 173.43" stroke="#263238" strokeLinecap="round" strokeLinejoin="round"/>
<path d="M382.59 198.69L415 166.28" stroke="#263238" strokeLinecap="round" strokeLinejoin="round"/>
<path d="M241.98 211.47C251.159 211.47 258.6 204.029 258.6 194.85C258.6 185.671 251.159 178.23 241.98 178.23C232.801 178.23 225.36 185.671 225.36 194.85C225.36 204.029 232.801 211.47 241.98 211.47Z" fill="white" stroke="#263238" strokeLinecap="round" strokeLinejoin="round"/>
<path d="M248.43 204.71L242 201.35L235.58 204.74L236.79 197.59L231.58 192.54L238.76 191.47L241.95 184.96L245.18 191.46L252.36 192.48L247.18 197.56L248.43 204.71Z" fill="#C53F3F"/>
<path d="M350.29 183.06C359.469 183.06 366.91 175.619 366.91 166.44C366.91 157.261 359.469 149.82 350.29 149.82C341.111 149.82 333.67 157.261 333.67 166.44C333.67 175.619 341.111 183.06 350.29 183.06Z" fill="white" stroke="#263238" strokeLinecap="round" strokeLinejoin="round"/>
<path d="M341.6 157.26L346.17 162.93H339.76" stroke="#263238" strokeLinecap="round" strokeLinejoin="round"/>
<path d="M358.32 157.26L353.75 162.93H360.15" stroke="#263238" strokeLinecap="round" strokeLinejoin="round"/>
<path d="M338.67 167.51H361.92C361.92 167.51 359.29 179.23 350.72 179.23C341 179.23 338.67 167.51 338.67 167.51Z" fill="#C53F3F" stroke="#263238" strokeLinecap="round" strokeLinejoin="round"/>
<path d="M281.77 146.09C290.949 146.09 298.39 138.649 298.39 129.47C298.39 120.291 290.949 112.85 281.77 112.85C272.591 112.85 265.15 120.291 265.15 129.47C265.15 138.649 272.591 146.09 281.77 146.09Z" fill="white" stroke="#263238" strokeLinecap="round" strokeLinejoin="round"/>
<path d="M278.07 124.52C278.07 125.77 277.74 126.77 277.33 126.77C276.92 126.77 276.58 125.77 276.58 124.52C276.58 123.27 276.91 122.28 277.33 122.28C277.75 122.28 278.07 123.28 278.07 124.52Z" fill="#263238"/>
<path d="M288 124.52C288 125.77 287.66 126.77 287.25 126.77C286.84 126.77 286.5 125.77 286.5 124.52C286.5 123.27 286.83 122.28 287.25 122.28C287.67 122.28 288 123.28 288 124.52Z" fill="#263238"/>
<path d="M271.27 129.47C271.27 129.47 273.74 137.84 281.77 138.1C289.8 138.36 291.7 129.47 291.7 129.47" fill="white"/>
<path d="M271.27 129.47C271.27 129.47 273.74 137.84 281.77 138.1C289.8 138.36 291.7 129.47 291.7 129.47" stroke="#263238" strokeLinecap="round" strokeLinejoin="round"/>
<path d="M181.37 330.78C181.37 330.78 159.11 336.46 139.93 362.78C139.93 362.78 129.75 360.41 128.09 363.72C126.43 367.03 137.09 367.99 137.09 367.99C137.09 367.99 150.09 394.99 173.09 397.59C173.09 397.59 174.52 406.59 176.65 406.82C178.78 407.05 181.38 398.06 181.38 398.06C181.38 398.06 209.14 392.49 218.38 376.69C218.34 376.66 203.63 332.43 181.37 330.78Z" fill="white"/>
<path d="M153.58 364.46C153.58 364.46 164.89 363.4 183.21 377.16" stroke="#263238" strokeLinecap="round" strokeLinejoin="round"/>
<path d="M158.6 358C158.6 358 167.44 358.63 171.83 365.5" stroke="#263238" strokeLinecap="round" strokeLinejoin="round"/>
<path d="M181.37 330.78C181.37 330.78 159.11 336.46 139.93 362.78C139.93 362.78 129.75 360.41 128.09 363.72C126.43 367.03 137.09 367.99 137.09 367.99C137.09 367.99 150.09 394.99 173.09 397.59C173.09 397.59 174.52 406.59 176.65 406.82C178.78 407.05 181.38 398.06 181.38 398.06C181.38 398.06 209.14 392.49 218.38 376.69C218.34 376.66 203.63 332.43 181.37 330.78Z" stroke="#263238" strokeLinecap="round" strokeLinejoin="round"/>
<path d="M288.17 426.83C299.07 426.05 309.64 423.57 319.08 418.44C341.45 406.29 353.55 381.57 357.4 357.2C361.18 333.2 364.13 305.41 370.7 286.6C379.13 262.46 374.42 237.41 349.96 223.92C333.33 214.75 313.09 213.1 294.66 217.7C276.58 222.22 254.83 233.7 243.81 249.07C230.81 267.3 222.81 287.72 207.14 304.42C190.23 322.42 169.73 338.31 172.67 365.88C176.1 398.15 209.49 415.28 237.83 421.62C253.49 425.12 271.24 428 288.17 426.83Z" fill="#C53F3F"/>
<path d="M287.91 427.45C298.82 426.67 309.38 424.19 318.82 419.06C341.19 406.91 353.29 382.19 357.14 357.82C360.92 333.82 363.87 306.03 370.44 287.21C378.87 263.08 374.16 238.03 349.7 224.54C333.07 215.37 312.83 213.72 294.4 218.32C276.32 222.84 254.57 234.32 243.55 249.69C230.55 267.92 222.55 288.34 206.88 305.04C189.97 323.04 169.47 338.93 172.41 366.5C175.84 398.77 209.23 415.9 237.57 422.24C253.23 425.74 271 428.65 287.91 427.45Z" stroke="#263238" strokeLinecap="round" strokeLinejoin="round"/>
<path d="M338.26 271.39C341.913 267.77 345.935 264.542 350.26 261.76" stroke="#263238" strokeLinecap="round" strokeLinejoin="round"/>
<path d="M321.5 261.76C321.5 261.76 323.82 249.4 331.73 242.76" stroke="#263238" strokeLinecap="round" strokeLinejoin="round"/>
<path opacity="0.1" d="M313 246.71C319.92 239 331.74 227.71 340 232.65C343.46 240.84 333.41 249.34 334.8 258.12C335.26 261 336.91 263.53 338.37 266.05C343.352 274.742 346.474 284.374 347.538 294.336C348.602 304.298 347.584 314.372 344.55 323.92C342.66 329.76 340 335.39 339.08 341.45C337.86 349.5 339.08 357.19 335.19 364.64C331.42 371.85 325.29 377.64 318.93 382.55C297.45 399.27 272.49 407.74 245.68 410.33C236.281 411.227 226.798 410.151 217.84 407.17C215.6 406.42 213.28 405.48 211.84 403.64C209.1 400.24 210.29 394.9 213.28 391.72C216.27 388.54 220.55 386.98 224.67 385.53C234.73 382 245 378.37 254.24 373C263.48 367.63 271.95 360.2 276.85 350.63C282.13 340.31 282.96 328.36 283.42 316.78C284.14 298.91 284.22 280.83 280.27 263.4C278.85 257.09 279.03 245.4 285.27 240.97C291.93 236.17 306.94 243.28 313 246.71Z" fill="black"/>
<path d="M337.11 306C337.11 306 338.41 296.2 340.84 296.58C343.27 296.96 345.34 306 345.34 306C345.34 306 369.34 332.6 363.02 357.95C363.02 357.95 368.2 364.65 367.53 365.52C365.73 367.86 359.11 365.52 359.11 365.52C359.11 365.52 333.69 385.7 311.21 387.8C311.21 387.8 307.77 394.8 305.57 394.42C303.37 394.04 305.57 382.99 305.57 382.99C305.57 382.99 289.85 359.53 294.32 336.3C294.32 336.3 288.46 332.46 290.15 330.05C291.84 327.64 298.05 328.91 298.05 328.91C298.05 328.91 312.7 310.49 337.11 306Z" fill="white"/>
<path d="M315.16 338.4C315.16 338.4 327.63 336 342 354.21" stroke="#263238" strokeLinecap="round" strokeLinejoin="round"/>
<path d="M332.17 337C337.75 337.8 345.4 340.68 352.99 349.21" stroke="#263238" strokeLinecap="round" strokeLinejoin="round"/>
<path d="M337.11 306C337.11 306 338.41 296.2 340.84 296.58C343.27 296.96 345.34 306 345.34 306C345.34 306 369.34 332.6 363.02 357.95C363.02 357.95 368.2 364.65 367.53 365.52C365.73 367.86 359.11 365.52 359.11 365.52C359.11 365.52 333.69 385.7 311.21 387.8C311.21 387.8 307.77 394.8 305.57 394.42C303.37 394.04 305.57 382.99 305.57 382.99C305.57 382.99 289.85 359.53 294.32 336.3C294.32 336.3 288.46 332.46 290.15 330.05C291.84 327.64 298.05 328.91 298.05 328.91C298.05 328.91 312.7 310.49 337.11 306Z" stroke="#263238" strokeLinecap="round" strokeLinejoin="round"/>
<path d="M302.82 350.91C310.215 334.307 316.434 317.205 321.43 299.73C329.85 270.39 331.24 261.5 331.24 261.5C331.24 261.5 314.65 250 302.89 246.28C291.13 242.56 258.84 244.41 253.21 245.18C247.58 245.95 249.91 250.57 249.91 250.57L256.64 275.07L258.38 279.99L258.6 332.53C258.6 332.53 268.09 355.15 302.82 350.91Z" fill="#C53F3F"/>
<path opacity="0.3" d="M302.82 350.91C310.215 334.307 316.434 317.205 321.43 299.73C329.85 270.39 330.88 260.95 330.88 260.95C330.88 260.95 314.65 249.95 302.88 246.28C291.11 242.61 258.83 244.41 253.2 245.18C247.57 245.95 249.9 250.57 249.9 250.57L256.63 275.07L258.37 279.99L258.59 332.53C258.59 332.53 268.09 355.15 302.82 350.91Z" fill="black"/>
<path d="M129.9 420.73C124.062 423.05 118 424.759 111.81 425.83C106.144 427.041 100.252 426.628 94.81 424.64C90.1423 422.616 86.0624 419.445 82.95 415.42C79.95 411.75 77.25 408.21 76.04 403.53C75.7375 402.676 75.713 401.749 75.97 400.88C77.89 395.88 91.22 406.01 93.73 407.38C103.156 412.476 114.08 414.073 124.57 411.89C125.29 414.91 128.44 418 129.9 420.73Z" fill="white"/>
<path d="M129.9 420.73C124.062 423.05 118 424.759 111.81 425.83C106.144 427.041 100.252 426.628 94.81 424.64C90.1423 422.616 86.0624 419.445 82.95 415.42C79.95 411.75 77.25 408.21 76.04 403.53C75.7375 402.676 75.713 401.749 75.97 400.88C77.89 395.88 91.22 406.01 93.73 407.38C103.156 412.476 114.08 414.073 124.57 411.89C125.29 414.91 128.44 418 129.9 420.73Z" stroke="#263238" strokeLinecap="round" strokeLinejoin="round"/>
<path d="M281.43 244.67C281.43 244.67 283.43 252.21 291.63 251.43C299.63 252.43 303.11 247.33 303.11 247.33C303.11 247.33 302.11 241.6 303.06 237.72C304.008 234.314 305.177 230.974 306.56 227.72C306.56 227.72 310.47 227.87 312.68 226.46C314.89 225.05 317.58 219.26 317.25 212.16C316.92 205.06 309 194.85 309 194.85L298.61 192.27L284.39 192.71L281.62 195L276.74 203.37C276.402 204.225 276.19 205.124 276.11 206.04C276.237 207.44 276.16 208.852 275.88 210.23C275.46 211.38 273.79 214.1 273.39 216.8C272.99 219.5 275 230.31 275 230.31C275 230.31 275.81 235.13 278.65 235.55C279.924 236.214 281.311 236.634 282.74 236.79C283.076 237.12 283.315 237.537 283.429 237.994C283.544 238.451 283.531 238.93 283.39 239.38C282.905 241.201 282.249 242.972 281.43 244.67Z" fill="white"/>
<path d="M258.32 277.87C258.32 277.87 256.7 252.82 250.52 246.28L239.87 265.66L249.42 280.4L258.32 277.87Z" fill="#263238"/>
<path d="M292.06 212.41C292.06 212.41 297.12 208.24 300.41 213.55C300.41 213.55 296 211.4 292.06 212.41Z" fill="#263238"/>
<path d="M295.69 202.31C295.901 203.792 296.537 205.181 297.523 206.309C298.508 207.436 299.799 208.253 301.24 208.66" stroke="#263238" strokeLinecap="round" strokeLinejoin="round"/>
<path d="M287.45 209C286.928 210.028 286.215 210.948 285.35 211.71C284.775 212.251 284.094 212.666 283.35 212.93C282.35 213.26 281.15 213.17 280.15 213.6C280.048 213.635 279.958 213.697 279.89 213.78C279.816 213.893 279.778 214.025 279.78 214.16C279.734 214.93 279.881 215.699 280.207 216.397C280.534 217.096 281.03 217.702 281.65 218.16" stroke="#263238" strokeLinecap="round" strokeLinejoin="round"/>
<path d="M283.36 210.21C283.36 210.21 284.65 204.21 278.69 205.74C279.741 206.11 280.702 206.7 281.507 207.471C282.312 208.242 282.944 209.176 283.36 210.21Z" fill="#263238"/>
<path d="M280.38 202.31C280.38 202.31 284.9 202.25 286.58 200.31" stroke="#263238" strokeLinecap="round" strokeLinejoin="round"/>
<path d="M278.69 221.18C278.69 221.18 282.14 224 285.63 222.88C288.241 221.965 290.767 220.824 293.18 219.47C293.18 219.47 288.29 228.26 284.44 227.74C280.59 227.22 278.69 221.18 278.69 221.18Z" fill="#263238"/>
<path d="M302.82 197.68L287.5 193.2L281.72 195L276.72 203.37C276.309 204.2 276.093 205.113 276.09 206.04V208.71C276.082 209.636 275.867 210.548 275.46 211.38L274.03 214.28C273.57 215.211 273.353 216.243 273.4 217.28C273.57 221.814 274.155 226.323 275.15 230.75C275.74 232.97 278.83 236.41 281.09 236.75C284.74 237.39 291.59 235.75 291.59 235.75C292.373 235.749 293.148 235.585 293.864 235.268C294.58 234.951 295.222 234.489 295.75 233.91L300.41 228.8" stroke="#263238" strokeLinecap="round" strokeLinejoin="round"/>
<path d="M305.83 220.47C305.83 220.47 312.48 214.02 315.7 216.24C318.92 218.46 314.89 226.31 310.76 227.51C309.646 227.865 308.442 227.819 307.359 227.378C306.275 226.938 305.381 226.132 304.83 225.1" stroke="#263238" strokeLinecap="round" strokeLinejoin="round"/>
<path d="M307.66 218.6C306.905 218.7 306.137 218.652 305.4 218.46C305.03 218.368 304.695 218.172 304.433 217.896C304.17 217.62 303.993 217.274 303.92 216.9C303.916 216.209 304.13 215.534 304.53 214.97C305.561 213.061 306.264 210.992 306.61 208.85C306.681 208.663 306.681 208.457 306.61 208.27C306.476 208.108 306.294 207.993 306.09 207.94C305.614 207.714 305.193 207.386 304.856 206.98C304.519 206.574 304.275 206.1 304.14 205.59C303.881 204.568 303.769 203.514 303.81 202.46C303.81 201.03 303.81 199.61 304.81 198.69L286.34 193.09L281.62 195C281.62 195 275.77 195 274.36 189.16C272.95 183.32 278.59 183.38 278.59 183.38C278.59 183.38 277.86 177.12 283.38 175.09C288.9 173.06 290.15 182.09 298.38 184C306.61 185.91 321.57 185 325.12 197.16C329.12 210.87 325.52 222.21 315.12 223.66C315.12 223.66 318.53 218.19 315.6 216.26C312.67 214.33 307.66 218.6 307.66 218.6Z" fill="#263238"/>
<path d="M293.38 183.69C293.38 183.69 289.03 180.45 289.68 177.38C290.33 174.31 294.06 173.83 296.35 176.38C298.64 178.93 299.77 183.54 306.09 185.54C312.41 187.54 296.57 188.04 296.57 188.04L293.38 183.69Z" fill="#263238"/>
<path opacity="0.31" d="M319.64 208.28C319.097 210.442 318.294 212.531 317.25 214.5" stroke="white" strokeLinecap="round" strokeLinejoin="round"/>
<path opacity="0.31" d="M289.73 179.93C289.93 181.156 290.373 182.329 291.034 183.38C291.696 184.432 292.561 185.339 293.58 186.05C295.627 187.451 297.886 188.515 300.27 189.2C302.91 190.08 305.6 190.84 308.27 191.48C310.609 191.865 312.867 192.639 314.95 193.77C318.39 195.94 320.13 200.18 320.1 204.25C320.1 204.66 320.1 205.07 320.05 205.48" stroke="white" strokeLinecap="round" strokeLinejoin="round"/>
<path opacity="0.31" d="M281.4 179.69C280.938 181.831 281.089 184.058 281.836 186.117C282.582 188.176 283.894 189.982 285.62 191.33" stroke="white" strokeLinecap="round" strokeLinejoin="round"/>
<path d="M248.49 268.87C248.75 270.38 248.13 271.75 247.12 271.92C246.11 272.09 245.07 271 244.82 269.49C244.57 267.98 245.18 266.62 246.19 266.44C247.2 266.26 248.24 267.36 248.49 268.87Z" stroke="#263238" strokeLinecap="round" strokeLinejoin="round"/>
<path d="M232.51 260.95L251.54 263.32L256.38 301.59L237.36 297.49L232.51 260.95Z" fill="white"/>
<path d="M232.51 260.95L251.54 263.32L256.38 301.59L237.36 297.49L232.51 260.95Z" stroke="#263238" strokeLinecap="round" strokeLinejoin="round"/>
<path d="M232.17 260.63L235.1 258.83L254.2 260.95L258.38 299.41L256.64 301.97L251.54 263.32L232.17 260.63Z" fill="#263238"/>
<path d="M258.32 306.38L258.6 332.53C258.6 332.53 264.75 354.53 302.82 350.91L305.21 347.66" stroke="#263238" strokeLinecap="round" strokeLinejoin="round"/>
<path d="M254.96 278.72L258.32 277.87V283.78" stroke="#263238" strokeLinecap="round" strokeLinejoin="round"/>
<path d="M233.15 269.09C233.15 269.09 228.28 268.97 226.15 270.77C224.02 272.57 221.15 277.92 221.41 281.86C221.67 285.8 222.1 287.77 224.68 289.78C227.26 291.79 245.53 290.1 248.54 282.7C244.338 282.644 240.151 283.22 236.12 284.41C230.39 286.32 239.65 280.22 239.65 280.22C239.65 280.22 246.14 276.87 247.48 275.62C248.82 274.37 248.53 270.19 248.53 270.19C248.53 270.19 250.16 268.05 248.87 266.87C247.889 266.118 246.696 265.695 245.46 265.66L233.91 271.18L233.15 269.09Z" fill="white"/>
<path d="M233.61 269.18C231.485 268.766 229.283 269.035 227.32 269.95C223.89 271.47 221.8 279.27 221.8 279.27C221.191 281.625 221.191 284.095 221.8 286.45C221.8 286.45 223.95 293.4 234.8 290.1" stroke="#263238" strokeLinecap="round" strokeLinejoin="round"/>
<path d="M227.7 274.13L245.42 265.66C245.42 265.66 248.83 266.22 249.42 267.51C250.01 268.8 238.11 276.51 232.53 277.87" stroke="#263238" strokeLinecap="round" strokeLinejoin="round"/>
<path d="M248.49 268.87C248.49 268.87 248.64 273.37 247.68 275.28C246.72 277.19 236.86 281.28 236.86 281.28" stroke="#263238" strokeLinecap="round" strokeLinejoin="round"/>
<path d="M239.87 283.78C239.87 283.78 247.22 281.56 248.5 282.7C249.78 283.84 242.68 286.45 242.68 286.45" stroke="#263238" strokeLinecap="round" strokeLinejoin="round"/>
<path d="M300.41 351.32C300.41 351.32 306 367.71 295 379.85C284 391.99 184.3 419.2 125.46 423.24L122.15 411.84L251.4 358.1L248.5 355.21L212 335L210.55 378.49L194.9 384.4C194.9 384.4 173.97 319.74 172.9 305.32C171.83 290.9 184.9 283.09 197.42 287.86C209.94 292.63 246.33 309.07 258.36 324.24L258.64 332.54C258.64 332.54 262.82 352.21 300.41 351.32Z" fill="#263238"/>
<path d="M251 358.02L265.64 351.67" stroke="white" strokeLinecap="round" strokeLinejoin="round"/>
<path d="M248.54 353.66C248.511 350.304 248.972 346.962 249.91 343.74" stroke="white" strokeLinecap="round" strokeLinejoin="round"/>
<path d="M197.42 309.21C197.42 309.21 211 319.22 212 335" stroke="white" strokeLinecap="round" strokeLinejoin="round"/>
<path d="M283.36 236.94C283.642 239.396 283.211 241.882 282.12 244.1C282.12 244.1 255.44 242.67 250.52 246.28L242 261" stroke="#263238" strokeLinecap="round" strokeLinejoin="round"/>
<path d="M289.73 251.13C282.05 249.24 281.32 244.25 281.32 244.25L275.65 243.88C275.65 243.88 278.17 255.4 288.9 257.27C299.63 259.14 309.75 249.36 309.75 249.36C306.05 247.63 303.51 246.53 303.51 246.53C303.51 246.53 297.41 253 289.73 251.13Z" fill="#263238"/>
<path d="M332.71 307.7C332.71 307.7 312.88 314.07 303.11 299.78L305.18 281.93C308.07 275.77 316.03 262.11 330.13 260.3C337 265.35 333.63 299.17 332.71 307.7Z" fill="#263238"/>
<path d="M328.72 308.68C328.72 308.68 325.12 336.73 312.83 348.68C312.83 348.68 298.03 348.05 286.6 340.74C275.17 333.43 268.86 317.94 259.88 307.29C259.88 307.29 248.53 308.41 245.27 306.36C241.963 303.974 238.8 301.393 235.8 298.63L236.86 294.89L234.8 291V284.9L233.32 283.04L232.51 280.18L235.8 280.79L255 297.4L256.42 298.65L258.16 297.06L256.42 282.19C256.42 282.19 266.15 289.64 267.05 291.8C267.95 293.96 268.94 297.06 268.94 297.06C268.94 297.06 276.75 306.28 282.3 310.34C287.85 314.4 298.06 320.89 301.35 324.23C304.088 318.038 306.469 311.694 308.48 305.23C308.48 305.23 316.44 309.94 328.72 308.68Z" fill="white"/>
<path d="M243.59 296L233.32 283.08L232.51 280.22L236.86 281.22L256.38 298.6L258.12 297.01L256.38 282.14C256.38 282.14 264.65 288.87 266.06 290.29C267.47 291.71 268.9 297.01 268.9 297.01C273.336 302.256 278.262 307.067 283.61 311.38C291.66 317.66 301.18 320.88 307.61 332.48" stroke="#263238" strokeLinecap="round" strokeLinejoin="round"/>
<path d="M234.8 284.94V291.04L239.87 298.65" stroke="#263238" strokeLinecap="round" strokeLinejoin="round"/>
<path d="M236.93 294.25L235.8 298.65C235.8 298.65 243 306.09 246.66 307.15C250.32 308.21 259.51 307.15 259.51 307.15C260.16 307.08 262.56 310.42 262.93 310.86C268.01 316.73 271.24 323.72 275.61 330.05C284.37 342.74 297.51 347.24 312.83 348.7C313.34 348.75 325.36 334.52 328.72 308.7" stroke="#263238" strokeLinecap="round" strokeLinejoin="round"/>
<path d="M301.78 324.23C304.744 318.183 306.98 311.805 308.44 305.23" stroke="#263238" strokeLinecap="round" strokeLinejoin="round"/>
<path d="M306.56 227.3C303.49 233.85 302.12 239.04 302.89 246.3C302.89 246.3 328.46 256.24 331.24 261.52C334.02 266.8 335.7 291.76 332.46 306.87" stroke="#263238" strokeLinecap="round" strokeLinejoin="round"/>
<path d="M282.05 244.4C282.05 244.4 292.7 247.88 295.75 233.96L292.7 235.69L283.7 237.1L282.05 244.4Z" fill="#263238"/>
</svg>
