<svg width="450" height="445" viewBox="0 0 450 445" fill="none" xmlns="http://www.w3.org/2000/svg">
<path d="M449 369.78H1" stroke="#263238" strokeLinecap="round" strokeLinejoin="round"/>
<g opacity="0.3">
<path d="M425.77 13.3042H351.391V126.459H425.77V13.3042Z" fill="white" stroke="black" strokeLinecap="round" strokeLinejoin="round"/>
<path d="M421.499 19.8091H355.672V119.964H421.499V19.8091Z" fill="white" stroke="black" strokeLinecap="round" strokeLinejoin="round"/>
<path d="M403.371 47.3706H373.781V92.3928H403.371V47.3706Z" fill="white" stroke="black" strokeLinecap="round" strokeLinejoin="round"/>
</g>
<g opacity="0.3">
<path d="M51.7207 20.3979H20.5927V67.7526H51.7207V20.3979Z" fill="white" stroke="black" strokeLinecap="round" strokeLinejoin="round"/>
<path d="M49.9302 23.1152H22.3831V65.0239H49.9302V23.1152Z" fill="white" stroke="black" strokeLinecap="round" strokeLinejoin="round"/>
<path d="M42.3488 34.6597H29.9647V53.5009H42.3488V34.6597Z" fill="white" stroke="black" strokeLinecap="round" strokeLinejoin="round"/>
<path d="M98.4781 75.6589H67.35V123.014H98.4781V75.6589Z" fill="white" stroke="black" strokeLinecap="round" strokeLinejoin="round"/>
<path d="M96.6781 78.3872H69.131V120.296H96.6781V78.3872Z" fill="white" stroke="black" strokeLinecap="round" strokeLinejoin="round"/>
<path d="M89.0966 89.9209H76.7125V108.762H89.0966V89.9209Z" fill="white" stroke="black" strokeLinecap="round" strokeLinejoin="round"/>
<path d="M19.7906 81.4792L19.7906 117.193H61.0647V81.4792H19.7906Z" fill="white" stroke="black" strokeLinecap="round" strokeLinejoin="round"/>
<path d="M22.1686 83.5335V115.139H58.696V83.5335H22.1686Z" fill="white" stroke="black" strokeLinecap="round" strokeLinejoin="round"/>
<path d="M32.2213 92.2322V106.441H48.6433V92.2322H32.2213Z" fill="white" stroke="black" strokeLinecap="round" strokeLinejoin="round"/>
<path d="M100.614 1H55.3016V69.9456H100.614V1Z" fill="white" stroke="black" strokeLinecap="round" strokeLinejoin="round"/>
<path d="M98.021 4.96924H57.9126V65.9867H98.021V4.96924Z" fill="white" stroke="black" strokeLinecap="round" strokeLinejoin="round"/>
<path d="M86.9705 21.7568H68.9446V49.1896H86.9705V21.7568Z" fill="white" stroke="black" strokeLinecap="round" strokeLinejoin="round"/>
</g>
<path d="M126.296 200.7H122.127V212.865H126.296V200.7Z" fill="#6E6E6E" stroke="#263238" strokeLinecap="round" strokeLinejoin="round"/>
<path d="M325.504 200.7H321.335V212.865H325.504V200.7Z" fill="#6E6E6E" stroke="#263238" strokeLinecap="round" strokeLinejoin="round"/>
<path d="M331.23 23.864H117.166V201.984H331.23V23.864Z" fill="#6E6E6E" stroke="#263238" strokeLinecap="round" strokeLinejoin="round"/>
<path d="M325.504 28.6357H122.892V197.223H325.504V28.6357Z" fill="#263238" stroke="#263238" strokeLinecap="round" strokeLinejoin="round"/>
<path d="M177.408 161.402C177.408 161.402 180.97 164.527 183.283 158.514C185.596 152.501 188.738 148.638 193.354 146.958C196.962 145.476 200.469 143.688 203.846 141.609C202.671 144.089 201.188 146.359 199.444 148.349C196.926 150.992 193.774 153.645 193.569 155.09C193.364 156.534 193.569 155.807 198.605 155.09L203.64 154.362C203.64 154.362 201.962 157.733 200.283 158.214C198.605 158.695 192.096 159.905 189.363 162.312C186.631 164.719 185.064 167.544 182.444 170.497C179.823 173.45 170.694 178.2 170.694 170.978C170.694 163.756 171.953 161.627 177.408 161.402Z" fill="#263238" stroke="#263238" strokeLinecap="round" strokeLinejoin="round"/>
<path d="M207.454 155.175C207.454 155.175 204.657 145.546 208.974 142.668" stroke="#263238" strokeLinecap="round" strokeLinejoin="round"/>
<path d="M218.859 158.952C218.859 158.952 216.836 158.952 217.087 160.696C217.339 162.44 218.607 166.805 218.607 166.805" stroke="#263238" strokeLinecap="round" strokeLinejoin="round"/>
<path d="M194.268 144.989L193.252 140.046" stroke="#263238" strokeLinecap="round" strokeLinejoin="round"/>
<path d="M175.002 152.554C175.002 152.554 172.969 149.643 173.482 147.899C173.995 146.155 177.277 143.823 178.546 144.989" stroke="#263238" strokeLinecap="round" strokeLinejoin="round"/>
<path d="M173.482 172.915C172.92 171.554 172.765 170.02 173.039 168.548C173.314 167.076 174.004 165.749 175.002 164.772" stroke="#263238" strokeLinecap="round" strokeLinejoin="round"/>
<path d="M179.814 173.503L176.27 173.792" stroke="#263238" strokeLinecap="round" strokeLinejoin="round"/>
<path d="M173.529 89.2361C173.529 89.2361 177.259 93.7297 178.238 95.9766C179.217 98.2234 178.042 90.3595 173.529 89.2361Z" fill="#263238" stroke="#263238" strokeLinecap="round" strokeLinejoin="round"/>
<path d="M271.342 101.487C271.616 103.911 271.445 106.375 270.839 108.719C269.822 112.774 267.304 114.507 267.304 119.418C267.304 124.329 264.507 131.284 264.507 131.284" stroke="#263238" strokeLinecap="round" strokeLinejoin="round"/>
<path d="M251.153 106.665L266.549 106.087C266.871 107.776 266.78 109.534 266.286 111.167C265.793 112.8 264.916 114.245 263.752 115.342C259.732 119.108 250.649 114.764 251.153 106.665Z" fill="#263238" stroke="#263238" strokeLinecap="round" strokeLinejoin="round"/>
<path d="M245.25 105.873L227.672 98.844C227.672 98.844 226.031 108.184 231.122 111.683C238.592 116.894 244.747 107.318 245.25 105.873Z" fill="#263238" stroke="#263238" strokeLinecap="round" strokeLinejoin="round"/>
<path d="M244.457 117.118C244.457 117.118 239.17 122.96 241.324 123.858C242.023 124.087 242.759 124.124 243.473 123.968C244.187 123.812 244.859 123.467 245.436 122.96C245.436 122.96 247.59 127.453 249.353 126.105C251.115 124.757 250.146 118.691 248.961 116.893C248.695 116.486 248.346 116.159 247.944 115.941C247.543 115.724 247.101 115.621 246.658 115.644C246.214 115.666 245.782 115.812 245.398 116.068C245.015 116.325 244.692 116.686 244.457 117.118Z" fill="#263238" stroke="#263238" strokeLinecap="round" strokeLinejoin="round"/>
<path d="M251.33 144.99C250.231 147.057 248.755 148.827 247.003 150.179C245.901 151.098 244.738 151.918 243.525 152.629C241.175 153.988 234.507 150.617 233.136 149.034C232.215 147.564 231.55 145.904 231.178 144.144C230.432 141.32 229.966 137.992 230.395 135.992C230.706 134.889 231.205 133.868 231.863 132.989C232.521 132.109 233.325 131.388 234.227 130.867C235.791 129.815 237.642 129.479 239.412 129.925L248.989 132.675C249.662 132.871 250.27 133.288 250.739 133.876C251.208 134.463 251.517 135.195 251.628 135.981C251.628 136.174 251.684 136.388 251.712 136.612C252.02 139.308 252.253 143.01 251.33 144.99Z" fill="#263238" stroke="#263238" strokeLinecap="round" strokeLinejoin="round"/>
<path d="M242.116 112.186C242.116 112.186 240.158 114.882 235.066 116.69C229.975 118.498 226.441 116.241 225.853 113.534" stroke="#263238" strokeLinecap="round" strokeLinejoin="round"/>
<path d="M251.918 114.411C251.918 114.411 253.783 120.221 260.534 119.761" stroke="#263238" strokeLinecap="round" strokeLinejoin="round"/>
<path d="M247.255 104.75C247.843 104.526 247.843 104.301 247.843 101.829C247.843 99.3578 244.318 97.1003 242.751 95.7522" stroke="#263238" strokeLinecap="round" strokeLinejoin="round"/>
<path d="M249.362 104.3C249.461 103.202 249.878 102.174 250.547 101.379C251.722 99.8067 259.163 98.1697 259.751 98.1697" stroke="#263238" strokeLinecap="round" strokeLinejoin="round"/>
<path d="M238.788 119.14C236.964 120.484 235.063 121.685 233.099 122.735C229.77 124.533 226.049 123.805 226.049 132.172" stroke="#263238" strokeLinecap="round" strokeLinejoin="round"/>
<path d="M251.918 122.96C252.713 125.278 253.766 127.468 255.051 129.476C256.814 131.947 256.226 136.002 255.051 140.496" stroke="#263238" strokeLinecap="round" strokeLinejoin="round"/>
<path d="M266.027 121.815C266.027 121.815 265.439 123.612 262.297 124.286C259.154 124.96 256.226 124.736 256.422 128.106" stroke="#263238" strokeLinecap="round" strokeLinejoin="round"/>
<path d="M221.349 111.266C221.349 111.266 221.741 115.545 224.287 117.343C226.832 119.14 228.791 119.814 227.616 122.061" stroke="#263238" strokeLinecap="round" strokeLinejoin="round"/>
<path d="M223.308 96.2011C222.965 95.6001 222.782 94.8974 222.782 94.179C222.782 93.4606 222.965 92.7578 223.308 92.1568C224.483 89.91 225.462 85.8657 225.07 79.7886" stroke="#263238" strokeLinecap="round" strokeLinejoin="round"/>
<path d="M214.821 109.286C214.821 109.286 217.181 102.985 215.996 99.1649C214.812 95.3453 212.387 89.3003 212.387 89.3003C212.387 89.3003 211.11 93.7191 211.949 95.8482C212.788 97.9773 213.684 100.31 213.684 100.31C213.684 100.31 210.466 100.888 211.315 103.605C212.164 106.323 212.331 103.413 213.18 103.22C214.029 103.027 214.821 109.286 214.821 109.286Z" fill="#263238" stroke="#263238" strokeLinecap="round" strokeLinejoin="round"/>
<path d="M226.049 62.0283C226.049 62.0283 230.357 67.2067 239.963 69.4536" stroke="#263238" strokeLinecap="round" strokeLinejoin="round"/>
<path d="M252.897 70.5767C259.013 72.269 265.375 72.4223 271.547 71.026" stroke="#263238" strokeLinecap="round" strokeLinejoin="round"/>
<path d="M230.161 61.5786L227.028 66.9817" stroke="#263238" strokeLinecap="round" strokeLinejoin="round"/>
<path d="M236.829 64.5103L234.871 70.1273" stroke="#263238" strokeLinecap="round" strokeLinejoin="round"/>
<path d="M255.051 67.656L254.463 73.9471" stroke="#263238" strokeLinecap="round" strokeLinejoin="round"/>
<path d="M264.059 68.1052L263.864 77.0925" stroke="#263238" strokeLinecap="round" strokeLinejoin="round"/>
<path d="M236.242 85.438C236.242 85.438 241.333 88.1342 245.054 89.9316C248.775 91.7291 255.834 91.2797 260.143 90.8304" stroke="#263238" strokeLinecap="round" strokeLinejoin="round"/>
<path d="M262.884 86.0906C262.884 86.0906 253.092 86.3153 250.761 86.0906" stroke="#263238" strokeLinecap="round" strokeLinejoin="round"/>
<path d="M230.74 151.248C230.74 151.248 232.894 154.672 238.041 155.432C241.042 155.911 244.097 155.652 247.003 154.672C247.003 154.672 242.686 159.027 238.041 158.181C233.397 157.336 230.74 151.248 230.74 151.248Z" fill="#263238" stroke="#263238" strokeLinecap="round" strokeLinejoin="round"/>
<path d="M243.982 130.974L244.131 128.352" stroke="#263238" strokeLinecap="round" strokeLinejoin="round"/>
<path d="M251.284 133.766C251.871 133.281 252.384 132.688 252.804 132.012" stroke="#263238" strokeLinecap="round" strokeLinejoin="round"/>
<path d="M231.141 144.144C231.141 144.144 229.378 145.631 229.378 146.68" stroke="#263238" strokeLinecap="round" strokeLinejoin="round"/>
<path d="M235.617 151.035L235.16 152.779" stroke="#263238" strokeLinecap="round" strokeLinejoin="round"/>
<path d="M247.003 150.178L246.873 153.303" stroke="#263238" strokeLinecap="round" strokeLinejoin="round"/>
<path d="M190.062 40.3195H132.749C132.254 40.3195 131.78 40.094 131.43 39.6927C131.08 39.2914 130.884 38.7472 130.884 38.1796C130.884 37.6121 131.08 37.0678 131.43 36.6665C131.78 36.2652 132.254 36.0398 132.749 36.0398H190.062C190.557 36.0398 191.031 36.2652 191.381 36.6665C191.731 37.0678 191.928 37.6121 191.928 38.1796C191.928 38.4606 191.879 38.7389 191.786 38.9985C191.692 39.2581 191.554 39.494 191.381 39.6927C191.208 39.8914 191.002 40.049 190.776 40.1566C190.55 40.2641 190.307 40.3195 190.062 40.3195Z" fill="#6E6E6E" stroke="#263238" strokeLinecap="round" strokeLinejoin="round"/>
<path d="M151.082 35.9651H132.749C132.245 35.9651 131.763 36.1945 131.407 36.6028C131.051 37.0111 130.851 37.5649 130.851 38.1424C130.851 38.7198 131.051 39.2736 131.407 39.6819C131.763 40.0903 132.245 40.3197 132.749 40.3197H151.082V35.9651Z" fill="#C53F3F" stroke="#263238" strokeLinecap="round" strokeLinejoin="round"/>
<path d="M408.239 222.869H41.6121V390.172H408.239V222.869Z" fill="#CFCFCF" stroke="#263238" strokeLinecap="round" strokeLinejoin="round"/>
<path d="M408.239 222.869H41.6121V229.631H408.239V222.869Z" fill="#263238" stroke="#263238" strokeLinecap="round" strokeLinejoin="round"/>
<path d="M280.957 236.618H168.885V380.415H280.957V236.618Z" fill="#CFCFCF" stroke="#263238" strokeLinecap="round" strokeLinejoin="round"/>
<path d="M276.304 242.587H173.538V374.433H276.304V242.587Z" fill="#CFCFCF" stroke="#263238" strokeLinecap="round" strokeLinejoin="round"/>
<path d="M224.921 242.737V374.84" stroke="#263238" strokeLinecap="round" strokeLinejoin="round"/>
<path d="M161.881 325.207H47.4218V380.179H161.881V325.207Z" fill="#A1A1A1" stroke="#263238" strokeLinecap="round" strokeLinejoin="round"/>
<path d="M161.881 233.515H47.4218V288.487H161.881V233.515Z" fill="#A1A1A1" stroke="#263238" strokeLinecap="round" strokeLinejoin="round"/>
<path d="M403.586 233.515H289.126V303.509H403.586V233.515Z" fill="#A1A1A1" stroke="#263238" strokeLinecap="round" strokeLinejoin="round"/>
<path d="M403.586 310.174H289.126V380.168H403.586V310.174Z" fill="#CFCFCF" stroke="#263238" strokeLinecap="round" strokeLinejoin="round"/>
<path d="M362.936 341.18H329.775V349.173H362.936V341.18Z" fill="#263238" stroke="#263238" strokeLinecap="round" strokeLinejoin="round"/>
<path d="M120.365 302.845H87.2037V310.838H120.365V302.845Z" fill="#263238" stroke="#263238" strokeLinecap="round" strokeLinejoin="round"/>
<path d="M415.102 213.518H34.7485V224.559H415.102V213.518Z" fill="#CFCFCF" stroke="#263238" strokeLinecap="round" strokeLinejoin="round"/>
<path d="M391.192 282.111H298.489V303.52H391.192V282.111Z" fill="#263238" stroke="#263238" strokeLinecap="round" strokeLinejoin="round"/>
<path d="M386.828 296.329C386.828 295.559 367.702 294.938 344.118 294.938C320.534 294.938 301.408 295.559 301.408 296.329C301.408 297.099 320.534 297.731 344.118 297.731C367.702 297.731 386.828 297.099 386.828 296.329Z" fill="#CFCFCF" stroke="#263238" strokeLinecap="round" strokeLinejoin="round"/>
<path d="M58.0712 237.163H48.6713V288.134H58.0712V237.163Z" fill="#CFCFCF" stroke="#263238" strokeLinecap="round" strokeLinejoin="round"/>
<path d="M68.9354 237.163H59.5354V288.134H68.9354V237.163Z" fill="#CFCFCF" stroke="#263238" strokeLinecap="round" strokeLinejoin="round"/>
<path d="M161.07 237.163H151.67V288.134H161.07V237.163Z" fill="#CFCFCF" stroke="#263238" strokeLinecap="round" strokeLinejoin="round"/>
<path d="M151.148 237.163H141.748V288.134H151.148V237.163Z" fill="#CFCFCF" stroke="#263238" strokeLinecap="round" strokeLinejoin="round"/>
<path d="M141.226 237.163H131.826V288.134H141.226V237.163Z" fill="#CFCFCF" stroke="#263238" strokeLinecap="round" strokeLinejoin="round"/>
<path d="M131.303 237.163H121.903V288.134H131.303V237.163Z" fill="#CFCFCF" stroke="#263238" strokeLinecap="round" strokeLinejoin="round"/>
<path d="M121.381 237.163H111.981V288.134H121.381V237.163Z" fill="#CFCFCF" stroke="#263238" strokeLinecap="round" strokeLinejoin="round"/>
<path d="M78.8076 236.67L69.7659 239.619L81.9144 288.647L90.9561 285.698L78.8076 236.67Z" fill="#CFCFCF" stroke="#263238" strokeLinecap="round" strokeLinejoin="round"/>
<path d="M121.493 431.867C121.493 431.867 142.279 395.308 146.084 380.618C149.889 365.928 146.895 345.033 145.739 331.798C144.583 318.563 150.271 285.096 150.271 285.096C150.271 285.096 145.086 261.943 147.968 259.953C150.849 257.963 161.023 257.182 165.145 255.587C169.267 253.993 171.719 254.4 175.403 256.518C177.284 257.527 179.063 258.768 180.709 260.22L178.173 264.714L168.483 267.1L174.713 304.408C174.713 304.408 193.625 309.971 194.548 311.822C195.471 313.673 194.66 321.452 192.683 327.957C190.706 334.462 191.648 338.945 188.188 340.261C184.728 341.577 182.649 342.401 182.304 341.192C181.959 339.983 177.576 360.643 174.461 367.127C172.316 371.876 170.544 376.835 169.164 381.945C169.164 381.945 163.821 442.577 164.623 444" fill="white"/>
<path d="M121.493 431.867C121.493 431.867 142.279 395.308 146.084 380.618C149.889 365.928 146.895 345.033 145.739 331.798C144.583 318.563 150.271 285.096 150.271 285.096C150.271 285.096 145.086 261.943 147.968 259.953C150.849 257.963 161.023 257.182 165.145 255.587C169.267 253.993 171.719 254.4 175.403 256.518C177.284 257.527 179.063 258.768 180.709 260.22L178.173 264.714L168.483 267.1L174.713 304.408C174.713 304.408 193.625 309.971 194.548 311.822C195.471 313.673 194.66 321.452 192.683 327.957C190.706 334.462 191.648 338.945 188.188 340.261C184.728 341.577 182.649 342.401 182.304 341.192C181.959 339.983 177.576 360.643 174.461 367.127C172.316 371.876 170.544 376.835 169.164 381.945C169.164 381.945 163.821 442.577 164.623 444" stroke="#263238" strokeLinecap="round" strokeLinejoin="round"/>
<path d="M168.139 272.973C168.139 272.973 159.746 269.924 158.533 268.587C158.64 271.085 159.344 273.502 160.566 275.573C162.599 278.976 162.282 285.962 162.282 285.962L174.312 312.122L181.623 342.882C181.987 341.619 182.229 340.945 182.294 341.191C182.64 342.379 184.719 341.587 188.179 340.261C191.638 338.934 190.715 334.44 192.674 327.956C193.639 324.715 194.316 321.371 194.697 317.974V312.346C194.652 312.166 194.592 311.991 194.52 311.822C193.588 309.971 174.685 304.408 174.685 304.408L169.854 275.295L168.139 272.973Z" fill="#263238" stroke="#263238" strokeLinecap="round" strokeLinejoin="round"/>
<path d="M181.194 325.903L184.738 317.461" stroke="#263238" strokeLinecap="round" strokeLinejoin="round"/>
<path d="M155.409 266.329C157.945 268.762 160.829 270.673 163.933 271.978" stroke="#263238" strokeLinecap="round" strokeLinejoin="round"/>
<path d="M352.156 399.845C352.156 399.845 314.472 361.327 313.764 359.776C313.055 358.225 296.213 309.372 293.294 301.123C290.376 292.874 285.387 291.141 283.037 287.524C280.687 283.908 275.576 268.266 274.261 260.958C272.946 253.651 274.345 247.627 262.138 247.445C249.931 247.263 255.816 245.637 251.545 246.375C247.274 247.114 245.539 252.003 245.539 252.003L257.541 250.291L259.844 251.361C262.148 252.431 262.297 256.176 262.297 256.176C262.297 256.176 264.432 281.651 264.824 286.636C265.216 291.622 267.771 313.106 267.771 313.106C267.771 313.106 252.58 307.018 251.312 306.291C250.043 305.563 245.782 311.726 244.439 317.076C243.096 322.425 246.649 325.635 249.969 330.674C253.289 335.714 259.136 335.938 259.136 335.938L284.557 367.03L314.901 433.162" fill="white"/>
<path d="M352.156 399.845C352.156 399.845 314.472 361.327 313.764 359.776C313.055 358.225 296.213 309.372 293.294 301.123C290.376 292.874 285.387 291.141 283.037 287.524C280.687 283.908 275.576 268.266 274.261 260.958C272.946 253.651 274.345 247.627 262.138 247.445C249.931 247.263 255.816 245.637 251.545 246.375C247.274 247.114 245.539 252.003 245.539 252.003L257.541 250.291L259.844 251.361C262.148 252.431 262.297 256.176 262.297 256.176C262.297 256.176 264.432 281.651 264.824 286.636C265.216 291.622 267.771 313.106 267.771 313.106C267.771 313.106 252.58 307.018 251.312 306.291C250.043 305.563 245.782 311.726 244.439 317.076C243.096 322.425 246.649 325.635 249.969 330.674C253.289 335.714 259.136 335.938 259.136 335.938L284.557 367.03L314.901 433.162" stroke="#263238" strokeLinecap="round" strokeLinejoin="round"/>
<path d="M267.398 291.151C266.016 287.405 264.966 283.509 264.265 279.521C264.526 282.731 264.74 285.341 264.843 286.615C265.207 291.151 267.351 309.382 267.734 312.614C268.536 312.047 269.198 311.672 269.198 311.672C270.051 309.441 270.501 307.036 270.522 304.6C270.569 300.384 269.823 296.8 267.398 291.151Z" fill="#263238" stroke="#263238" strokeLinecap="round" strokeLinejoin="round"/>
<path d="M266.773 332.011C267.09 330.396 264.973 317.771 264.74 316.059C264.609 315.107 266.036 313.844 267.304 312.913C264.721 311.843 252.458 306.932 251.33 306.29C250.202 305.649 245.8 311.726 244.457 317.075C243.114 322.425 246.667 325.635 249.987 330.674C253.307 335.713 259.154 335.938 259.154 335.938L260.292 337.329C263.667 334.954 266.642 332.696 266.773 332.011Z" fill="#263238" stroke="#263238" strokeLinecap="round" strokeLinejoin="round"/>
<path d="M261.914 254.25L266.838 304.311C266.953 305.5 266.653 306.692 266.002 307.627C265.352 308.562 264.405 309.163 263.369 309.297L173.099 320.948C172.062 321.081 171.022 320.736 170.205 319.99C169.389 319.244 168.864 318.158 168.744 316.968L163.839 266.907C163.781 266.316 163.825 265.719 163.968 265.148C164.111 264.577 164.352 264.044 164.675 263.58C164.998 263.116 165.398 262.73 165.851 262.443C166.305 262.156 166.803 261.975 167.318 261.91L257.578 250.269C258.612 250.14 259.65 250.486 260.462 251.232C261.275 251.978 261.797 253.063 261.914 254.25Z" fill="#C53F3F" stroke="#263238" strokeLinecap="round" strokeLinejoin="round"/>
<path d="M188.694 271.576L178.51 272.89L179.704 285.064L189.888 283.749L188.694 271.576Z" fill="#263238" stroke="#263238" strokeLinecap="round" strokeLinejoin="round"/>
<path d="M191.032 295.424L180.847 296.738L182.041 308.912L192.226 307.597L191.032 295.424Z" fill="#263238" stroke="#263238" strokeLinecap="round" strokeLinejoin="round"/>
<path d="M179.707 285.069L169.096 286.438L170.242 298.123L180.853 296.753L179.707 285.069Z" fill="#263238" stroke="#263238" strokeLinecap="round" strokeLinejoin="round"/>
<path d="M200.493 282.376L189.882 283.746L191.028 295.43L201.639 294.06L200.493 282.376Z" fill="#263238" stroke="#263238" strokeLinecap="round" strokeLinejoin="round"/>
<path d="M241.212 294.532C241.058 292.955 240.499 291.466 239.606 290.253C238.714 289.04 237.528 288.158 236.199 287.718C234.869 287.278 233.456 287.301 232.138 287.783C230.82 288.265 229.656 289.185 228.793 290.426C227.931 291.667 227.409 293.174 227.292 294.755C227.176 296.337 227.472 297.923 228.141 299.312C228.811 300.701 229.825 301.831 231.054 302.559C232.283 303.287 233.673 303.58 235.048 303.402C236.89 303.163 238.574 302.094 239.73 300.431C240.886 298.768 241.419 296.646 241.212 294.532Z" fill="#263238" stroke="#263238" strokeLinecap="round" strokeLinejoin="round"/>
<path d="M259.201 262.488C259.045 260.912 258.485 259.424 257.592 258.213C256.699 257.001 255.514 256.121 254.185 255.682C252.856 255.244 251.444 255.267 250.126 255.749C248.809 256.231 247.646 257.15 246.784 258.39C245.921 259.63 245.399 261.136 245.282 262.717C245.166 264.298 245.46 265.883 246.128 267.271C246.796 268.66 247.808 269.791 249.036 270.52C250.264 271.249 251.653 271.545 253.027 271.369C254.872 271.129 256.559 270.06 257.716 268.395C258.874 266.729 259.408 264.605 259.201 262.488Z" fill="#263238" stroke="#263238" strokeLinecap="round" strokeLinejoin="round"/>
<path d="M250.192 278.366C250.036 276.789 249.477 275.302 248.584 274.09C247.691 272.879 246.505 271.998 245.177 271.56C243.848 271.121 242.435 271.144 241.118 271.626C239.801 272.108 238.637 273.027 237.775 274.268C236.913 275.508 236.391 277.014 236.274 278.594C236.157 280.175 236.452 281.76 237.12 283.149C237.788 284.538 238.8 285.668 240.028 286.398C241.256 287.127 242.645 287.422 244.019 287.246C244.933 287.129 245.818 286.806 246.623 286.296C247.428 285.787 248.137 285.1 248.711 284.275C249.284 283.45 249.71 282.503 249.965 281.49C250.219 280.476 250.296 279.414 250.192 278.366Z" fill="#263238" stroke="#263238" strokeLinecap="round" strokeLinejoin="round"/>
<path d="M220.421 284.789L210.237 286.104L210.739 291.228L220.924 289.914L220.421 284.789Z" fill="#263238" stroke="#263238" strokeLinecap="round" strokeLinejoin="round"/>
<path d="M190.165 258.957C194.156 265.035 203.314 268.587 213.478 267.228C223.643 265.869 231.933 260.156 234.656 253.223L190.165 258.957ZM217.283 305.691C207.958 306.89 200.348 311.758 197.001 317.856L239.44 312.389C234.983 307.286 226.571 304.493 217.283 305.691Z" fill="white" stroke="#263238" strokeLinecap="round" strokeLinejoin="round"/>
<path d="M165.313 321.654C165.313 321.654 162.776 303.797 161.396 299.058C160.016 294.318 158.011 290.434 158.748 288.123C159.485 285.812 171.347 281.704 171.347 281.704C171.347 281.704 181.772 272.074 183.152 273.743C184.533 275.413 185.53 280.73 185.484 282.977C185.437 285.224 183.208 288.498 180.821 290.017C178.165 291.998 175.603 294.141 173.146 296.436C173.146 296.436 175.944 312.164 179.497 321.943C183.05 331.722 184.421 350.425 183.367 357.112C182.313 363.799 165.313 382.436 165.313 382.436" fill="white"/>
<path d="M165.313 321.654C165.313 321.654 162.776 303.797 161.396 299.058C160.016 294.318 158.011 290.434 158.748 288.123C159.485 285.812 171.347 281.704 171.347 281.704C171.347 281.704 181.772 272.074 183.152 273.743C184.533 275.413 185.53 280.73 185.484 282.977C185.437 285.224 183.208 288.498 180.821 290.017C178.165 291.998 175.603 294.141 173.146 296.436C173.146 296.436 175.944 312.164 179.497 321.943C183.05 331.722 184.421 350.425 183.367 357.112C182.313 363.799 165.313 382.436 165.313 382.436" stroke="#263238" strokeLinecap="round" strokeLinejoin="round"/>
<path d="M275.119 316.54C275.119 316.54 258.921 298.662 256.151 293.676C253.382 288.691 251.806 291.183 249.363 290.007C246.919 288.83 237.146 287.257 233.034 284.892C228.921 282.528 225.21 289.439 228.278 293.591C231.236 297.451 234.884 300.535 238.974 302.632C242.87 304.691 246.631 307.069 250.23 309.747C250.23 309.747 255.042 325.432 259.154 335.949C263.267 346.466 271.007 362.237 277.171 364.409C280.796 365.703 284.517 366.613 288.287 367.126" fill="white"/>
<path d="M275.119 316.54C275.119 316.54 258.921 298.662 256.151 293.676C253.382 288.691 251.806 291.183 249.363 290.007C246.919 288.83 237.146 287.257 233.034 284.892C228.921 282.528 225.21 289.439 228.278 293.591C231.236 297.451 234.884 300.535 238.974 302.632C242.87 304.691 246.631 307.069 250.23 309.747C250.23 309.747 255.042 325.432 259.154 335.949C263.267 346.466 271.007 362.237 277.171 364.409C280.796 365.703 284.517 366.613 288.287 367.126" stroke="#263238" strokeLinecap="round" strokeLinejoin="round"/>
<path d="M251.852 291.429C251.852 291.429 248.738 294.115 247.637 297.517" stroke="#263238" strokeLinecap="round" strokeLinejoin="round"/>
<rect x="131.62" y="66.1794" width="9.32537" height="35.3073" rx="4.66268" fill="#D9D9D9"/>
<rect x="301.342" y="146.423" width="9.32537" height="35.3073" rx="4.66268" fill="#D9D9D9"/>
<line x1="224.442" y1="67.2498" x2="224.442" y2="181.731" stroke="white"/>
<ellipse cx="294.348" cy="161.937" rx="6.06149" ry="6.95447" fill="#D9D9D9"/>
</svg>
