<svg width="230" height="192" viewBox="0 0 230 192" fill="none" xmlns="http://www.w3.org/2000/svg">
<path d="M182.518 32.2676C187.144 38.0629 192.304 38.9877 198 35.0419C195.61 30.466 195.041 25.4887 195.678 20.2456H184.582C185.074 24.853 184.942 29.1431 182.518 32.2676Z" fill="#FFB8B8"/>
<path d="M200.838 183.929L206.773 180.23L209.353 141.082V120.429L195.678 120.12L199.548 140.774L200.838 183.929Z" fill="#FFB8B8"/>
<path d="M183.635 183.929L177.701 180.23L175.121 141.082V120.429L188.796 120.12L184.925 140.774L183.635 183.929Z" fill="#FFB8B8"/>
<path d="M174.519 124.744L188.969 123.203L191.291 107.482L194.129 122.894L209.869 121.661C210.213 114.171 209.34 106.463 207.289 98.5422L172.713 97.6174L174.519 124.744Z" fill="#2F2E41"/>
<path d="M159.5 65.7029L142.119 49.7133C141.939 49.5473 141.74 49.4113 141.529 49.3087L139.003 48.0808C136.974 47.0946 133.109 43.8142 134.994 40.4364C136.514 37.7131 142.331 42.5916 143.047 44.399C143.273 44.9678 143.644 45.4365 144.106 45.7383L147.639 48.0506C147.724 48.1069 147.813 48.1571 147.904 48.2011L161.352 54.7129C161.725 54.8934 162.128 54.965 162.529 54.9218C162.929 54.8787 163.316 54.7219 163.655 54.4646L166.093 52.6177C166.44 52.3549 166.836 52.1971 167.245 52.1579C167.655 52.1186 168.066 52.1992 168.443 52.3926C168.821 52.586 169.153 52.8863 169.412 53.2677C169.67 53.6491 169.847 54.0999 169.927 54.5813L170.733 59.4398C170.849 60.1393 170.754 60.8654 170.465 61.4893C170.176 62.1132 169.711 62.5948 169.153 62.8488L161.943 66.132C161.539 66.316 161.103 66.3731 160.675 66.298C160.247 66.2228 159.843 66.0179 159.5 65.7029Z" fill="#FFB8B8"/>
<path d="M162.729 54.0531C167.541 52.5114 167.036 60.5432 170.708 64.4924L177.926 57.6842L173.745 33.5005C172.623 33.8834 171.591 34.5727 170.731 35.514C169.87 36.4553 169.205 37.6227 168.787 38.9241L162.729 54.0531Z" fill="#C53F3F"/>
<path d="M171.681 99.1589H208.063C202.175 80.203 202.748 60.707 207.762 40.8399C207.846 40.5101 207.831 40.1555 207.72 39.8373C207.609 39.5191 207.408 39.2573 207.152 39.0969L196.71 32.5757C192.611 35.7622 188.205 34.783 183.55 30.418L172.197 34.117C175.288 56.2925 175.375 78.0125 171.681 99.1589Z" fill="#C53F3F"/>
<path d="M180.778 191.169L165.616 191.937C164.956 191.97 164.309 191.71 163.799 191.208C163.29 190.706 162.954 189.996 162.856 189.215C162.757 188.426 162.908 187.622 163.28 186.96C163.652 186.298 164.218 185.826 164.866 185.636L167.437 184.883L177.545 177.884C179.042 179.737 181.105 181.303 183.625 182.637L183.655 187.558C183.66 188.488 183.364 189.384 182.827 190.057C182.29 190.731 181.556 191.129 180.778 191.169Z" fill="#2F2E41"/>
<path d="M229.9 192H7.20587V190.915H230L229.9 192Z" fill="#3F3D56"/>
<path d="M203.569 190.894L218.731 191.662C219.392 191.695 220.039 191.436 220.548 190.933C221.058 190.431 221.394 189.721 221.492 188.94C221.591 188.152 221.439 187.348 221.067 186.686C220.696 186.023 220.13 185.551 219.482 185.361L216.91 184.608L206.803 177.609C205.305 179.462 203.243 181.028 200.722 182.362L200.693 187.283C200.687 188.213 200.984 189.109 201.521 189.783C202.057 190.456 202.792 190.855 203.569 190.894Z" fill="#2F2E41"/>
<path d="M188.969 25.794C193.529 25.794 197.226 21.3777 197.226 15.9298C197.226 10.482 193.529 6.06567 188.969 6.06567C184.409 6.06567 180.712 10.482 180.712 15.9298C180.712 21.3777 184.409 25.794 188.969 25.794Z" fill="#FFB8B8"/>
<path d="M201.87 96.0762L199.143 102.413C198.902 102.972 198.763 103.586 198.735 104.214C198.707 104.841 198.79 105.469 198.98 106.056C199.17 106.642 199.461 107.174 199.835 107.617C200.209 108.059 200.657 108.402 201.15 108.623C201.672 108.857 202.23 108.948 202.785 108.89C203.34 108.832 203.877 108.626 204.357 108.287C204.836 107.949 205.247 107.486 205.557 106.934C205.867 106.381 206.07 105.752 206.151 105.094L207.289 95.7679L211.417 72.3405L211.159 60.6268H202.903C205.719 69.3392 204.322 82.19 201.87 96.0762Z" fill="#FFB8B8"/>
<path d="M201.612 61.86H212.708L211.097 47.3233C210.879 45.3519 210.25 43.4772 209.27 41.8704C208.289 40.2635 206.987 38.9757 205.483 38.1244L201.612 61.86Z" fill="#C53F3F"/>
<path d="M197.747 10.4965C197.912 9.17876 197.843 7.83431 197.544 6.55074C197.245 5.26716 196.723 4.07327 196.012 3.04683C194.603 1.05532 192.242 -0.574722 188.324 0.194243C179.777 1.87202 177.312 10.3728 178.149 12.5106C178.987 14.6484 181.553 19.6041 181.553 19.6041C181.553 19.6041 179.67 14.6984 181.714 13.6999C183.759 12.7014 191.671 8.76766 194.433 10.5398C195.214 11.0087 195.878 11.7167 196.356 12.5918C196.835 13.4669 197.11 14.4777 197.155 15.5214L197.747 10.4965Z" fill="#2F2E41"/>
<path d="M25.2002 56.6548V53.3766C25.2002 53.3766 37.1745 45.3299 46.9036 53.3766V56.3568L25.2002 56.6548Z" fill="#535461"/>
<path d="M134.216 56.6548V53.3766C134.216 53.3766 146.191 45.3299 155.92 53.3766V56.3568L134.216 56.6548Z" fill="#535461"/>
<path d="M61.1231 56.3569H49.3982C49.3982 56.3569 46.4046 52.1846 36.4261 52.4826C26.4475 52.7807 24.4517 56.3569 24.4517 56.3569C24.4517 56.3569 14.5979 64.2546 12.3527 74.0893C12.3527 74.0893 0.253644 117.452 0.00418057 151.426C-0.245283 185.401 10.7312 190.169 16.4689 191.063C22.2065 191.957 32.4346 190.765 42.4132 160.665L46.6541 143.082C46.6541 143.082 47.4025 132.651 56.3832 139.207C65.364 145.764 73.3468 135.631 73.3468 135.631H107.025C107.025 135.631 118.25 143.976 128.479 137.419C128.479 137.419 132.47 131.161 136.212 152.32C136.212 152.32 147.687 195.832 165.399 191.361C183.111 186.891 181.116 150.532 181.116 150.532C181.116 150.532 178.746 94.9509 169.017 75.2814C169.017 75.2814 159.662 54.8668 153.425 53.9728C153.425 53.9728 139.954 50.9925 134.715 53.6747L131.722 56.655L61.1231 56.3569Z" fill="#E6E6E6"/>
<path d="M33.9315 111.491C45.9179 111.491 55.6349 99.8826 55.6349 85.563C55.6349 71.2434 45.9179 59.635 33.9315 59.635C21.945 59.635 12.228 71.2434 12.228 85.563C12.228 99.8826 21.945 111.491 33.9315 111.491Z" fill="#535461"/>
<path d="M147.188 111.491C159.175 111.491 168.892 99.8826 168.892 85.563C168.892 71.2434 159.175 59.635 147.188 59.635C135.202 59.635 125.485 71.2434 125.485 85.563C125.485 99.8826 135.202 111.491 147.188 111.491Z" fill="#535461"/>
<path d="M37.7133 79.7817L34.8195 82.8395C34.5744 83.0972 34.2591 83.2394 33.9327 83.2394C33.6062 83.2394 33.2909 83.0972 33.0458 82.8395L30.147 79.7817C30.0052 79.6325 29.8915 79.4492 29.8133 79.2437C29.735 79.0383 29.694 78.8154 29.693 78.5896V70.1765C29.6937 69.7517 29.8354 69.3447 30.087 69.0446C30.3386 68.7446 30.6796 68.5761 31.0351 68.5761H36.8352C37.1904 68.5753 37.5315 68.7431 37.7832 69.0427C38.0349 69.3423 38.1766 69.749 38.1773 70.1734V78.5837C38.1757 78.8113 38.1335 79.0359 38.0535 79.2425C37.9735 79.4491 37.8575 79.6329 37.7133 79.7817Z" fill="#E6E6E6"/>
<path d="M37.7133 91.3419L34.8195 88.2871C34.5744 88.0294 34.2591 87.8872 33.9327 87.8872C33.6062 87.8872 33.2909 88.0294 33.0458 88.2871L30.147 91.3448C30.0053 91.4941 29.8915 91.6774 29.8133 91.8829C29.735 92.0883 29.694 92.3112 29.693 92.5369V100.941C29.6923 101.366 29.8329 101.773 30.0836 102.074C30.3344 102.374 30.6748 102.544 31.0301 102.545H36.8352C37.1905 102.545 37.5315 102.377 37.7832 102.078C38.0349 101.778 38.1766 101.372 38.1773 100.947V92.5399C38.1757 92.3123 38.1335 92.0877 38.0535 91.8811C37.9735 91.6745 37.8575 91.4906 37.7133 91.3419Z" fill="#E6E6E6"/>
<path d="M29.0943 90.0872L31.6538 86.6241C31.8696 86.3314 31.9886 85.9547 31.9886 85.5646C31.9886 85.1746 31.8696 84.7979 31.6538 84.5052L29.0943 81.0422C28.9693 80.8729 28.8158 80.7372 28.6439 80.6437C28.4719 80.5502 28.2854 80.5012 28.0965 80.4998H21.0616C20.706 80.5005 20.3653 80.6698 20.1141 80.9704C19.863 81.271 19.7219 81.6784 19.7219 82.1031V89.0321C19.7213 89.4566 19.8618 89.864 20.1125 90.1647C20.3633 90.4654 20.7038 90.6347 21.0591 90.6355H28.099C28.2879 90.6331 28.4742 90.583 28.6457 90.4885C28.8173 90.394 28.9702 90.2572 29.0943 90.0872Z" fill="#E6E6E6"/>
<path d="M38.771 90.0871L36.2165 86.6211C36.0003 86.3286 35.8809 85.9518 35.8809 85.5616C35.8809 85.1714 36.0003 84.7946 36.2165 84.5021L38.776 81.0391C38.9009 80.8697 39.0544 80.7339 39.2264 80.6404C39.3983 80.5469 39.5849 80.4979 39.7739 80.4967H46.8088C47.1641 80.4959 47.5051 80.6638 47.7567 80.9633C48.0084 81.2629 48.1502 81.6697 48.1509 82.0941V89.0291C48.1516 89.4536 48.0111 89.8609 47.7603 90.1616C47.5095 90.4623 47.169 90.6317 46.8138 90.6325H39.7764C39.586 90.6321 39.3978 90.5833 39.2245 90.4893C39.0511 90.3952 38.8965 90.2581 38.771 90.0871Z" fill="#E6E6E6"/>
<path d="M63.3683 132.651C72.0481 132.651 79.0845 124.245 79.0845 113.875C79.0845 103.506 72.0481 95.0999 63.3683 95.0999C54.6884 95.0999 47.652 103.506 47.652 113.875C47.652 124.245 54.6884 132.651 63.3683 132.651Z" fill="#535461"/>
<path d="M117.752 132.651C126.431 132.651 133.468 124.245 133.468 113.875C133.468 103.506 126.431 95.0999 117.752 95.0999C109.072 95.0999 102.035 103.506 102.035 113.875C102.035 124.245 109.072 132.651 117.752 132.651Z" fill="#535461"/>
<path d="M63.3683 126.392C69.1548 126.392 73.8458 120.788 73.8458 113.875C73.8458 106.962 69.1548 101.358 63.3683 101.358C57.5817 101.358 52.8907 106.962 52.8907 113.875C52.8907 120.788 57.5817 126.392 63.3683 126.392Z" fill="#E6E6E6"/>
<path d="M63.3683 122.518C61.9374 122.518 60.5387 122.011 59.349 121.061C58.1593 120.112 57.232 118.762 56.6845 117.183C56.1369 115.603 55.9937 113.866 56.2728 112.189C56.5519 110.513 57.241 108.973 58.2527 107.764C59.2645 106.555 60.5535 105.732 61.9569 105.399C63.3602 105.065 64.8149 105.236 66.1368 105.89C67.4587 106.545 68.5886 107.652 69.3835 109.074C70.1785 110.495 70.6027 112.166 70.6027 113.875C70.6006 116.167 69.8377 118.363 68.4814 119.984C67.1252 121.604 65.2863 122.515 63.3683 122.518ZM63.3683 105.829C62.0361 105.829 60.7339 106.301 59.6262 107.185C58.5186 108.069 57.6553 109.326 57.1455 110.796C56.6357 112.266 56.5023 113.884 56.7622 115.445C57.0221 117.006 57.6635 118.44 58.6055 119.565C59.5475 120.69 60.7477 121.457 62.0542 121.767C63.3608 122.078 64.7151 121.918 65.9459 121.309C67.1766 120.7 68.2286 119.669 68.9687 118.346C69.7088 117.022 70.1038 115.467 70.1038 113.875C70.1018 111.742 69.3915 109.697 68.1288 108.188C66.8661 106.68 65.154 105.831 63.3683 105.829Z" fill="#535461"/>
<path d="M117.752 126.392C123.538 126.392 128.229 120.788 128.229 113.875C128.229 106.962 123.538 101.358 117.752 101.358C111.965 101.358 107.274 106.962 107.274 113.875C107.274 120.788 111.965 126.392 117.752 126.392Z" fill="#E6E6E6"/>
<path d="M117.752 122.518C116.321 122.518 114.922 122.011 113.732 121.061C112.543 120.112 111.615 118.762 111.068 117.183C110.52 115.603 110.377 113.866 110.656 112.189C110.935 110.513 111.624 108.973 112.636 107.764C113.648 106.555 114.937 105.732 116.34 105.399C117.744 105.065 119.198 105.236 120.52 105.89C121.842 106.545 122.972 107.652 123.767 109.074C124.562 110.495 124.986 112.166 124.986 113.875C124.984 116.167 124.221 118.363 122.865 119.984C121.508 121.604 119.67 122.515 117.752 122.518ZM117.752 105.829C116.419 105.829 115.117 106.301 114.01 107.185C112.902 108.069 112.039 109.326 111.529 110.796C111.019 112.266 110.886 113.884 111.146 115.445C111.405 117.006 112.047 118.44 112.989 119.565C113.931 120.69 115.131 121.457 116.438 121.767C117.744 122.078 119.098 121.918 120.329 121.309C121.56 120.7 122.612 119.669 123.352 118.346C124.092 117.022 124.487 115.467 124.487 113.875C124.485 111.742 123.775 109.697 122.512 108.188C121.249 106.68 119.537 105.831 117.752 105.829Z" fill="#535461"/>
<path d="M91.0589 121.326C93.5389 121.326 95.5493 118.924 95.5493 115.961C95.5493 112.999 93.5389 110.597 91.0589 110.597C88.579 110.597 86.5685 112.999 86.5685 115.961C86.5685 118.924 88.579 121.326 91.0589 121.326Z" fill="#535461"/>
<path d="M84.1961 99.2275C84.7376 99.2275 85.1765 98.7031 85.1765 98.0563C85.1765 97.4094 84.7376 96.885 84.1961 96.885C83.6546 96.885 83.2157 97.4094 83.2157 98.0563C83.2157 98.7031 83.6546 99.2275 84.1961 99.2275Z" fill="#535461"/>
<path d="M87.8682 99.2275C88.4096 99.2275 88.8486 98.7031 88.8486 98.0563C88.8486 97.4094 88.4096 96.885 87.8682 96.885C87.3267 96.885 86.8878 97.4094 86.8878 98.0563C86.8878 98.7031 87.3267 99.2275 87.8682 99.2275Z" fill="#535461"/>
<path d="M87.3792 104.786C87.9207 104.786 88.3596 104.261 88.3596 103.614C88.3596 102.967 87.9207 102.443 87.3792 102.443C86.8377 102.443 86.3988 102.967 86.3988 103.614C86.3988 104.261 86.8377 104.786 87.3792 104.786Z" fill="#535461"/>
<path d="M90.8094 104.934C91.3605 104.934 91.8072 104.401 91.8072 103.742C91.8072 103.084 91.3605 102.55 90.8094 102.55C90.2583 102.55 89.8115 103.084 89.8115 103.742C89.8115 104.401 90.2583 104.934 90.8094 104.934Z" fill="#535461"/>
<path d="M94.2345 104.786C94.776 104.786 95.215 104.261 95.215 103.614C95.215 102.967 94.776 102.443 94.2345 102.443C93.6931 102.443 93.2542 102.967 93.2542 103.614C93.2542 104.261 93.6931 104.786 94.2345 104.786Z" fill="#535461"/>
<path d="M85.9099 102.154C86.4514 102.154 86.8903 101.629 86.8903 100.983C86.8903 100.336 86.4514 99.8114 85.9099 99.8114C85.3684 99.8114 84.9295 100.336 84.9295 100.983C84.9295 101.629 85.3684 102.154 85.9099 102.154Z" fill="#535461"/>
<path d="M89.0631 102.252C89.6142 102.252 90.061 101.719 90.061 101.06C90.061 100.402 89.6142 99.8683 89.0631 99.8683C88.512 99.8683 88.0652 100.402 88.0652 101.06C88.0652 101.719 88.512 102.252 89.0631 102.252Z" fill="#535461"/>
<path d="M92.3062 102.252C92.8573 102.252 93.3041 101.719 93.3041 101.06C93.3041 100.402 92.8573 99.8683 92.3062 99.8683C91.7551 99.8683 91.3083 100.402 91.3083 101.06C91.3083 101.719 91.7551 102.252 92.3062 102.252Z" fill="#535461"/>
<path d="M95.7039 102.154C96.2454 102.154 96.6843 101.629 96.6843 100.983C96.6843 100.336 96.2454 99.8114 95.7039 99.8114C95.1624 99.8114 94.7235 100.336 94.7235 100.983C94.7235 101.629 95.1624 102.154 95.7039 102.154Z" fill="#535461"/>
<path d="M90.8094 99.2721C91.3605 99.2721 91.8072 98.7384 91.8072 98.08C91.8072 97.4217 91.3605 96.8879 90.8094 96.8879C90.2583 96.8879 89.8115 97.4217 89.8115 98.08C89.8115 98.7384 90.2583 99.2721 90.8094 99.2721Z" fill="#535461"/>
<path d="M94.3019 99.2721C94.853 99.2721 95.2998 98.7384 95.2998 98.08C95.2998 97.4217 94.853 96.8879 94.3019 96.8879C93.7508 96.8879 93.3041 97.4217 93.3041 98.08C93.3041 98.7384 93.7508 99.2721 94.3019 99.2721Z" fill="#535461"/>
<path d="M97.1732 99.2275C97.7147 99.2275 98.1536 98.7031 98.1536 98.0563C98.1536 97.4094 97.7147 96.885 97.1732 96.885C96.6317 96.885 96.1928 97.4094 96.1928 98.0563C96.1928 98.7031 96.6317 99.2275 97.1732 99.2275Z" fill="#535461"/>
<path d="M53.7637 58.897C53.3023 58.8976 52.8599 59.1168 52.5336 59.5066C52.2073 59.8965 52.0238 60.425 52.0233 60.9762V67.2349C52.0238 67.7862 52.2073 68.3147 52.5336 68.7045C52.8599 69.0943 53.3023 69.3136 53.7637 69.3142H55.0111C55.4726 69.3136 55.915 69.0943 56.2413 68.7045C56.5676 68.3147 56.7511 67.7862 56.7516 67.2349V60.9762C56.7511 60.425 56.5676 59.8965 56.2413 59.5066C55.915 59.1168 55.4726 58.8976 55.0111 58.897H53.7637Z" fill="#535461"/>
<path d="M126.607 58.897C126.146 58.8975 125.704 59.1168 125.377 59.5066C125.051 59.8964 124.867 60.425 124.867 60.9762V67.2349C124.867 67.7862 125.051 68.3147 125.377 68.7046C125.704 69.0944 126.146 69.3136 126.607 69.3142H127.855C128.316 69.3136 128.759 69.0944 129.085 68.7046C129.411 68.3147 129.595 67.7862 129.595 67.2349V60.9762C129.595 60.425 129.411 59.8964 129.085 59.5066C128.759 59.1168 128.316 58.8975 127.855 58.897H126.607Z" fill="#535461"/>
<path d="M147.438 76.9205C150.745 76.9205 153.425 73.7182 153.425 69.7679C153.425 65.8177 150.745 62.6154 147.438 62.6154C144.131 62.6154 141.451 65.8177 141.451 69.7679C141.451 73.7182 144.131 76.9205 147.438 76.9205Z" fill="#E6E6E6"/>
<path d="M134.715 92.1197C138.022 92.1197 140.702 88.9174 140.702 84.9671C140.702 81.0169 138.022 77.8146 134.715 77.8146C131.409 77.8146 128.728 81.0169 128.728 84.9671C128.728 88.9174 131.409 92.1197 134.715 92.1197Z" fill="#E6E6E6"/>
<path d="M160.66 91.2255C163.966 91.2255 166.647 88.0232 166.647 84.073C166.647 80.1227 163.966 76.9204 160.66 76.9204C157.353 76.9204 154.672 80.1227 154.672 84.073C154.672 88.0232 157.353 91.2255 160.66 91.2255Z" fill="#E6E6E6"/>
<path d="M148.436 107.021C151.742 107.021 154.423 103.818 154.423 99.8683C154.423 95.918 151.742 92.7157 148.436 92.7157C145.129 92.7157 142.449 95.918 142.449 99.8683C142.449 103.818 145.129 107.021 148.436 107.021Z" fill="#E6E6E6"/>
<path d="M65.0521 54.7245C63.7143 54.7263 62.4317 55.362 61.4857 56.4921C60.5397 57.6222 60.0076 59.1544 60.0061 60.7527V87.4255C60.0076 89.0238 60.5397 90.556 61.4857 91.6861C62.4317 92.8162 63.7143 93.4519 65.0521 93.4537H116.317C117.655 93.4519 118.937 92.8162 119.883 91.6861C120.829 90.556 121.361 89.0238 121.363 87.4255V60.7527C121.361 59.1544 120.829 57.6222 119.883 56.4921C118.937 55.362 117.655 54.7263 116.317 54.7245H65.0521Z" fill="#535461"/>
<path d="M151.505 73.046H143.386L147.306 65.019L151.505 73.046ZM144.255 72.45H150.605L147.32 66.1718L144.255 72.45Z" fill="#535461"/>
<path d="M138.083 88.5432H131.347V81.3906H138.083V88.5432ZM131.846 87.9471H137.584V81.9867H131.846V87.9471Z" fill="#535461"/>
<path d="M160.66 88.5434C159.92 88.5434 159.196 88.2813 158.581 87.7901C157.965 87.2988 157.486 86.6007 157.202 85.7838C156.919 84.967 156.845 84.0682 156.99 83.201C157.134 82.3338 157.49 81.5373 158.014 80.9121C158.537 80.2869 159.204 79.8612 159.93 79.6887C160.655 79.5162 161.408 79.6047 162.092 79.9431C162.775 80.2814 163.36 80.8544 163.771 81.5895C164.182 82.3247 164.402 83.1889 164.402 84.0731C164.4 85.2583 164.006 86.3946 163.304 87.2326C162.603 88.0707 161.652 88.5421 160.66 88.5434ZM160.66 80.1988C160.018 80.1988 159.391 80.426 158.858 80.8517C158.325 81.2774 157.909 81.8825 157.663 82.5905C157.418 83.2984 157.354 84.0774 157.479 84.8289C157.604 85.5805 157.913 86.2708 158.366 86.8126C158.82 87.3545 159.398 87.7234 160.027 87.8729C160.656 88.0224 161.308 87.9457 161.901 87.6525C162.493 87.3592 163 86.8627 163.356 86.2255C163.712 85.5884 163.903 84.8394 163.903 84.0731C163.902 83.0459 163.56 82.0611 162.952 81.3348C162.344 80.6085 161.519 80.1999 160.66 80.1988Z" fill="#535461"/>
<path d="M145.743 96.3047L145.391 96.7261L151.003 103.432L151.356 103.01L145.743 96.3047Z" fill="#535461"/>
<path d="M151.132 96.2996L145.395 102.857L145.74 103.288L151.477 96.7303L151.132 96.2996Z" fill="#535461"/>
</svg>
