<svg width="232" height="150" viewBox="0 0 232 150" fill="none" xmlns="http://www.w3.org/2000/svg">
<path d="M216.701 105.276C218.404 104.393 220.408 104.28 222.299 104.592C223.314 104.762 224.372 105.067 225.063 105.834C225.754 106.601 225.887 107.946 225.093 108.606C224.62 108.998 223.962 109.058 223.347 109.048C221.869 109.048 220.226 108.769 219.048 109.665C218.387 110.173 217.924 111.023 217.117 111.272C216.311 111.521 215.438 111.05 215.021 110.336C214.636 109.592 214.55 108.728 214.783 107.922C214.878 107.363 215.101 106.833 215.434 106.374C215.766 105.915 216.2 105.539 216.701 105.276Z" fill="#EBEBEB"/>
<path d="M212.799 97.7167C213.84 99.2073 215.864 98.7127 216.803 97.803C217.742 96.8933 218.126 95.5686 218.496 94.3104C219.323 91.4319 220.15 88.414 219.541 85.4825C219.393 84.5939 219.004 83.7635 218.417 83.0821C218.12 82.7464 217.74 82.495 217.316 82.3534C216.892 82.2118 216.438 82.1849 216 82.2754C214.978 82.5443 214.346 83.5469 213.887 84.5031C212.536 87.321 211.829 90.4061 211.817 93.5335C211.817 94.9876 211.982 96.5215 212.809 97.7167" fill="#EBEBEB"/>
<path d="M209.925 99.8581C211.056 98.5102 211.271 96.5381 210.769 94.8582C210.266 93.1782 209.115 91.734 207.819 90.5621C206.275 89.1838 204.478 88.1215 202.528 87.4346C201.774 87.1285 200.963 86.9903 200.151 87.0296C199.747 87.0542 199.356 87.177 199.01 87.3876C198.664 87.5982 198.375 87.8901 198.167 88.2381C197.608 89.3038 198.144 90.5953 198.719 91.6477C199.734 93.5072 200.894 95.2833 202.188 96.9597C203.226 98.2877 204.42 99.6157 206.004 100.24C207.588 100.864 209.234 100.778 210.074 99.6722" fill="#EBEBEB"/>
<path d="M212.729 120.24C212.781 120.016 212.812 119.788 212.822 119.559C212.872 119.068 212.931 118.447 213.001 117.71C213.093 116.798 213.232 115.891 213.417 114.994C213.661 113.9 213.993 112.827 214.409 111.787C214.813 110.747 215.362 109.77 216.039 108.885C216.591 108.166 217.295 107.579 218.099 107.165C218.646 106.893 219.232 106.711 219.835 106.624C220.059 106.614 220.28 106.58 220.497 106.525C220.269 106.503 220.04 106.503 219.812 106.525C219.185 106.573 218.571 106.734 218 106.999C217.152 107.4 216.409 107.994 215.828 108.732C215.122 109.631 214.553 110.628 214.138 111.694C213.713 112.748 213.381 113.838 213.146 114.951C212.97 115.859 212.85 116.777 212.786 117.7C212.726 118.487 212.703 119.124 212.693 119.562C212.68 119.789 212.692 120.016 212.729 120.24Z" fill="#E0E0E0"/>
<path d="M212.855 118.812C212.868 118.707 212.868 118.601 212.855 118.496V117.597C212.855 116.813 212.855 115.684 212.895 114.277C212.964 111.485 213.202 108.48 213.665 104.244C214.102 100.26 214.69 95.6117 215.319 92.6071C215.451 91.9232 215.586 91.3057 215.712 90.7645C215.838 90.2233 215.934 89.7685 216.043 89.3801C216.152 88.9916 216.198 88.736 216.251 88.5036C216.283 88.4035 216.302 88.2997 216.307 88.1948C216.259 88.2885 216.222 88.3877 216.198 88.4903C216.129 88.7161 216.043 89.0016 215.937 89.3535C215.831 89.7054 215.705 90.1901 215.57 90.728C215.434 91.2658 215.282 91.8833 215.133 92.5673C214.366 96.1327 213.789 99.7367 213.404 103.364C212.941 107.61 212.743 111.475 212.713 114.273C212.713 115.674 212.713 116.807 212.762 117.593C212.786 117.962 212.802 118.257 212.815 118.493C212.816 118.601 212.829 118.708 212.855 118.812Z" fill="#E0E0E0"/>
<path d="M212.875 111.359C212.896 111.046 212.896 110.732 212.875 110.419C212.839 109.815 212.756 108.938 212.587 107.869C212.383 106.617 212.107 105.378 211.761 104.157C211.36 102.655 210.843 101.187 210.216 99.7651C209.143 97.1428 207.605 94.7378 205.676 92.6669C205.341 92.313 204.985 91.9803 204.608 91.6709C204.443 91.5315 204.297 91.392 204.152 91.2825L203.735 90.9937C203.487 90.8049 203.223 90.6362 202.948 90.489C202.902 90.5488 204.066 91.236 205.531 92.813C207.395 94.9011 208.891 97.2939 209.952 99.8879C210.566 101.303 211.086 102.757 211.509 104.24C211.913 105.605 212.171 106.86 212.386 107.916C212.6 108.971 212.69 109.841 212.759 110.439C212.774 110.748 212.813 111.055 212.875 111.359Z" fill="#E0E0E0"/>
<path d="M205.696 124.509L206.44 134.745H219.538L220.282 124.509H205.696Z" fill="#E0E0E0"/>
<path d="M221.843 120.475H204.43V124.509H221.843V120.475Z" fill="#E0E0E0"/>
<path d="M204.43 134.353V135.472H205.25H221.555V134.353H204.43Z" fill="#EBEBEB"/>
<path d="M206.05 137.44L205.25 135.472H220.93L219.998 137.44H206.05Z" fill="#E0E0E0"/>
<path d="M220.037 127.856C220.037 127.856 220.021 127.889 219.978 127.949L219.779 128.211L219.019 129.19L218.982 129.233L218.953 129.187L217.078 126.584H217.2L215.355 129.21L215.299 129.29L215.233 129.213L213.044 126.601H213.169L213.05 126.753L211.093 129.217L211.03 129.3L210.967 129.213L209.122 126.591H209.228L206.949 129.194L206.91 129.24L206.877 129.187L206.166 127.985C206.09 127.856 206.03 127.749 205.984 127.653C205.962 127.617 205.943 127.579 205.928 127.54C205.928 127.54 205.957 127.57 206.004 127.64L206.205 127.949L206.953 129.127H206.883L209.119 126.494L209.175 126.428L209.228 126.501L211.089 129.111H210.964C211.585 128.327 212.24 127.5 212.915 126.644C212.958 126.594 212.997 126.541 213.037 126.491L213.1 126.415L213.163 126.491L215.345 129.111H215.216L217.081 126.501L217.134 126.425L217.187 126.501C217.928 127.56 218.552 128.46 219.022 129.134H218.956L219.749 128.178L219.961 127.932C220.01 127.879 220.035 127.853 220.037 127.856Z" fill="#F5F5F5"/>
<path d="M220.464 124.456C220.464 124.502 217.18 124.539 213.133 124.539C209.085 124.539 205.805 124.502 205.805 124.456C205.805 124.409 209.085 124.373 213.133 124.373C217.18 124.373 220.464 124.396 220.464 124.456Z" fill="#F5F5F5"/>
<path d="M221.125 135.581C221.125 135.628 217.557 135.664 213.159 135.664C208.761 135.664 205.194 135.628 205.194 135.581C205.194 135.535 208.761 135.502 213.159 135.502C217.557 135.502 221.125 135.538 221.125 135.581Z" fill="#F5F5F5"/>
<path d="M227.805 0.158447H185.44V70.569H227.805V0.158447Z" fill="#E0E0E0"/>
<path d="M226.393 0.158447H184.028V70.569H226.393V0.158447Z" fill="#EBEBEB"/>
<path d="M224.59 1.58606H185.833V69.1414H224.59V1.58606Z" fill="white"/>
<path d="M217.045 10.3641H193.21V60.3633H217.045V10.3641Z" fill="#EBEBEB"/>
<path d="M193.21 42.671C193.157 37.9998 197.34 33.4414 201.946 32.7907C204.142 32.4786 206.477 32.9169 208.53 32.0703C212.194 30.563 213.358 25.6759 217.045 24.2251L217.2 60.3799H193.21V42.671Z" fill="#E0E0E0"/>
<path d="M14.1178 86.9001C11.7879 85.4354 9.15436 84.5267 6.41987 84.2441C5.16003 84.1146 3.77454 84.1511 2.78254 84.9081C2.6673 84.9756 2.57198 85.0727 2.50634 85.1894C2.44069 85.306 2.40706 85.4381 2.40888 85.5721C2.46746 85.763 2.59478 85.9251 2.766 86.0269C5.89742 88.4273 10.6359 88.7294 14.1244 86.8934" fill="#E0E0E0"/>
<path d="M13.9194 86.681C12.1867 85.3131 10.4243 83.9519 8.94948 82.2919C7.47471 80.6319 6.27108 78.6765 5.8313 76.5019C5.69572 75.8379 5.65604 75.0875 6.07599 74.563C10.044 77.6738 13.1556 81.6944 13.9194 86.6843" fill="#E0E0E0"/>
<path d="M14.0781 86.8702C13.7772 84.6923 13.6714 82.4546 14.1707 80.3132C14.67 78.1718 15.8241 76.1267 17.646 74.9049C18.3305 76.5118 18.0362 78.3644 17.5535 80.0443C16.8067 82.6451 15.6429 85.1065 14.1079 87.3317" fill="#E0E0E0"/>
<path d="M17.9634 93.8588C15.6058 94.1476 13.549 95.3959 11.7899 96.9962C10.0177 98.6134 8.7846 100.739 8.25836 103.085C10.573 102.939 12.5339 101.302 13.9557 99.4662C15.3776 97.6303 16.3663 95.6117 17.9237 93.8953" fill="#E0E0E0"/>
<path d="M18.8 94.9777C17.8702 92.6108 17.5441 90.0481 17.8513 87.5225C18.1585 84.9969 19.0893 82.5884 20.5592 80.5157C21.9017 85.3131 21.409 90.7347 18.8 94.9777Z" fill="#E0E0E0"/>
<path d="M23.9419 101.116C21.7867 100.979 19.6391 101.483 17.7668 102.563C15.8945 103.643 14.3805 105.253 13.4135 107.192C13.2812 107.454 13.1655 107.786 13.3407 108.019C13.4315 108.107 13.5425 108.173 13.6641 108.209C13.7857 108.244 13.9142 108.25 14.0384 108.224C16.115 108.092 17.9535 106.837 19.4713 105.409C20.989 103.982 22.3117 102.335 23.9882 101.093" fill="#E0E0E0"/>
<path d="M23.7766 100.781C22.6712 97.2078 22.6035 93.3923 23.5815 89.7819C23.9684 88.3675 24.6165 86.8769 25.9193 86.2129C25.9664 86.1723 26.0233 86.1448 26.0842 86.133C26.1452 86.1213 26.2081 86.1257 26.2669 86.1458C26.3256 86.1659 26.3781 86.201 26.4192 86.2477C26.4603 86.2944 26.4886 86.351 26.5013 86.4121C26.9417 87.4027 27.1314 88.4873 27.0535 89.5694C26.9766 90.6457 26.8118 91.7139 26.5608 92.7632C26.1508 94.7154 25.9325 96.8136 24.8645 98.4969C24.6189 98.9025 24.3981 99.3227 24.2031 99.7551C24.0014 100.183 24.0014 100.333 23.8162 100.675" fill="#E0E0E0"/>
<path d="M37.367 102.813C36.375 98.9683 37.4298 94.3071 39.8437 91.1531C40.0189 90.924 40.257 90.675 40.5447 90.7015C40.9911 90.7414 41.1068 91.3357 41.087 91.7839C40.9036 95.7381 39.6143 99.5604 37.367 102.813Z" fill="#E0E0E0"/>
<path d="M38.5938 103.656C43.2462 104.871 48.5832 103.689 52.4553 100.824C50.1345 99.6556 47.4823 99.3295 44.9492 99.9013C42.4427 100.476 40.1545 101.604 38.5938 103.656Z" fill="#E0E0E0"/>
<path d="M39.632 101.093C42.2377 96.8302 47.2374 94.0447 52.2139 93.7891C51.6385 95.8209 49.9753 97.4012 48.0971 98.3541C46.2189 99.3069 44.1291 99.7252 42.0591 100.127C41.2556 100.286 40.1545 100.459 39.632 101.09" fill="#E0E0E0"/>
<path d="M37.6249 88.6697C38.3325 86.2428 39.0402 83.7959 39.2353 81.2727C39.4304 78.7495 39.0699 76.1201 37.7671 73.9688C35.3334 78.6997 35.0887 84.2242 37.5522 88.9386" fill="#E0E0E0"/>
<path d="M45.8221 84.513C48.6692 79.3172 54.4757 75.1672 60.3516 74.5862C58.0866 80.2534 51.9031 84.6325 45.8221 84.513Z" fill="#E0E0E0"/>
<path d="M44.0299 85.5289C48.2757 86.1929 51.8932 88.902 55.8612 90.5521C56.6932 90.9539 57.6152 91.1312 58.5363 91.0667C59.4456 90.9472 60.345 90.333 60.55 89.4332C60.6113 89.0544 60.5792 88.6662 60.4564 88.3027C60.3336 87.9392 60.1239 87.6115 59.8457 87.3483C59.2842 86.8267 58.6242 86.4237 57.9047 86.163C53.5829 84.357 48.9469 84.3138 44.3969 85.4094" fill="#E0E0E0"/>
<path d="M41.5731 88.5202C42.5353 88.7958 42.8627 89.2938 43.6232 89.9445C46.2177 92.1624 49.2881 93.7475 52.5942 94.5759C52.9248 94.6622 53.3878 94.6954 53.5564 94.3833C53.7251 94.0713 53.5167 93.7857 53.325 93.5434C51.9461 91.8103 49.9786 90.6251 47.9086 89.8515C45.8387 89.078 44.0464 88.1451 41.5731 88.3443" fill="#E0E0E0"/>
<path d="M38.8021 70.4628C40.5427 72.0742 42.5998 73.3022 44.8412 74.0678C47.0827 74.8334 49.4589 75.1197 51.8171 74.9083C52.0337 74.9128 52.2443 74.8371 52.409 74.6958C52.7397 74.3372 52.3462 73.7861 51.9626 73.4873C48.1368 70.4993 43.5008 69.2477 38.8021 70.4628Z" fill="#E0E0E0"/>
<path d="M42.0889 69.2543C44.393 67.5514 47.0657 66.42 49.8886 65.9526C52.7115 65.4852 55.6045 65.6951 58.3312 66.5651C56.2844 68.587 53.4473 69.6759 50.5903 69.9747C47.7363 70.2356 44.8589 69.9918 42.0889 69.2543Z" fill="#E0E0E0"/>
<path d="M40.7827 60.9577C40.4058 57.1231 40.6505 54.0952 40.3859 50.2407C40.3628 49.9353 40.2967 49.5767 40.0123 49.4538C39.6122 49.2978 39.2782 49.7858 39.1492 50.2008C38.5932 51.9864 38.4508 53.8759 38.7327 55.7251C39.0147 57.5744 39.7136 59.3345 40.7761 60.8713" fill="#E0E0E0"/>
<path d="M40.5083 61.376C43.0974 59.7658 45.0384 57.6675 46.834 55.2008C48.0839 53.4843 49.1486 51.4259 48.8543 49.3177C47.0985 49.2845 45.4319 50.2573 44.2911 51.5952C43.1503 52.9332 42.4692 54.6065 41.9765 56.2964C41.4838 57.9862 41.1167 59.716 40.5215 61.376" fill="#E0E0E0"/>
<path d="M46.7248 59.6463C52.421 57.5264 57.6942 54.4019 62.2959 50.42C60.4343 49.6663 58.3048 50.1179 56.4464 50.8715C52.1974 52.5913 48.7254 55.4996 46.6422 59.5965" fill="#E0E0E0"/>
<path d="M42.2542 63.4775C45.131 63.7929 48.0508 63.9987 50.9011 63.5207C53.7515 63.0426 56.3538 61.937 58.9727 60.8281C59.2017 60.7633 59.3978 60.6138 59.5216 60.4098C59.5627 60.2879 59.566 60.1564 59.5312 60.0325C59.4964 59.9087 59.425 59.7983 59.3265 59.7159C59.1247 59.5533 58.8882 59.4397 58.6354 59.3839C55.7884 58.5838 52.7165 58.959 49.9125 59.9052C47.2437 60.8232 44.6772 62.017 42.2542 63.4675" fill="#E0E0E0"/>
<path d="M25.8432 70.5923C23.8824 66.6083 24.008 61.9802 25.701 57.8833C26.8947 59.7093 27.0237 62.0333 26.822 64.1913C26.6203 66.3493 25.9457 68.5969 25.9027 70.7782" fill="#E0E0E0"/>
<path d="M18.0065 66.6249C15.5513 66.5932 13.1166 67.0761 10.8579 68.0428C8.59921 69.0095 6.56624 70.4386 4.88892 72.239C7.33254 72.6241 9.84892 71.99 12.071 70.911C14.2931 69.832 16.2705 68.2915 18.228 66.7743" fill="#E0E0E0"/>
<path d="M12.7422 64.8587C10.3449 64.6628 8.04014 64.364 5.7387 65.0745C3.43726 65.7849 1.33753 67.3985 0.398438 69.6162C2.64036 69.8719 4.91204 69.3075 6.96548 68.3745C9.01892 67.4416 10.8872 66.1435 12.7422 64.8587Z" fill="#E0E0E0"/>
<path d="M20.5393 64.9383C18.3834 63.5206 16.1712 62.0764 13.6615 61.4888C11.1517 60.9011 8.24514 61.3361 6.49591 63.2351C8.5262 64.4336 10.993 64.5631 13.3473 64.5631C15.7017 64.5631 18.5884 64.5332 20.8072 65.3234" fill="#E0E0E0"/>
<path d="M20.5526 65.0545C16.8689 61.4224 15.4702 54.8953 16.9549 49.9319C19.8625 54.4022 21.1342 59.7474 20.5526 65.0545Z" fill="#E0E0E0"/>
<path d="M30.6809 54.7625C31.3753 53.139 31.8647 51.4425 32.4897 49.7825C33.1146 48.1225 33.8884 46.5056 35.0655 45.1942C36.2427 43.8828 37.8696 42.9068 39.6254 42.8204C39.0578 45.3207 37.9775 47.6748 36.4534 49.7326C34.9293 51.7904 32.9949 53.5069 30.7735 54.7724" fill="#E0E0E0"/>
<path d="M28.849 56.9072C27.6983 55.317 26.3723 53.1623 24.8116 51.9737C23.2508 50.7852 21.2239 50.088 19.3192 50.5262C20.3045 52.2602 21.6789 53.7397 23.3331 54.8474C24.9873 55.9551 26.8759 56.6603 28.849 56.9072Z" fill="#E0E0E0"/>
<path d="M29.2161 54.8952C28.4621 52.973 27.7016 51.0274 27.3974 48.9856C27.0932 46.9438 27.2784 44.7593 28.32 42.9764C30.3403 46.8144 30.9917 50.9444 29.312 54.9284" fill="#E0E0E0"/>
<path d="M30.704 42.9765C31.8481 39.1718 35.3334 36.3697 39.0666 35.0849C39.5301 34.8943 40.0327 34.8191 40.5315 34.8657C40.78 34.8934 41.0149 34.9937 41.2072 35.1542C41.3994 35.3148 41.5404 35.5285 41.6127 35.7688C41.7483 36.4162 41.2159 36.9972 40.7133 37.4288C37.7854 39.9393 34.3801 41.8267 30.704 42.9765Z" fill="#E0E0E0"/>
<path d="M30.7404 39.8657C30.8859 37.4122 31.0413 34.9222 31.8349 32.5982C32.6285 30.2742 34.1496 28.0929 36.3882 27.077C36.7685 29.5537 35.6806 32.0205 34.3678 34.1519C33.0551 36.2834 31.4712 38.2953 30.6809 40.6757" fill="#E0E0E0"/>
<path d="M30.6809 41.5523C29.7352 38.7801 29.636 35.2443 27.9826 32.8439C26.8286 31.154 24.9769 30.0053 23.9816 28.2158C23.3202 29.8758 23.522 31.8114 24.213 33.4681C24.9041 35.1247 26.0482 36.5557 27.2717 37.8671C28.4952 39.1785 29.5434 40.1645 30.6809 41.5523Z" fill="#E0E0E0"/>
<path d="M30.704 123.211C30.6313 123.211 30.5652 104.712 30.5619 81.9001C30.5585 59.0884 30.6115 40.5861 30.6842 40.5861C30.7569 40.5861 30.8231 59.0818 30.8264 81.9001C30.8297 104.718 30.7735 123.211 30.704 123.211Z" fill="#E0E0E0"/>
<path d="M46.8009 67.8035C46.5778 67.9109 46.3454 67.9976 46.1065 68.0624L44.2019 68.7264C42.5948 69.2742 40.386 70.0544 37.9886 71.0504C35.5913 72.0464 33.3791 72.903 32.1028 74.0119C31.5946 74.4376 31.1907 74.9749 30.9223 75.5822C30.7404 76.0171 30.7074 76.2827 30.6809 76.2761C30.6699 76.2124 30.6699 76.1473 30.6809 76.0835C30.7079 75.9001 30.7533 75.7199 30.8165 75.5457C31.0594 74.9055 31.4558 74.3354 31.9705 73.8857C32.7395 73.2333 33.5995 72.6975 34.5233 72.2954C35.545 71.814 36.6759 71.316 37.8795 70.8213C40.2835 69.8253 42.5089 69.0617 44.1324 68.5571C44.9459 68.3015 45.6072 68.1155 46.0668 67.9894C46.3045 67.9022 46.5505 67.8398 46.8009 67.8035Z" fill="#E0E0E0"/>
<path d="M52.0784 54.7891C52.02 54.8638 51.9547 54.9327 51.8833 54.9949L51.2914 55.5527L49.0858 57.5679L41.7384 64.1349C38.8715 66.6879 36.3948 69.1447 34.6721 71.0039C33.8123 71.9269 33.1378 72.6872 32.6881 73.2217L32.1524 73.8326C32.0957 73.9088 32.029 73.9769 31.954 74.0351C31.9964 73.9499 32.0497 73.8706 32.1127 73.7994C32.2251 73.65 32.3872 73.4275 32.6087 73.1553C33.0452 72.6009 33.7032 71.8273 34.5497 70.8778C36.7675 68.4454 39.1119 66.1326 41.5731 63.9489C44.4499 61.3925 47.0688 59.0984 48.9701 57.4417L51.2318 55.4929L51.8568 54.9717C51.9224 54.9014 51.9969 54.84 52.0784 54.7891Z" fill="#E0E0E0"/>
<path d="M38.6401 66.7377C38.564 66.7045 39.1658 65.3168 39.761 63.5605C40.3562 61.8042 40.6472 60.3235 40.7233 60.3368C40.7993 60.35 40.6241 61.8673 40.0123 63.6568C39.7566 64.4129 39.4597 65.1544 39.1228 65.8778C39.0048 66.1867 38.8422 66.4764 38.6401 66.7377Z" fill="#E0E0E0"/>
<path d="M30.7041 77.9361C30.5406 77.7777 30.3922 77.6043 30.261 77.4182L29.1301 75.964C28.1811 74.729 26.865 73.0258 25.3902 71.16C23.9155 69.2941 22.563 67.6242 21.581 66.4157L20.4534 64.9781C20.3011 64.8091 20.167 64.6243 20.0533 64.427C20.226 64.5728 20.3854 64.7339 20.5294 64.9084C20.827 65.2404 21.2437 65.7019 21.7529 66.2928C22.7714 67.4714 24.1502 69.1281 25.6283 70.994C27.1064 72.8598 28.3927 74.5862 29.3086 75.8478C29.765 76.4819 30.1287 76.9965 30.3734 77.3584C30.5043 77.5383 30.6151 77.732 30.7041 77.9361Z" fill="#E0E0E0"/>
<path d="M27.1857 73.3844C27.1427 73.4309 26.1937 72.3087 25.7076 70.6055C25.4309 69.699 25.3189 68.7498 25.377 67.8035H25.4927C25.4398 68.0159 25.4034 68.1355 25.3803 68.1355C25.3571 68.1355 25.3604 68.0126 25.3803 67.8035H25.4993C25.5569 68.7265 25.7143 69.6404 25.9689 70.5292C26.4417 72.1792 27.2585 73.3279 27.1857 73.3844Z" fill="#E0E0E0"/>
<path d="M22.6292 67.6275C22.3113 67.3834 21.9648 67.1794 21.5975 67.0199C20.9064 66.751 19.8714 66.6879 18.7306 66.7909C17.7571 66.8662 16.7915 67.0228 15.8439 67.259C15.4555 67.3823 15.0588 67.4778 14.6568 67.5445C15.0111 67.3335 15.3944 67.1758 15.7943 67.0764C16.7428 66.7834 17.7211 66.5985 18.7108 66.5253C19.8615 66.4257 20.956 66.5253 21.6669 66.8573C22.3779 67.1893 22.6523 67.6209 22.6292 67.6275Z" fill="#E0E0E0"/>
<path d="M21.5512 66.2331C21.528 66.2762 20.9493 65.9907 19.9673 65.6554C18.6911 65.2199 17.366 64.9456 16.0224 64.8387C14.6766 64.742 13.324 64.8111 11.9949 65.0445C10.9764 65.2271 10.3416 65.4197 10.3416 65.3765C10.4722 65.2968 10.6137 65.2364 10.7615 65.1972C11.1521 65.0615 11.5508 64.9506 11.9552 64.8652C14.6493 64.2729 17.4573 64.4888 20.0301 65.4861C20.4168 65.6324 20.7935 65.8043 21.1577 66.0007C21.2991 66.0592 21.4315 66.1374 21.5512 66.2331Z" fill="#E0E0E0"/>
<path d="M30.6809 60.3367C30.6115 60.3367 30.0956 58.5506 29.5269 56.3129C28.9581 54.0752 28.5613 52.2392 28.6341 52.2226C28.7068 52.206 29.2194 54.0055 29.7881 56.2465C30.3569 58.4875 30.7537 60.3168 30.6809 60.3367Z" fill="#E0E0E0"/>
<path d="M30.7569 60.3368C30.6776 60.3601 30.3436 59.1582 29.4772 57.9265C28.6109 56.6948 27.5561 56.0374 27.5958 55.9777C27.864 56.0417 28.1125 56.1704 28.3199 56.3528C28.8559 56.7441 29.3211 57.2247 29.6955 57.7738C30.5949 59.052 30.8198 60.3302 30.7569 60.3368Z" fill="#E0E0E0"/>
<path d="M30.704 113.351C30.6743 113.351 30.6213 112.906 30.413 112.119C30.1078 111.014 29.6958 109.942 29.1829 108.918C27.9099 106.305 25.5919 102.995 22.649 99.6787C21.1907 98.0187 19.7755 96.4285 18.5752 94.9145C17.4993 93.5851 16.5254 92.1756 15.662 90.6982C15.0839 89.6989 14.5927 88.6514 14.1938 87.5674C14.0582 87.1823 13.959 86.8801 13.9028 86.671C13.8678 86.5628 13.8424 86.4517 13.8268 86.339C13.8532 86.339 13.9855 86.7606 14.2897 87.5176C14.7245 88.5791 15.2374 89.6068 15.824 90.5919C16.7042 92.0477 17.6877 93.438 18.7669 94.7519C19.9739 96.2459 21.3891 97.8162 22.8507 99.4928C25.8002 102.813 28.1116 106.169 29.3516 108.825C29.8562 109.866 30.2454 110.959 30.5122 112.086C30.5839 112.391 30.6391 112.7 30.6776 113.012C30.6997 113.123 30.7086 113.237 30.704 113.351Z" fill="#E0E0E0"/>
<path d="M45.2534 96.8501C45.0082 97.0101 44.753 97.1542 44.4896 97.2817C43.7973 97.6759 43.1343 98.1197 42.5056 98.6097C41.5792 99.3345 40.7102 100.13 39.9065 100.99C38.9972 101.956 38.0581 103.078 37.0992 104.28C35.1813 106.697 33.3891 108.832 32.3177 110.535C31.7721 111.382 31.3753 112.096 31.1174 112.597C30.9944 112.863 30.8541 113.12 30.6974 113.367C30.7088 113.291 30.7322 113.217 30.7669 113.148C30.8231 113.012 30.9025 112.816 31.0248 112.55C31.3588 111.822 31.7376 111.116 32.159 110.436C33.2006 108.689 34.9796 106.525 36.8908 104.128C37.8531 102.922 38.8021 101.804 39.7313 100.831C40.5503 99.9706 41.4408 99.182 42.3931 98.4736C43.0355 97.9964 43.7182 97.5765 44.4333 97.2186C44.688 97.0925 44.893 97.0128 45.0285 96.953C45.0987 96.9089 45.1743 96.8743 45.2534 96.8501Z" fill="#E0E0E0"/>
<path d="M45.5345 102.212C45.0027 102.327 44.4635 102.405 43.9208 102.444C42.626 102.581 41.3465 102.836 40.0983 103.208C38.8649 103.612 37.708 104.221 36.6759 105.011C35.8889 105.622 35.5153 106.13 35.4789 106.1C35.5367 105.962 35.6184 105.836 35.7203 105.728C35.97 105.413 36.2502 105.124 36.5569 104.865C37.5788 104.011 38.754 103.362 40.0189 102.952C41.2833 102.574 42.5871 102.343 43.9043 102.265C44.4448 102.196 44.9906 102.178 45.5345 102.212Z" fill="#E0E0E0"/>
<path d="M35.9517 105.499C35.8658 105.452 36.5932 104.337 37.1554 102.843C37.7175 101.349 37.8167 100.004 37.9027 100.021C37.9443 100.309 37.9354 100.602 37.8762 100.887C37.7979 101.585 37.6403 102.271 37.4067 102.932C37.1626 103.59 36.8488 104.218 36.4709 104.808C36.3371 105.066 36.1617 105.299 35.9517 105.499Z" fill="#E0E0E0"/>
<path d="M49.9588 82.4812C49.8796 82.5394 49.7928 82.5863 49.7009 82.6206L48.9436 82.9526C48.613 83.0954 48.2095 83.2846 47.7565 83.517C47.3035 83.7494 46.7645 83.9951 46.2156 84.3304L45.3394 84.8318C45.0318 85.0077 44.7309 85.2169 44.4102 85.4161C43.7489 85.8112 43.114 86.2992 42.4262 86.7939C39.4585 89.0157 36.8698 91.7068 34.7613 94.7619C34.2918 95.4757 33.8289 96.143 33.4585 96.807C33.2667 97.139 33.0716 97.4444 32.9063 97.7565L32.4367 98.6562C32.1061 99.224 31.9011 99.7651 31.6795 100.23C31.458 100.695 31.2893 101.103 31.1604 101.442L30.8297 102.212C30.7962 102.305 30.7529 102.394 30.7007 102.478C30.713 102.38 30.7386 102.285 30.7768 102.195L31.0479 101.405C31.167 101.073 31.3191 100.642 31.5307 100.17C31.7423 99.6987 31.9507 99.1476 32.2549 98.5732L32.7112 97.6602C32.8732 97.3282 33.0683 97.0294 33.2535 96.6941C33.6205 96.0301 34.0769 95.3429 34.5464 94.6224C36.651 91.5292 39.2654 88.8189 42.2774 86.608C42.9784 86.1133 43.6364 85.6286 44.2945 85.2401C44.6251 85.0409 44.926 84.8351 45.2369 84.6624L46.1296 84.1744C46.6918 83.8424 47.2308 83.6166 47.697 83.3909C48.1633 83.1651 48.57 82.9958 48.9073 82.8663L49.6843 82.5675C49.7728 82.5298 49.8647 82.5009 49.9588 82.4812Z" fill="#E0E0E0"/>
<path d="M38.4449 90.2268C38.5536 89.8528 38.7755 89.5221 39.0798 89.2806C39.7868 88.6584 40.6893 88.3058 41.6293 88.2846C42.5501 88.2819 43.4624 88.4613 44.3143 88.8125C44.6752 88.926 45.0173 89.0927 45.3294 89.3071C44.9616 89.234 44.6008 89.1285 44.2515 88.9917C43.4109 88.7013 42.5281 88.5532 41.6392 88.5535C40.7567 88.5709 39.9028 88.871 39.2022 89.4101C38.9317 89.6648 38.6787 89.9377 38.4449 90.2268Z" fill="#E0E0E0"/>
<path d="M36.7255 92.0096C36.6527 91.9697 37.3008 91.0136 37.4496 89.6457C37.5984 88.2779 37.2082 87.1989 37.2876 87.1757C37.4423 87.3762 37.5446 87.6125 37.5852 87.8629C37.8987 89.0545 37.7522 90.3209 37.1752 91.4087C36.9503 91.817 36.7519 92.0295 36.7255 92.0096Z" fill="#E0E0E0"/>
<path d="M17.9767 116C18.3735 123.068 20.4964 130.276 23.7567 137.527H37.949C41.0605 130.329 43.0379 123.151 43.3884 116H17.9767Z" fill="#E0E0E0"/>
<path d="M41.087 127.444C41.087 127.517 36.4147 127.577 30.6545 127.577C24.8943 127.577 20.2186 127.517 20.2186 127.444C20.2186 127.371 24.8876 127.308 30.6545 127.308C36.4213 127.308 41.087 127.364 41.087 127.444Z" fill="#FAFAFA"/>
<path d="M40.7695 130C40.7695 130.073 36.3915 130.133 30.9884 130.133C25.5853 130.133 21.204 130.073 21.204 130C21.204 129.927 25.5853 129.868 30.9884 129.868C36.3915 129.868 40.7695 129.927 40.7695 130Z" fill="#FAFAFA"/>
<path d="M23.9882 120.641C24.0609 120.641 24.1204 122.112 24.1204 123.925C24.1204 125.737 24.0609 127.205 23.9882 127.205C23.9154 127.205 23.8526 125.737 23.8526 123.925C23.8526 122.112 23.9154 120.641 23.9882 120.641Z" fill="#FAFAFA"/>
<path d="M31.5902 120.641C31.663 120.641 31.7225 122.162 31.7225 124.041C31.7225 125.92 31.663 127.441 31.5902 127.441C31.5175 127.441 31.4579 125.917 31.4579 124.041C31.4579 122.165 31.5175 120.641 31.5902 120.641Z" fill="#FAFAFA"/>
<path d="M38.7293 120.585C38.8021 120.585 38.8616 122.135 38.8616 124.051C38.8616 125.967 38.8021 127.517 38.7293 127.517C38.6566 127.517 38.5938 125.967 38.5938 124.051C38.5938 122.135 38.6566 120.585 38.7293 120.585Z" fill="#FAFAFA"/>
<path d="M42.9387 120.641C42.9387 120.714 37.4595 120.774 30.704 120.774C23.9485 120.774 18.4694 120.714 18.4694 120.641C18.4694 120.568 23.9485 120.508 30.704 120.508C37.4595 120.508 42.9387 120.568 42.9387 120.641Z" fill="#FAFAFA"/>
<path d="M227.841 137.441C227.841 137.487 178.353 137.527 117.325 137.527C56.2976 137.527 6.80341 137.487 6.80341 137.441C6.80341 137.394 56.2778 137.354 117.325 137.354C178.373 137.354 227.841 137.404 227.841 137.441Z" fill="#263238"/>
<path d="M53.7449 97.7034V123.008H153.752V97.7034H53.7449ZM143.713 117.484H62.448V99.4796H143.713V117.484Z" fill="#455A64"/>
<path d="M157.227 95.5454H49.5884V99.4431H157.227V95.5454Z" fill="#455A64"/>
<path d="M157.227 99.4596C157.227 99.4596 133.131 99.4763 103.411 99.4763C73.6907 99.4763 49.5884 99.4762 49.5884 99.4596C49.5884 99.443 73.6808 99.4596 103.411 99.4596C133.141 99.4596 157.227 99.453 157.227 99.4596Z" fill="#263238"/>
<path d="M157.227 95.5721C157.227 95.5721 133.131 95.5721 103.411 95.5721C73.6907 95.5721 49.5884 95.5721 49.5884 95.5721C49.5884 95.5721 73.6808 95.5555 103.411 95.5555C133.141 95.5555 157.227 95.5522 157.227 95.5721Z" fill="#263238"/>
<path d="M62.4315 117.836H53.7449V137.384H62.4315V117.836Z" fill="#455A64"/>
<path d="M153.755 117.481H143.676V137.354H153.755V117.481Z" fill="#455A64"/>
<path d="M143.676 137.025C143.627 137.025 143.587 128.603 143.587 118.214C143.587 107.826 143.627 99.4032 143.676 99.4032C143.726 99.4032 143.762 107.823 143.762 118.214C143.762 128.606 143.723 137.025 143.676 137.025Z" fill="#263238"/>
<path d="M62.448 137.384C62.4017 137.384 62.3621 128.898 62.3621 118.43C62.3621 107.962 62.4017 99.4796 62.448 99.4796C62.4943 99.4796 62.5373 107.962 62.5373 118.43C62.5373 128.898 62.4811 137.384 62.448 137.384Z" fill="#263238"/>
<path d="M123.168 106.213H81.382V110.95H123.168V106.213Z" fill="#263238"/>
<path d="M122.1 110.954H82.4533V112.375H122.1V110.954Z" fill="#C53F3F"/>
<path d="M123.168 112.049H81.382V116.787H123.168V112.049Z" fill="#263238"/>
<path d="M121.323 116.79H82.903V117.457H121.323V116.79Z" fill="#263238"/>
<path d="M84.0041 112.839H82.5889V113.563H84.0041V112.839Z" fill="#455A64"/>
<path d="M85.9286 112.839H84.5134V113.563H85.9286V112.839Z" fill="white"/>
<path d="M165.586 2.0144H38.6301V87.9128H165.586V2.0144Z" fill="#263238"/>
<path d="M113.781 85.6652H90.7729V95.5488H113.781V85.6652Z" fill="#263238"/>
<path d="M41.8309 85.6652L162.323 85.6652V3.4022L41.8309 3.4022L41.8309 85.6652Z" fill="#455A64"/>
<path d="M162.309 85.6652C162.309 85.0975 162.283 53.4878 162.24 3.40224L162.309 3.47196H41.8276L41.9136 3.38564C41.9136 32.7311 41.9136 60.6191 41.9136 85.6486L41.8375 85.5689L162.326 85.6486L41.8375 85.7283H41.7582V85.6486C41.7582 60.6191 41.7582 32.7311 41.7582 3.38564V3.29932H41.8541L162.309 3.33252H162.379V3.40224C162.349 53.4878 162.309 85.0975 162.309 85.6652Z" fill="#263238"/>
<path d="M218.999 46.9274L223.638 42.3956L225.033 49.3145L230.652 49.6365L227.781 54.8489L231.832 59.5766L225.665 60.9843L223.803 67.0865L217.957 63.6237L211.913 66.1569L211.622 59.4106L204.082 59.4239L210.593 54.2348L207.568 48.7667L213.635 49.444L213.586 43.0264L218.999 46.9274Z" fill="white"/>
<path d="M218.999 46.9274C218.999 46.9274 218.876 46.8477 218.642 46.6817L217.59 45.938L213.563 43.0596L213.629 43.0264C213.649 44.8092 213.668 46.9772 213.695 49.444V49.507H213.632L207.561 48.843L207.627 48.7434L210.663 54.2082L210.692 54.2646L210.643 54.3011L204.135 59.4969L204.086 59.3508H211.625H211.704V59.4305C211.8 61.5819 211.896 63.8594 211.999 66.1768L211.88 66.1004L216.178 64.2976L217.924 63.5672L217.964 63.5506L218 63.5739L223.846 67.02L223.721 67.0665C224.358 64.9838 224.979 62.9508 225.586 60.9677V60.9212H225.632L231.799 59.5168L231.756 59.643L227.709 54.9153L227.676 54.8755L227.702 54.8323L230.575 49.6199L230.632 49.7195L225.01 49.3875H224.964V49.3444C224.422 46.6175 223.962 44.309 223.585 42.4188L223.651 42.4388L220.193 45.772L219.3 46.6319C219.101 46.8245 218.999 46.9141 218.999 46.9141C218.999 46.9141 219.098 46.8079 219.296 46.6087C219.495 46.4095 219.796 46.1173 220.183 45.7322L223.608 42.3524L223.661 42.2993L223.678 42.3724C224.061 44.2603 224.532 46.5666 225.09 49.2912L225.037 49.2448L230.658 49.5568H230.757L230.704 49.6498L227.841 54.8688V54.7858L231.895 59.5069L231.981 59.6065L231.852 59.6364L225.688 61.0507L225.748 60.9942C225.143 62.9862 224.521 65.0114 223.886 67.0931L223.856 67.196L223.764 67.1429C221.852 66.0141 219.904 64.8598 217.918 63.6801H217.994L216.248 64.4105L211.949 66.2133L211.837 66.2598V66.1369C211.737 63.8129 211.638 61.5454 211.549 59.3907L211.632 59.4737H204.092H203.861L204.043 59.3309C206.334 57.5082 208.527 55.7619 210.56 54.1484L210.54 54.2414L207.518 48.77L207.455 48.6571H207.584L213.652 49.3444L213.589 49.4008C213.589 46.934 213.563 44.7528 213.553 42.9832V42.9002L213.619 42.9467L217.607 45.8517L218.652 46.6153L218.999 46.9274Z" fill="#263238"/>
<path d="M220.9 50.1179L220.569 55.8913C220.556 56.1198 220.46 56.3354 220.299 56.4975C220.138 56.6596 219.924 56.7569 219.697 56.7711C219.457 56.789 219.219 56.7128 219.034 56.5586C218.85 56.4045 218.731 56.1843 218.705 55.9445L218.043 50.1411C218.031 50.0377 218.042 49.933 218.073 49.834C218.105 49.7349 218.157 49.6437 218.227 49.5665C218.296 49.4893 218.381 49.4277 218.476 49.386C218.571 49.3442 218.674 49.3232 218.777 49.3244H220.183C220.283 49.3263 220.381 49.3488 220.472 49.3903C220.563 49.4318 220.645 49.4915 220.712 49.5658C220.779 49.6401 220.83 49.7274 220.863 49.8223C220.895 49.9173 220.908 50.0178 220.9 50.1179Z" fill="#C53F3F"/>
<path d="M218.172 60.0248C218.261 60.2883 218.426 60.5195 218.645 60.6891C218.865 60.8588 219.13 60.9593 219.406 60.978C219.683 60.9966 219.958 60.9326 220.199 60.794C220.439 60.6554 220.633 60.4484 220.756 60.1992C220.879 59.95 220.926 59.6697 220.891 59.3938C220.855 59.1179 220.739 58.8586 220.557 58.6488C220.375 58.4391 220.135 58.2881 219.868 58.2151C219.601 58.1421 219.318 58.1503 219.055 58.2386C218.88 58.2974 218.718 58.3903 218.579 58.512C218.44 58.6337 218.326 58.7817 218.244 58.9477C218.162 59.1136 218.114 59.2942 218.101 59.479C218.089 59.6638 218.113 59.8493 218.172 60.0248Z" fill="#C53F3F"/>
<path d="M133.445 94.1444C133.339 94.0723 133.218 94.0248 133.091 94.0053C132.964 93.9858 132.834 93.9947 132.711 94.0315C132.466 94.1093 132.236 94.2308 132.033 94.3901C131.755 94.5899 131.489 94.8061 131.237 95.0375C131.095 95.1485 130.988 95.2968 130.926 95.4657C130.899 95.5508 130.905 95.6431 130.943 95.7239C130.981 95.8046 131.048 95.8678 131.131 95.9006C131.263 95.9162 131.396 95.8793 131.501 95.7977C132.201 95.3768 132.859 94.8887 133.465 94.3403" fill="#263238"/>
<path d="M140.198 92.5608C140.131 92.4504 140.04 92.3562 139.933 92.285C139.825 92.2139 139.703 92.1674 139.576 92.1491C139.321 92.1181 139.062 92.1339 138.812 92.1956C138.476 92.2592 138.145 92.3446 137.82 92.4512C137.646 92.4922 137.486 92.582 137.36 92.7102C137.3 92.7754 137.266 92.8614 137.266 92.9509C137.266 93.0403 137.3 93.1263 137.36 93.1916C137.417 93.2263 137.479 93.2494 137.545 93.2597C137.61 93.27 137.677 93.2671 137.741 93.2513C138.551 93.162 139.351 92.9919 140.128 92.7434" fill="#263238"/>
<path d="M154.327 96.5513L163.106 97.803L174.809 92.8429L177.249 100.024L163.705 105.3L149.946 100.771L154.327 96.5513Z" fill="#FFBF9D"/>
<path d="M171.829 95.7347L170.837 93.7261C170.837 93.7261 184.232 87.9427 184.041 88.0058C183.849 88.0688 172.772 96.4917 172.772 96.4917L171.829 95.7347Z" fill="#C53F3F"/>
<path d="M154.327 96.568C154.327 96.568 151.665 92.0927 151.043 91.6876C150.422 91.2826 145.039 89.7985 144.602 89.9745C144.166 90.1505 137.929 91.7706 138.72 92.4645C139.51 93.1584 143.855 91.9698 143.855 91.9698L144.473 92.2155C144.473 92.2155 140.71 93.1451 139.946 93.6796C139.242 94.171 139.569 95.0574 140.277 94.9279C140.985 94.7985 144.228 93.8722 144.437 93.995C144.645 94.1179 140.909 95.1935 140.518 95.4691C139.996 95.8443 140.022 96.8303 140.713 96.7241C141.12 96.661 144.629 95.4326 144.629 95.4326C144.629 95.4326 141.877 96.7606 141.636 97.0428C141.239 97.4877 141.636 98.0786 142.235 97.8927C142.651 97.7632 144.579 96.6311 145.134 96.4618C145.134 96.4618 145.677 96.5581 146.246 97.5939C146.814 98.6297 152.022 103.072 152.022 103.072L154.327 96.568Z" fill="#FFBF9D"/>
<path d="M151.182 96.3223C151.035 95.9823 150.8 95.6878 150.501 95.4691C145.412 91.6544 138.501 91.5282 132.824 94.2772C131.741 94.8315 130.913 95.7825 130.509 96.9332C130.152 98.0255 130.569 99.3667 131.683 99.0978L138.832 102.325C138.999 102.376 139.171 102.412 139.345 102.431C141.302 102.707 142.962 101.176 143.104 99.1941C143.197 97.969 144.794 97.813 146.331 98.0055C147.069 98.0985 148.897 98.3575 149.638 98.3077C150.604 98.2446 151.665 97.4909 151.182 96.3223Z" fill="#C53F3F"/>
<path d="M145.647 96.1795C146.429 96.1795 147.062 95.9699 147.062 95.7114C147.062 95.4529 146.429 95.2433 145.647 95.2433C144.865 95.2433 144.232 95.4529 144.232 95.7114C144.232 95.9699 144.865 96.1795 145.647 96.1795Z" fill="#263238"/>
<path d="M145.647 95.2068C146.429 95.2068 147.062 94.9615 147.062 94.659C147.062 94.3565 146.429 94.1112 145.647 94.1112C144.865 94.1112 144.232 94.3565 144.232 94.659C144.232 94.9615 144.865 95.2068 145.647 95.2068Z" fill="#263238"/>
<path d="M146.292 95.7679L145.194 95.738V94.6956L146.292 94.7254V95.7679Z" fill="#263238"/>
<path d="M147.042 94.7453C147.042 94.7619 146.94 94.8914 146.712 95.0175C146.396 95.18 146.048 95.2707 145.693 95.2831C145.338 95.3031 144.982 95.2359 144.658 95.0873C144.41 94.9644 144.295 94.8349 144.308 94.8217C144.321 94.8084 144.463 94.8881 144.705 94.9744C145.024 95.0821 145.36 95.1283 145.697 95.1105C146.03 95.0957 146.36 95.0273 146.672 94.908C146.887 94.815 147.023 94.7221 147.042 94.7453Z" fill="#455A64"/>
<path d="M145.184 95.6716C145.138 95.6716 145.098 95.5687 145.098 95.4359C145.098 95.3031 145.138 95.2035 145.184 95.2035C145.23 95.2035 145.27 95.3064 145.27 95.4359C145.27 95.5654 145.234 95.6716 145.184 95.6716Z" fill="#455A64"/>
<path d="M146.252 95.6317C146.203 95.6317 146.166 95.5288 146.166 95.3993C146.166 95.2698 146.203 95.1636 146.252 95.1636C146.302 95.1636 146.338 95.2698 146.338 95.3993C146.338 95.5288 146.298 95.6317 146.252 95.6317Z" fill="#455A64"/>
<path d="M140.155 97.6736C140.155 97.9325 139.523 98.145 138.739 98.145C137.956 98.145 137.324 97.9325 137.324 97.6736C137.324 97.4146 137.956 97.2054 138.739 97.2054C139.523 97.2054 140.155 97.4146 140.155 97.6736Z" fill="#263238"/>
<path d="M140.155 96.6212C140.155 96.9233 139.523 97.169 138.739 97.169C137.956 97.169 137.324 96.9233 137.324 96.6212C137.324 96.319 137.956 96.0734 138.739 96.0734C139.523 96.0734 140.155 96.319 140.155 96.6212Z" fill="#263238"/>
<path d="M139.378 97.7333L138.28 97.7034V96.6576L139.378 96.6875V97.7333Z" fill="#263238"/>
<path d="M140.125 96.7074C140.125 96.724 140.026 96.8535 139.794 96.983C139.477 97.1427 139.13 97.2321 138.776 97.2452C138.419 97.2647 138.063 97.1975 137.737 97.0494C137.493 96.9298 137.377 96.8004 137.39 96.7838C137.404 96.7672 137.542 96.8535 137.784 96.9365C138.103 97.0437 138.44 97.0899 138.776 97.0726C139.115 97.0612 139.451 96.9928 139.768 96.8701C139.882 96.8067 140.002 96.7523 140.125 96.7074Z" fill="#455A64"/>
<path d="M138.27 97.637C138.224 97.637 138.184 97.5307 138.184 97.4013C138.184 97.2718 138.224 97.1655 138.27 97.1655C138.316 97.1655 138.356 97.2718 138.356 97.4013C138.356 97.5307 138.319 97.637 138.27 97.637Z" fill="#455A64"/>
<path d="M139.335 97.5972C139.288 97.5972 139.249 97.4909 139.249 97.3615C139.249 97.232 139.288 97.1257 139.335 97.1257C139.381 97.1257 139.421 97.232 139.421 97.3615C139.421 97.4909 139.384 97.5972 139.335 97.5972Z" fill="#455A64"/>
<path d="M152.885 96.7373C152.528 97.1324 151.893 97.0958 151.414 96.8601C150.934 96.6244 150.561 96.236 150.091 95.967C148.729 95.1669 146.89 95.5388 145.568 94.6689C145.383 94.5494 145.194 94.3369 145.273 94.1344C145.353 93.9319 145.604 93.902 145.796 93.8887L151.02 93.58" fill="#FFBF9D"/>
<path d="M151.034 93.58C150.846 93.5433 150.655 93.5344 150.465 93.5534C150.101 93.5534 149.572 93.5733 148.921 93.5999L146.636 93.7028L145.974 93.736C145.703 93.7094 145.433 93.7905 145.22 93.9618C145.165 94.0306 145.131 94.1144 145.124 94.2025C145.116 94.2906 145.135 94.3791 145.177 94.4565C145.247 94.5838 145.347 94.6921 145.468 94.7719C145.684 94.9152 145.914 95.0333 146.156 95.1238C147.148 95.479 148.101 95.479 148.921 95.6716C149.309 95.7476 149.683 95.8819 150.032 96.07C150.362 96.2526 150.627 96.4816 150.901 96.6676C151.108 96.8407 151.351 96.966 151.611 97.0349C151.872 97.1037 152.144 97.1143 152.409 97.066C152.789 96.9597 152.899 96.734 152.885 96.734C152.733 96.8356 152.564 96.9087 152.386 96.9498C152.14 96.9725 151.891 96.9435 151.657 96.8646C151.422 96.7857 151.207 96.6587 151.024 96.4916C150.766 96.3024 150.498 96.06 150.157 95.8509C149.791 95.641 149.395 95.4887 148.983 95.3993C148.13 95.1869 147.161 95.1736 146.262 94.8383C146.043 94.7578 145.833 94.6531 145.637 94.5262C145.459 94.4033 145.359 94.224 145.445 94.1477C145.531 94.0713 145.776 94.0315 145.991 94.0182L146.652 93.9751L148.934 93.8057C149.595 93.7559 150.108 93.7061 150.471 93.6663C150.662 93.6617 150.851 93.6327 151.034 93.58Z" fill="#FF9A6C"/>
<path d="M138.733 92.4645C139.108 92.6171 139.509 92.6927 139.913 92.687C140.355 92.7114 140.798 92.6925 141.236 92.6305C141.715 92.5376 142.228 92.4181 142.787 92.2985L143.954 92.0263H143.881C145.488 92.4546 146.662 92.7235 146.682 92.6571C146.702 92.5907 145.558 92.2155 143.954 91.7507H143.924H143.885L142.724 92.0064L141.193 92.3649C140.775 92.4351 140.353 92.474 139.93 92.4811C139.192 92.4845 138.739 92.4181 138.733 92.4645Z" fill="#FF9A6C"/>
<path d="M188.346 85.0675C188.321 85.0875 188.293 85.1043 188.263 85.1173L188.009 85.2501L187.017 85.7514L183.416 87.5575C182.575 87.9426 181.774 88.4108 181.025 88.9552L178.413 90.7945L172.415 94.9943L168.777 97.5275L168.794 97.4079L174.941 105.688C175.695 106.714 176.3 107.537 176.723 108.118C176.925 108.394 177.08 108.613 177.196 108.782L177.315 108.955C177.341 108.995 177.355 109.015 177.351 109.015C177.348 109.015 177.335 109.015 177.302 108.962L177.173 108.799L176.677 108.161L174.875 105.751L168.691 97.5075L168.638 97.4378L168.711 97.388L172.332 94.8549L178.337 90.6617L180.962 88.839C181.719 88.2943 182.529 87.8282 183.379 87.4479L187.017 85.6884L188.009 85.2202L188.267 85.1007C188.292 85.0869 188.319 85.0758 188.346 85.0675Z" fill="#263238"/>
<g opacity="0.3">
<path d="M135.32 94.0614C135.255 94.0794 135.197 94.117 135.154 94.1692C135.11 94.2214 135.084 94.2856 135.078 94.3533C135.072 94.421 135.088 94.4888 135.121 94.5476C135.155 94.6064 135.206 94.6534 135.267 94.6823C136.018 95.0607 137.142 95.5919 137.615 95.6318C138.353 95.7015 142.129 94.7785 142.228 94.4963C142.327 94.2141 139.731 92.9127 139.153 92.9725C138.736 93.0156 136.517 93.6896 135.32 94.0614Z" fill="black"/>
</g>
<path d="M191.993 53.6504C191.755 53.2368 191.396 52.9069 190.965 52.7055C190.534 52.5041 190.051 52.4411 189.583 52.5249C189.014 52.1142 188.324 51.9062 187.624 51.9338C186.923 51.9615 186.252 52.2233 185.717 52.6776C185.297 52.4394 184.822 52.3147 184.339 52.3156C183.856 52.3164 183.382 52.4429 182.962 52.6827C182.543 52.9224 182.192 53.2673 181.945 53.6836C181.697 54.0999 181.562 54.5734 181.551 55.058C181.067 54.9941 180.575 55.0839 180.145 55.3148C179.714 55.5456 179.366 55.906 179.15 56.3454C178.934 56.7847 178.86 57.281 178.939 57.7646C179.018 58.2482 179.245 58.6949 179.59 59.042C179.063 59.2233 178.621 59.5953 178.352 60.0856C178.083 60.5759 178.006 61.1492 178.135 61.6937C178.264 62.2382 178.591 62.7148 179.051 63.0305C179.512 63.3462 180.073 63.4784 180.625 63.4012L191.63 56.2831C191.951 55.9343 192.158 55.4949 192.223 55.0241C192.288 54.5533 192.208 54.0739 191.993 53.6504Z" fill="#263238"/>
<path d="M180.304 63.7332C180.445 61.3326 181.482 59.0735 183.207 57.4061C184.933 55.7386 187.221 54.7852 189.616 54.736H190.108C195.429 54.9385 198.233 59.5898 197.882 64.925V85.0542L198.431 87.0462L192.327 93.6231L184.391 90.1836L185.873 86.9931L185.158 81.7707C185.158 81.7707 180.03 81.0802 179.868 75.9508C179.782 73.474 180.03 68.348 180.304 63.7332Z" fill="#FFBF9D"/>
<path d="M185.158 81.7707C187.519 81.7184 189.815 80.9854 191.772 79.6592C191.772 79.6592 190.535 84.0715 185.426 83.7162L185.158 81.7707Z" fill="#FF9A6C"/>
<path d="M181.895 68.0725C181.897 68.2639 181.974 68.4469 182.108 68.5826C182.243 68.7183 182.425 68.7961 182.616 68.7996C182.707 68.8049 182.8 68.792 182.886 68.7615C182.973 68.7309 183.053 68.6835 183.122 68.6217C183.19 68.56 183.246 68.4853 183.286 68.4018C183.325 68.3184 183.348 68.2279 183.353 68.1356C183.35 67.945 183.274 67.7629 183.14 67.6278C183.006 67.4927 182.825 67.4152 182.635 67.4118C182.543 67.406 182.451 67.4185 182.364 67.4486C182.277 67.4787 182.197 67.5258 182.128 67.5872C182.059 67.6486 182.003 67.7231 181.963 67.8064C181.923 67.8897 181.9 67.9801 181.895 68.0725Z" fill="#263238"/>
<path d="M181.455 66.2232C181.548 66.3162 182.093 65.8912 182.877 65.8912C183.66 65.8912 184.246 66.2597 184.328 66.1634C184.368 66.1203 184.275 65.9476 184.021 65.7717C183.676 65.5414 183.268 65.4253 182.854 65.4397C182.446 65.4468 182.051 65.584 181.726 65.8314C181.488 66.0041 181.409 66.18 181.455 66.2232Z" fill="#263238"/>
<path d="M188.763 68.2949C188.764 68.4858 188.84 68.6684 188.974 68.8036C189.109 68.9389 189.29 69.0161 189.48 69.0187C189.572 69.0241 189.664 69.0111 189.751 68.9806C189.838 68.9501 189.918 68.9026 189.987 68.8408C190.055 68.7791 190.111 68.7044 190.15 68.6209C190.19 68.5375 190.213 68.447 190.218 68.3547C190.217 68.1632 190.141 67.9798 190.007 67.8438C189.873 67.7078 189.691 67.6302 189.5 67.6276C189.408 67.6218 189.315 67.6345 189.228 67.6651C189.141 67.6956 189.06 67.7434 188.992 67.8055C188.923 67.8677 188.867 67.943 188.828 68.027C188.789 68.1111 188.766 68.2021 188.763 68.2949Z" fill="#263238"/>
<path d="M189.176 66.21C189.269 66.3029 189.814 65.878 190.598 65.878C191.382 65.878 191.967 66.2465 192.049 66.1469C192.089 66.1037 191.997 65.9344 191.739 65.7551C191.394 65.5277 190.987 65.4118 190.575 65.4231C190.167 65.4302 189.772 65.5674 189.447 65.8149C189.209 65.9942 189.13 66.1668 189.176 66.21Z" fill="#263238"/>
<path d="M186.448 72.1162C186.448 72.0698 185.962 71.9967 185.168 71.9104C184.967 71.9104 184.778 71.8573 184.742 71.7212C184.718 71.5133 184.759 71.303 184.861 71.1202L185.423 69.5764C186.203 67.3753 186.762 65.5692 186.673 65.5393C186.584 65.5094 185.883 67.2657 185.102 69.4669C184.917 70.0069 184.738 70.5249 184.566 71.0206C184.447 71.2658 184.415 71.5449 184.477 71.8108C184.508 71.8804 184.553 71.9423 184.61 71.9922C184.668 72.0422 184.735 72.0788 184.808 72.0996C184.916 72.1269 185.027 72.1402 185.139 72.1395C185.574 72.1862 186.014 72.1784 186.448 72.1162Z" fill="#263238"/>
<path d="M192.4 64.5499C192.344 64.3308 191.639 64.3839 190.826 64.2179C190.013 64.0519 189.368 63.7531 189.245 63.939C189.193 64.0254 189.295 64.2345 189.546 64.4603C189.876 64.7398 190.273 64.9286 190.697 65.0081C191.113 65.0929 191.545 65.0654 191.947 64.9284C192.254 64.8122 192.417 64.6528 192.4 64.5499Z" fill="#263238"/>
<path d="M184.365 64.3872C184.196 64.2079 183.551 64.3872 182.771 64.4138C181.991 64.4403 181.329 64.3009 181.18 64.4901C181.114 64.5798 181.22 64.759 181.511 64.9284C181.912 65.1302 182.356 65.2283 182.805 65.2138C183.253 65.1993 183.69 65.0727 184.077 64.8454C184.348 64.6594 184.438 64.4735 184.365 64.3872Z" fill="#263238"/>
<path d="M180.747 61.376C180.747 61.376 182.03 58.1357 183.558 57.3522C185.406 56.4093 186.253 58.4511 188.022 57.9133C189.791 57.3754 191.557 56.4691 193.405 57.8137C195.429 59.2844 194.516 60.3668 194.685 62.6376C195.373 71.8573 197.105 74.4303 197.492 70.0744C197.535 69.5964 198.845 69.1913 198.997 67.1761C199.198 64.5632 199.232 61.3926 198.617 59.5401C198.094 57.9896 197.188 56.9306 195.574 55.7719C193.028 53.9492 189.579 53.9791 187.245 54.2646C184.91 54.5501 180.453 57.3555 180.747 61.376Z" fill="#263238"/>
<path d="M197.165 69.9383C197.167 69.75 197.207 69.564 197.283 69.3917C197.358 69.2194 197.468 69.0644 197.606 68.9361C197.743 68.8078 197.905 68.7089 198.082 68.6455C198.258 68.5821 198.446 68.5554 198.633 68.5671C199.589 68.6369 200.66 69.1581 200.637 71.1368C200.597 74.6461 197.095 73.8825 197.092 73.7928C197.089 73.7032 197.135 71.4057 197.165 69.9383Z" fill="#FFBF9D"/>
<path d="M197.869 72.4714C197.869 72.4714 197.929 72.5146 198.031 72.561C198.174 72.6253 198.337 72.6312 198.484 72.5776C198.858 72.4448 199.175 71.8605 199.198 71.2264C199.212 70.9256 199.156 70.6258 199.036 70.3499C199.006 70.24 198.949 70.1392 198.87 70.0565C198.792 69.9737 198.695 69.9115 198.587 69.8752C198.517 69.8589 198.443 69.866 198.378 69.8954C198.312 69.9247 198.258 69.9747 198.223 70.0378C198.177 70.1374 198.197 70.2071 198.18 70.2138C198.163 70.2204 198.104 70.154 198.134 70.0079C198.154 69.9213 198.203 69.8441 198.273 69.7888C198.368 69.7199 198.487 69.6903 198.603 69.7058C198.746 69.7354 198.88 69.8017 198.99 69.8983C199.1 69.9949 199.183 70.1184 199.232 70.2569C199.377 70.5621 199.446 70.8983 199.433 71.2363C199.4 71.9435 199.033 72.6009 198.527 72.7403C198.433 72.7663 198.335 72.7712 198.239 72.7546C198.143 72.7379 198.052 72.7002 197.972 72.644C197.872 72.5544 197.856 72.4747 197.869 72.4714Z" fill="#FF9A6C"/>
<path d="M196.957 63.1456C196.535 63.5025 196.032 63.7489 195.492 63.8627C194.946 63.9258 194.315 63.6237 194.212 63.0825C194.166 62.8401 194.212 62.5546 194.057 62.3687C193.901 62.1828 193.511 62.2259 193.217 62.2625C192.205 62.3919 190.995 61.2897 190.717 60.3037C190.587 60.4957 190.39 60.6313 190.165 60.6831C189.94 60.7349 189.703 60.6989 189.503 60.5825C189.178 60.3889 188.889 60.1407 188.647 59.8488C188.333 59.5168 187.896 59.1848 187.433 59.2711C187.19 59.362 186.937 59.4233 186.679 59.4537C186.22 59.4239 185.985 58.8893 185.906 58.4345C185.826 57.9797 185.76 57.4385 185.367 57.2061C184.973 56.9737 184.54 57.1231 184.12 57.2061C183.7 57.2891 183.151 57.2061 183.032 56.7778C183.013 56.6667 183.015 56.5527 183.04 56.4426C183.065 56.3325 183.112 56.2286 183.178 56.1371C183.453 55.7089 183.863 55.3858 184.343 55.2197C184.822 55.0535 185.344 55.0539 185.823 55.2207C185.983 54.6332 186.313 54.1064 186.771 53.7073C187.229 53.3081 187.795 53.0544 188.397 52.9783C188.999 52.9022 189.61 53.0072 190.152 53.2799C190.695 53.5526 191.144 53.9808 191.444 54.5103C191.808 54.1648 192.25 53.9126 192.732 53.7751C193.213 53.6376 193.721 53.6189 194.211 53.7206C194.702 53.8223 195.161 54.0414 195.549 54.3592C195.937 54.677 196.243 55.0841 196.441 55.5461C196.867 55.4247 197.318 55.4316 197.74 55.5659C198.162 55.7002 198.536 55.9561 198.814 56.3016C199.092 56.6472 199.263 57.0673 199.306 57.5096C199.348 57.952 199.26 58.3971 199.053 58.7897C199.688 59.1217 200.237 59.7525 200.267 60.4763C200.296 61.2 199.605 61.9404 198.901 61.7645C199.042 62.0467 199.073 62.3723 198.986 62.676C198.899 62.9797 198.701 63.2393 198.431 63.4028C198.162 63.5663 197.841 63.6218 197.533 63.5581C197.224 63.4944 196.951 63.3163 196.768 63.0593" fill="#263238"/>
<path d="M185.592 56.2499C185.592 56.2499 185.592 56.2698 185.592 56.313C185.595 56.3754 185.603 56.4375 185.615 56.4989C185.667 56.7334 185.758 56.9577 185.883 57.1629C186.081 57.4921 186.352 57.7705 186.676 57.9763C187.101 58.259 187.606 58.3932 188.115 58.3581L188.052 58.2817C187.955 58.6035 187.988 58.9504 188.144 59.2478C188.306 59.5605 188.513 59.847 188.759 60.0978C188.876 60.244 189.009 60.3766 189.156 60.4928C189.324 60.6023 189.516 60.6695 189.715 60.6887C189.922 60.7136 190.132 60.6876 190.326 60.613C190.521 60.5384 190.695 60.4174 190.833 60.2604L190.7 60.2239C190.757 60.5873 190.888 60.9348 191.086 61.2446C191.283 61.5543 191.543 61.8195 191.848 62.0234C192.185 62.2624 192.589 62.3859 193.002 62.3753C193.39 62.35 193.772 62.258 194.129 62.103L194.033 62.0632C194.223 62.4847 194.515 62.8513 194.883 63.1289C195.051 63.2686 195.249 63.3689 195.46 63.4223C195.672 63.4757 195.893 63.481 196.107 63.4377C196.472 63.35 196.804 63.1572 197.062 62.883C197.32 62.6088 197.492 62.2651 197.558 61.8939L197.479 61.9337C197.85 62.1236 198.276 62.1776 198.683 62.0864C198.986 62.0227 199.27 61.8886 199.513 61.6947C199.664 61.5722 199.793 61.4238 199.893 61.2564C199.928 61.1991 199.957 61.1378 199.979 61.0738C199.849 61.2953 199.678 61.4901 199.476 61.6482C199.237 61.8277 198.96 61.9493 198.666 62.0034C198.28 62.0796 197.879 62.0223 197.529 61.8408L197.462 61.8042V61.8773C197.396 62.2239 197.23 62.5437 196.986 62.7977C196.742 63.0517 196.43 63.2291 196.087 63.3082C195.892 63.3465 195.691 63.3401 195.498 63.2895C195.306 63.2389 195.127 63.1455 194.976 63.016C194.631 62.7501 194.357 62.4021 194.179 62.0034L194.149 61.9404L194.086 61.9636C193.744 62.1118 193.38 62.2005 193.008 62.2259C192.627 62.2331 192.254 62.1167 191.944 61.8939C191.655 61.7035 191.409 61.4545 191.221 61.1629C191.034 60.8713 190.909 60.5435 190.856 60.2007L190.833 60.0347L190.727 60.1675C190.604 60.3064 190.45 60.4132 190.277 60.4786C190.104 60.544 189.918 60.566 189.735 60.5426C189.559 60.529 189.39 60.472 189.242 60.3766C189.104 60.2656 188.978 60.1411 188.865 60.0048C188.628 59.7634 188.425 59.4896 188.263 59.1914C188.12 58.9237 188.087 58.6102 188.171 58.3182L188.197 58.2352H188.111C187.628 58.2761 187.145 58.1597 186.732 57.9032C186.417 57.7074 186.148 57.4445 185.945 57.133C185.777 56.8618 185.657 56.5628 185.592 56.2499Z" fill="#455A64"/>
<path d="M188.392 73.8625C188.28 73.6951 188.135 73.5527 187.966 73.4442C187.8 73.357 187.618 73.3054 187.431 73.2928C187.244 73.2802 187.057 73.3069 186.881 73.3711C186.56 73.4854 186.271 73.6756 186.038 73.9256C185.628 74.3539 185.76 74.7921 185.916 75.7848C186.908 75.5889 187.9 75.7848 188.812 75.393C188.85 74.8497 188.702 74.3097 188.392 73.8625Z" fill="#FF9A6C"/>
<path d="M185.916 75.7848C186.277 75.6641 186.653 75.5959 187.033 75.5823C187.38 75.5457 187.79 75.5125 188.244 75.4428L188.412 75.4129C188.466 75.4071 188.519 75.396 188.571 75.3797C188.613 75.3687 188.652 75.3451 188.68 75.3119C188.709 75.2787 188.728 75.2376 188.733 75.1938C188.743 75.0822 188.733 74.9698 188.703 74.8618C188.673 74.7357 188.644 74.6095 188.607 74.4833C188.548 74.2437 188.442 74.0181 188.296 73.8193C188.16 73.6481 187.968 73.5306 187.754 73.4873C187.55 73.4509 187.34 73.4509 187.136 73.4873C186.954 73.5074 186.775 73.5498 186.603 73.6135C186.353 73.7007 186.135 73.8629 185.978 74.0783C185.869 74.231 185.83 74.3372 185.813 74.3306C185.815 74.2243 185.848 74.1207 185.906 74.0318C186.053 73.7802 186.278 73.5842 186.547 73.4741C186.727 73.3944 186.918 73.3397 187.113 73.3114C187.339 73.268 187.571 73.268 187.797 73.3114C188.058 73.3634 188.292 73.5056 188.458 73.7131C188.622 73.9334 188.741 74.1838 188.809 74.4501C188.845 74.5829 188.875 74.7124 188.905 74.8386C188.944 74.9767 188.954 75.1213 188.935 75.2635C188.921 75.3452 188.884 75.4212 188.829 75.4826C188.775 75.5381 188.708 75.5792 188.634 75.6022C188.571 75.6218 188.507 75.6351 188.442 75.642L188.267 75.6686C187.804 75.7283 187.387 75.7483 187.04 75.7649C186.349 75.7615 185.922 75.818 185.916 75.7848Z" fill="#263238"/>
<path d="M191.63 69.8885C191.6 69.945 191.143 69.7092 190.532 69.6827C189.92 69.6561 189.441 69.8354 189.414 69.7756C189.388 69.7159 189.51 69.6694 189.712 69.5897C189.979 69.4924 190.263 69.4498 190.547 69.4647C190.831 69.4795 191.109 69.5514 191.365 69.676C191.547 69.7723 191.643 69.8653 191.63 69.8885Z" fill="#FF9A6C"/>
<path d="M183.783 69.9017C183.756 69.9581 183.32 69.7722 182.754 69.7755C182.189 69.7789 181.762 69.9449 181.726 69.8884C181.69 69.832 181.809 69.7822 181.994 69.7025C182.237 69.6065 182.496 69.5581 182.758 69.5597C183.019 69.5604 183.278 69.6135 183.518 69.7158C183.7 69.7955 183.803 69.8785 183.783 69.9017Z" fill="#FF9A6C"/>
<path d="M185.899 65.1641C185.899 65.1376 185.969 65.0712 186.064 64.945C186.191 64.7863 186.273 64.5957 186.299 64.3939C186.316 64.1921 186.279 63.9894 186.193 63.8062C186.124 63.6635 186.061 63.5772 186.081 63.5539C186.101 63.5307 186.207 63.5805 186.319 63.7266C186.47 63.9241 186.539 64.1725 186.512 64.4199C186.485 64.6673 186.363 64.8946 186.174 65.0546C186.028 65.1674 185.912 65.1874 185.899 65.1641Z" fill="#FF9A6C"/>
<path d="M187.519 65.2105C187.496 65.2105 187.407 65.1641 187.308 65.0246C187.183 64.8353 187.103 64.6193 187.076 64.3938C187.048 64.1698 187.073 63.9422 187.149 63.7298C187.212 63.5671 187.281 63.4875 187.308 63.4974C187.334 63.5074 187.225 63.9025 187.288 64.3739C187.351 64.8453 187.566 65.1707 187.519 65.2105Z" fill="#FF9A6C"/>
<path d="M195.3 56.2101C195.356 56.4494 195.383 56.6947 195.379 56.9405C195.396 57.1412 195.35 57.3421 195.247 57.5149C195.112 57.6545 194.928 57.7356 194.734 57.7406C194.498 57.7524 194.261 57.7323 194.03 57.6809C193.997 57.6743 193.963 57.6811 193.935 57.6997C193.907 57.7184 193.888 57.7475 193.881 57.7805C193.875 57.8135 193.882 57.8478 193.9 57.8758C193.919 57.9038 193.948 57.9233 193.981 57.9299C194.447 58.0162 195.095 58.1092 195.439 57.6809C195.577 57.4771 195.646 57.2335 195.634 56.987C195.641 56.6964 195.61 56.4062 195.541 56.1238C195.502 55.9644 195.26 56.0508 195.3 56.2101Z" fill="#455A64"/>
<path d="M196.12 56.0839C196.088 56.3727 196.099 56.6645 196.15 56.9504C196.17 57.1976 196.271 57.4311 196.437 57.6144C196.834 57.9896 197.466 57.807 197.915 57.6576C197.943 57.6433 197.964 57.6196 197.976 57.5908C197.988 57.562 197.988 57.53 197.978 57.5006C197.968 57.4712 197.948 57.4464 197.921 57.4307C197.895 57.4151 197.863 57.4096 197.833 57.4152C197.611 57.4995 197.378 57.5531 197.142 57.5746C197.046 57.586 196.95 57.5783 196.857 57.5521C196.765 57.5259 196.678 57.4817 196.603 57.4219C196.477 57.2661 196.403 57.0744 196.391 56.8741C196.353 56.6303 196.346 56.3825 196.371 56.137C196.371 55.9743 196.137 55.9246 196.12 56.0872V56.0839Z" fill="#455A64"/>
<path d="M196.699 60.0479C196.642 59.8087 196.616 59.5634 196.619 59.3175C196.602 59.1179 196.648 58.9179 196.752 58.7465C196.818 58.6763 196.897 58.6199 196.985 58.5806C197.073 58.5413 197.168 58.5198 197.264 58.5174C197.501 58.5051 197.738 58.5263 197.968 58.5805C198 58.583 198.031 58.5737 198.056 58.5546C198.082 58.5354 198.099 58.5076 198.105 58.4765C198.111 58.4454 198.106 58.4131 198.09 58.3857C198.074 58.3584 198.048 58.3379 198.018 58.3282C197.552 58.2419 196.904 58.1489 196.56 58.5772C196.422 58.7812 196.353 59.0247 196.365 59.2711C196.356 59.5617 196.387 59.8522 196.457 60.1343C196.497 60.2936 196.738 60.2073 196.699 60.0479Z" fill="#455A64"/>
<path d="M195.875 60.1741C195.907 59.8853 195.897 59.5935 195.846 59.3076C195.825 59.0606 195.724 58.8274 195.558 58.6436C195.158 58.2684 194.529 58.451 194.076 58.6004C194.048 58.6145 194.026 58.6385 194.014 58.6679C194.002 58.6974 194.001 58.7302 194.012 58.7601C194.022 58.7901 194.044 58.815 194.071 58.8303C194.099 58.8455 194.132 58.85 194.162 58.8428C194.385 58.7585 194.617 58.7049 194.854 58.6834C194.948 58.672 195.045 58.6796 195.137 58.7058C195.229 58.732 195.314 58.7763 195.389 58.8362C195.518 58.9904 195.592 59.1829 195.601 59.384C195.64 59.6276 195.648 59.8753 195.624 60.121C195.624 60.2837 195.859 60.3368 195.875 60.1708V60.1741Z" fill="#455A64"/>
<path d="M188.072 77.5809C188.052 77.6074 187.923 77.541 187.711 77.4647C187.435 77.3671 187.144 77.3155 186.851 77.312C186.559 77.3104 186.269 77.3576 185.992 77.4514C185.78 77.5244 185.661 77.5908 185.631 77.5643C185.601 77.5377 185.717 77.4282 185.932 77.312C186.218 77.1671 186.534 77.0932 186.855 77.0962C187.174 77.0984 187.488 77.1782 187.771 77.3286C187.986 77.4448 188.101 77.561 188.072 77.5809Z" fill="#FF9A6C"/>
<path d="M137.4 130.645L131.012 139.094C131.012 139.094 120.315 135.412 118.992 136.856L134.864 149.881L145.353 137.128L137.4 130.645Z" fill="#455A64"/>
<path d="M136.484 142.43C136.598 142.602 136.645 142.811 136.616 143.015C136.587 143.22 136.483 143.406 136.326 143.539C136.159 143.661 135.952 143.714 135.748 143.686C135.543 143.659 135.357 143.554 135.228 143.393C135.107 143.211 135.057 142.991 135.089 142.774C135.121 142.557 135.231 142.36 135.4 142.221C135.75 142.005 136.368 142.118 136.524 142.5" fill="#E0E0E0"/>
<path d="M134.864 149.881L135.906 148.612L120.278 136.564C120.278 136.564 119.319 136.292 118.992 136.856L134.864 149.881Z" fill="#E0E0E0"/>
<path d="M130.823 138.802C130.76 138.881 131.121 139.233 131.296 139.798C131.471 140.362 131.412 140.853 131.508 140.883C131.604 140.913 131.838 140.365 131.627 139.688C131.415 139.011 130.863 138.732 130.823 138.802Z" fill="#263238"/>
<path d="M128.581 138.128C128.502 138.188 128.73 138.596 128.727 139.14C128.723 139.685 128.515 140.097 128.595 140.156C128.674 140.216 129.081 139.824 129.074 139.137C129.067 138.45 128.657 138.068 128.581 138.128Z" fill="#263238"/>
<path d="M126.022 139.35C126.078 139.426 126.501 139.124 126.65 138.536C126.799 137.948 126.574 137.48 126.488 137.517C126.402 137.553 126.442 137.968 126.313 138.45C126.184 138.931 125.936 139.28 126.022 139.35Z" fill="#263238"/>
<path d="M132.49 137.039C132.467 137.135 132.91 137.321 133.323 137.703C133.736 138.085 133.965 138.509 134.06 138.476C134.156 138.443 134.06 137.895 133.558 137.444C133.055 136.992 132.503 136.946 132.49 137.039Z" fill="#263238"/>
<path d="M133.809 135.359C133.783 135.389 134.051 135.691 134.609 136.023C134.937 136.206 135.286 136.349 135.648 136.448C135.865 136.507 136.086 136.552 136.309 136.581C136.439 136.601 136.572 136.601 136.703 136.581C136.798 136.566 136.886 136.521 136.954 136.451C137.021 136.382 137.064 136.292 137.076 136.196C137.081 136.109 137.066 136.023 137.032 135.944C136.998 135.864 136.947 135.793 136.881 135.737C136.781 135.655 136.669 135.587 136.55 135.535C136.347 135.437 136.134 135.358 135.916 135.299C135.549 135.202 135.17 135.162 134.791 135.18C134.13 135.219 133.779 135.409 133.799 135.445C133.819 135.482 134.189 135.402 134.791 135.429C135.142 135.444 135.49 135.505 135.826 135.608C136.023 135.67 136.214 135.748 136.398 135.84C136.603 135.937 136.746 136.053 136.729 136.172C136.729 136.212 136.712 136.225 136.64 136.249C136.543 136.261 136.445 136.261 136.349 136.249C135.788 136.188 135.241 136.04 134.725 135.81C134.16 135.538 133.842 135.316 133.809 135.359Z" fill="#263238"/>
<path d="M133.822 135.551C133.822 135.588 134.219 135.435 134.659 134.954C134.912 134.669 135.115 134.344 135.261 133.991C135.348 133.777 135.412 133.555 135.453 133.327C135.496 133.186 135.502 133.037 135.471 132.893C135.439 132.75 135.372 132.617 135.274 132.507C135.202 132.451 135.116 132.416 135.025 132.407C134.934 132.398 134.843 132.416 134.761 132.457C134.641 132.516 134.53 132.592 134.431 132.683C134.258 132.838 134.111 133.019 133.994 133.221C133.794 133.555 133.68 133.934 133.664 134.323C133.637 134.987 133.885 135.349 133.915 135.319C133.894 134.987 133.894 134.655 133.915 134.323C133.965 133.982 134.088 133.656 134.275 133.367C134.384 133.2 134.516 133.049 134.666 132.919C134.828 132.769 134.996 132.686 135.052 132.753C135.098 132.825 135.127 132.907 135.138 132.991C135.148 133.076 135.141 133.162 135.115 133.244C135.083 133.447 135.031 133.646 134.96 133.838C134.841 134.168 134.675 134.479 134.467 134.761C134.107 135.283 133.789 135.505 133.822 135.551Z" fill="#263238"/>
<path d="M127.14 129.738L120.219 138.317C120.219 138.317 109.208 134.137 107.776 135.598L123.863 149.665L135.195 136.74L127.14 129.738Z" fill="#455A64"/>
<path d="M125.8 141.969C125.915 142.151 125.958 142.369 125.921 142.582C125.885 142.794 125.771 142.985 125.602 143.118C125.425 143.238 125.208 143.286 124.996 143.251C124.785 143.217 124.595 143.103 124.464 142.932C124.345 142.737 124.301 142.505 124.341 142.281C124.381 142.056 124.503 141.854 124.683 141.713C125.053 141.501 125.691 141.637 125.843 142.045" fill="#E0E0E0"/>
<path d="M123.863 149.665L124.99 148.383L109.118 135.336C109.118 135.336 108.126 135.02 107.772 135.598L123.863 149.665Z" fill="#E0E0E0"/>
<path d="M120.03 138.008C119.964 138.088 120.325 138.466 120.493 139.061C120.662 139.655 120.576 140.163 120.675 140.196C120.774 140.229 121.055 139.668 120.84 138.954C120.625 138.241 120.077 137.919 120.03 138.008Z" fill="#263238"/>
<path d="M117.735 137.231C117.649 137.294 117.874 137.726 117.851 138.29C117.828 138.855 117.6 139.286 117.679 139.343C117.759 139.399 118.198 139.011 118.215 138.3C118.231 137.59 117.802 137.158 117.735 137.231Z" fill="#263238"/>
<path d="M115.024 138.423C115.08 138.503 115.53 138.204 115.705 137.593C115.88 136.982 115.659 136.494 115.57 136.531C115.48 136.567 115.507 136.996 115.355 137.494C115.203 137.992 114.945 138.347 115.024 138.423Z" fill="#263238"/>
<path d="M121.822 136.229C121.793 136.328 122.249 136.534 122.666 136.953C123.082 137.371 123.307 137.816 123.406 137.783C123.506 137.749 123.406 137.178 122.92 136.694C122.434 136.209 121.839 136.132 121.822 136.229Z" fill="#263238"/>
<path d="M123.251 134.522C123.221 134.555 123.489 134.874 124.061 135.223C124.397 135.425 124.755 135.585 125.129 135.701C125.346 135.768 125.567 135.82 125.79 135.857C125.925 135.886 126.063 135.894 126.2 135.88C126.301 135.869 126.394 135.825 126.467 135.755C126.539 135.684 126.586 135.592 126.601 135.492C126.608 135.402 126.595 135.312 126.562 135.229C126.529 135.146 126.478 135.071 126.412 135.01C126.312 134.922 126.201 134.847 126.081 134.788C125.869 134.68 125.648 134.591 125.42 134.522C125.042 134.409 124.648 134.355 124.253 134.363C123.592 134.383 123.195 134.569 123.208 134.605C123.221 134.642 123.618 134.575 124.246 134.622C124.611 134.65 124.971 134.723 125.318 134.841C125.519 134.914 125.715 135.001 125.903 135.103C126.111 135.209 126.26 135.332 126.234 135.435C126.234 135.478 126.234 135.492 126.138 135.508C126.037 135.518 125.936 135.513 125.837 135.492C125.255 135.411 124.689 135.24 124.16 134.984C123.621 134.721 123.291 134.479 123.251 134.522Z" fill="#263238"/>
<path d="M123.254 134.725C123.271 134.761 123.674 134.615 124.144 134.13C124.583 133.668 124.887 133.094 125.023 132.47C125.074 132.326 125.085 132.171 125.057 132.021C125.03 131.871 124.963 131.73 124.865 131.614C124.792 131.553 124.703 131.513 124.609 131.501C124.514 131.489 124.418 131.504 124.332 131.544C124.212 131.603 124.101 131.677 124.002 131.767C123.818 131.923 123.658 132.107 123.529 132.311C123.311 132.654 123.18 133.045 123.148 133.45C123.099 134.144 123.347 134.522 123.377 134.502C123.406 134.482 123.294 134.094 123.403 133.483C123.464 133.126 123.602 132.786 123.806 132.487C123.925 132.318 124.066 132.166 124.226 132.035C124.402 131.883 124.587 131.803 124.633 131.876C124.679 131.952 124.707 132.038 124.716 132.126C124.725 132.214 124.715 132.303 124.686 132.387C124.644 132.596 124.583 132.801 124.504 132.998C124.369 133.338 124.186 133.656 123.962 133.944C123.562 134.452 123.221 134.675 123.254 134.725Z" fill="#263238"/>
<path d="M132.424 131.192C132.093 130.611 144.936 139.539 144.936 139.539L157.052 126.033L179.686 148.941L181.567 139.233L185.003 118.029L165.699 98.736C165.699 98.736 162.488 95.5886 157.62 98.3542C153.629 100.622 132.424 131.192 132.424 131.192Z" fill="#263238"/>
<path d="M121.326 133.39L144.347 103.633C144.347 103.633 150.475 97.8197 156.893 99.5926C160.719 100.648 182.483 121.973 182.483 121.973L189.252 124.728L199.585 142.527C199.585 142.527 186.587 154.396 177.126 147.523C168.255 141.079 152.637 120.675 152.637 120.675L133.227 142.019L121.326 133.39Z" fill="#263238"/>
<path d="M167.577 138.506C167.546 138.483 167.517 138.456 167.491 138.427L167.253 138.178C167.041 137.962 166.744 137.626 166.357 137.182C165.59 136.312 164.492 135.04 163.143 133.443C160.441 130.256 156.718 125.784 152.561 120.724H152.72C152.128 121.388 151.503 122.102 150.872 122.819C146.107 128.224 141.719 133.055 138.501 136.508C136.898 138.237 135.582 139.618 134.666 140.568C134.213 141.033 133.855 141.395 133.601 141.65L133.32 141.929C133.258 141.991 133.225 142.021 133.221 142.019C133.245 141.981 133.274 141.947 133.307 141.916L133.571 141.624L134.609 140.515L138.402 136.408C141.586 132.929 145.941 128.085 150.713 122.696L152.561 120.601L152.641 120.515L152.713 120.605C156.87 125.668 160.573 130.153 163.245 133.367L166.413 137.142L167.283 138.138L167.507 138.397C167.535 138.43 167.559 138.467 167.577 138.506Z" fill="#455A64"/>
<path d="M188.911 138.865C188.737 138.819 188.568 138.752 188.409 138.666C187.963 138.452 187.544 138.188 187.159 137.879C185.857 136.862 184.944 135.426 184.573 133.813C184.203 132.199 184.398 130.507 185.125 129.021C185.337 128.573 185.598 128.151 185.906 127.763C186.011 127.616 186.133 127.483 186.269 127.364C185.882 127.905 185.544 128.48 185.258 129.081C184.582 130.545 184.41 132.193 184.769 133.766C185.128 135.339 185.998 136.747 187.242 137.769C187.767 138.18 188.326 138.546 188.911 138.865Z" fill="#455A64"/>
<path d="M169.915 109.924C169.951 109.885 172.712 112.604 176.075 115.997C179.438 119.39 182.133 122.172 182.093 122.212C182.053 122.252 179.292 119.532 175.93 116.139C172.567 112.746 169.865 109.964 169.915 109.924Z" fill="#455A64"/>
<path d="M209.264 95.6218C205.369 84.9978 198.144 80.9242 198.144 80.9242L186.157 86.0901L182.702 87.7501C182.286 87.9499 181.886 88.1831 181.508 88.4473L168.757 97.3648L177.381 108.912L183.565 104.725C183.565 104.725 184.755 111.057 184.507 113.334C184.107 117.013 181.862 122.331 181.862 122.331C181.862 122.331 190.816 131.8 192.185 136.727C193.554 141.654 199.605 143.948 202.459 143.832C205.313 143.715 203.143 141.77 203.143 141.77C203.143 141.77 208.523 134.977 210.008 125.923C211.493 116.87 212.085 103.291 209.264 95.6218Z" fill="#C53F3F"/>
<path d="M196.189 137.769C196.149 137.708 196.116 137.642 196.09 137.573L195.842 136.999C195.634 136.498 195.32 135.781 194.913 134.901C194.506 134.021 193.994 132.988 193.389 131.863C192.784 130.737 192.066 129.522 191.272 128.281C190.479 127.039 189.652 125.894 188.882 124.874C188.111 123.855 187.377 122.962 186.742 122.235C186.107 121.508 185.588 120.907 185.218 120.522L184.795 120.06C184.699 119.954 184.652 119.898 184.659 119.891C184.719 119.933 184.774 119.981 184.824 120.034L185.271 120.469C185.658 120.847 186.2 121.415 186.848 122.129C187.496 122.842 188.24 123.736 189.027 124.748C189.814 125.761 190.631 126.916 191.438 128.158C192.245 129.399 192.946 130.631 193.551 131.763C194.156 132.895 194.652 133.941 195.039 134.831C195.426 135.721 195.726 136.451 195.912 136.959L196.127 137.55C196.158 137.62 196.179 137.693 196.189 137.769Z" fill="#263238"/>
<g opacity="0.3">
<path d="M199.033 134.516C198.57 133.347 197.509 132.543 196.53 131.76C192.595 128.609 189.255 124.788 185.916 121.006L194.513 133.536C194.784 134.386 195.068 135.731 195.558 136.474C196.047 137.218 196.933 137.802 197.8 137.597C199.03 137.324 199.496 135.684 199.033 134.516Z" fill="black"/>
</g>
<path d="M188.336 101.88C188.964 101.378 189.533 100.805 190.032 100.173C190.561 99.4799 190.979 98.7083 191.272 97.886C191.642 96.884 191.805 95.817 191.752 94.7497C191.699 93.6825 191.43 92.6373 190.962 91.6776C190.589 90.8892 190.097 90.1634 189.503 89.5262C188.943 88.9482 188.32 88.4358 187.645 87.999C187.698 88.0161 187.749 88.0395 187.797 88.0687C187.893 88.1252 188.042 88.1949 188.214 88.3111C188.715 88.632 189.176 89.0108 189.589 89.4399C190.207 90.0766 190.72 90.8085 191.107 91.6079C191.592 92.5843 191.87 93.6509 191.924 94.7405C191.978 95.8301 191.807 96.9191 191.421 97.9391C191.118 98.7782 190.683 99.5629 190.132 100.263C189.763 100.731 189.341 101.155 188.875 101.525C188.713 101.661 188.571 101.744 188.482 101.81C188.435 101.838 188.387 101.861 188.336 101.88Z" fill="#263238"/>
<path d="M144.057 100.499L141.874 106.372C140.624 106.434 139.371 106.367 138.134 106.173C135.916 105.784 133.419 103.43 131.957 102.358C131.548 102.085 131.232 101.693 131.05 101.234C130.869 100.776 130.831 100.272 130.942 99.7917L129.418 98.7193C127.811 97.4378 129.418 96.6908 129.418 96.6908L136.385 98.892L141.014 99.556L144.043 100.489" fill="#FFBF9D"/>
<path d="M130.565 99.6324C130.529 99.6888 131.329 100.237 132.348 100.848C133.366 101.458 134.223 101.913 134.256 101.844C134.289 101.774 133.495 101.239 132.473 100.625C131.452 100.011 130.608 99.5726 130.565 99.6324Z" fill="#FF9A6C"/>
<path d="M144.09 100.409C144.146 100.628 162.868 101.561 162.868 101.561L169.233 98.0022L175.338 106.173C175.338 106.173 167.173 110.512 165.659 110.844C164.145 111.176 139.824 106.196 139.824 106.196L144.09 100.409Z" fill="#FFBF9D"/>
<path d="M142.162 98.1982C141.842 97.9228 141.482 97.6989 141.094 97.5342L138.617 96.3522C138.475 96.2664 138.309 96.228 138.144 96.2427C137.833 96.3091 137.737 96.7042 137.728 97.0229C137.683 98.2848 137.947 99.5384 138.495 100.675L143.432 100.057C142.942 99.5029 142.717 98.7194 142.162 98.1982Z" fill="#FFBF9D"/>
<line x1="101.05" y1="25" x2="101.05" y2="81" stroke="white" strokeWidth="0.1"/>
<rect x="146" y="27" width="3" height="14" rx="1.5" fill="#D9D9D9"/>
<circle cx="60" cy="72" r="3" fill="#D9D9D9"/>
<rect x="52" y="65" width="3" height="14" rx="1.5" fill="#D9D9D9"/>
<path d="M54.2023 17.2023C56.0805 15.3241 56.0805 12.2789 54.2023 10.4008C52.3241 8.52257 49.2789 8.52257 47.4008 10.4008C45.5226 12.2789 45.5226 15.3241 47.4008 17.2023C49.2789 19.0805 52.3241 19.0805 54.2023 17.2023Z" fill="#C53F3F"/>
<path d="M53.1962 16.2005L51.7811 15.3858V14.7127C51.986 14.4648 52.1344 14.1752 52.216 13.8641C52.2647 13.8814 52.316 13.8903 52.3677 13.8904C52.5431 13.8904 52.6547 13.3465 52.6735 12.9579C52.8778 12.5255 52.5996 12.2723 52.5996 12.2723C52.5996 12.2723 52.7149 12.157 52.7913 11.6944C52.8678 11.2319 52.5218 11.425 52.2524 11.0013C51.9829 10.5776 51.7898 10.1164 50.9049 10.1164C50.6611 10.1084 50.4205 10.1739 50.2144 10.3044C50.0083 10.435 49.8462 10.6245 49.7493 10.8484C49.529 10.8492 49.3095 10.8748 49.095 10.9248C48.8242 11.0013 48.7478 11.8875 48.9784 12.2347C49.0816 12.4244 49.1367 12.6366 49.1388 12.8526C49.0774 12.7774 49.0135 12.7573 48.9784 12.9278C48.9019 13.3126 49.2103 13.8516 49.2103 13.8516L49.3695 13.8065C49.4497 14.1389 49.6044 14.4488 49.822 14.7127V15.3858L48.4068 16.2005C48.2416 16.2959 48.1043 16.4331 48.0088 16.5984C47.9134 16.7636 47.863 16.951 47.8629 17.1418V17.6081C48.7045 18.2583 49.738 18.611 50.8015 18.611C51.865 18.611 52.8985 18.2583 53.7402 17.6081V17.1418C53.7403 16.951 53.69 16.7634 53.5945 16.5982C53.499 16.4329 53.3616 16.2957 53.1962 16.2005Z" fill="#263238"/>
<path d="M154.202 17.2023C156.08 15.3241 156.08 12.2789 154.202 10.4008C152.324 8.52257 149.279 8.52257 147.401 10.4008C145.523 12.2789 145.523 15.3241 147.401 17.2023C149.279 19.0805 152.324 19.0805 154.202 17.2023Z" fill="#C53F3F"/>
<path d="M153.196 16.2005L151.781 15.3858V14.7127C151.986 14.4648 152.134 14.1752 152.216 13.8641C152.265 13.8814 152.316 13.8903 152.368 13.8904C152.543 13.8904 152.655 13.3465 152.674 12.9579C152.878 12.5255 152.6 12.2723 152.6 12.2723C152.6 12.2723 152.715 12.157 152.791 11.6944C152.868 11.2319 152.522 11.425 152.252 11.0013C151.983 10.5776 151.79 10.1164 150.905 10.1164C150.661 10.1084 150.42 10.1739 150.214 10.3044C150.008 10.435 149.846 10.6245 149.749 10.8484C149.529 10.8492 149.309 10.8748 149.095 10.9248C148.824 11.0013 148.748 11.8875 148.978 12.2347C149.082 12.4244 149.137 12.6366 149.139 12.8526C149.077 12.7774 149.014 12.7573 148.978 12.9278C148.902 13.3126 149.21 13.8516 149.21 13.8516L149.369 13.8065C149.45 14.1389 149.604 14.4488 149.822 14.7127V15.3858L148.407 16.2005C148.242 16.2959 148.104 16.4331 148.009 16.5984C147.913 16.7636 147.863 16.951 147.863 17.1418V17.6081C148.704 18.2583 149.738 18.611 150.802 18.611C151.865 18.611 152.899 18.2583 153.74 17.6081V17.1418C153.74 16.951 153.69 16.7634 153.595 16.5982C153.499 16.4329 153.362 16.2957 153.196 16.2005Z" fill="#080808"/>
<rect x="50.05" y="24.05" width="100.9" height="57.9" rx="1.95" stroke="white" strokeWidth="0.1"/>
<path d="M58.9536 10.8584C59.23 10.8584 59.4316 10.918 59.5586 11.0371C59.6855 11.1553 59.749 11.3184 59.749 11.5264C59.749 11.6201 59.7349 11.71 59.7065 11.7959C59.6782 11.8809 59.6318 11.9565 59.5674 12.0229C59.5039 12.0894 59.4189 12.1421 59.3125 12.1812C59.2061 12.2192 59.0747 12.2383 58.9185 12.2383H58.7236V13H58.2695V10.8584H58.9536ZM58.9302 11.2305H58.7236V11.8662H58.873C58.958 11.8662 59.0317 11.855 59.0942 11.8325C59.1567 11.8101 59.2051 11.7749 59.2393 11.7271C59.2734 11.6792 59.2905 11.6177 59.2905 11.5425C59.2905 11.437 59.2612 11.3589 59.2026 11.3081C59.144 11.2563 59.0532 11.2305 58.9302 11.2305ZM60.5649 13H60.1182V10.7207H60.5649V13ZM61.7061 11.3286C61.9258 11.3286 62.0942 11.3765 62.2114 11.4722C62.3286 11.5679 62.3872 11.7134 62.3872 11.9087V13H62.0752L61.9888 12.7773H61.9771C61.9302 12.8359 61.8823 12.8838 61.8335 12.9209C61.7847 12.958 61.7285 12.9854 61.665 13.0029C61.6016 13.0205 61.5244 13.0293 61.4336 13.0293C61.3369 13.0293 61.25 13.0107 61.1729 12.9736C61.0967 12.9365 61.0366 12.8799 60.9927 12.8037C60.9487 12.7266 60.9268 12.6289 60.9268 12.5107C60.9268 12.3369 60.9878 12.209 61.1099 12.127C61.2319 12.0439 61.415 11.998 61.6592 11.9893L61.9434 11.9805V11.9087C61.9434 11.8228 61.9209 11.7598 61.876 11.7197C61.8311 11.6797 61.7686 11.6597 61.6885 11.6597C61.6094 11.6597 61.5317 11.6709 61.4556 11.6934C61.3794 11.7158 61.3032 11.7441 61.2271 11.7783L61.0791 11.4766C61.166 11.4307 61.2632 11.3945 61.3706 11.3682C61.479 11.3418 61.5908 11.3286 61.7061 11.3286ZM61.9434 12.2412L61.7705 12.2471C61.626 12.251 61.5254 12.2769 61.4688 12.3247C61.4131 12.3726 61.3853 12.4355 61.3853 12.5137C61.3853 12.582 61.4053 12.6309 61.4453 12.6602C61.4854 12.6885 61.5376 12.7026 61.6021 12.7026C61.6978 12.7026 61.7783 12.6743 61.8438 12.6177C61.9102 12.561 61.9434 12.4805 61.9434 12.376V12.2412ZM62.6143 11.3623H63.1035L63.4126 12.2837C63.4224 12.313 63.4307 12.3428 63.4375 12.373C63.4443 12.4033 63.4502 12.4346 63.4551 12.4668C63.46 12.499 63.4639 12.5327 63.4668 12.5679H63.4756C63.4814 12.5151 63.4893 12.4658 63.499 12.4199C63.5098 12.374 63.5229 12.3286 63.5386 12.2837L63.8418 11.3623H64.3208L63.6279 13.2095C63.5859 13.3228 63.5312 13.417 63.4639 13.4922C63.3965 13.5684 63.3188 13.6255 63.231 13.6636C63.144 13.7017 63.0483 13.7207 62.9438 13.7207C62.8931 13.7207 62.8491 13.7178 62.812 13.7119C62.7749 13.707 62.7432 13.7017 62.7168 13.6958V13.3413C62.7373 13.3462 62.7632 13.3506 62.7944 13.3545C62.8257 13.3584 62.8584 13.3604 62.8926 13.3604C62.9551 13.3604 63.0088 13.3472 63.0537 13.3208C63.0986 13.2944 63.1362 13.2588 63.1665 13.2139C63.1968 13.1699 63.2207 13.1216 63.2383 13.0688L63.2646 12.9883L62.6143 11.3623ZM65.2319 11.3315C65.3833 11.3315 65.5137 11.3608 65.623 11.4194C65.7324 11.4771 65.8169 11.561 65.8765 11.6714C65.936 11.7817 65.9658 11.9165 65.9658 12.0757V12.2925H64.9097C64.9146 12.4185 64.9521 12.5176 65.0225 12.5898C65.0938 12.6611 65.1924 12.6968 65.3184 12.6968C65.4229 12.6968 65.5186 12.686 65.6055 12.6646C65.6924 12.6431 65.7817 12.6108 65.8735 12.5679V12.9136C65.7925 12.9536 65.7075 12.9829 65.6187 13.0015C65.5308 13.02 65.4238 13.0293 65.2979 13.0293C65.1338 13.0293 64.9883 12.999 64.8613 12.9385C64.7354 12.8779 64.6362 12.7856 64.564 12.6616C64.4927 12.5376 64.457 12.3813 64.457 12.1929C64.457 12.0015 64.4893 11.8423 64.5537 11.7153C64.6191 11.5874 64.71 11.4917 64.8262 11.4282C64.9424 11.3638 65.0776 11.3315 65.2319 11.3315ZM65.2349 11.6494C65.1479 11.6494 65.0757 11.6772 65.0181 11.7329C64.9614 11.7886 64.9287 11.876 64.9199 11.9951H65.5469C65.5459 11.9287 65.5337 11.8696 65.5103 11.8179C65.4878 11.7661 65.4536 11.7251 65.4077 11.6948C65.3628 11.6646 65.3052 11.6494 65.2349 11.6494ZM67.2432 11.3315C67.2656 11.3315 67.2915 11.333 67.3208 11.3359C67.3511 11.3379 67.3755 11.3408 67.394 11.3447L67.3604 11.7637C67.3457 11.7588 67.3247 11.7554 67.2974 11.7534C67.271 11.7505 67.248 11.749 67.2285 11.749C67.1709 11.749 67.1147 11.7563 67.0601 11.771C67.0063 11.7856 66.958 11.8096 66.915 11.8428C66.8721 11.875 66.8379 11.918 66.8125 11.9717C66.7881 12.0244 66.7759 12.0894 66.7759 12.1665V13H66.3291V11.3623H66.6675L66.7334 11.6377H66.7554C66.7876 11.582 66.8276 11.5312 66.8755 11.4854C66.9243 11.4385 66.9795 11.4014 67.041 11.374C67.1035 11.3457 67.1709 11.3315 67.2432 11.3315ZM68.6963 13H68.2437V11.7607C68.2437 11.7266 68.2441 11.6846 68.2451 11.6348C68.2461 11.584 68.2476 11.5322 68.2495 11.4795C68.2515 11.4258 68.2534 11.3774 68.2554 11.3345C68.2446 11.3472 68.2227 11.3691 68.1895 11.4004C68.1572 11.4307 68.127 11.458 68.0986 11.4824L67.8525 11.6802L67.6343 11.4077L68.3242 10.8584H68.6963V13Z" fill="white"/>
<path d="M130.954 10.8584C131.23 10.8584 131.432 10.918 131.559 11.0371C131.686 11.1553 131.749 11.3184 131.749 11.5264C131.749 11.6201 131.735 11.71 131.707 11.7959C131.678 11.8809 131.632 11.9565 131.567 12.0229C131.504 12.0894 131.419 12.1421 131.312 12.1812C131.206 12.2192 131.075 12.2383 130.918 12.2383H130.724V13H130.27V10.8584H130.954ZM130.93 11.2305H130.724V11.8662H130.873C130.958 11.8662 131.032 11.855 131.094 11.8325C131.157 11.8101 131.205 11.7749 131.239 11.7271C131.273 11.6792 131.291 11.6177 131.291 11.5425C131.291 11.437 131.261 11.3589 131.203 11.3081C131.144 11.2563 131.053 11.2305 130.93 11.2305ZM132.565 13H132.118V10.7207H132.565V13ZM133.706 11.3286C133.926 11.3286 134.094 11.3765 134.211 11.4722C134.329 11.5679 134.387 11.7134 134.387 11.9087V13H134.075L133.989 12.7773H133.977C133.93 12.8359 133.882 12.8838 133.833 12.9209C133.785 12.958 133.729 12.9854 133.665 13.0029C133.602 13.0205 133.524 13.0293 133.434 13.0293C133.337 13.0293 133.25 13.0107 133.173 12.9736C133.097 12.9365 133.037 12.8799 132.993 12.8037C132.949 12.7266 132.927 12.6289 132.927 12.5107C132.927 12.3369 132.988 12.209 133.11 12.127C133.232 12.0439 133.415 11.998 133.659 11.9893L133.943 11.9805V11.9087C133.943 11.8228 133.921 11.7598 133.876 11.7197C133.831 11.6797 133.769 11.6597 133.688 11.6597C133.609 11.6597 133.532 11.6709 133.456 11.6934C133.379 11.7158 133.303 11.7441 133.227 11.7783L133.079 11.4766C133.166 11.4307 133.263 11.3945 133.371 11.3682C133.479 11.3418 133.591 11.3286 133.706 11.3286ZM133.943 12.2412L133.771 12.2471C133.626 12.251 133.525 12.2769 133.469 12.3247C133.413 12.3726 133.385 12.4355 133.385 12.5137C133.385 12.582 133.405 12.6309 133.445 12.6602C133.485 12.6885 133.538 12.7026 133.602 12.7026C133.698 12.7026 133.778 12.6743 133.844 12.6177C133.91 12.561 133.943 12.4805 133.943 12.376V12.2412ZM134.614 11.3623H135.104L135.413 12.2837C135.422 12.313 135.431 12.3428 135.438 12.373C135.444 12.4033 135.45 12.4346 135.455 12.4668C135.46 12.499 135.464 12.5327 135.467 12.5679H135.476C135.481 12.5151 135.489 12.4658 135.499 12.4199C135.51 12.374 135.523 12.3286 135.539 12.2837L135.842 11.3623H136.321L135.628 13.2095C135.586 13.3228 135.531 13.417 135.464 13.4922C135.396 13.5684 135.319 13.6255 135.231 13.6636C135.144 13.7017 135.048 13.7207 134.944 13.7207C134.893 13.7207 134.849 13.7178 134.812 13.7119C134.775 13.707 134.743 13.7017 134.717 13.6958V13.3413C134.737 13.3462 134.763 13.3506 134.794 13.3545C134.826 13.3584 134.858 13.3604 134.893 13.3604C134.955 13.3604 135.009 13.3472 135.054 13.3208C135.099 13.2944 135.136 13.2588 135.167 13.2139C135.197 13.1699 135.221 13.1216 135.238 13.0688L135.265 12.9883L134.614 11.3623ZM137.232 11.3315C137.383 11.3315 137.514 11.3608 137.623 11.4194C137.732 11.4771 137.817 11.561 137.876 11.6714C137.936 11.7817 137.966 11.9165 137.966 12.0757V12.2925H136.91C136.915 12.4185 136.952 12.5176 137.022 12.5898C137.094 12.6611 137.192 12.6968 137.318 12.6968C137.423 12.6968 137.519 12.686 137.605 12.6646C137.692 12.6431 137.782 12.6108 137.874 12.5679V12.9136C137.792 12.9536 137.708 12.9829 137.619 13.0015C137.531 13.02 137.424 13.0293 137.298 13.0293C137.134 13.0293 136.988 12.999 136.861 12.9385C136.735 12.8779 136.636 12.7856 136.564 12.6616C136.493 12.5376 136.457 12.3813 136.457 12.1929C136.457 12.0015 136.489 11.8423 136.554 11.7153C136.619 11.5874 136.71 11.4917 136.826 11.4282C136.942 11.3638 137.078 11.3315 137.232 11.3315ZM137.235 11.6494C137.148 11.6494 137.076 11.6772 137.018 11.7329C136.961 11.7886 136.929 11.876 136.92 11.9951H137.547C137.546 11.9287 137.534 11.8696 137.51 11.8179C137.488 11.7661 137.454 11.7251 137.408 11.6948C137.363 11.6646 137.305 11.6494 137.235 11.6494ZM139.243 11.3315C139.266 11.3315 139.292 11.333 139.321 11.3359C139.351 11.3379 139.375 11.3408 139.394 11.3447L139.36 11.7637C139.346 11.7588 139.325 11.7554 139.297 11.7534C139.271 11.7505 139.248 11.749 139.229 11.749C139.171 11.749 139.115 11.7563 139.06 11.771C139.006 11.7856 138.958 11.8096 138.915 11.8428C138.872 11.875 138.838 11.918 138.812 11.9717C138.788 12.0244 138.776 12.0894 138.776 12.1665V13H138.329V11.3623H138.667L138.733 11.6377H138.755C138.788 11.582 138.828 11.5312 138.875 11.4854C138.924 11.4385 138.979 11.4014 139.041 11.374C139.104 11.3457 139.171 11.3315 139.243 11.3315ZM141.074 13H139.577V12.6851L140.115 12.1416C140.223 12.0303 140.31 11.9375 140.375 11.8633C140.442 11.7881 140.49 11.7197 140.519 11.6582C140.549 11.5967 140.564 11.5308 140.564 11.4604C140.564 11.3755 140.541 11.312 140.493 11.27C140.446 11.2271 140.383 11.2056 140.304 11.2056C140.221 11.2056 140.14 11.2246 140.062 11.2627C139.984 11.3008 139.902 11.355 139.817 11.4253L139.571 11.1338C139.633 11.0811 139.698 11.0312 139.766 10.9844C139.835 10.9375 139.916 10.8999 140.006 10.8716C140.098 10.8423 140.208 10.8276 140.336 10.8276C140.477 10.8276 140.597 10.853 140.698 10.9038C140.799 10.9546 140.877 11.0239 140.932 11.1118C140.987 11.1987 141.014 11.2974 141.014 11.4077C141.014 11.5259 140.991 11.6338 140.944 11.7314C140.897 11.8291 140.829 11.9258 140.739 12.0215C140.65 12.1172 140.542 12.2231 140.417 12.3394L140.141 12.5986V12.6191H141.074V13Z" fill="white"/>
<path d="M96.499 12.7197C96.7171 12.7197 96.9108 12.7612 97.0801 12.8442C97.251 12.9272 97.3853 13.0493 97.4829 13.2104C97.5806 13.3716 97.6294 13.5701 97.6294 13.8062C97.6294 14.0633 97.5757 14.2855 97.4683 14.4727C97.3625 14.6582 97.2038 14.8006 96.9922 14.8999C96.7822 14.9992 96.5202 15.0488 96.2061 15.0488C96.0189 15.0488 95.8423 15.0326 95.6763 15C95.5119 14.9691 95.3678 14.9211 95.2441 14.856V14.2041C95.3678 14.2692 95.516 14.3245 95.6885 14.3701C95.8626 14.4141 96.0262 14.436 96.1792 14.436C96.3289 14.436 96.4551 14.4165 96.5576 14.3774C96.6602 14.3368 96.7375 14.2749 96.7896 14.1919C96.8433 14.1073 96.8701 13.9998 96.8701 13.8696C96.8701 13.6955 96.8115 13.562 96.6943 13.4692C96.5771 13.3765 96.3973 13.3301 96.1548 13.3301C96.062 13.3301 95.9652 13.339 95.8643 13.3569C95.765 13.3748 95.682 13.3927 95.6152 13.4106L95.3149 13.2495L95.4492 11.4307H97.3853V12.0703H96.1108L96.0449 12.771C96.1003 12.7596 96.1605 12.7482 96.2256 12.7368C96.2907 12.7254 96.3818 12.7197 96.499 12.7197ZM100.271 11.2158H100.806V16.1353H100.271V11.2158ZM103.389 13.4839C103.389 13.2788 103.403 13.0762 103.433 12.876C103.464 12.6742 103.516 12.4845 103.591 12.3071C103.666 12.1281 103.771 11.9702 103.906 11.8335C104.041 11.6951 104.213 11.5869 104.421 11.5088C104.63 11.429 104.882 11.3892 105.178 11.3892C105.248 11.3892 105.33 11.3924 105.422 11.3989C105.517 11.4038 105.595 11.4128 105.657 11.4258V12.0288C105.592 12.0142 105.522 12.0028 105.447 11.9946C105.374 11.9849 105.3 11.98 105.227 11.98C104.931 11.98 104.701 12.0272 104.539 12.1216C104.377 12.216 104.264 12.347 104.197 12.5146C104.132 12.6807 104.093 12.8743 104.082 13.0957H104.114C104.159 13.016 104.216 12.9451 104.285 12.8833C104.355 12.8215 104.439 12.7726 104.539 12.7368C104.638 12.6994 104.754 12.6807 104.888 12.6807C105.096 12.6807 105.277 12.7254 105.43 12.8149C105.583 12.9028 105.701 13.0306 105.784 13.1982C105.867 13.3659 105.908 13.5701 105.908 13.811C105.908 14.0682 105.859 14.2896 105.759 14.4751C105.66 14.6606 105.519 14.8031 105.337 14.9023C105.156 15 104.941 15.0488 104.692 15.0488C104.51 15.0488 104.34 15.0179 104.182 14.9561C104.024 14.8926 103.886 14.7965 103.767 14.668C103.648 14.5394 103.556 14.3774 103.489 14.1821C103.422 13.9852 103.389 13.7524 103.389 13.4839ZM104.678 14.4458C104.826 14.4458 104.946 14.3953 105.039 14.2944C105.132 14.1935 105.178 14.0356 105.178 13.8208C105.178 13.6466 105.138 13.5099 105.056 13.4106C104.976 13.3097 104.855 13.2593 104.692 13.2593C104.582 13.2593 104.484 13.2845 104.399 13.335C104.316 13.3838 104.252 13.4465 104.207 13.5229C104.161 13.5978 104.138 13.6751 104.138 13.7549C104.138 13.8379 104.15 13.9201 104.172 14.0015C104.195 14.0828 104.229 14.1569 104.275 14.2236C104.32 14.2904 104.377 14.3441 104.443 14.3848C104.512 14.4255 104.59 14.4458 104.678 14.4458Z" fill="white"/>
<path d="M59 15L58.7755 15.691H58.0489L58.6367 16.118L58.4122 16.809L59 16.382L59.5878 16.809L59.3633 16.118L59.9511 15.691H59.2245L59 15Z" fill="#FFAF76"/>
<path d="M61 15L60.7755 15.691H60.0489L60.6367 16.118L60.4122 16.809L61 16.382L61.5878 16.809L61.3633 16.118L61.9511 15.691H61.2245L61 15Z" fill="#FFAF76"/>
<path d="M63 15L62.7755 15.691H62.0489L62.6367 16.118L62.4122 16.809L63 16.382L63.5878 16.809L63.3633 16.118L63.9511 15.691H63.2245L63 15Z" fill="#FFAF76"/>
<path d="M65 15L64.7755 15.691H64.0489L64.6367 16.118L64.4122 16.809L65 16.382L65.5878 16.809L65.3633 16.118L65.9511 15.691H65.2245L65 15Z" fill="#FFAF76"/>
<path d="M134 15L133.775 15.691H133.049L133.637 16.118L133.412 16.809L134 16.382L134.588 16.809L134.363 16.118L134.951 15.691H134.225L134 15Z" fill="#FFAF76"/>
<path d="M136 15L135.775 15.691H135.049L135.637 16.118L135.412 16.809L136 16.382L136.588 16.809L136.363 16.118L136.951 15.691H136.225L136 15Z" fill="#FFAF76"/>
<path d="M138 15L137.775 15.691H137.049L137.637 16.118L137.412 16.809L138 16.382L138.588 16.809L138.363 16.118L138.951 15.691H138.225L138 15Z" fill="#FFAF76"/>
<path d="M140 15L139.775 15.691H139.049L139.637 16.118L139.412 16.809L140 16.382L140.588 16.809L140.363 16.118L140.951 15.691H140.225L140 15Z" fill="#FFAF76"/>
</svg>
