<svg width="227" height="192" viewBox="0 0 227 192" fill="none" xmlns="http://www.w3.org/2000/svg">
<path d="M221.203 185.206L218.961 186.463L214.209 175.685L217.518 173.83L221.203 185.206Z" fill="#FFB6B6"/>
<path d="M202.678 187.997L200.241 187.997L199.082 175.63H202.678L202.678 187.997Z" fill="#FFB6B6"/>
<path d="M202.763 191.342L195.27 191.341V191.217C195.27 190.199 195.577 189.223 196.124 188.503C196.671 187.784 197.413 187.379 198.186 187.379L199.555 186.013L202.109 187.379L202.763 187.379L202.763 191.342Z" fill="#2F2E41"/>
<path d="M222.566 187.347L215.672 191.212L215.635 191.097C215.332 190.161 215.324 189.105 215.613 188.16C215.901 187.216 216.463 186.462 217.175 186.063L218.027 184.1L220.784 184.039L221.386 183.702L222.566 187.347Z" fill="#2F2E41"/>
<path d="M200.287 114.809L196.584 144.478L197.592 148.899L196.269 152.031L198.211 179.53L197.423 181.814L199.626 183.601H204.108L204.346 158.706L205.453 155.05V153.036L207.707 137.855L208.122 155.22L208.778 158.881L208.227 161.488L208.946 163.314L215.113 180.736H220.139L219.751 176.796C220.651 176.196 218.399 174.443 218.182 173.146L218.922 170.955L218.182 166.817L217.504 158.731L218.219 141.662L217.883 118.677C216.195 115.7 214.323 113.405 212.003 112.762L200.287 114.809Z" fill="#2F2E41"/>
<path d="M209.306 75.7354C212.111 75.7354 214.385 72.7435 214.385 69.0528C214.385 65.3621 212.111 62.3702 209.306 62.3702C206.501 62.3702 204.227 65.3621 204.227 69.0528C204.227 72.7435 206.501 75.7354 209.306 75.7354Z" fill="#FFB6B6"/>
<path d="M188.365 121.818C188.301 121.443 188.301 121.054 188.365 120.679C188.428 120.303 188.553 119.951 188.731 119.646C188.909 119.341 189.136 119.092 189.395 118.915C189.655 118.737 189.94 118.637 190.232 118.621L192.278 109.672L194.644 113.4L192.338 121.327C192.326 121.974 192.134 122.593 191.799 123.066C191.463 123.539 191.007 123.834 190.517 123.895C190.028 123.955 189.538 123.777 189.141 123.395C188.744 123.012 188.468 122.451 188.365 121.818Z" fill="#FFB6B6"/>
<path d="M201.637 85.0347L200.72 82.8306L199.539 83.3495C199.539 83.3495 198.234 84.457 196.408 88.6376C195.563 90.5713 193.737 102.971 193.737 102.971L189.468 117.841L193.82 118.809L197.451 106.554L201.66 94.8263L201.637 85.0347Z" fill="#C53F3F"/>
<path d="M209.118 114.715C212.694 114.715 216.303 115.641 217.78 118.953C217.742 118.233 217.645 116.984 217.544 115.839L217.174 112.76L217.549 109.938L218.044 109.287L217.157 108.12L217.762 102.229L219.759 88.3499C219.916 87.2581 219.794 86.1288 219.412 85.1377C219.03 84.1466 218.41 83.3492 217.649 82.8696L215.73 81.6558L212.62 77.8603L206.994 77.8049L205.158 80.9444L200.327 83.1036L201.138 105.178L200.606 106.81C200.725 106.954 200.976 107.262 201.113 107.46C201.305 107.74 201.06 109.183 200.897 110.018L200.672 112.244L201.379 112.908L200.46 114.336L200.276 116.149C201.189 115.865 205.133 114.715 209.118 114.715Z" fill="#C53F3F"/>
<path d="M210.606 75.4085C210.627 75.3456 210.649 75.2825 210.67 75.2192C210.662 75.2196 210.654 75.2212 210.646 75.2214L210.606 75.4085Z" fill="#2F2E41"/>
<path d="M214.527 62.6743C214.285 62.3749 213.972 62.1966 213.641 62.1705C213.313 62.1844 212.98 62.5747 213.048 62.9977C212.444 61.5923 211.484 60.5114 210.335 59.9448C209.187 59.3781 207.923 59.3618 206.766 59.8988C205.95 60.2777 205.149 61.0358 204.962 62.1476C204.944 62.4396 204.877 62.7228 204.768 62.9778C204.673 63.1141 204.55 63.2109 204.414 63.2563C204.277 63.3017 204.134 63.2937 204.001 63.2333L203.993 63.2302C203.948 63.2098 203.899 63.2077 203.852 63.2244C203.806 63.2411 203.765 63.2757 203.733 63.3237C203.702 63.3717 203.683 63.4309 203.677 63.4937C203.672 63.5565 203.681 63.62 203.703 63.6759L203.934 64.2426C203.643 64.328 203.341 64.3196 203.052 64.218C203.005 64.2015 202.954 64.2048 202.908 64.2276C202.861 64.2504 202.821 64.2915 202.793 64.3453C202.766 64.3991 202.751 64.4629 202.752 64.528C202.753 64.5931 202.769 64.6563 202.798 64.7089C203.182 65.3999 203.683 65.9634 204.261 66.3546C204.84 66.7459 205.48 66.9541 206.13 66.9626C207.053 66.9552 207.986 66.5367 208.884 66.8159C209.231 66.924 209.556 67.133 209.834 67.4276C210.112 67.7222 210.336 68.095 210.491 68.5187C210.645 68.9423 210.725 69.406 210.725 69.8757C210.726 70.3455 210.646 70.8093 210.492 71.2333C210.768 70.8362 211.302 70.9302 211.584 71.3195C211.714 71.528 211.81 71.7692 211.866 72.0285C211.922 72.2877 211.938 72.5594 211.911 72.8266C211.835 73.6453 211.651 74.4399 211.365 75.1738C212.456 75.1297 213.511 74.6459 214.387 73.7878C215.263 72.9298 215.917 71.7388 216.262 70.3758C216.606 69.0128 216.625 67.5434 216.315 66.1661C216.004 64.7888 215.38 63.57 214.527 62.6743Z" fill="#2F2E41"/>
<path d="M50.3723 37.7243C57.3466 37.7243 63.0003 30.2858 63.0003 21.1101C63.0003 11.9343 57.3466 4.49585 50.3723 4.49585C43.3981 4.49585 37.7444 11.9343 37.7444 21.1101C37.7444 30.2858 43.3981 37.7243 50.3723 37.7243Z" fill="#C53F3F"/>
<path d="M54.1277 75.5336C58.1136 73.0615 61.2448 68.7038 62.897 63.3292C63.0604 62.7965 63.6801 63.1582 63.5169 63.6902C61.7896 69.2789 58.5241 73.8051 54.3721 76.3655C53.9762 76.6092 53.734 75.776 54.1277 75.5336Z" fill="white"/>
<path d="M160.599 55.336C164.585 52.8639 167.716 48.5061 169.368 43.1316C169.531 42.5989 170.151 42.9605 169.988 43.4926C168.261 49.0812 164.995 53.6074 160.843 56.1679C160.447 56.4116 160.205 55.5783 160.599 55.336Z" fill="white"/>
<path d="M40.5919 187.089L42.931 189.473L52.0254 191.549L62.1337 158.49C62.1337 158.49 68.3239 133.012 85.6564 138.224L141.368 136.921C141.368 136.921 158.474 134.614 161.3 145.228C161.836 147.238 176.281 191.65 176.281 191.65L186.408 189.769L185.194 151.906L161.141 78.4453L119.331 75.0106L76.2473 78.934L40.5919 187.089Z" fill="#3F3D56"/>
<path d="M86.8944 140.504C95.7831 140.504 102.989 131.024 102.989 119.329C102.989 107.635 95.7831 98.1544 86.8944 98.1544C78.0057 98.1544 70.7999 107.635 70.7999 119.329C70.7999 131.024 78.0057 140.504 86.8944 140.504Z" fill="#2F2E41"/>
<path d="M140.873 140.504C149.762 140.504 156.967 131.024 156.967 119.329C156.967 107.635 149.762 98.1544 140.873 98.1544C131.984 98.1544 124.778 107.635 124.778 119.329C124.778 131.024 131.984 140.504 140.873 140.504Z" fill="#2F2E41"/>
<path d="M68.0763 49.9407L74.7031 48.2311C74.7031 48.2311 124.597 38.8646 156.134 49.9407L153.748 58.7365L70.3048 58.0849L68.0763 49.9407Z" fill="#E6E6E6"/>
<path d="M135.348 95.3854H93.0054C87.8642 95.3854 83.4208 90.7017 82.44 84.2485L77.8061 53.7552C77.7036 53.0898 77.7077 52.4035 77.8182 51.7403C77.9286 51.0771 78.1429 50.4514 78.4475 49.9033C78.7661 49.3282 79.1712 48.8455 79.6375 48.485C80.1039 48.1246 80.6216 47.8941 81.1585 47.8079C103.491 44.1608 125.604 44.1546 146.886 47.789C147.415 47.8743 147.926 48.102 148.385 48.4579C148.845 48.8139 149.244 49.2905 149.558 49.8581C149.86 50.3983 150.075 51.0147 150.189 51.6688C150.303 52.323 150.313 53.001 150.219 53.6606L145.941 84.0603C145.018 90.6225 140.563 95.3854 135.348 95.3854Z" fill="#C53F3F"/>
<path d="M49.2407 54.9052L49.4251 50.5415C49.4538 49.8617 49.6073 49.2011 49.8725 48.6164C50.1377 48.0317 50.5066 47.5402 50.9476 47.1841C53.6211 45.0262 60.8329 40.2752 70.0362 42.7657C70.6825 42.9417 71.2719 43.3752 71.7243 44.0074C72.1767 44.6396 72.4702 45.4397 72.5649 46.299L72.8113 48.5695L49.2407 54.9052Z" fill="#3F3D56"/>
<path d="M179.022 54.9052L155.451 48.5696L155.847 44.9219C155.893 44.4911 156.035 44.0882 156.256 43.7649C156.477 43.4416 156.767 43.2127 157.088 43.1076C167.701 39.6032 175.826 45.8265 178.063 47.8174C178.275 48.007 178.452 48.2584 178.578 48.5519C178.705 48.8455 178.779 49.1735 178.794 49.5105L179.022 54.9052Z" fill="#3F3D56"/>
<path d="M41.7568 189.935C41.1888 189.943 40.6309 189.737 40.1494 189.34C33.8382 184.492 29.9036 175.606 28.4638 162.938C27.2744 152.474 27.7711 139.34 29.9398 123.9C33.7849 96.5269 41.8437 69.1658 45.1301 58.6728C45.5654 57.2878 46.242 56.0567 47.1052 55.0787C47.9684 54.1007 48.9941 53.4031 50.0998 53.0421C56.8747 50.8497 68.7017 47.1718 71.7904 47.1718C76.0232 47.1718 78.3134 52.4141 78.3361 52.4671L78.3488 52.5104L82.0661 73.7181V74.0241C84.1168 83.153 82.5931 89.7474 80.9526 93.6722C79.1721 97.9324 76.8682 100.059 76.8452 100.08C73.2274 103.704 67.3334 115.377 61.4674 130.541C55.3717 146.299 50.8528 161.847 49.3798 172.134C47.5768 184.725 44.9337 188.58 43.034 189.596C42.6291 189.817 42.1953 189.932 41.7568 189.935Z" fill="#E6E6E6"/>
<path d="M133.953 92.7794H93.9442C91.5829 92.7751 89.2959 91.6924 87.4739 89.7161C85.652 87.7398 84.408 84.9926 83.9546 81.9437L79.5761 52.2869C79.4789 51.6305 79.485 50.9547 79.594 50.3015C79.703 49.6482 79.9127 49.0313 80.21 48.4889C80.5074 47.9464 80.8861 47.4899 81.3228 47.1476C81.7595 46.8052 82.2449 46.5843 82.7491 46.4985C103.851 42.9514 124.747 42.9454 144.855 46.48C145.352 46.569 145.83 46.7896 146.261 47.1283C146.692 47.4671 147.065 47.917 147.36 48.4511C147.655 48.9851 147.865 49.5921 147.976 50.2356C148.088 50.879 148.099 51.5455 148.01 52.195L143.968 81.7607C143.547 84.8519 142.313 87.6498 140.482 89.6643C138.651 91.6789 136.34 92.7816 133.953 92.7794Z" fill="#E6E6E6"/>
<path d="M186.506 189.935C186.068 189.933 185.634 189.817 185.228 189.596C183.329 188.58 180.686 184.725 178.883 172.134C177.41 161.847 172.891 146.299 166.795 130.541C160.929 115.377 155.035 103.704 151.413 100.076C151.394 100.059 149.09 97.9324 147.31 93.6722C145.669 89.7474 144.146 83.153 146.196 74.0241L146.199 73.6815L149.918 52.4875L149.926 52.4671C149.949 52.4141 152.239 47.1718 156.472 47.1718C159.561 47.1718 171.388 50.8497 178.163 53.0421C179.268 53.4032 180.294 54.1008 181.157 55.0788C182.02 56.0568 182.697 57.2878 183.132 58.6728C186.419 69.1658 194.478 96.5268 198.323 123.9C200.491 139.34 200.988 152.474 199.799 162.938C198.359 175.606 194.424 184.492 188.104 189.348C187.625 189.74 187.071 189.944 186.506 189.935Z" fill="#E6E6E6"/>
<path d="M86.8944 128.451C92.2276 128.451 96.5511 122.763 96.5511 115.746C96.5511 108.729 92.2276 103.041 86.8944 103.041C81.5612 103.041 77.2377 108.729 77.2377 115.746C77.2377 122.763 81.5612 128.451 86.8944 128.451Z" fill="#3F3D56"/>
<path d="M86.8945 124.216C90.4499 124.216 93.3322 120.424 93.3322 115.746C93.3322 111.068 90.4499 107.276 86.8945 107.276C83.339 107.276 80.4567 111.068 80.4567 115.746C80.4567 120.424 83.339 124.216 86.8945 124.216Z" fill="#2F2E41"/>
<path d="M140.873 128.451C146.206 128.451 150.529 122.763 150.529 115.746C150.529 108.729 146.206 103.041 140.873 103.041C135.54 103.041 131.216 108.729 131.216 115.746C131.216 122.763 135.54 128.451 140.873 128.451Z" fill="#3F3D56"/>
<path d="M140.873 124.216C144.428 124.216 147.311 120.424 147.311 115.746C147.311 111.068 144.428 107.276 140.873 107.276C137.317 107.276 134.435 111.068 134.435 115.746C134.435 120.424 137.317 124.216 140.873 124.216Z" fill="#2F2E41"/>
<path d="M107.941 100.435C108.351 100.435 108.684 99.9974 108.684 99.4577C108.684 98.9179 108.351 98.4803 107.941 98.4803C107.531 98.4803 107.198 98.9179 107.198 99.4577C107.198 99.9974 107.531 100.435 107.941 100.435Z" fill="#2F2E41"/>
<path d="M111.16 100.435C111.57 100.435 111.903 99.9974 111.903 99.4577C111.903 98.9179 111.57 98.4803 111.16 98.4803C110.75 98.4803 110.417 98.9179 110.417 99.4577C110.417 99.9974 110.75 100.435 111.16 100.435Z" fill="#2F2E41"/>
<path d="M109.674 104.018C110.085 104.018 110.417 103.581 110.417 103.041C110.417 102.501 110.085 102.064 109.674 102.064C109.264 102.064 108.931 102.501 108.931 103.041C108.931 103.581 109.264 104.018 109.674 104.018Z" fill="#2F2E41"/>
<path d="M112.646 104.018C113.056 104.018 113.388 103.581 113.388 103.041C113.388 102.501 113.056 102.064 112.646 102.064C112.235 102.064 111.903 102.501 111.903 103.041C111.903 103.581 112.235 104.018 112.646 104.018Z" fill="#2F2E41"/>
<path d="M115.617 104.018C116.027 104.018 116.36 103.581 116.36 103.041C116.36 102.501 116.027 102.064 115.617 102.064C115.207 102.064 114.874 102.501 114.874 103.041C114.874 103.581 115.207 104.018 115.617 104.018Z" fill="#2F2E41"/>
<path d="M118.588 104.018C118.998 104.018 119.331 103.581 119.331 103.041C119.331 102.501 118.998 102.064 118.588 102.064C118.178 102.064 117.845 102.501 117.845 103.041C117.845 103.581 118.178 104.018 118.588 104.018Z" fill="#2F2E41"/>
<path d="M114.379 100.435C114.789 100.435 115.122 99.9974 115.122 99.4577C115.122 98.9179 114.789 98.4803 114.379 98.4803C113.969 98.4803 113.636 98.9179 113.636 99.4577C113.636 99.9974 113.969 100.435 114.379 100.435Z" fill="#2F2E41"/>
<path d="M117.598 100.435C118.008 100.435 118.341 99.9974 118.341 99.4577C118.341 98.9179 118.008 98.4803 117.598 98.4803C117.187 98.4803 116.855 98.9179 116.855 99.4577C116.855 99.9974 117.187 100.435 117.598 100.435Z" fill="#2F2E41"/>
<path d="M120.817 100.435C121.227 100.435 121.559 99.9974 121.559 99.4577C121.559 98.9179 121.227 98.4803 120.817 98.4803C120.406 98.4803 120.074 98.9179 120.074 99.4577C120.074 99.9974 120.406 100.435 120.817 100.435Z" fill="#2F2E41"/>
<path d="M117.35 129.591H110.912C110.617 129.591 110.333 129.437 110.124 129.162C109.915 128.887 109.798 128.514 109.798 128.125C109.798 127.736 109.915 127.364 110.124 127.089C110.333 126.814 110.617 126.659 110.912 126.659H117.35C117.646 126.659 117.929 126.814 118.138 127.089C118.347 127.364 118.464 127.736 118.464 128.125C118.464 128.514 118.347 128.887 118.138 129.162C117.929 129.437 117.646 129.591 117.35 129.591Z" fill="#2F2E41"/>
<path d="M74.723 65.8662C74.3075 65.8647 73.9045 65.6791 73.5791 65.3393C73.2537 64.9994 73.0247 64.5252 72.9293 63.9932L71.942 58.4785C71.8303 57.8517 71.9123 57.1921 72.17 56.6448C72.4277 56.0975 72.84 55.7071 73.3163 55.5595C73.7926 55.4119 74.294 55.5191 74.7103 55.8575C75.1266 56.196 75.4237 56.7381 75.5364 57.3646L76.5237 62.8793C76.5872 63.2363 76.5886 63.6075 76.5277 63.9653C76.4668 64.3231 76.3452 64.6581 76.172 64.9453C75.9989 65.2326 75.7786 65.4646 75.5277 65.6241C75.2767 65.7836 75.0017 65.8663 74.723 65.8662Z" fill="#3F3D56"/>
<path d="M153.787 65.5406C153.508 65.5407 153.233 65.4579 152.982 65.2984C152.731 65.1389 152.511 64.9069 152.338 64.6197C152.165 64.3324 152.043 63.9974 151.982 63.6396C151.921 63.2818 151.923 62.9106 151.986 62.5536L152.974 57.0389C153.086 56.4124 153.383 55.8703 153.8 55.5318C154.216 55.1934 154.717 55.0862 155.194 55.2338C155.67 55.3814 156.082 55.7718 156.34 56.3191C156.598 56.8665 156.68 57.526 156.568 58.1529L155.581 63.6675C155.485 64.1996 155.256 64.6737 154.931 65.0136C154.606 65.3534 154.203 65.539 153.787 65.5406Z" fill="#3F3D56"/>
<path d="M61.1009 82.1441C60.4933 82.1443 59.9004 81.8982 59.4028 81.4393L57.3304 79.5307C56.9405 79.1713 56.6222 78.6936 56.4023 78.138C56.1825 77.5824 56.0676 76.9653 56.0674 76.339V70.4936C56.0684 69.3198 56.4232 68.1945 57.0541 67.3645C57.685 66.5345 58.5403 66.0676 59.4324 66.0663H62.6066C63.4988 66.0676 64.3541 66.5345 64.9849 67.3645C65.6158 68.1945 65.9707 69.3198 65.9717 70.4936V76.3964C65.9708 77.0066 65.8614 77.608 65.6522 78.1526C65.443 78.6971 65.1399 79.1698 64.767 79.5326L62.8574 81.384C62.3487 81.8779 61.7331 82.1443 61.1009 82.1441Z" fill="#3F3D56"/>
<path d="M62.6066 103.53H59.4324C58.5403 103.528 57.685 103.061 57.0541 102.231C56.4233 101.401 56.0684 100.276 56.0674 99.1023V93.2569C56.0676 92.6305 56.1825 92.0135 56.4023 91.4579C56.6222 90.9023 56.9405 90.4246 57.3304 90.0652L59.4028 88.1566C59.9105 87.6886 60.517 87.4421 61.1369 87.4521C61.7567 87.462 62.3585 87.7278 62.8574 88.2119L64.767 90.0633C65.1399 90.4261 65.443 90.8988 65.6522 91.4433C65.8614 91.9879 65.9708 92.5893 65.9717 93.1995V99.1023C65.9707 100.276 65.6158 101.401 64.9849 102.231C64.3541 103.061 63.4988 103.528 62.6066 103.53Z" fill="#3F3D56"/>
<path d="M72.5109 91.3133H68.068C67.5919 91.3131 67.1229 91.162 66.7006 90.8727C66.2783 90.5834 65.9153 90.1646 65.6421 89.6516L64.1914 86.925C63.8356 86.2571 63.6483 85.4591 63.6559 84.6436C63.6634 83.8281 63.8654 83.0363 64.2335 82.38L65.6406 79.8675C65.9164 79.377 66.2756 78.9781 66.6895 78.7029C67.1035 78.4277 67.5606 78.2838 68.0243 78.2826H72.5109C73.4031 78.2839 74.2584 78.7508 74.8892 79.5808C75.5201 80.4108 75.8749 81.5361 75.876 82.7099V86.886C75.8749 88.0598 75.5201 89.1852 74.8892 90.0151C74.2584 90.8451 73.4031 91.312 72.5109 91.3133Z" fill="#3F3D56"/>
<path d="M53.7234 91.3133H49.2805C48.3884 91.312 47.533 90.8451 46.9022 90.0151C46.2713 89.1852 45.9165 88.0598 45.9155 86.886V82.7099C45.9165 81.5361 46.2713 80.4108 46.9022 79.5808C47.533 78.7508 48.3884 78.2839 49.2805 78.2826H53.7671C54.2308 78.2837 54.688 78.4277 55.1019 78.7029C55.5158 78.9781 55.875 79.377 56.1508 79.8675L57.558 82.38C57.926 83.0363 58.128 83.8281 58.1356 84.6436C58.1431 85.4591 57.9558 86.2571 57.6 86.925L56.1493 89.6516C55.8762 90.1646 55.5131 90.5834 55.0908 90.8727C54.6685 91.162 54.1995 91.3131 53.7234 91.3133Z" fill="#3F3D56"/>
<path d="M167.367 75.6765C170.512 75.6765 173.062 72.3219 173.062 68.1838C173.062 64.0458 170.512 60.6912 167.367 60.6912C164.221 60.6912 161.672 64.0458 161.672 68.1838C161.672 72.3219 164.221 75.6765 167.367 75.6765Z" fill="#3F3D56"/>
<path d="M179.995 92.942C183.14 92.942 185.69 89.5874 185.69 85.4493C185.69 81.3113 183.14 77.9567 179.995 77.9567C176.849 77.9567 174.3 81.3113 174.3 85.4493C174.3 89.5874 176.849 92.942 179.995 92.942Z" fill="#3F3D56"/>
<path d="M167.367 109.231C170.512 109.231 173.062 105.876 173.062 101.738C173.062 97.5998 170.512 94.2452 167.367 94.2452C164.221 94.2452 161.672 97.5998 161.672 101.738C161.672 105.876 164.221 109.231 167.367 109.231Z" fill="#3F3D56"/>
<path d="M154.739 92.6163C157.884 92.6163 160.434 89.2618 160.434 85.1237C160.434 80.9856 157.884 77.631 154.739 77.631C151.594 77.631 149.044 80.9856 149.044 85.1237C149.044 89.2618 151.594 92.6163 154.739 92.6163Z" fill="#3F3D56"/>
<path d="M179.995 90.336C179.26 90.336 178.542 90.0495 177.931 89.5125C177.32 88.9756 176.844 88.2124 176.563 87.3195C176.282 86.4266 176.209 85.4441 176.352 84.4962C176.495 83.5483 176.849 82.6776 177.368 81.9942C177.888 81.3108 178.55 80.8454 179.27 80.6569C179.991 80.4683 180.737 80.5651 181.416 80.935C182.095 81.3048 182.675 81.9311 183.083 82.7347C183.491 83.5383 183.709 84.4831 183.709 85.4495C183.708 86.7451 183.316 87.9871 182.62 88.9032C181.923 89.8193 180.979 90.3346 179.995 90.336ZM179.995 81.2145C179.358 81.2145 178.736 81.4629 178.206 81.9283C177.677 82.3936 177.264 83.055 177.021 83.8289C176.777 84.6027 176.713 85.4542 176.838 86.2757C176.962 87.0972 177.268 87.8518 177.719 88.4441C178.169 89.0364 178.742 89.4397 179.367 89.6031C179.991 89.7665 180.638 89.6827 181.227 89.3621C181.815 89.0416 182.317 88.4988 182.671 87.8024C183.025 87.1059 183.214 86.2871 183.214 85.4495C183.213 84.3267 182.873 83.2502 182.27 82.4563C181.666 81.6624 180.848 81.2158 179.995 81.2145Z" fill="#E6E6E6"/>
<path d="M171.346 71.819L163.882 71.6801L167.706 63.245L171.346 71.819ZM164.747 71.0445L170.496 71.1516L167.692 64.5481L164.747 71.0445Z" fill="#E6E6E6"/>
<path d="M157.71 89.0329H151.767V81.2145H157.71V89.0329ZM152.263 88.3814H157.215V81.866H152.263V88.3814Z" fill="#E6E6E6"/>
<path d="M170.44 105.102L167.717 101.527L170.118 98.3741L169.768 97.9128L167.367 101.066L164.965 97.9128L164.615 98.3741L167.016 101.527L164.294 105.102L164.644 105.563L167.367 101.987L170.09 105.563L170.44 105.102Z" fill="#E6E6E6"/>
<path d="M61.7141 25.9963C60.9795 25.9963 60.2614 25.7097 59.6507 25.1728C59.0399 24.6359 58.5638 23.8727 58.2827 22.9798C58.0016 22.0869 57.9281 21.1044 58.0714 20.1565C58.2147 19.2086 58.5684 18.3379 59.0878 17.6545C59.6073 16.9711 60.2691 16.5057 60.9895 16.3172C61.71 16.1286 62.4568 16.2254 63.1354 16.5952C63.8141 16.9651 64.3942 17.5914 64.8023 18.395C65.2104 19.1986 65.4282 20.1433 65.4282 21.1098C65.4271 22.4053 65.0354 23.6474 64.3391 24.5635C63.6429 25.4796 62.6988 25.9949 61.7141 25.9963ZM61.7141 16.8748C61.0775 16.8748 60.4551 17.1232 59.9258 17.5885C59.3964 18.0539 58.9839 18.7153 58.7402 19.4891C58.4966 20.263 58.4329 21.1145 58.5571 21.936C58.6813 22.7575 58.9878 23.5121 59.438 24.1044C59.8882 24.6967 60.4617 25.1 61.0861 25.2634C61.7105 25.4268 62.3577 25.343 62.9459 25.0224C63.5341 24.7019 64.0368 24.1591 64.3905 23.4626C64.7442 22.7662 64.933 21.9474 64.933 21.1098C64.9321 19.987 64.5926 18.9105 63.9892 18.1166C63.3857 17.3226 62.5675 16.876 61.7141 16.8748Z" fill="#E6E6E6"/>
<path d="M52.6918 8.57402L45.2278 8.43515L49.0514 0L52.6918 8.57402ZM46.0925 7.79952L51.8412 7.90657L49.0373 1.30308L46.0925 7.79952Z" fill="#E6E6E6"/>
<path d="M40.9426 25.3536H35V17.5352H40.9426V25.3536ZM35.4952 24.7021H40.4474V18.1867H35.4952V24.7021Z" fill="#E6E6E6"/>
<path d="M54.1461 40.465L51.4237 36.89L53.8245 33.7375L53.4746 33.2762L51.0731 36.4297L48.6715 33.2762L48.3216 33.7375L50.7224 36.89L48 40.465L48.3499 40.9263L51.0731 37.3503L53.7962 40.9263L54.1461 40.465Z" fill="#E6E6E6"/>
<path opacity="0.2" d="M214.784 104.833L205.173 114.349L216.022 108.09L214.784 104.833Z" fill="black"/>
<path d="M37.0017 116.561L24.8689 117.212L23.3833 106.462L33.7828 102.227L37.0017 116.561Z" fill="#A0616A"/>
<path d="M32.541 90.2135L29.8348 86.5883L33.1529 79.9133L38.832 67.4758C38.6465 66.94 38.5889 66.3427 38.667 65.7629C38.7451 65.1831 38.9551 64.6482 39.2692 64.2289C39.5834 63.8096 39.9869 63.5256 40.4265 63.4146C40.866 63.3036 41.3207 63.3707 41.7306 63.6071C42.1405 63.8435 42.4861 64.2381 42.7218 64.7386C42.9576 65.2391 43.0722 65.822 43.0507 66.4101C43.0292 66.9982 42.8724 67.5639 42.6012 68.0322C42.33 68.5006 41.9572 68.8496 41.5319 69.0331L36.8443 82.3112L32.541 90.2135Z" fill="#A0616A"/>
<path d="M29.5433 98.4896C29.2255 99.137 28.7728 99.6503 28.2392 99.9682C27.7056 100.286 27.1137 100.395 26.5343 100.282C25.9828 100.196 25.4624 99.9009 25.0368 99.4315C24.6112 98.9621 24.2991 98.3395 24.1387 97.64C24.0206 97.1436 23.9862 96.6192 24.0379 96.1034C24.0896 95.5877 24.2262 95.093 24.4382 94.6539C26.2485 90.6387 29.5874 85.3361 29.6209 85.2832L29.674 85.1989L35.3054 86.8041L29.5433 98.4896Z" fill="#C53F3F"/>
<path d="M34.1099 187.347L37.4746 187.347L39.0751 170.272L34.1091 170.272L34.1099 187.347Z" fill="#A0616A"/>
<path d="M33.2515 185.902L39.8779 185.901H39.8782C40.9981 185.901 42.0722 186.487 42.8641 187.529C43.656 188.571 44.101 189.984 44.101 191.457V191.638L33.2517 191.638L33.2515 185.902Z" fill="#2F2E41"/>
<path d="M7.91052 185.431L11.2374 186.092L14.7603 169.524L10.399 168.547L7.91052 185.431Z" fill="#A0616A"/>
<path d="M7.22612 183.833L13.7781 185.136L13.7784 185.136C14.8858 185.356 15.8812 186.146 16.5459 187.332C17.2105 188.518 17.4899 190.003 17.3226 191.46L17.3021 191.638L6.57452 189.505L7.22612 183.833Z" fill="#2F2E41"/>
<path d="M24.3736 113.954L36.0112 111.348L39.612 121.113L39.7492 184.846L33.3621 184.793L30.6922 133.21L13.6761 180.874L6.8147 179.791L21.7725 128.696C21.7725 128.696 20.9491 119.669 23.5564 115.155L24.3736 113.954Z" fill="#2F2E41"/>
<path d="M20.0533 94.7147C19.8754 94.0117 19.8565 93.2559 19.9989 92.5391C20.1413 91.8223 20.4388 91.1753 20.8553 90.6767L22.5092 88.6988L27.1718 87.6653L30.0873 86.9681L34.7731 104.833L23.3923 111.712C22.3935 111.428 21.9946 110.71 22.5757 109.28L20.0533 94.7147Z" fill="#C53F3F"/>
<path d="M30.498 100.743L33.7537 98.0093L38.031 103.661L46.1052 113.544C46.542 113.416 46.9981 113.465 47.4131 113.686C47.8281 113.906 48.1824 114.287 48.4292 114.778C48.6761 115.27 48.8038 115.848 48.7954 116.436C48.7871 117.025 48.6431 117.597 48.3825 118.075C48.1219 118.554 47.757 118.917 47.336 119.117C46.9151 119.317 46.4579 119.344 46.025 119.195C45.5921 119.045 45.2039 118.727 44.9117 118.281C44.6195 117.835 44.4371 117.283 44.3886 116.697L35.4843 107.917L30.498 100.743Z" fill="#A0616A"/>
<path d="M24.9637 95.1717C24.548 94.6289 24.26 93.94 24.134 93.1875C24.008 92.4349 24.0494 91.6506 24.2533 90.9282C24.4312 90.2361 24.7587 89.6274 25.1958 89.1768C25.6328 88.7261 26.1603 88.453 26.7136 88.391C27.1072 88.3417 27.5042 88.4058 27.877 88.5791C28.2498 88.7524 28.5894 89.0305 28.8721 89.3942C31.4834 92.555 34.736 97.9499 34.7684 98.0038L34.8201 98.0897L32.4615 105.006L24.9637 95.1717Z" fill="#C53F3F"/>
<path d="M25.1256 85.4918C27.9523 85.4918 30.2439 82.4769 30.2439 78.7579C30.2439 75.0388 27.9523 72.0239 25.1256 72.0239C22.2989 72.0239 20.0073 75.0388 20.0073 78.7579C20.0073 82.4769 22.2989 85.4918 25.1256 85.4918Z" fill="#A0616A"/>
<path d="M20.9817 88.3513C20.188 88.3511 19.3951 88.2875 18.6072 88.1608L18.4992 88.1435L17.6748 82.2548C17.3251 79.7586 17.7149 77.1809 18.7643 75.0508C19.8136 72.9208 21.4429 71.4 23.3176 70.8005C23.4427 70.7588 23.5741 70.7634 23.6974 70.8136C23.8207 70.8638 23.931 70.9578 24.0163 71.0851L24.213 70.995C24.9658 70.6496 25.7629 70.5027 26.5588 70.5626C27.3548 70.6226 28.134 70.8882 28.8519 71.3443C29.5699 71.8004 30.2125 72.4382 30.7431 73.221C31.2737 74.0039 31.6819 74.9166 31.9444 75.9071L31.9931 76.0911L30.6809 76.693C30.2721 76.8806 29.9002 77.1857 29.5922 77.5862C29.2843 77.9867 29.0481 78.4724 28.9007 79.0081C28.7534 79.5438 28.6987 80.1159 28.7406 80.6829C28.7825 81.2499 28.9199 81.7975 29.1428 82.2859L30.4844 85.2243L30.3416 85.3185C27.446 87.2827 24.2394 88.3217 20.9817 88.3513Z" fill="#2F2E41"/>
<path d="M196.822 116.531C196.881 116.154 197.003 115.799 197.177 115.491C197.352 115.183 197.576 114.929 197.833 114.747C198.091 114.565 198.375 114.46 198.667 114.438C198.959 114.417 199.251 114.479 199.522 114.622L204.177 107.564L205.173 112.24L200.6 118.226C200.387 118.81 200.019 119.27 199.565 119.521C199.112 119.772 198.604 119.795 198.139 119.586C197.673 119.377 197.282 118.95 197.039 118.387C196.796 117.824 196.719 117.164 196.822 116.531Z" fill="#FFB6B6"/>
<path d="M217.594 85.4981L219.501 85.3624L219.788 86.9573C219.788 86.9573 219.76 88.9994 218.021 93.2443C216.282 97.4892 202.81 116.389 202.81 116.389L199.892 112.032L207.104 102.259L211.471 92.0155L217.594 85.4981Z" fill="#C53F3F"/>
<path d="M0.308768 192H226.691C226.773 192 226.852 191.957 226.91 191.881C226.967 191.805 227 191.701 227 191.594C227 191.486 226.967 191.383 226.91 191.306C226.852 191.23 226.773 191.188 226.691 191.188H0.308768C0.226879 191.188 0.148343 191.23 0.0904384 191.306C0.0325335 191.383 0 191.486 0 191.594C0 191.701 0.0325335 191.805 0.0904384 191.881C0.148343 191.957 0.226879 192 0.308768 192Z" fill="#CCCCCC"/>
</svg>
