<svg width="165" height="189" viewBox="0 0 165 189" fill="none" xmlns="http://www.w3.org/2000/svg">
<g clip-path="url(#clip0_767_523)">
<path d="M157.812 28.3833L162.398 28.514C162.398 28.514 158.294 -2.02397 114.96 2.13203L114.845 6.19981L157.812 28.3833Z" fill="#090814"/>
<path d="M120.416 188.931L97.5739 188.28L102.837 3.08154L125.679 3.73256C147.11 4.34337 164.05 22.3015 163.44 43.7642L160.389 151.115C159.779 172.578 141.847 189.542 120.416 188.931Z" fill="#C53F3F"/>
<path d="M129.227 116.79C137.262 116.79 143.776 110.267 143.776 102.22C143.776 94.1734 137.262 87.6503 129.227 87.6503C121.192 87.6503 114.679 94.1734 114.679 102.22C114.679 110.267 121.192 116.79 129.227 116.79Z" fill="#090814"/>
<path d="M130.309 43.1573C134.001 43.1573 136.994 40.1602 136.994 36.4631C136.994 32.7659 134.001 29.7688 130.309 29.7688C126.618 29.7688 123.625 32.7659 123.625 36.4631C123.625 40.1602 126.618 43.1573 130.309 43.1573Z" fill="white"/>
<path d="M129.526 70.7108C133.218 70.7108 136.211 67.7137 136.211 64.0165C136.211 60.3194 133.218 57.3223 129.526 57.3223C125.835 57.3223 122.842 60.3194 122.842 64.0165C122.842 67.7137 125.835 70.7108 129.526 70.7108Z" fill="white"/>
<path d="M114.993 56.1147C118.685 56.1147 121.678 53.1176 121.678 49.4205C121.678 45.7233 118.685 42.7262 114.993 42.7262C111.301 42.7262 108.309 45.7233 108.309 49.4205C108.309 53.1176 111.301 56.1147 114.993 56.1147Z" fill="white"/>
<path d="M144.079 56.9437C147.771 56.9437 150.763 53.9466 150.763 50.2494C150.763 46.5523 147.771 43.5552 144.079 43.5552C140.387 43.5552 137.394 46.5523 137.394 50.2494C137.394 53.9466 140.387 56.9437 144.079 56.9437Z" fill="white"/>
<path d="M117.249 142.846C120.941 142.846 123.933 139.849 123.933 136.151C123.933 132.454 120.941 129.457 117.249 129.457C113.557 129.457 110.564 132.454 110.564 136.151C110.564 139.849 113.557 142.846 117.249 142.846Z" fill="white"/>
<path d="M118.373 19.4646L114.835 19.3637L114.936 15.8212L111.399 15.7203L111.298 19.2629L107.76 19.1621L107.66 22.7047L111.197 22.8055L111.097 26.3481L114.634 26.4489L114.735 22.9063L118.272 23.0072L118.373 19.4646Z" fill="white"/>
<path d="M6.11597 25.8888H1.48761C1.48761 25.8888 6.50167 -4.79115 50.0854 0.645804V4.75154L6.11597 25.8888Z" fill="#090814"/>
<path d="M62.2846 188.878H39.2298C17.5985 188.878 0 171.254 0 149.591V41.2388C0 19.5759 17.5985 1.95178 39.2298 1.95178H62.2846V188.878Z" fill="#D9D9D9"/>
<path d="M57.028 17.9429H46.1183V21.5185H57.028V17.9429Z" fill="white"/>
<path d="M32.2332 63.2344C40.3399 63.2344 46.9117 56.6531 46.9117 48.5346C46.9117 40.4161 40.3399 33.8347 32.2332 33.8347C24.1265 33.8347 17.5547 40.4161 17.5547 48.5346C17.5547 56.6531 24.1265 63.2344 32.2332 63.2344Z" fill="#090814"/>
<path d="M33.0267 93.826C36.7514 93.826 39.7708 90.8021 39.7708 87.072C39.7708 83.3419 36.7514 80.318 33.0267 80.318C29.3019 80.318 26.2825 83.3419 26.2825 87.072C26.2825 90.8021 29.3019 93.826 33.0267 93.826Z" fill="white"/>
<path d="M17.753 107.533C21.4778 107.533 24.4972 104.509 24.4972 100.779C24.4972 97.0485 21.4778 94.0247 17.753 94.0247C14.0283 94.0247 11.0089 97.0485 11.0089 100.779C11.0089 104.509 14.0283 107.533 17.753 107.533Z" fill="white"/>
<path d="M47.5068 107.533C51.2315 107.533 54.251 104.509 54.251 100.779C54.251 97.0485 51.2315 94.0247 47.5068 94.0247C43.7821 94.0247 40.7626 97.0485 40.7626 100.779C40.7626 104.509 43.7821 107.533 47.5068 107.533Z" fill="white"/>
<path d="M32.8283 121.041C36.553 121.041 39.5725 118.017 39.5725 114.287C39.5725 110.556 36.553 107.533 32.8283 107.533C29.1036 107.533 26.0841 110.556 26.0841 114.287C26.0841 118.017 29.1036 121.041 32.8283 121.041Z" fill="white"/>
<path d="M48.8953 129.582H36.9938V141.501H48.8953V129.582Z" fill="white"/>
<path d="M0.537537 188.671C0.537537 188.853 0.683875 189 0.866108 189H164.671C164.854 189 165 188.853 165 188.671C165 188.488 164.854 188.342 164.671 188.342H0.866108C0.683875 188.342 0.537537 188.488 0.537537 188.671Z" fill="#2F2E43"/>
<path d="M93.5701 55.1087C93.5701 50.802 97.0564 47.3107 101.357 47.3107C105.657 47.3107 109.144 50.802 109.144 55.1087C109.144 58.3786 107.133 61.1768 104.283 62.3353C105.2 64.4068 106.534 66.1086 106.534 66.1086L98.8597 72.5127L97.2291 61.7199C95.032 60.3413 93.5701 57.8966 93.5701 55.1087Z" fill="#ED9DA0"/>
<path d="M79.9223 106.831L83.3379 100.09L87.2679 102.087L83.8523 108.828C84.2171 109.89 84.1362 111.194 83.5277 112.394C82.463 114.496 80.1923 115.484 78.4559 114.601C76.7196 113.719 76.1751 111.3 77.2398 109.199C77.8482 107.998 78.8509 107.163 79.9223 106.831Z" fill="#ED9DA0"/>
<path d="M103.103 76.354L85.8479 108.652L79.1011 105.037L94.2169 71.9432" fill="#090814"/>
<path d="M93.6776 83.9232L88.9745 105.798L109.471 106.514C109.471 106.514 106.786 91.3224 107.739 88.6969L93.6776 83.9232Z" fill="#ED9DA0"/>
<path d="M125.234 168.188L121.379 171.034L124.221 174.895L128.076 172.049L125.234 168.188Z" fill="#ED9DA0"/>
<path d="M130.003 176.047L121.808 182.097C121.108 182.614 120.286 182.973 119.431 183.135L117.385 183.524C116.962 183.604 116.523 183.431 116.268 183.084C115.968 182.677 115.976 182.115 116.288 181.717L118.769 178.553L122.035 171.809L122.054 171.826C122.526 172.259 123.243 172.909 123.297 172.94C124.305 173.164 125.08 173.038 125.599 172.567C126.504 171.745 126.322 170.133 126.32 170.117L126.319 170.105L126.329 170.098C126.576 169.953 126.814 169.92 127.036 170.002C127.507 170.174 127.753 170.794 127.788 170.888C128.248 170.953 129.445 172.327 129.542 172.439C130.23 172.564 130.704 172.822 130.951 173.208C131.166 173.545 131.208 173.975 131.075 174.486C130.915 175.1 130.534 175.655 130.003 176.047Z" fill="#090814"/>
<path d="M92.1733 179.454H87.3835V184.251H92.1733V179.454Z" fill="#ED9DA0"/>
<path d="M91.3558 188.614H81.1745C80.3043 188.614 79.4298 188.414 78.6455 188.037L76.7685 187.133C76.3805 186.946 76.1297 186.547 76.1297 186.116C76.1297 185.61 76.4696 185.163 76.9563 185.028L80.8285 183.955L87.453 180.468L87.458 180.493C87.5819 181.121 87.7738 182.071 87.7982 182.128C88.4776 182.907 89.1754 183.267 89.8725 183.196C91.0882 183.072 91.8965 181.666 91.9045 181.652L91.9107 181.641L91.9231 181.643C92.2078 181.672 92.4184 181.787 92.549 181.984C92.8263 182.403 92.6572 183.048 92.6293 183.146C92.9615 183.471 93.1105 185.288 93.122 185.435C93.6023 185.945 93.8305 186.435 93.8003 186.892C93.7739 187.291 93.5527 187.662 93.143 187.994C92.6501 188.394 92.0154 188.614 91.3558 188.614Z" fill="#090814"/>
<path d="M111.716 99.2214H88.761L85.1019 180.737H93.186L98.4092 146.071L119.368 173.804L127.02 166.871L111.716 146.071V99.2214Z" fill="#090814"/>
<path d="M97.5546 66.4156L106.373 64.2675L112.026 71.5155C113.372 74.2663 113.585 77.437 112.617 80.3433L107.93 94.4252C107.93 94.4252 93.6299 94.1865 90.5315 85.8327L89.6433 83.9795C88.4292 81.4464 88.7046 78.4499 90.36 76.1813L97.5546 66.4156Z" fill="#090814"/>
<path d="M112.095 60.2849C112.095 60.2849 111.718 63.0285 108.26 63.2166L104.802 63.4046C104.802 63.4046 106.701 54.8165 104.26 56.4464C101.819 58.0762 95.3098 51.2433 95.3098 51.2433L93.3892 54.8506C93.3892 54.8506 88.8008 53.1866 93.886 49.112C93.886 49.112 99.9533 44.4143 106.395 47.2353C112.836 50.0562 112.095 60.2849 112.095 60.2849Z" fill="#090814"/>
<path d="M106.941 112.972L106.777 105.415L111.183 105.319L111.347 112.876C112.169 113.641 112.712 114.828 112.741 116.174C112.792 118.53 111.255 120.474 109.309 120.516C107.362 120.559 105.742 118.683 105.691 116.328C105.662 114.981 106.153 113.771 106.941 112.972Z" fill="#ED9DA0"/>
<path d="M113.024 75.1483V111.779H105.372L103.111 75.4575" fill="#090814"/>
</g>
<defs>
<clipPath id="clip0_767_523">
<rect width="165" height="189" fill="white"/>
</clipPath>
</defs>
</svg>
