<svg width="677" height="589" viewBox="0 0 677 589" fill="none" xmlns="http://www.w3.org/2000/svg">
<path d="M603.905 41.442L646.568 41.442V23.1125L603.905 23.1125V41.442Z" fill="#EBEBEB"/>
<path d="M627.702 18.3294L670.365 18.3294V-5.91278e-05L627.702 -5.91278e-05V18.3294Z" fill="#EBEBEB"/>
<path d="M580.092 18.3294L622.756 18.3294V-5.91278e-05L580.092 -5.91278e-05V18.3294Z" fill="#EBEBEB"/>
<path d="M30.2088 18.3294L72.8719 18.3294V-5.91278e-05L30.2088 -5.91278e-05V18.3294Z" fill="#EBEBEB"/>
<path d="M30.2088 475.616H72.8719V457.287H30.2088V475.616Z" fill="#EBEBEB"/>
<path d="M6.41213 452.52H49.0753V434.191H6.41213V452.52Z" fill="#EBEBEB"/>
<path d="M627.702 475.6H670.365V457.27H627.702V475.6Z" fill="#EBEBEB"/>
<path d="M599.765 196.366H557.102V214.696H599.765V196.366Z" fill="#EBEBEB"/>
<path d="M575.968 219.479H533.305V237.808H575.968V219.479Z" fill="#EBEBEB"/>
<path d="M18.3828 132.139H171.425V50.4839H18.3828V132.139Z" fill="#EBEBEB"/>
<path d="M195.126 132.139H171.426V107.061L195.126 132.139Z" fill="#EBEBEB"/>
<path d="M156.78 64.6036H33.0282V66.1597H156.78V64.6036Z" fill="white"/>
<path d="M109.767 72.974H33.0282V74.5301H109.767V72.974Z" fill="white"/>
<path d="M138.155 89.7308H33.0282V91.2869H138.155V89.7308Z" fill="white"/>
<path d="M156.78 98.1175H33.0282V99.6736H156.78V98.1175Z" fill="white"/>
<path d="M156.78 106.488H33.0282V108.044H156.78V106.488Z" fill="white"/>
<path d="M94.0423 114.875H33.0282V116.431H94.0423V114.875Z" fill="white"/>
<path d="M647.583 267.669H494.524V339.693H647.583V267.669Z" fill="#DBDBDB"/>
<path d="M470.841 339.693H494.525V314.615L470.841 339.693Z" fill="#DBDBDB"/>
<path d="M620.629 305.278H509.476V306.834H620.629V305.278Z" fill="white"/>
<path d="M603.213 313.665H509.476V315.221H603.213V313.665Z" fill="white"/>
<path d="M608.288 288.521H509.476V290.077H608.288V288.521Z" fill="white"/>
<path d="M630.409 280.134H509.476V281.691H630.409V280.134Z" fill="white"/>
<path d="M610.189 322.035H509.476V323.591H610.189V322.035Z" fill="white"/>
<path d="M233.503 150.927H80.4444V198.381H233.503V150.927Z" fill="#DBDBDB"/>
<path d="M56.7604 198.364H80.4443V173.286L56.7604 198.364Z" fill="#DBDBDB"/>
<path d="M206.549 163.95H95.3958V165.506H206.549V163.95Z" fill="white"/>
<path d="M189.132 172.336H95.3958V173.892H189.132V172.336Z" fill="white"/>
<path d="M196.108 180.707H95.3958V182.263H196.108V180.707Z" fill="white"/>
<path d="M600.908 425.181C605.299 430.01 611.081 433.3 617.425 434.58C623.769 435.861 630.349 435.065 636.221 432.308C642.093 429.551 646.955 424.974 650.109 419.233C653.264 413.493 654.549 406.884 653.78 400.355C653.012 393.826 650.229 387.712 645.831 382.89C641.433 378.069 635.646 374.788 629.3 373.517C622.954 372.247 616.375 373.053 610.507 375.819C604.64 378.585 599.785 383.17 596.639 388.915C593.515 394.651 592.247 401.24 593.013 407.749C593.779 414.259 596.542 420.358 600.908 425.181Z" fill="#EBEBEB"/>
<path d="M615.328 398.089C614.832 399.889 614.872 401.798 615.444 403.575C616.015 405.352 617.092 406.917 618.538 408.072C619.984 409.226 621.735 409.919 623.568 410.062C625.401 410.205 627.235 409.793 628.838 408.876C630.441 407.959 631.74 406.58 632.571 404.913C633.403 403.245 633.729 401.364 633.509 399.508C633.29 397.652 632.533 395.904 631.336 394.485C630.139 393.066 628.554 392.04 626.784 391.536C624.41 390.862 621.87 391.173 619.722 392.401C617.574 393.63 615.993 395.676 615.328 398.089Z" fill="white"/>
<path d="M601.94 421.414L600.908 425.181C604.775 429.415 609.724 432.471 615.201 434.007C620.679 435.543 626.469 435.499 631.923 433.879L632.954 430.128C633.839 426.033 633.146 421.748 631.017 418.157C628.888 414.565 625.485 411.941 621.51 410.824C617.534 409.707 613.289 410.182 609.648 412.153C606.007 414.123 603.248 417.437 601.94 421.414Z" fill="white"/>
<path d="M5.84833 244.409C4.55883 239.059 4.85921 233.44 6.71148 228.263C8.56375 223.086 11.8847 218.584 16.2541 215.326C20.6236 212.069 25.8452 210.202 31.2584 209.962C36.6716 209.722 42.0332 211.12 46.6648 213.979C51.2964 216.838 54.9899 221.029 57.2781 226.023C59.5663 231.016 60.3464 236.587 59.5195 242.031C58.6927 247.476 56.2962 252.548 52.6332 256.607C48.9702 260.667 44.2053 263.53 38.9412 264.835C31.8889 266.584 24.442 265.415 18.2369 261.585C12.0318 257.755 7.57592 251.577 5.84833 244.409Z" fill="#EBEBEB"/>
<path d="M46.4168 241.281C42.2761 249.766 32.432 254.794 32.432 254.794C32.432 254.794 22.6041 249.766 18.4634 241.281C15.0317 234.204 17.2067 226.538 22.6363 224.9C30.4342 222.493 32.432 236.367 32.432 236.367C32.432 236.367 34.4299 222.558 42.2278 224.9C47.6735 226.555 49.8485 234.204 46.4168 241.281Z" fill="white"/>
<path fill-rule="evenodd" clip-rule="evenodd" d="M126.072 364.591C124.348 363.51 122.849 361.921 120.546 362.15C119.676 362.15 119.869 361.495 119.853 361.004L119.756 334.664C119.756 334.025 119.756 333.501 120.465 333.141C127.055 329.734 129.89 323.083 133.918 317.383C135.979 314.549 137.456 311.321 138.262 307.893C139.067 304.465 139.185 300.907 138.606 297.432C138.333 295.466 139.235 294.565 140.975 294.156C141.855 293.848 142.809 293.832 143.698 294.112C144.587 294.392 145.366 294.952 145.921 295.712C147.821 299.287 149.106 303.164 149.723 307.178C150.11 310.454 148.95 313.73 148.547 317.006C148.257 319.414 147.709 321.806 147.274 324.246C147.854 324.672 148.515 324.443 149.143 324.459H171.039C174.116 324.459 175.614 325.344 176.049 327.408C176.283 328.694 176.094 330.022 175.512 331.189C174.929 332.355 173.986 333.294 172.827 333.862C172.279 334.14 171.216 333.862 171.216 334.763C171.216 335.663 172.167 335.549 172.682 335.909C175.324 337.727 174.841 341.528 171.796 343.739C171.071 344.263 169.637 344.034 169.605 345.131C169.573 346.229 170.926 345.983 171.538 346.605C173.665 348.735 172.618 352.748 169.444 354.37C169.002 354.505 168.571 354.674 168.155 354.877C167.8 355.123 167.446 355.402 168.155 355.909C171.377 358.186 171.264 361.38 168.155 363.723L167.204 364.427C166.053 365.132 164.707 365.437 163.37 365.295C151.915 365.295 140.475 365.377 129.036 365.41C128.513 365.48 127.982 365.444 127.473 365.303C126.964 365.162 126.488 364.92 126.072 364.591Z" fill="#EBEBEB"/>
<path fill-rule="evenodd" clip-rule="evenodd" d="M93.4944 349.21C93.4944 343.641 93.4944 338.055 93.4944 332.469C93.4944 331.339 93.6072 330.831 94.9767 330.831C101.668 330.831 108.36 330.831 115.052 330.831C116.357 330.831 116.566 331.274 116.566 332.469C116.566 343.706 116.604 354.938 116.679 366.163C116.679 367.589 116.308 367.998 114.907 367.965C108.462 367.965 101.969 367.993 95.4278 368.047C93.8166 368.047 93.5911 367.507 93.6072 366.065C93.4944 360.381 93.4944 354.796 93.4944 349.21Z" fill="#EBEBEB"/>
<path fill-rule="evenodd" clip-rule="evenodd" d="M642.266 240.511C641.267 239.872 640.381 238.873 639.044 239.069C638.528 239.069 638.641 238.693 638.641 238.398C638.641 233.238 638.641 228.095 638.641 222.935C638.609 222.759 638.632 222.577 638.708 222.416C638.783 222.254 638.906 222.12 639.06 222.034C642.943 220.036 644.602 216.121 646.971 212.779C648.183 211.117 649.054 209.222 649.53 207.21C650.006 205.198 650.078 203.109 649.742 201.067C649.565 199.904 650.096 199.429 651.128 199.151C651.642 198.965 652.202 198.952 652.724 199.114C653.246 199.277 653.703 199.605 654.028 200.052C655.146 202.162 655.903 204.449 656.267 206.817C656.267 208.771 656.035 210.718 655.574 212.615C655.397 214.024 655.091 215.433 654.833 216.858C655.172 217.12 655.558 216.972 655.929 216.989H668.818C670.622 216.989 671.509 217.513 671.766 218.725C671.907 219.475 671.802 220.251 671.468 220.935C671.133 221.618 670.587 222.171 669.914 222.509C669.591 222.673 669.011 222.509 668.963 223.05C668.915 223.59 669.527 223.508 669.833 223.721C671.444 224.786 671.106 226.997 669.317 228.324C668.882 228.635 668.045 228.488 668.029 229.143C668.012 229.798 668.802 229.634 669.156 229.995C669.436 230.357 669.629 230.78 669.719 231.231C669.81 231.683 669.795 232.149 669.675 232.593C669.556 233.037 669.337 233.447 669.034 233.79C668.731 234.132 668.354 234.397 667.932 234.565C667.672 234.643 667.419 234.742 667.175 234.86C666.965 235.007 666.756 235.171 667.175 235.466C667.596 235.676 667.951 236.003 668.199 236.408C668.448 236.814 668.579 237.282 668.579 237.759C668.579 238.237 668.448 238.704 668.199 239.11C667.951 239.515 667.596 239.842 667.175 240.052L666.627 240.462C665.952 240.883 665.159 241.068 664.371 240.986H644.2C643.863 241.05 643.516 241.04 643.183 240.958C642.85 240.877 642.537 240.724 642.266 240.511Z" fill="#EBEBEB"/>
<path fill-rule="evenodd" clip-rule="evenodd" d="M623.142 231.469C623.142 228.193 623.142 224.917 623.142 221.641C623.142 220.986 623.142 220.658 623.996 220.658C627.927 220.658 631.858 220.658 635.79 220.658C636.563 220.658 636.692 220.92 636.676 221.608C636.676 228.16 636.703 234.756 636.756 241.395C636.756 242.231 636.531 242.476 635.709 242.46C631.891 242.46 628.088 242.46 624.27 242.46C623.319 242.46 623.19 242.133 623.19 241.297C623.19 238.037 623.142 234.761 623.142 231.469Z" fill="#EBEBEB"/>
<path d="M0 516.993L84.6012 516.6L169.202 516.452L338.389 516.174L507.575 516.452L592.176 516.583L676.778 516.993L592.176 517.402L507.575 517.533L338.389 517.812L169.202 517.533L84.6012 517.386L0 516.993Z" fill="#263238"/>
<path d="M671.396 411.848C657.218 431.373 642.396 454.06 638.819 478.565C638.819 478.925 639.351 479.056 639.431 478.679C641.071 471.986 643.171 465.418 645.715 459.023C655.043 456.419 664.194 454.273 669.092 444.854C673.99 435.435 673.458 422.561 672.508 412.094C672.443 411.422 671.686 411.406 671.396 411.848Z" fill="#FFC727"/>
<path d="M645.86 458.81C652.304 444.264 660.36 429.67 670.816 417.712C670.816 417.63 670.993 417.712 670.929 417.827C664.43 426.345 658.724 435.459 653.883 445.051C658.588 440.137 663.743 435.861 668.19 430.718C668.271 430.62 668.416 430.718 668.335 430.865C663.904 436.254 659.087 442.119 653.335 446.099C651.724 448.998 650.226 451.914 648.647 454.813C649.034 454.584 649.436 454.387 649.823 454.191C649.904 454.191 649.968 454.191 649.823 454.305C649.388 454.535 648.953 454.764 648.502 454.961C647.745 456.337 647.02 457.713 646.246 459.088C646.117 459.351 645.715 459.121 645.86 458.81Z" fill="#263238"/>
<path d="M650.596 453.732C654.414 451.568 658.056 449.098 661.488 446.345C661.584 446.263 661.713 446.345 661.616 446.476C658.293 449.403 654.65 451.931 650.757 454.011C650.722 454.024 650.682 454.025 650.646 454.012C650.611 453.999 650.58 453.974 650.561 453.941C650.542 453.907 650.535 453.868 650.541 453.83C650.547 453.792 650.567 453.757 650.596 453.732Z" fill="#263238"/>
<path d="M637.175 474.846C637.175 475.141 637.691 475.141 637.691 474.846C637.691 466.771 637.691 458.663 637.82 450.554C639.85 446.394 644.264 444.084 647.245 440.726C649.424 438.284 651.321 435.596 652.9 432.716C656.56 425.829 658.797 418.254 659.474 410.456C660.311 401.823 657.089 373.338 653.512 374.321C651.659 374.845 645.65 388.948 644.055 393.6C641.471 401.294 639.583 409.211 638.416 417.253C635.516 436.238 635.757 455.747 637.175 474.846Z" fill="#FFC727"/>
<path d="M637.111 440.038C637.546 429.833 639.818 419.514 641.944 409.62C644.232 398.957 646.89 388.899 652.304 379.399C652.313 379.381 652.326 379.366 652.341 379.354C652.357 379.342 652.374 379.333 652.393 379.328C652.412 379.322 652.431 379.321 652.45 379.323C652.47 379.325 652.488 379.332 652.505 379.341C652.522 379.351 652.537 379.364 652.549 379.379C652.561 379.395 652.57 379.413 652.575 379.432C652.58 379.451 652.582 379.471 652.58 379.49C652.577 379.51 652.571 379.529 652.562 379.546C648.963 386.95 646.175 394.734 644.248 402.757C644.619 402.184 645.054 401.627 645.424 401.119C645.569 400.906 645.924 401.119 645.779 401.332C645.291 402.192 644.724 403.004 644.087 403.756C642.218 411.373 640.865 419.17 639.753 426.95L640.011 426.656C640.011 426.656 640.156 426.656 640.124 426.754L639.672 427.524C639.092 431.471 638.561 435.403 638.061 439.317C645.131 433.519 650.669 426.02 654.173 417.499C650.951 426.541 645.763 434.6 637.852 440.087L637.417 443.249C637.417 443.462 637.046 443.396 637.046 443.249C637.046 442.331 637.046 441.398 637.127 440.464C637.084 440.449 637.047 440.421 637.02 440.384C636.994 440.347 636.978 440.303 636.977 440.257C636.975 440.211 636.987 440.165 637.011 440.127C637.035 440.088 637.069 440.057 637.111 440.038Z" fill="#263238"/>
<path d="M640.365 425.247C645.764 417.458 650.481 409.204 654.463 400.578C654.463 400.48 654.672 400.578 654.64 400.578C651.47 409.635 646.728 418.04 640.639 425.394C640.51 425.607 640.269 425.411 640.365 425.247Z" fill="#263238"/>
<path d="M647.39 398.596C649.581 394.649 651.885 390.816 653.947 386.802C653.947 386.688 654.157 386.802 654.125 386.901C652.414 391.094 650.253 395.082 647.68 398.793C647.649 398.812 647.613 398.821 647.576 398.82C647.54 398.819 647.505 398.808 647.474 398.787C647.444 398.767 647.42 398.738 647.405 398.704C647.39 398.67 647.385 398.633 647.39 398.596Z" fill="#263238"/>
<path d="M646.536 400.382V400.462C646.536 400.462 646.504 400.382 646.536 400.382Z" fill="#263238"/>
<path d="M631.794 451.521C631.695 456.866 631.074 462.189 629.941 467.41L630.183 469.146C631.805 463.377 632.746 457.433 632.987 451.439C633.035 451.354 633.06 451.258 633.06 451.16C633.06 451.063 633.035 450.967 632.987 450.882C633.22 442.838 632.637 434.791 631.246 426.869C628.781 412.044 623.416 397.81 613.234 386.704C613.152 386.63 613.054 386.576 612.947 386.547C612.841 386.518 612.73 386.514 612.622 386.536C612.514 386.559 612.412 386.606 612.326 386.675C612.239 386.744 612.169 386.833 612.122 386.934C608.014 397.548 609.448 410.21 612.944 420.791C614.842 426.525 617.556 431.944 621 436.877C624.512 441.84 628.959 446.066 631.794 451.521Z" fill="#FFC727"/>
<path d="M614.458 391.651C624.125 407.556 630.811 426.41 631.633 445.198C631.633 445.542 631.085 445.624 631.053 445.28C630.811 443.642 630.57 441.922 630.296 440.251C626.108 436.479 622.43 432.161 619.356 427.409C619.356 427.327 619.437 427.229 619.501 427.311C622.81 431.439 626.356 435.366 630.118 439.072C629.426 434.911 628.62 430.882 627.653 426.787C627.379 426.492 627.138 426.181 626.88 425.886C626.622 425.591 626.993 425.394 627.17 425.591L627.396 425.853C626.047 420.33 624.362 414.898 622.353 409.587C619.904 406.606 617.165 404.034 615.376 400.447C615.376 400.365 615.376 400.3 615.505 400.365C616.886 402.454 618.376 404.466 619.968 406.393C620.613 407.147 621.322 407.851 621.998 408.588C619.771 402.825 617.133 397.235 614.104 391.864C614.087 391.817 614.087 391.766 614.103 391.719C614.12 391.673 614.152 391.633 614.194 391.608C614.236 391.583 614.285 391.573 614.334 391.581C614.382 391.589 614.426 391.614 614.458 391.651Z" fill="#263238"/>
<path d="M616.408 411.275C619.533 415.534 623.078 419.596 625.978 424.002C626.059 424.133 625.881 424.264 625.769 424.166C622.075 420.322 618.861 416.031 616.198 411.389C616.118 411.258 616.327 411.144 616.408 411.275Z" fill="#263238"/>
<path d="M626.412 424.952L626.541 425.083C626.56 425.103 626.57 425.129 626.57 425.157C626.57 425.184 626.56 425.211 626.541 425.231C626.521 425.25 626.495 425.261 626.468 425.261C626.441 425.261 626.415 425.25 626.396 425.231L626.268 425.099C626.249 425.08 626.238 425.053 626.238 425.026C626.238 424.998 626.249 424.972 626.268 424.952C626.287 424.932 626.313 424.921 626.34 424.921C626.367 424.921 626.393 424.932 626.412 424.952Z" fill="#263238"/>
<path d="M599.394 422.233C600.533 431.114 604.05 439.505 609.56 446.492C611.832 449.236 614.641 451.468 617.809 453.044C621.386 454.83 625.124 456.91 628.83 458.384C630.584 462.93 631.885 467.644 632.713 472.455C632.841 472.045 632.954 471.619 633.083 471.21C630.699 450.489 617.519 432.782 600.651 421.414C600.518 421.328 600.365 421.282 600.208 421.282C600.051 421.282 599.897 421.328 599.764 421.414C599.632 421.501 599.527 421.624 599.461 421.769C599.396 421.914 599.372 422.075 599.394 422.233Z" fill="#FFC727"/>
<path d="M605.549 435.501C605.774 435.645 605.989 435.803 606.193 435.976C606.193 435.976 606.193 436.107 606.113 436.091C605.878 435.976 605.652 435.844 605.436 435.698C605.414 435.681 605.399 435.656 605.394 435.629C605.388 435.601 605.393 435.573 605.407 435.549C605.421 435.525 605.443 435.506 605.469 435.498C605.495 435.489 605.523 435.49 605.549 435.501Z" fill="#263238"/>
<path d="M659.377 517.337H613.153L616.875 474.535L617.697 465.1H654.817L655.639 474.535L659.377 517.337Z" fill="#455A64"/>
<path d="M655.639 474.535H616.875L617.697 465.1H654.817L655.639 474.535Z" fill="#263238"/>
<path d="M657.041 458.499H615.489V467.835H657.041V458.499Z" fill="#455A64"/>
<path d="M464.606 7.68237H212.139C205.305 7.74725 198.776 10.5686 193.987 15.5262C189.199 20.4839 186.542 27.1719 186.603 34.1201V562.546C186.571 565.988 187.206 569.402 188.472 572.594C189.738 575.787 191.61 578.694 193.982 581.15C196.353 583.607 199.177 585.564 202.293 586.911C205.408 588.258 208.754 588.968 212.139 589H464.606C467.994 588.972 471.343 588.266 474.462 586.921C477.582 585.576 480.409 583.619 482.784 581.162C485.159 578.705 487.034 575.796 488.302 572.602C489.57 569.408 490.206 565.99 490.175 562.546V34.1201C490.204 30.6769 489.566 27.2616 488.297 24.0692C487.028 20.8768 485.153 17.9699 482.778 15.5147C480.404 13.0595 477.577 11.1041 474.459 9.76019C471.34 8.41627 467.992 7.71022 464.606 7.68237ZM474.273 546.166C474.273 560.089 464.026 571.326 451.394 571.326H225.463C212.8 571.326 202.553 560.089 202.553 546.166V54.1531C202.553 25.8153 212.8 24.4393 225.463 24.4393H270.72C273.347 24.4393 275.554 27.4697 275.554 31.2371V32.8752C275.554 41.7041 280.387 41.7369 286.155 41.7369H390.783C396.664 41.7369 401.368 41.7369 401.368 32.8752V31.2371C401.368 27.4697 403.479 24.4393 406.202 24.4393H451.33C463.961 24.4393 474.208 28.2068 474.208 54.1531L474.273 546.166Z" fill="#263238"/>
<path d="M352.647 30.6965H324.114C323.648 30.6965 323.201 30.5084 322.872 30.1736C322.543 29.8388 322.358 29.3846 322.358 28.9111C322.356 28.6753 322.399 28.4413 322.487 28.2228C322.574 28.0043 322.703 27.8055 322.866 27.638C323.03 27.4705 323.224 27.3375 323.438 27.2467C323.652 27.156 323.882 27.1093 324.114 27.1093H352.647C352.88 27.1093 353.11 27.1559 353.325 27.2464C353.541 27.337 353.736 27.4697 353.9 27.637C354.065 27.8043 354.196 28.003 354.285 28.2216C354.374 28.4402 354.42 28.6745 354.42 28.9111C354.42 29.147 354.374 29.3805 354.284 29.5982C354.195 29.8159 354.064 30.0134 353.899 30.1794C353.735 30.3454 353.539 30.4766 353.324 30.5654C353.109 30.6541 352.879 30.6987 352.647 30.6965Z" fill="white"/>
<path d="M474.208 54.153V546.166C474.208 560.089 463.961 571.326 451.33 571.326H225.463C212.8 571.326 202.553 560.089 202.553 546.166V54.153C202.553 25.8153 212.8 24.4393 225.463 24.4393H270.72C273.347 24.4393 275.554 27.4697 275.554 31.2371V32.8751C275.554 41.6549 280.226 41.6549 286.075 41.6549H390.702C396.583 41.6549 401.288 41.6549 401.288 32.7932V31.1552C401.288 27.3878 403.414 24.3574 406.121 24.3574H451.33C463.961 24.4393 474.208 28.2068 474.208 54.153Z" fill="white"/>
<path d="M474.208 54.153V90.7956H202.553V54.153C202.553 25.8153 212.8 24.4393 225.463 24.4393H270.72C273.363 24.4393 275.554 27.4697 275.554 31.2371V32.8751C275.554 41.6549 280.242 41.6549 286.059 41.6549H390.686C396.567 41.6549 401.288 41.6549 401.288 32.7932V31.1552C401.288 27.3878 403.414 24.3574 406.121 24.3574H451.33C463.961 24.4393 474.208 28.2068 474.208 54.153Z" fill="#FFC727"/>
<path d="M230.055 72.9412L222.032 65.2917L230.055 57.6585L231.296 59.0017L224.69 65.2917L231.296 71.5981L230.055 72.9412Z" fill="white"/>
<path d="M454.745 62.1467C454.745 62.4706 454.651 62.7873 454.474 63.0567C454.297 63.3261 454.045 63.536 453.751 63.66C453.457 63.784 453.133 63.8164 452.82 63.7532C452.507 63.69 452.22 63.534 451.995 63.3049C451.77 63.0758 451.616 62.784 451.554 62.4662C451.492 62.1485 451.524 61.8191 451.646 61.5198C451.768 61.2205 451.974 60.9647 452.239 60.7847C452.504 60.6047 452.816 60.5086 453.134 60.5086C453.562 60.5086 453.971 60.6812 454.274 60.9884C454.576 61.2956 454.745 61.7122 454.745 62.1467Z" fill="white"/>
<path d="M454.745 67.8634C454.745 68.1874 454.651 68.5041 454.474 68.7734C454.297 69.0428 454.045 69.2528 453.751 69.3767C453.457 69.5007 453.133 69.5331 452.82 69.4699C452.507 69.4067 452.22 69.2507 451.995 69.0217C451.77 68.7926 451.616 68.5007 451.554 68.183C451.492 67.8652 451.524 67.5359 451.646 67.2366C451.768 66.9372 451.974 66.6814 452.239 66.5014C452.504 66.3214 452.816 66.2254 453.134 66.2254C453.562 66.2254 453.971 66.3979 454.274 66.7051C454.576 67.0123 454.745 67.429 454.745 67.8634Z" fill="white"/>
<path d="M454.745 73.5637C454.745 73.8877 454.651 74.2043 454.474 74.4737C454.297 74.7431 454.045 74.953 453.751 75.077C453.457 75.201 453.133 75.2334 452.82 75.1702C452.507 75.107 452.22 74.951 451.995 74.7219C451.77 74.4928 451.616 74.201 451.554 73.8832C451.492 73.5655 451.524 73.2361 451.646 72.9368C451.768 72.6375 451.974 72.3817 452.239 72.2017C452.504 72.0217 452.816 71.9257 453.134 71.9257C453.562 71.9257 453.971 72.0982 454.274 72.4054C454.576 72.7126 454.745 73.1293 454.745 73.5637Z" fill="white"/>
<path d="M262.906 35.4961L262.455 35.922L262.213 36.1841C261.662 35.618 261.006 35.1686 260.283 34.8619C259.56 34.5553 258.784 34.3974 258 34.3974C257.217 34.3974 256.441 34.5553 255.718 34.8619C254.995 35.1686 254.338 35.618 253.787 36.1841L253.545 35.9384L253.11 35.4961L253.658 35.0047C254.05 34.6775 254.477 34.3972 254.931 34.1693C255.469 33.9077 256.038 33.7151 256.623 33.596L257.477 33.4813H258.218H258.798C259.714 33.5982 260.601 33.8929 261.408 34.3495C261.757 34.5653 262.091 34.8062 262.407 35.0702L262.874 35.4961H262.906Z" fill="white"/>
<path d="M255.173 37.5765L254.48 36.8885C254.942 36.4185 255.491 36.0456 256.095 35.7912C256.699 35.5369 257.346 35.4059 258 35.4059C258.654 35.4059 259.301 35.5369 259.905 35.7912C260.509 36.0456 261.058 36.4185 261.52 36.8885L260.828 37.5928C260.458 37.213 260.017 36.9114 259.532 36.7056C259.047 36.4999 258.526 36.3939 258 36.3939C257.474 36.3939 256.954 36.4999 256.468 36.7056C255.983 36.9114 255.543 37.213 255.173 37.5928V37.5765Z" fill="white"/>
<path d="M260.135 38.2807L259.442 38.985C259.257 38.7881 259.035 38.6314 258.788 38.5244C258.542 38.4174 258.276 38.3624 258.008 38.3626C257.738 38.363 257.471 38.4182 257.222 38.5251C256.973 38.632 256.747 38.7884 256.558 38.985L255.866 38.2807C256.144 37.9929 256.477 37.7644 256.843 37.6085C257.21 37.4525 257.603 37.3722 258 37.3722C258.398 37.3722 258.791 37.4525 259.158 37.6085C259.524 37.7644 259.856 37.9929 260.135 38.2807Z" fill="white"/>
<path d="M258.621 39.6075C258.624 39.7352 258.589 39.861 258.522 39.9685C258.454 40.076 258.356 40.1604 258.24 40.2108C258.125 40.2611 257.997 40.2752 257.874 40.251C257.75 40.2269 257.637 40.1658 257.548 40.0754C257.459 39.9851 257.399 39.8698 257.376 39.7444C257.352 39.6189 257.366 39.4892 257.415 39.3718C257.465 39.2544 257.548 39.1548 257.653 39.0859C257.759 39.017 257.883 38.9819 258.008 38.9851C258.171 38.9851 258.327 39.0507 258.441 39.1674C258.556 39.2841 258.621 39.4425 258.621 39.6075Z" fill="white"/>
<path d="M220.276 36.8391C220.272 36.4756 220.376 36.1193 220.572 35.8155C220.768 35.5116 221.049 35.2739 221.378 35.1326C221.708 34.9912 222.071 34.9525 222.422 35.0214C222.773 35.0904 223.096 35.2638 223.35 35.5197C223.604 35.7756 223.778 36.1025 223.849 36.4588C223.92 36.8151 223.885 37.1848 223.749 37.521C223.613 37.8572 223.381 38.1447 223.084 38.347C222.787 38.5493 222.438 38.6573 222.08 38.6573C221.604 38.6573 221.148 38.4663 220.81 38.1258C220.472 37.7853 220.28 37.3228 220.276 36.8391Z" fill="white"/>
<path d="M225.947 36.8393C225.944 36.4751 226.047 36.1181 226.244 35.8139C226.441 35.5098 226.723 35.2721 227.053 35.1312C227.384 34.9903 227.748 34.9526 228.099 35.0229C228.451 35.0931 228.774 35.2682 229.027 35.5257C229.281 35.7833 229.453 36.1117 229.522 36.4691C229.591 36.8265 229.554 37.1967 229.415 37.5326C229.277 37.8685 229.043 38.1548 228.744 38.3552C228.445 38.5555 228.093 38.6607 227.735 38.6575C227.262 38.6532 226.81 38.4603 226.475 38.1202C226.141 37.7802 225.951 37.3202 225.947 36.8393Z" fill="white"/>
<path d="M231.618 36.8393C231.615 36.4751 231.718 36.1181 231.915 35.8139C232.112 35.5098 232.394 35.2721 232.725 35.1312C233.055 34.9903 233.419 34.9526 233.771 35.0229C234.122 35.0931 234.445 35.2682 234.698 35.5257C234.952 35.7833 235.124 36.1117 235.193 36.4691C235.262 36.8265 235.225 37.1967 235.087 37.5326C234.948 37.8685 234.714 38.1548 234.415 38.3552C234.116 38.5555 233.765 38.6607 233.406 38.6575C232.933 38.6532 232.481 38.4603 232.147 38.1202C231.812 37.7802 231.622 37.3202 231.618 36.8393Z" fill="white"/>
<path d="M237.289 36.8393C237.286 36.4751 237.39 36.1181 237.587 35.8139C237.784 35.5098 238.065 35.2721 238.396 35.1312C238.726 34.9903 239.09 34.9526 239.442 35.0229C239.793 35.0931 240.116 35.2682 240.37 35.5257C240.623 35.7833 240.795 36.1117 240.864 36.4691C240.933 36.8265 240.896 37.1967 240.758 37.5326C240.619 37.8685 240.385 38.1548 240.086 38.3552C239.787 38.5555 239.436 38.6607 239.078 38.6575C238.605 38.6532 238.152 38.4603 237.818 38.1202C237.483 37.7802 237.293 37.3202 237.289 36.8393Z" fill="white"/>
<path d="M242.96 36.8393C242.957 36.4751 243.061 36.1181 243.258 35.8139C243.455 35.5098 243.736 35.2721 244.067 35.1312C244.397 34.9903 244.761 34.9526 245.113 35.0229C245.464 35.0931 245.787 35.2682 246.041 35.5257C246.294 35.7833 246.466 36.1117 246.535 36.4691C246.604 36.8265 246.567 37.1967 246.429 37.5326C246.29 37.8685 246.056 38.1548 245.757 38.3552C245.458 38.5555 245.107 38.6607 244.749 38.6575C244.276 38.6532 243.823 38.4603 243.489 38.1202C243.154 37.7802 242.965 37.3202 242.96 36.8393Z" fill="white"/>
<path d="M453.859 40.8524H439.15V33.8908H453.859V40.8524ZM439.891 40.017H452.989V34.7098H439.891V40.017Z" fill="white"/>
<path d="M449.832 35.1029H440.39V39.6566H449.832V35.1029Z" fill="white"/>
<path d="M455.148 35.5287H453.843V39.2142H455.148V35.5287Z" fill="white"/>
<path d="M243.831 541.252H241.768V550.9H237.918V545.986H231.07V550.9H227.22V541.252H225.157L234.486 531.44L243.831 541.252Z" fill="#EBEBEB"/>
<path d="M451.636 531.44H429.112V534.716H451.636V531.44Z" fill="#EBEBEB"/>
<path d="M451.636 539.532H429.112V542.808H451.636V539.532Z" fill="#EBEBEB"/>
<path d="M451.636 547.624H429.112V550.9H451.636V547.624Z" fill="#EBEBEB"/>
<path d="M344.785 539.876L338.389 546.821L331.992 539.876L333.12 538.795L338.389 544.511L343.657 538.795L344.785 539.876Z" fill="#EBEBEB"/>
<path d="M338.389 554.028C336.082 554.028 333.826 553.333 331.908 552.03C329.99 550.727 328.495 548.875 327.612 546.708C326.729 544.541 326.498 542.156 326.948 539.856C327.398 537.555 328.509 535.442 330.141 533.783C331.772 532.125 333.85 530.995 336.113 530.538C338.376 530.08 340.721 530.315 342.853 531.213C344.984 532.11 346.806 533.63 348.088 535.58C349.369 537.531 350.053 539.824 350.053 542.169C350.049 545.313 348.819 548.327 346.632 550.55C344.446 552.773 341.481 554.024 338.389 554.028ZM338.389 531.948C336.4 531.948 334.457 532.547 332.803 533.671C331.15 534.794 329.861 536.39 329.1 538.258C328.34 540.125 328.14 542.181 328.528 544.163C328.916 546.146 329.874 547.967 331.28 549.397C332.686 550.826 334.477 551.8 336.427 552.194C338.378 552.588 340.399 552.386 342.236 551.612C344.073 550.839 345.643 549.529 346.748 547.848C347.853 546.167 348.442 544.191 348.442 542.169C348.438 539.46 347.377 536.862 345.493 534.946C343.608 533.031 341.054 531.952 338.389 531.948Z" fill="#EBEBEB"/>
<path d="M313.786 67.8634C313.824 65.9124 314.613 64.0544 315.984 62.6884C317.355 61.3224 319.198 60.5575 321.117 60.5579C322.791 60.5605 324.414 61.1377 325.725 62.1959C325.947 62.3905 326.088 62.6646 326.117 62.9614C326.146 63.2582 326.062 63.5551 325.882 63.7907C325.702 64.0263 325.44 64.1826 325.15 64.2272C324.86 64.2718 324.564 64.2014 324.323 64.0305C323.41 63.2883 322.27 62.8943 321.101 62.9166C319.758 62.9254 318.468 63.4523 317.492 64.3908C317.027 64.849 316.657 65.3976 316.404 66.004C316.151 66.6104 316.021 67.2622 316.021 67.9208C316.021 68.5793 316.151 69.2312 316.404 69.8376C316.657 70.444 317.027 70.9926 317.492 71.4507C318.469 72.3847 319.759 72.9059 321.101 72.9086C322.27 72.9323 323.41 72.5381 324.323 71.7947C324.572 71.6221 324.874 71.55 325.172 71.5924C325.47 71.6348 325.742 71.7887 325.934 72.024C326.119 72.2685 326.202 72.5769 326.166 72.8831C326.13 73.1893 325.977 73.4689 325.741 73.662C324.43 74.7203 322.807 75.2975 321.133 75.3001C320.17 75.3044 319.215 75.1152 318.324 74.7434C317.433 74.3716 316.623 73.8245 315.94 73.1335C315.257 72.4426 314.716 71.6213 314.346 70.7169C313.977 69.8125 313.786 68.8428 313.786 67.8634Z" fill="white"/>
<path d="M329.801 74.0386V62.0646C329.801 61.7649 329.918 61.4774 330.127 61.2655C330.335 61.0535 330.618 60.9344 330.913 60.9344C331.208 60.9344 331.491 61.0535 331.699 61.2655C331.908 61.4774 332.025 61.7649 332.025 62.0646V66.9787H337.196V62.0646C337.194 61.9178 337.221 61.7719 337.275 61.6358C337.33 61.4997 337.41 61.376 337.513 61.2721C337.615 61.1682 337.736 61.0863 337.87 61.0311C338.004 60.9759 338.148 60.9486 338.292 60.9508C338.438 60.9486 338.583 60.9757 338.719 61.0305C338.854 61.0853 338.978 61.1668 339.083 61.2702C339.188 61.3736 339.271 61.497 339.329 61.6334C339.387 61.7697 339.418 61.9162 339.42 62.0646V74.0386C339.42 74.1884 339.391 74.3367 339.334 74.4749C339.277 74.6131 339.194 74.7385 339.089 74.8436C338.984 74.9488 338.859 75.0317 338.722 75.0875C338.586 75.1434 338.439 75.171 338.292 75.1688C338.147 75.1688 338.003 75.1395 337.869 75.0825C337.735 75.0255 337.614 74.942 337.512 74.8368C337.41 74.7316 337.329 74.6069 337.275 74.4699C337.221 74.3328 337.194 74.1862 337.196 74.0386V69.1245H332.025V74.0386C332.025 74.3383 331.908 74.6258 331.699 74.8378C331.491 75.0497 331.208 75.1688 330.913 75.1688C330.618 75.1688 330.335 75.0497 330.127 74.8378C329.918 74.6258 329.801 74.3383 329.801 74.0386Z" fill="white"/>
<path d="M349.812 71.811H344.978L343.979 74.4154C343.896 74.6282 343.751 74.8106 343.564 74.9391C343.378 75.0675 343.157 75.1362 342.932 75.1362C342.809 75.1532 342.684 75.1532 342.561 75.1362C342.286 75.0294 342.062 74.8169 341.938 74.5443C341.815 74.2718 341.801 73.9609 341.901 73.6783L346.315 61.7044C346.401 61.4907 346.548 61.3087 346.738 61.1828C346.929 61.0569 347.152 60.9931 347.379 61C347.603 60.9941 347.824 61.0585 348.011 61.1845C348.199 61.3105 348.344 61.492 348.426 61.7044L352.889 73.6456C352.988 73.9281 352.975 74.239 352.851 74.5116C352.728 74.7841 352.504 74.9966 352.228 75.1034C352.105 75.1218 351.981 75.1218 351.858 75.1034C351.636 75.106 351.418 75.038 351.236 74.9087C351.054 74.7794 350.917 74.5955 350.843 74.3827L349.812 71.811ZM348.99 69.5833L347.379 65.2097L345.768 69.5833H348.99Z" fill="white"/>
<path d="M362.137 63.1949H358.915V74.0386C358.915 74.334 358.799 74.6173 358.594 74.8262C358.388 75.0351 358.11 75.1525 357.819 75.1525C357.528 75.1525 357.25 75.0351 357.044 74.8262C356.839 74.6173 356.723 74.334 356.723 74.0386V63.1949H353.501C353.356 63.1949 353.212 63.1656 353.078 63.1086C352.944 63.0516 352.823 62.9681 352.721 62.8629C352.619 62.7577 352.538 62.633 352.484 62.496C352.43 62.3589 352.403 62.2123 352.406 62.0647C352.403 61.9178 352.43 61.7719 352.484 61.6358C352.539 61.4997 352.619 61.376 352.722 61.2721C352.824 61.1683 352.945 61.0863 353.079 61.0311C353.213 60.9759 353.357 60.9486 353.501 60.9508H362.024C362.168 60.9508 362.31 60.9796 362.443 61.0356C362.576 61.0916 362.697 61.1736 362.799 61.277C362.9 61.3805 362.981 61.5033 363.036 61.6384C363.091 61.7736 363.12 61.9184 363.12 62.0647C363.118 62.342 363.018 62.6094 362.837 62.8173C362.656 63.0251 362.407 63.1592 362.137 63.1949Z" fill="white"/>
<path d="M232.262 296.269H426.534V234.237H232.262V296.269Z" fill="#455A64"/>
<path d="M444.531 296.269H426.534V277.219L444.531 296.269Z" fill="#455A64"/>
<path d="M415.401 244.966H243.379V246.146H415.401V244.966Z" fill="white"/>
<path d="M379.698 251.338H243.379V252.518H379.698V251.338Z" fill="white"/>
<path d="M401.255 264.066H243.379V265.245H401.255V264.066Z" fill="white"/>
<path d="M415.401 270.421H243.379V271.601H415.401V270.421Z" fill="white"/>
<path d="M415.401 276.793H243.379V277.972H415.401V276.793Z" fill="white"/>
<path d="M367.76 283.149H243.379V284.328H367.76V283.149Z" fill="white"/>
<path d="M232.262 442.741H426.534V380.709H232.262V442.741Z" fill="#455A64"/>
<path d="M444.531 442.741H426.534V423.691L444.531 442.741Z" fill="#455A64"/>
<path d="M415.401 391.438H243.379V392.618H415.401V391.438Z" fill="white"/>
<path d="M379.698 397.794H243.379V398.973H379.698V397.794Z" fill="white"/>
<path d="M401.255 410.521H243.379V411.701H401.255V410.521Z" fill="white"/>
<path d="M415.401 416.893H243.379V418.072H415.401V416.893Z" fill="white"/>
<path d="M415.401 423.249H243.379V424.428H415.401V423.249Z" fill="white"/>
<path d="M367.76 429.621H243.379V430.8H367.76V429.621Z" fill="white"/>
<path d="M444.515 120.362H250.243V172.697H444.515V120.362Z" fill="#FFC727"/>
<path d="M232.262 172.697H250.243V153.647L232.262 172.697Z" fill="#FFC727"/>
<path d="M404.88 130.026H261.601V131.206H404.88V130.026Z" fill="white"/>
<path d="M433.623 136.398H261.601V137.578H433.623V136.398Z" fill="white"/>
<path d="M433.623 142.754H261.601V143.933H433.623V142.754Z" fill="white"/>
<path d="M419.993 149.126H261.601V150.305H419.993V149.126Z" fill="white"/>
<path d="M433.623 155.481H261.601V156.661H433.623V155.481Z" fill="white"/>
<path d="M388.705 161.853H261.601V163.032H388.705V161.853Z" fill="white"/>
<path d="M444.515 181.165H250.243V219.97H444.515V181.165Z" fill="#FFC727"/>
<path d="M232.262 219.97H250.243V200.92L232.262 219.97Z" fill="#FFC727"/>
<path d="M433.317 190.83H261.601V192.009H433.317V190.83Z" fill="white"/>
<path d="M402.931 197.185H261.601V198.365H402.931V197.185Z" fill="white"/>
<path d="M417.125 203.557H261.601V204.737H417.125V203.557Z" fill="white"/>
<path d="M381.567 209.913H261.601V211.092H381.567V209.913Z" fill="white"/>
<path d="M444.515 311.454H250.243V366.147H444.515V311.454Z" fill="#DBDBDB"/>
<path d="M232.262 366.147H250.243V347.097L232.262 366.147Z" fill="#DBDBDB"/>
<path d="M424.053 340.004H261.601V341.184H424.053V340.004Z" fill="white"/>
<path d="M410.825 346.376H261.601V347.556H410.825V346.376Z" fill="white"/>
<path d="M414.692 327.277H261.601V328.456H414.692V327.277Z" fill="white"/>
<path d="M431.48 320.921H261.601V322.101H431.48V320.921Z" fill="white"/>
<path d="M416.126 352.732H261.601V353.911H416.126V352.732Z" fill="white"/>
<path d="M444.515 458.876H250.243V504.429H444.515V458.876Z" fill="#FFC727"/>
<path d="M232.262 504.429H250.243V485.379L232.262 504.429Z" fill="#FFC727"/>
<path d="M433.623 468.13H261.601V469.31H433.623V468.13Z" fill="white"/>
<path d="M433.623 474.502H261.601V475.682H433.623V474.502Z" fill="white"/>
<path d="M419.993 480.858H261.601V482.037H419.993V480.858Z" fill="white"/>
<path d="M433.623 487.23H261.601V488.409H433.623V487.23Z" fill="white"/>
<path d="M388.705 493.585H261.601V494.765H388.705V493.585Z" fill="white"/>
<path d="M638.909 111.477C654.45 98.2607 656.511 74.7382 643.512 58.9377C630.513 43.1372 607.376 41.042 591.835 54.258C576.294 67.4739 574.233 90.9965 587.232 106.797C600.231 122.597 623.368 124.693 638.909 111.477Z" fill="#FFC727"/>
<path opacity="0.1" d="M609.528 119.706C603.84 118.776 598.448 116.498 593.787 113.055C589.126 109.613 585.328 105.104 582.699 99.8919C580.071 94.6802 578.686 88.9126 578.656 83.0558C578.627 77.1989 579.954 71.4173 582.531 66.1787C585.107 60.9401 588.86 56.3916 593.486 52.9013C598.112 49.411 603.482 47.0769 609.16 46.0878C614.838 45.0988 620.665 45.4825 626.171 47.208C631.676 48.9335 636.704 51.9523 640.849 56.0202C635.128 50.8344 627.761 47.9182 620.098 47.806C612.435 47.6939 604.988 50.3933 599.124 55.4095C593.259 60.4258 589.369 67.4228 588.166 75.1183C586.963 82.8138 588.528 90.6921 592.575 97.3095C596.622 103.927 602.878 108.84 610.198 111.148C617.519 113.457 625.412 113.006 632.431 109.878C639.451 106.75 645.127 101.155 648.419 94.1188C651.71 87.0821 652.398 79.075 650.354 71.565C652.254 77.6392 652.591 84.1067 651.334 90.351C650.077 96.5952 647.268 102.408 643.174 107.235C639.08 112.062 633.839 115.743 627.949 117.926C622.059 120.109 615.717 120.722 609.528 119.706Z" fill="black"/>
<path d="M594.141 71.9255C594.148 71.1642 594.306 70.4122 594.605 69.7143C594.904 69.0163 595.338 68.3868 595.882 67.8632C596.443 67.2997 597.119 66.8691 597.863 66.6019C598.631 66.341 599.449 66.2735 600.248 66.4053C601.048 66.5383 601.804 66.8641 602.455 67.3554C603.08 67.8416 603.592 68.4625 603.953 69.1736C604.303 69.8448 604.518 70.5803 604.584 71.337C604.651 72.0937 604.568 72.8563 604.34 73.5799C604.268 72.1978 603.816 70.864 603.035 69.7305C602.695 69.2128 602.253 68.7719 601.738 68.4352C601.223 68.0985 600.645 67.8732 600.04 67.7733C599.436 67.6734 598.818 67.7011 598.224 67.8547C597.631 68.0082 597.075 68.2843 596.59 68.6658C595.493 69.5006 594.645 70.6291 594.141 71.9255Z" fill="#263238"/>
<path d="M628.733 77.5929C628.747 76.8353 628.909 76.0881 629.207 75.3938C629.506 74.6996 629.936 74.072 630.473 73.547C631.037 72.983 631.721 72.5572 632.471 72.3021C633.232 72.0357 634.045 71.9626 634.839 72.0891C635.637 72.2292 636.392 72.5543 637.047 73.0392C637.673 73.5305 638.185 74.1571 638.545 74.8738C638.895 75.5418 639.11 76.2747 639.177 77.0288C639.243 77.7829 639.16 78.5429 638.932 79.2637C638.856 77.89 638.41 76.564 637.643 75.4307C637.295 74.9135 636.85 74.4719 636.332 74.1316C635.815 73.7913 635.236 73.5591 634.63 73.4487C634.021 73.3551 633.401 73.3882 632.805 73.5459C632.21 73.7036 631.652 73.9826 631.166 74.366C630.081 75.1958 629.239 76.3118 628.733 77.5929Z" fill="#263238"/>
<path d="M624.415 75.1687C624.166 76.7751 623.433 78.2635 622.318 79.4288C621.202 80.5941 619.758 81.3791 618.186 81.6755C616.613 81.972 614.988 81.7653 613.536 81.084C612.084 80.4027 610.875 79.2804 610.076 77.8715C609.207 76.3176 608.878 74.5117 609.141 72.7445L624.415 75.1687Z" fill="#263238"/>
<path d="M621.95 79.7715C621.094 80.5622 620.075 81.1478 618.967 81.4851C617.859 81.8224 616.691 81.9029 615.549 81.7206C614.407 81.5383 613.319 81.0979 612.366 80.4317C611.413 79.7656 610.62 78.8907 610.043 77.8714C611.924 76.6888 614.159 76.2302 616.343 76.5788C618.527 76.9274 620.516 78.06 621.95 79.7715Z" fill="#D3766A"/>
<path d="M593.513 71.6469C593.513 71.6469 587.987 69.7304 584.378 71.8435C580.769 73.9565 581.881 78.1498 585.554 78.4938C589.228 78.8378 593.513 71.6469 593.513 71.6469Z" fill="white"/>
<path d="M639.801 79.3293C639.801 79.3293 645.65 79.7552 648.147 83.1459C650.644 86.5366 648.034 89.9437 644.522 88.7971C641.01 87.6505 639.801 79.3293 639.801 79.3293Z" fill="white"/>
<path d="M59.395 341.541C74.6153 337.949 84.0893 322.492 80.5559 307.018C77.0224 291.544 61.8194 281.912 46.5991 285.504C31.3788 289.096 21.9048 304.553 25.4383 320.027C28.9717 335.501 44.1747 345.134 59.395 341.541Z" fill="#FFC727"/>
<path opacity="0.1" d="M61.1267 341.069C56.8742 342.366 52.3811 342.628 48.0108 341.832C43.6405 341.037 39.5156 339.207 35.9699 336.49C32.4241 333.774 29.5569 330.247 27.6002 326.195C25.6435 322.143 24.6523 317.68 24.7066 313.167C24.7609 308.653 25.8593 304.216 27.9129 300.214C29.9665 296.212 32.9177 292.758 36.5278 290.13C40.1379 287.503 44.3055 285.776 48.6936 285.089C53.0818 284.403 57.5673 284.776 61.7873 286.179C56.1135 284.546 50.051 285.046 44.7105 287.588C39.37 290.129 35.1092 294.543 32.7089 300.019C30.3087 305.494 29.9296 311.666 31.6413 317.403C33.353 323.14 37.0408 328.058 42.0288 331.256C47.0169 334.453 52.9712 335.716 58.8006 334.813C64.6301 333.91 69.9443 330.901 73.7694 326.339C77.5946 321.776 79.6745 315.965 79.628 309.97C79.5815 303.975 77.4118 298.198 73.5164 293.697C76.8391 297.264 79.2089 301.636 80.4004 306.397C81.592 311.159 81.5656 316.15 80.3238 320.898C79.0821 325.646 76.6662 329.992 73.3061 333.522C69.9459 337.053 65.7532 339.651 61.1267 341.069Z" fill="black"/>
<path d="M35.0904 314.713C34.8312 314.186 34.6804 313.61 34.6472 313.022C34.6139 312.433 34.699 311.844 34.8971 311.29C35.0919 310.672 35.4288 310.11 35.8799 309.652C36.3309 309.196 36.8837 308.859 37.491 308.669C38.1111 308.522 38.756 308.522 39.3761 308.669C40.2469 308.869 41.0352 309.339 41.6324 310.014C42.2297 310.688 42.6066 311.535 42.7111 312.436C42.17 311.539 41.4095 310.8 40.5039 310.29C40.1058 310.058 39.6652 309.91 39.209 309.855C38.7529 309.801 38.2906 309.842 37.8505 309.975C37.4103 310.109 37.0014 310.332 36.6488 310.631C36.2962 310.93 36.0071 311.299 35.7993 311.716C35.3072 312.634 35.0626 313.668 35.0904 314.713Z" fill="#263238"/>
<path d="M68.151 302.952C68.3785 303.718 68.3776 304.535 68.1483 305.301C67.9189 306.066 67.4716 306.745 66.8627 307.252C66.2538 307.759 65.5107 308.071 64.7275 308.149C63.9442 308.226 63.1559 308.066 62.4622 307.688C61.7685 307.31 61.2005 306.732 60.8302 306.026C60.4598 305.32 60.3036 304.518 60.3814 303.722C60.4591 302.926 60.7673 302.171 61.267 301.553C61.7667 300.935 62.4354 300.481 63.1887 300.249C63.6891 300.095 64.2144 300.043 64.7346 300.096C65.2548 300.148 65.7598 300.304 66.2206 300.555C66.6815 300.806 67.0891 301.147 67.4204 301.559C67.7516 301.97 67.9998 302.443 68.151 302.952Z" fill="#263238"/>
<path d="M45.563 310.929C46.3357 311.762 47.2996 312.386 48.3682 312.746C49.4367 313.106 50.5766 313.191 51.6854 312.993C51.6854 312.993 51.0731 321.183 45.9658 319.299C40.8585 317.416 45.563 310.929 45.563 310.929Z" fill="#D3766A"/>
<path d="M44.0001 308.489C44.8733 309.995 46.1617 311.208 47.7058 311.978C49.2433 312.626 50.9591 312.69 52.5392 312.158C54.1249 311.753 55.5111 310.775 56.4382 309.406C57.3409 307.927 57.8413 306.232 57.8882 304.492C58.3418 306.324 58.1302 308.26 57.2921 309.946C56.8343 310.808 56.2029 311.561 55.4392 312.158C53.8788 313.318 51.9727 313.897 50.0419 313.796C49.0776 313.724 48.1416 313.433 47.303 312.944C46.4905 312.46 45.7804 311.817 45.2135 311.052C44.6467 310.287 44.2343 309.416 44.0001 308.489Z" fill="#263238"/>
<path d="M46.9486 317.121C46.9925 316.336 47.1556 315.562 47.4319 314.828C47.669 314.079 48.0285 313.375 48.4953 312.747C48.4495 313.532 48.2866 314.306 48.0119 315.041C47.7715 315.789 47.4123 316.491 46.9486 317.121Z" fill="#263238"/>
<path d="M597.096 314.931C611.506 311.432 620.398 296.72 616.957 282.069C613.516 267.418 599.045 258.378 584.635 261.876C570.224 265.374 561.332 280.087 564.773 294.738C568.214 309.388 582.685 318.429 597.096 314.931Z" fill="#FFC727"/>
<path opacity="0.1" d="M599.023 314.418C595.014 315.725 590.757 316.054 586.599 315.378C582.441 314.702 578.498 313.041 575.089 310.528C571.68 308.015 568.9 304.722 566.975 300.914C565.05 297.106 564.034 292.891 564.009 288.61C563.984 284.329 564.95 280.102 566.83 276.271C568.71 272.441 571.451 269.113 574.83 266.559C578.209 264.005 582.133 262.296 586.283 261.569C590.433 260.843 594.692 261.12 598.717 262.378C593.307 260.936 587.566 261.524 582.547 264.034C577.528 266.544 573.566 270.809 571.388 276.047C569.21 281.285 568.961 287.145 570.686 292.555C572.412 297.964 575.997 302.561 580.784 305.502C585.571 308.443 591.241 309.532 596.754 308.57C602.267 307.607 607.254 304.658 610.802 300.261C614.35 295.865 616.221 290.316 616.073 284.631C615.925 278.947 613.767 273.506 609.995 269.307C613.206 272.629 615.527 276.731 616.738 281.222C617.949 285.714 618.009 290.446 616.912 294.968C615.816 299.489 613.599 303.651 610.473 307.055C607.348 310.46 603.417 312.995 599.056 314.418H599.023Z" fill="black"/>
<path d="M580.624 286.113C580.85 286.836 580.861 287.61 580.654 288.338C580.447 289.067 580.033 289.716 579.463 290.205C578.893 290.694 578.194 291 577.453 291.085C576.712 291.169 575.963 291.029 575.3 290.681C574.638 290.332 574.092 289.792 573.732 289.129C573.371 288.465 573.212 287.708 573.275 286.953C573.338 286.197 573.62 285.478 574.085 284.885C574.55 284.293 575.177 283.854 575.888 283.623C576.359 283.468 576.857 283.41 577.351 283.451C577.845 283.493 578.326 283.633 578.766 283.865C579.207 284.096 579.598 284.414 579.917 284.8C580.235 285.186 580.476 285.632 580.624 286.113Z" fill="#263238"/>
<path d="M605.033 278.169C605.262 278.894 605.275 279.672 605.069 280.405C604.863 281.137 604.448 281.791 603.877 282.283C603.305 282.776 602.602 283.085 601.858 283.171C601.113 283.258 600.361 283.118 599.694 282.769C599.028 282.42 598.479 281.878 598.116 281.211C597.753 280.545 597.593 279.784 597.656 279.025C597.718 278.266 598.001 277.542 598.468 276.947C598.936 276.351 599.566 275.91 600.28 275.679C601.235 275.374 602.27 275.465 603.16 275.931C604.05 276.397 604.723 277.201 605.033 278.169Z" fill="#263238"/>
<path d="M594.303 280.429C594.703 281.687 594.663 283.047 594.19 284.279C593.887 285.088 593.409 285.818 592.791 286.414C592.173 287.009 591.431 287.456 590.62 287.72C589.809 287.985 588.95 288.06 588.106 287.941C587.263 287.821 586.457 287.51 585.748 287.03C584.668 286.3 583.862 285.221 583.46 283.967L594.303 280.429Z" fill="#263238"/>
<path d="M594.19 284.279C593.887 285.088 593.409 285.818 592.791 286.414C592.173 287.009 591.431 287.456 590.62 287.72C589.809 287.985 588.95 288.06 588.107 287.941C587.263 287.821 586.457 287.51 585.748 287.03C586.601 285.623 587.92 284.573 589.468 284.068C591.017 283.563 592.691 283.638 594.19 284.279Z" fill="#D3766A"/>
<path d="M132.355 277.333C152.678 277.333 169.154 259.689 169.154 237.923C169.154 216.157 152.678 198.512 132.355 198.512C112.032 198.512 95.5566 216.157 95.5566 237.923C95.5566 259.689 112.032 277.333 132.355 277.333Z" fill="#FFC727"/>
<path opacity="0.1" d="M123.011 276.039C103.371 270.519 91.6093 248.979 96.765 227.931C101.921 206.882 122.028 194.269 141.684 199.789C149.034 201.88 155.554 206.263 160.325 212.32C156.265 207.544 150.906 204.096 144.922 202.41C127.844 197.611 110.347 208.553 105.868 226.866C101.389 245.179 111.604 263.902 128.698 268.701C145.792 273.5 163.273 262.558 167.752 244.245C168.929 239.467 169.126 234.493 168.332 229.634C169.546 235.681 169.414 241.927 167.945 247.914C162.774 268.963 142.666 281.559 123.011 276.039Z" fill="black"/>
<path d="M156.2 236.579C156.051 237.267 155.768 237.916 155.367 238.49C154.966 239.064 154.456 239.55 153.867 239.919C153.278 240.289 152.622 240.535 151.938 240.642C151.254 240.749 150.556 240.716 149.885 240.543C148.526 240.118 147.381 239.174 146.69 237.91C146 236.647 145.816 235.16 146.179 233.762C146.328 233.073 146.612 232.422 147.014 231.847C147.416 231.272 147.927 230.785 148.518 230.415C149.109 230.045 149.767 229.8 150.453 229.694C151.139 229.588 151.839 229.623 152.511 229.798C153.869 230.224 155.012 231.168 155.7 232.432C156.388 233.697 156.568 235.183 156.2 236.579Z" fill="#263238"/>
<path d="M122.221 227.013C122.072 227.702 121.788 228.354 121.386 228.929C120.984 229.504 120.473 229.991 119.882 230.36C119.291 230.73 118.633 230.976 117.947 231.082C117.261 231.188 116.561 231.152 115.889 230.977C114.531 230.552 113.388 229.608 112.7 228.343C112.012 227.078 111.832 225.592 112.2 224.196C112.349 223.509 112.632 222.859 113.033 222.285C113.434 221.712 113.944 221.226 114.533 220.856C115.122 220.486 115.778 220.241 116.462 220.133C117.146 220.026 117.844 220.06 118.515 220.232C119.874 220.658 121.019 221.601 121.71 222.865C122.4 224.129 122.584 225.615 122.221 227.013Z" fill="#263238"/>
<path d="M125.717 225.506C125.696 227.884 126.327 230.221 127.538 232.255C128.77 234.058 130.601 235.349 132.693 235.891C134.714 236.579 136.918 236.45 138.848 235.531C140.838 234.424 142.505 232.802 143.681 230.83C143.023 233.29 141.498 235.418 139.396 236.809C138.329 237.507 137.114 237.939 135.851 238.07C134.603 238.178 133.345 238.045 132.146 237.677C130.944 237.331 129.811 236.777 128.795 236.039C127.76 235.244 126.913 234.226 126.313 233.058C125.199 230.703 124.986 228.011 125.717 225.506Z" fill="#263238"/>
</svg>
