<svg width="705" height="609" viewBox="0 0 705 609" fill="none" xmlns="http://www.w3.org/2000/svg">
<path d="M704.423 506.081H1" stroke="#263238" strokeLinecap="round" strokeLinejoin="round"/>
<g opacity="0.3">
<path d="M667.949 18.2337H551.164V173.089H667.949V18.2337Z" fill="white" stroke="black" strokeLinecap="round" strokeLinejoin="round"/>
<path d="M661.243 27.136H557.885V164.201H661.243V27.136Z" fill="white" stroke="black" strokeLinecap="round" strokeLinejoin="round"/>
<path d="M632.779 64.8546H586.32V126.469H632.779V64.8546Z" fill="white" stroke="black" strokeLinecap="round" strokeLinejoin="round"/>
</g>
<g opacity="0.3">
<path d="M80.6386 27.9415H31.7632V92.7476H80.6386V27.9415Z" fill="white" stroke="black" strokeLinecap="round" strokeLinejoin="round"/>
<path d="M77.8273 31.6604H34.5745V89.0136H77.8273V31.6604Z" fill="white" stroke="black" strokeLinecap="round" strokeLinejoin="round"/>
<path d="M65.9233 47.4593H46.4785V73.2441H65.9233V47.4593Z" fill="white" stroke="black" strokeLinecap="round" strokeLinejoin="round"/>
<path d="M154.054 103.568H105.179V168.374H154.054V103.568Z" fill="white" stroke="black" strokeLinecap="round" strokeLinejoin="round"/>
<path d="M151.228 107.302H107.975V164.655H151.228V107.302Z" fill="white" stroke="black" strokeLinecap="round" strokeLinejoin="round"/>
<path d="M139.324 123.086H119.879V148.87H139.324V123.086Z" fill="white" stroke="black" strokeLinecap="round" strokeLinejoin="round"/>
<path d="M30.5039 111.533L30.5039 160.409H95.31V111.533H30.5039Z" fill="white" stroke="black" strokeLinecap="round" strokeLinejoin="round"/>
<path d="M34.2375 114.344V157.597H91.5908V114.344H34.2375Z" fill="white" stroke="black" strokeLinecap="round" strokeLinejoin="round"/>
<path d="M50.022 126.249V145.694H75.8068V126.249H50.022Z" fill="white" stroke="black" strokeLinecap="round" strokeLinejoin="round"/>
<path d="M157.407 1.39502H86.2612V95.749H157.407V1.39502Z" fill="white" stroke="black" strokeLinecap="round" strokeLinejoin="round"/>
<path d="M153.337 6.82693H90.3611V90.3311H153.337V6.82693Z" fill="white" stroke="black" strokeLinecap="round" strokeLinejoin="round"/>
<path d="M135.986 29.8009H107.683V67.3434H135.986V29.8009Z" fill="white" stroke="black" strokeLinecap="round" strokeLinejoin="round"/>
</g>
<path d="M197.732 274.69H191.187V291.338H197.732V274.69Z" fill="#6E6E6E" stroke="#263238" strokeLinecap="round" strokeLinejoin="round"/>
<path d="M510.517 274.69H503.972V291.338H510.517V274.69Z" fill="#6E6E6E" stroke="#263238" strokeLinecap="round" strokeLinejoin="round"/>
<path d="M519.507 32.6851H183.397V276.447H519.507V32.6851Z" fill="#6E6E6E" stroke="#263238" strokeLinecap="round" strokeLinejoin="round"/>
<path d="M510.517 39.2155H192.387V269.932H510.517V39.2155Z" fill="#263238" stroke="#263238" strokeLinecap="round" strokeLinejoin="round"/>
<path d="M277.985 220.91C277.985 220.91 283.579 225.185 287.21 216.957C290.841 208.728 295.775 203.442 303.023 201.143C308.688 199.114 314.194 196.667 319.496 193.822C317.651 197.216 315.323 200.323 312.585 203.047C308.631 206.663 303.682 210.294 303.36 212.271C303.038 214.248 303.36 213.252 311.267 212.271L319.174 211.275C319.174 211.275 316.538 215.888 313.902 216.547C311.267 217.205 301.047 218.86 296.756 222.155C292.466 225.449 290.006 229.315 285.892 233.356C281.778 237.397 267.443 243.898 267.443 234.015C267.443 224.131 269.42 221.217 277.985 220.91Z" fill="#263238" stroke="#263238" strokeLinecap="round" strokeLinejoin="round"/>
<path d="M325.162 212.388C325.162 212.388 320.77 199.21 327.549 195.271" stroke="#263238" strokeLinecap="round" strokeLinejoin="round"/>
<path d="M343.07 217.557C343.07 217.557 339.892 217.557 340.288 219.944C340.683 222.33 342.674 228.304 342.674 228.304" stroke="#263238" strokeLinecap="round" strokeLinejoin="round"/>
<path d="M304.458 198.448L302.862 191.684" stroke="#263238" strokeLinecap="round" strokeLinejoin="round"/>
<path d="M274.208 208.801C274.208 208.801 271.016 204.818 271.821 202.431C272.626 200.045 277.78 196.853 279.772 198.449" stroke="#263238" strokeLinecap="round" strokeLinejoin="round"/>
<path d="M271.821 236.665C270.939 234.803 270.695 232.703 271.126 230.689C271.557 228.675 272.64 226.859 274.208 225.522" stroke="#263238" strokeLinecap="round" strokeLinejoin="round"/>
<path d="M281.763 237.47L276.199 237.866" stroke="#263238" strokeLinecap="round" strokeLinejoin="round"/>
<path d="M271.894 122.149C271.894 122.149 277.751 128.298 279.289 131.373C280.826 134.448 278.981 123.686 271.894 122.149Z" fill="#263238" stroke="#263238" strokeLinecap="round" strokeLinejoin="round"/>
<path d="M425.475 138.914C425.905 142.232 425.636 145.604 424.685 148.812C423.089 154.361 419.135 156.733 419.135 163.454C419.135 170.175 414.743 179.692 414.743 179.692" stroke="#263238" strokeLinecap="round" strokeLinejoin="round"/>
<path d="M393.775 146.001L417.949 145.21C418.455 147.521 418.312 149.926 417.537 152.161C416.762 154.396 415.385 156.374 413.557 157.875C407.246 163.029 392.985 157.085 393.775 146.001Z" fill="#263238" stroke="#263238" strokeLinecap="round" strokeLinejoin="round"/>
<path d="M384.507 144.917L356.906 135.297C356.906 135.297 354.329 148.08 362.324 152.868C374.052 159.998 383.716 146.894 384.507 144.917Z" fill="#263238" stroke="#263238" strokeLinecap="round" strokeLinejoin="round"/>
<path d="M383.262 160.306C383.262 160.306 374.96 168.3 378.343 169.53C379.44 169.843 380.596 169.894 381.717 169.681C382.838 169.467 383.894 168.995 384.8 168.3C384.8 168.3 388.182 174.45 390.949 172.605C393.717 170.76 392.194 162.458 390.334 159.998C389.916 159.441 389.368 158.994 388.737 158.696C388.107 158.398 387.414 158.258 386.717 158.288C386.021 158.318 385.342 158.518 384.74 158.87C384.138 159.221 383.631 159.714 383.262 160.306Z" fill="#263238" stroke="#263238" strokeLinecap="round" strokeLinejoin="round"/>
<path d="M394.053 198.449C392.328 201.278 390.01 203.701 387.26 205.55C385.529 206.809 383.703 207.93 381.798 208.903C378.108 210.763 367.639 206.15 365.487 203.983C364.04 201.972 362.996 199.7 362.412 197.292C361.24 193.426 360.508 188.873 361.182 186.135C361.671 184.626 362.455 183.229 363.488 182.025C364.521 180.821 365.783 179.834 367.2 179.121C369.655 177.682 372.562 177.222 375.341 177.833L390.378 181.596C391.435 181.864 392.39 182.435 393.126 183.239C393.862 184.043 394.347 185.044 394.522 186.12C394.522 186.384 394.61 186.676 394.654 186.984C395.137 190.674 395.503 195.74 394.053 198.449Z" fill="#263238" stroke="#263238" strokeLinecap="round" strokeLinejoin="round"/>
<path d="M379.587 153.556C379.587 153.556 376.512 157.246 368.518 159.72C360.523 162.195 354.974 159.105 354.051 155.401" stroke="#263238" strokeLinecap="round" strokeLinejoin="round"/>
<path d="M394.976 156.602C394.976 156.602 397.904 164.552 408.505 163.923" stroke="#263238" strokeLinecap="round" strokeLinejoin="round"/>
<path d="M387.655 143.38C388.577 143.072 388.577 142.765 388.577 139.383C388.577 136 383.043 132.911 380.583 131.066" stroke="#263238" strokeLinecap="round" strokeLinejoin="round"/>
<path d="M390.964 142.765C391.119 141.262 391.774 139.854 392.824 138.767C394.669 136.615 406.353 134.375 407.275 134.375" stroke="#263238" strokeLinecap="round" strokeLinejoin="round"/>
<path d="M374.36 163.073C371.496 164.911 368.512 166.555 365.428 167.993C360.201 170.453 354.359 169.457 354.359 180.907" stroke="#263238" strokeLinecap="round" strokeLinejoin="round"/>
<path d="M394.976 168.301C396.225 171.473 397.878 174.47 399.896 177.218C402.663 180.6 401.741 186.149 399.896 192.299" stroke="#263238" strokeLinecap="round" strokeLinejoin="round"/>
<path d="M417.13 166.734C417.13 166.734 416.207 169.194 411.273 170.116C406.338 171.039 401.741 170.731 402.048 175.344" stroke="#263238" strokeLinecap="round" strokeLinejoin="round"/>
<path d="M346.979 152.297C346.979 152.297 347.594 158.154 351.591 160.613C355.589 163.073 358.664 163.996 356.819 167.071" stroke="#263238" strokeLinecap="round" strokeLinejoin="round"/>
<path d="M350.054 131.68C349.515 130.858 349.228 129.896 349.228 128.913C349.228 127.93 349.515 126.968 350.054 126.146C351.899 123.071 353.436 117.536 352.821 109.219" stroke="#263238" strokeLinecap="round" strokeLinejoin="round"/>
<path d="M336.73 149.588C336.73 149.588 340.434 140.964 338.574 135.736C336.715 130.509 332.908 122.236 332.908 122.236C332.908 122.236 330.902 128.284 332.22 131.197C333.538 134.111 334.943 137.303 334.943 137.303C334.943 137.303 329.892 138.094 331.224 141.813C332.557 145.532 332.82 141.549 334.153 141.286C335.485 141.022 336.73 149.588 336.73 149.588Z" fill="#263238" stroke="#263238" strokeLinecap="round" strokeLinejoin="round"/>
<path d="M354.359 84.9138C354.359 84.9138 361.123 92.0006 376.205 95.0754" stroke="#263238" strokeLinecap="round" strokeLinejoin="round"/>
<path d="M396.513 96.6129C406.116 98.9288 416.106 99.1386 425.798 97.2278" stroke="#263238" strokeLinecap="round" strokeLinejoin="round"/>
<path d="M360.816 84.2986L355.896 91.6929" stroke="#263238" strokeLinecap="round" strokeLinejoin="round"/>
<path d="M371.285 88.3108L368.21 95.9979" stroke="#263238" strokeLinecap="round" strokeLinejoin="round"/>
<path d="M399.896 92.6152L398.973 101.225" stroke="#263238" strokeLinecap="round" strokeLinejoin="round"/>
<path d="M414.04 93.2303L413.733 105.53" stroke="#263238" strokeLinecap="round" strokeLinejoin="round"/>
<path d="M370.362 116.951C370.362 116.951 378.357 120.641 384.199 123.101C390.041 125.56 401.126 124.945 407.89 124.33" stroke="#263238" strokeLinecap="round" strokeLinejoin="round"/>
<path d="M412.195 117.844C412.195 117.844 396.821 118.151 393.16 117.844" stroke="#263238" strokeLinecap="round" strokeLinejoin="round"/>
<path d="M361.724 207.014C361.724 207.014 365.106 211.7 373.189 212.74C377.9 213.395 382.696 213.041 387.26 211.7C387.26 211.7 380.48 217.659 373.189 216.503C365.897 215.346 361.724 207.014 361.724 207.014Z" fill="#263238" stroke="#263238" strokeLinecap="round" strokeLinejoin="round"/>
<path d="M382.516 179.268L382.75 175.68" stroke="#263238" strokeLinecap="round" strokeLinejoin="round"/>
<path d="M393.98 183.089C394.902 182.425 395.709 181.614 396.367 180.688" stroke="#263238" strokeLinecap="round" strokeLinejoin="round"/>
<path d="M362.353 197.292C362.353 197.292 359.586 199.327 359.586 200.762" stroke="#263238" strokeLinecap="round" strokeLinejoin="round"/>
<path d="M369.381 206.722L368.664 209.108" stroke="#263238" strokeLinecap="round" strokeLinejoin="round"/>
<path d="M387.26 205.55L387.055 209.826" stroke="#263238" strokeLinecap="round" strokeLinejoin="round"/>
<path d="M297.855 55.2047H207.864C207.087 55.2047 206.343 54.8962 205.793 54.347C205.244 53.7978 204.936 53.053 204.936 52.2763C204.936 51.4996 205.244 50.7548 205.793 50.2056C206.343 49.6564 207.087 49.3479 207.864 49.3479H297.855C298.631 49.3479 299.376 49.6564 299.925 50.2056C300.475 50.7548 300.783 51.4996 300.783 52.2763C300.783 52.6609 300.707 53.0417 300.56 53.397C300.413 53.7523 300.197 54.0751 299.925 54.347C299.653 54.6189 299.331 54.8346 298.975 54.9818C298.62 55.129 298.239 55.2047 297.855 55.2047Z" fill="#6E6E6E" stroke="#263238" strokeLinecap="round" strokeLinejoin="round"/>
<path d="M236.65 49.2456H207.864C207.074 49.2456 206.316 49.5595 205.757 50.1183C205.198 50.6771 204.884 51.435 204.884 52.2253C204.884 53.0155 205.198 53.7734 205.757 54.3322C206.316 54.891 207.074 55.205 207.864 55.205H236.65V49.2456Z" fill="#C53F3F" stroke="#263238" strokeLinecap="round" strokeLinejoin="round"/>
<path d="M640.422 305.029H64.7666V533.988H640.422V305.029Z" fill="#CFCFCF" stroke="#263238" strokeLinecap="round" strokeLinejoin="round"/>
<path d="M640.422 305.029H64.7666V314.283H640.422V305.029Z" fill="#263238" stroke="#263238" strokeLinecap="round" strokeLinejoin="round"/>
<path d="M440.572 323.844H264.602V520.635H440.572V323.844Z" fill="#CFCFCF" stroke="#263238" strokeLinecap="round" strokeLinejoin="round"/>
<path d="M433.265 332.014H271.909V512.449H433.265V332.014Z" fill="#CFCFCF" stroke="#263238" strokeLinecap="round" strokeLinejoin="round"/>
<path d="M352.587 332.219V513.006" stroke="#263238" strokeLinecap="round" strokeLinejoin="round"/>
<path d="M253.606 445.081H73.8884V520.312H253.606V445.081Z" fill="#A1A1A1" stroke="#263238" strokeLinecap="round" strokeLinejoin="round"/>
<path d="M253.606 319.598H73.8884V394.829H253.606V319.598Z" fill="#A1A1A1" stroke="#263238" strokeLinecap="round" strokeLinejoin="round"/>
<path d="M633.116 319.598H453.398V415.387H633.116V319.598Z" fill="#A1A1A1" stroke="#263238" strokeLinecap="round" strokeLinejoin="round"/>
<path d="M633.116 424.508H453.398V520.297H633.116V424.508Z" fill="#CFCFCF" stroke="#263238" strokeLinecap="round" strokeLinejoin="round"/>
<path d="M569.291 466.942H517.223V477.879H569.291V466.942Z" fill="#263238" stroke="#263238" strokeLinecap="round" strokeLinejoin="round"/>
<path d="M188.419 414.479H136.352V425.416H188.419V414.479Z" fill="#263238" stroke="#263238" strokeLinecap="round" strokeLinejoin="round"/>
<path d="M651.199 292.232H53.99V307.342H651.199V292.232Z" fill="#CFCFCF" stroke="#263238" strokeLinecap="round" strokeLinejoin="round"/>
<path d="M613.657 386.102H468.099V415.401H613.657V386.102Z" fill="#263238" stroke="#263238" strokeLinecap="round" strokeLinejoin="round"/>
<path d="M606.804 405.562C606.804 404.507 576.773 403.658 539.743 403.658C502.713 403.658 472.682 404.507 472.682 405.562C472.682 406.616 502.713 407.48 539.743 407.48C576.773 407.48 606.804 406.616 606.804 405.562Z" fill="#CFCFCF" stroke="#263238" strokeLinecap="round" strokeLinejoin="round"/>
<path d="M90.6101 324.591H75.8508V394.346H90.6101V324.591Z" fill="#CFCFCF" stroke="#263238" strokeLinecap="round" strokeLinejoin="round"/>
<path d="M107.668 324.591H92.9087V394.346H107.668V324.591Z" fill="#CFCFCF" stroke="#263238" strokeLinecap="round" strokeLinejoin="round"/>
<path d="M252.332 324.591H237.573V394.346H252.332V324.591Z" fill="#CFCFCF" stroke="#263238" strokeLinecap="round" strokeLinejoin="round"/>
<path d="M236.753 324.591H221.994V394.346H236.753V324.591Z" fill="#CFCFCF" stroke="#263238" strokeLinecap="round" strokeLinejoin="round"/>
<path d="M221.174 324.591H206.415V394.346H221.174V324.591Z" fill="#CFCFCF" stroke="#263238" strokeLinecap="round" strokeLinejoin="round"/>
<path d="M205.595 324.591H190.835V394.346H205.595V324.591Z" fill="#CFCFCF" stroke="#263238" strokeLinecap="round" strokeLinejoin="round"/>
<path d="M190.016 324.591H175.256V394.346H190.016V324.591Z" fill="#CFCFCF" stroke="#263238" strokeLinecap="round" strokeLinejoin="round"/>
<path d="M123.169 323.915L108.972 327.951L128.047 395.048L142.244 391.012L123.169 323.915Z" fill="#CFCFCF" stroke="#263238" strokeLinecap="round" strokeLinejoin="round"/>
<path d="M190.191 591.049C190.191 591.049 222.828 541.017 228.802 520.913C234.776 500.809 230.076 472.213 228.261 454.101C226.445 435.989 235.377 390.188 235.377 390.188C235.377 390.188 227.236 358.502 231.76 355.779C236.284 353.056 252.259 351.987 258.731 349.805C265.203 347.623 269.054 348.18 274.837 351.079C277.791 352.459 280.584 354.158 283.169 356.145L279.186 362.295L263.973 365.56L273.754 416.617C273.754 416.617 303.448 424.231 304.898 426.764C306.347 429.297 305.073 439.942 301.969 448.845C298.865 457.747 300.344 463.882 294.912 465.683C289.479 467.484 286.214 468.611 285.672 466.957C285.131 465.302 278.249 493.576 273.358 502.449C269.991 508.95 267.208 515.736 265.042 522.729C265.042 522.729 256.652 605.706 257.911 607.653" fill="white"/>
<path d="M190.191 591.049C190.191 591.049 222.828 541.017 228.802 520.913C234.776 500.809 230.076 472.213 228.261 454.101C226.445 435.989 235.377 390.188 235.377 390.188C235.377 390.188 227.236 358.502 231.76 355.779C236.284 353.056 252.259 351.987 258.731 349.805C265.203 347.623 269.054 348.18 274.837 351.079C277.791 352.459 280.584 354.158 283.169 356.145L279.186 362.295L263.973 365.56L273.754 416.617C273.754 416.617 303.448 424.231 304.898 426.764C306.347 429.297 305.073 439.942 301.969 448.845C298.865 457.747 300.344 463.882 294.912 465.683C289.479 467.484 286.214 468.611 285.672 466.957C285.131 465.302 278.249 493.576 273.358 502.449C269.991 508.95 267.208 515.736 265.042 522.729C265.042 522.729 256.652 605.706 257.911 607.653" stroke="#263238" strokeLinecap="round" strokeLinejoin="round"/>
<path d="M263.431 373.598C263.431 373.598 250.253 369.425 248.35 367.595C248.518 371.014 249.622 374.322 251.542 377.156C254.734 381.812 254.236 391.374 254.236 391.374L273.124 427.174L284.604 469.27C285.175 467.542 285.555 466.62 285.658 466.956C286.2 468.582 289.465 467.498 294.897 465.683C300.329 463.867 298.88 457.717 301.955 448.844C303.47 444.409 304.534 439.832 305.132 435.183V427.481C305.06 427.234 304.967 426.994 304.854 426.764C303.39 424.231 273.71 416.617 273.71 416.617L266.125 376.775L263.431 373.598Z" fill="#263238" stroke="#263238" strokeLinecap="round" strokeLinejoin="round"/>
<path d="M283.93 446.033L289.494 434.48" stroke="#263238" strokeLinecap="round" strokeLinejoin="round"/>
<path d="M243.444 364.505C247.426 367.835 251.954 370.451 256.827 372.236" stroke="#263238" strokeLinecap="round" strokeLinejoin="round"/>
<path d="M552.365 547.225C552.365 547.225 493.196 494.513 492.083 492.39C490.97 490.267 464.526 423.411 459.943 412.122C455.36 400.833 447.527 398.461 443.837 393.512C440.147 388.563 432.123 367.156 430.059 357.155C427.994 347.155 430.191 338.911 411.024 338.662C391.857 338.413 401.097 336.188 394.391 337.198C387.684 338.208 384.961 344.9 384.961 344.9L403.805 342.557L407.422 344.021C411.039 345.485 411.273 350.61 411.273 350.61C411.273 350.61 414.626 385.473 415.241 392.296C415.856 399.12 419.868 428.521 419.868 428.521C419.868 428.521 396.016 420.19 394.025 419.194C392.033 418.198 385.342 426.632 383.233 433.953C381.125 441.274 386.703 445.667 391.916 452.563C397.129 459.46 406.309 459.767 406.309 459.767L446.224 502.317L493.869 592.82" fill="white"/>
<path d="M552.365 547.225C552.365 547.225 493.196 494.513 492.083 492.39C490.97 490.267 464.526 423.411 459.943 412.122C455.36 400.833 447.527 398.461 443.837 393.512C440.147 388.563 432.123 367.156 430.059 357.155C427.994 347.155 430.191 338.911 411.024 338.662C391.857 338.413 401.097 336.188 394.391 337.198C387.684 338.208 384.961 344.9 384.961 344.9L403.805 342.557L407.422 344.021C411.039 345.485 411.273 350.61 411.273 350.61C411.273 350.61 414.626 385.473 415.241 392.296C415.856 399.12 419.868 428.521 419.868 428.521C419.868 428.521 396.016 420.19 394.025 419.194C392.033 418.198 385.342 426.632 383.233 433.953C381.125 441.274 386.703 445.667 391.916 452.563C397.129 459.46 406.309 459.767 406.309 459.767L446.224 502.317L493.869 592.82" stroke="#263238" strokeLinecap="round" strokeLinejoin="round"/>
<path d="M419.282 398.475C417.112 393.348 415.463 388.016 414.362 382.559C414.772 386.952 415.109 390.524 415.27 392.267C415.841 398.475 419.209 423.425 419.809 427.847C421.068 427.071 422.108 426.559 422.108 426.559C423.447 423.506 424.155 420.214 424.187 416.88C424.26 411.111 423.089 406.206 419.282 398.475Z" fill="#263238" stroke="#263238" strokeLinecap="round" strokeLinejoin="round"/>
<path d="M418.301 454.393C418.799 452.182 415.475 434.905 415.109 432.562C414.904 431.259 417.144 429.531 419.136 428.257C415.08 426.793 395.825 420.072 394.054 419.194C392.282 418.315 385.371 426.632 383.262 433.953C381.154 441.274 386.732 445.667 391.945 452.563C397.158 459.459 406.338 459.767 406.338 459.767L408.125 461.67C413.425 458.42 418.096 455.33 418.301 454.393Z" fill="#263238" stroke="#263238" strokeLinecap="round" strokeLinejoin="round"/>
<path d="M410.672 347.974L418.403 416.485C418.584 418.112 418.113 419.744 417.091 421.023C416.07 422.302 414.583 423.124 412.957 423.308L271.221 439.253C269.592 439.434 267.958 438.963 266.677 437.942C265.395 436.921 264.57 435.434 264.383 433.806L256.681 365.296C256.589 364.488 256.658 363.67 256.883 362.889C257.108 362.108 257.485 361.379 257.993 360.743C258.5 360.108 259.128 359.579 259.84 359.187C260.552 358.795 261.334 358.547 262.142 358.458L403.864 342.527C405.488 342.35 407.117 342.824 408.393 343.845C409.669 344.866 410.488 346.35 410.672 347.974Z" fill="#C53F3F" stroke="#263238" strokeLinecap="round" strokeLinejoin="round"/>
<path d="M295.706 371.685L279.715 373.485L281.59 390.145L297.581 388.345L295.706 371.685Z" fill="#263238" stroke="#263238" strokeLinecap="round" strokeLinejoin="round"/>
<path d="M299.377 404.322L283.386 406.121L285.26 422.781L301.251 420.982L299.377 404.322Z" fill="#263238" stroke="#263238" strokeLinecap="round" strokeLinejoin="round"/>
<path d="M281.595 390.151L264.935 392.025L266.734 408.016L283.395 406.142L281.595 390.151Z" fill="#263238" stroke="#263238" strokeLinecap="round" strokeLinejoin="round"/>
<path d="M314.232 386.466L297.572 388.34L299.371 404.331L316.031 402.456L314.232 386.466Z" fill="#263238" stroke="#263238" strokeLinecap="round" strokeLinejoin="round"/>
<path d="M378.167 403.102C377.924 400.944 377.047 398.905 375.646 397.245C374.245 395.585 372.383 394.378 370.295 393.777C368.208 393.175 365.989 393.206 363.919 393.866C361.85 394.525 360.022 395.784 358.668 397.482C357.313 399.181 356.493 401.243 356.311 403.408C356.129 405.572 356.593 407.742 357.644 409.643C358.695 411.544 360.287 413.091 362.217 414.087C364.147 415.083 366.33 415.485 368.488 415.241C371.381 414.913 374.025 413.451 375.84 411.175C377.655 408.899 378.492 405.995 378.167 403.102Z" fill="#263238" stroke="#263238" strokeLinecap="round" strokeLinejoin="round"/>
<path d="M406.411 359.249C406.167 357.092 405.288 355.056 403.886 353.398C402.484 351.74 400.622 350.535 398.536 349.935C396.449 349.334 394.232 349.366 392.163 350.026C390.095 350.685 388.269 351.943 386.915 353.641C385.561 355.338 384.741 357.398 384.558 359.562C384.374 361.725 384.837 363.894 385.886 365.795C386.935 367.696 388.524 369.243 390.452 370.241C392.38 371.239 394.561 371.643 396.718 371.402C399.615 371.075 402.263 369.611 404.081 367.332C405.898 365.053 406.737 362.146 406.411 359.249Z" fill="#263238" stroke="#263238" strokeLinecap="round" strokeLinejoin="round"/>
<path d="M392.267 380.978C392.022 378.821 391.143 376.784 389.742 375.126C388.34 373.469 386.478 372.263 384.392 371.663C382.305 371.063 380.088 371.095 378.019 371.754C375.951 372.414 374.124 373.672 372.77 375.369C371.417 377.067 370.596 379.127 370.413 381.29C370.23 383.454 370.692 385.623 371.741 387.524C372.791 389.424 374.38 390.971 376.308 391.969C378.236 392.967 380.416 393.372 382.574 393.131C384.009 392.97 385.398 392.529 386.663 391.831C387.927 391.133 389.041 390.193 389.941 389.064C390.841 387.936 391.51 386.64 391.909 385.253C392.309 383.865 392.43 382.412 392.267 380.978Z" fill="#263238" stroke="#263238" strokeLinecap="round" strokeLinejoin="round"/>
<path d="M345.522 389.768L329.531 391.568L330.32 398.581L346.311 396.782L345.522 389.768Z" fill="#263238" stroke="#263238" strokeLinecap="round" strokeLinejoin="round"/>
<path d="M298.016 354.417C304.283 362.734 318.661 367.595 334.621 365.736C350.581 363.876 363.598 356.057 367.874 346.569L298.016 354.417ZM340.595 418.374C325.953 420.014 314.005 426.676 308.749 435.022L375.385 427.54C368.386 420.556 355.179 416.734 340.595 418.374Z" fill="white" stroke="#263238" strokeLinecap="round" strokeLinejoin="round"/>
<path d="M258.994 440.22C258.994 440.22 255.012 415.782 252.845 409.296C250.678 402.809 247.53 397.494 248.686 394.331C249.843 391.169 268.468 385.546 268.468 385.546C268.468 385.546 284.838 372.368 287.005 374.652C289.172 376.936 290.739 384.214 290.665 387.288C290.592 390.363 287.093 394.844 283.344 396.923C279.173 399.634 275.151 402.567 271.294 405.708C271.294 405.708 275.686 427.232 281.265 440.615C286.844 453.998 288.996 479.592 287.342 488.744C285.687 497.895 258.994 523.402 258.994 523.402" fill="white"/>
<path d="M258.994 440.22C258.994 440.22 255.012 415.782 252.845 409.296C250.678 402.809 247.53 397.494 248.686 394.331C249.843 391.169 268.468 385.546 268.468 385.546C268.468 385.546 284.838 372.368 287.005 374.652C289.172 376.936 290.739 384.214 290.665 387.288C290.592 390.363 287.093 394.844 283.344 396.923C279.173 399.634 275.151 402.567 271.294 405.708C271.294 405.708 275.686 427.232 281.265 440.615C286.844 453.998 288.996 479.592 287.342 488.744C285.687 497.895 258.994 523.402 258.994 523.402" stroke="#263238" strokeLinecap="round" strokeLinejoin="round"/>
<path d="M431.406 433.221C431.406 433.221 405.972 408.754 401.624 401.931C397.275 395.108 394.801 398.519 390.964 396.909C387.128 395.298 371.783 393.146 365.326 389.91C358.869 386.674 353.041 396.133 357.858 401.814C362.503 407.097 368.231 411.317 374.653 414.186C380.77 417.004 386.676 420.258 392.326 423.923C392.326 423.923 399.881 445.389 406.339 459.782C412.796 474.175 424.949 495.758 434.627 498.73C440.319 500.501 446.161 501.746 452.081 502.449" fill="white"/>
<path d="M431.406 433.221C431.406 433.221 405.972 408.754 401.624 401.931C397.275 395.108 394.801 398.519 390.964 396.909C387.128 395.298 371.783 393.146 365.326 389.91C358.869 386.674 353.041 396.133 357.858 401.814C362.503 407.097 368.231 411.317 374.653 414.186C380.77 417.004 386.676 420.258 392.326 423.923C392.326 423.923 399.881 445.389 406.339 459.782C412.796 474.175 424.949 495.758 434.627 498.73C440.319 500.501 446.161 501.746 452.081 502.449" stroke="#263238" strokeLinecap="round" strokeLinejoin="round"/>
<path d="M394.873 398.856C394.873 398.856 389.983 402.531 388.255 407.187" stroke="#263238" strokeLinecap="round" strokeLinejoin="round"/>
<rect x="206.093" y="90.5948" width="14.6421" height="48.3191" rx="7.32107" fill="#D9D9D9"/>
<rect x="472.579" y="200.411" width="14.6421" height="48.3191" rx="7.32107" fill="#D9D9D9"/>
<line x1="351.55" y1="92.0593" x2="351.55" y2="248.73" stroke="white"/>
<circle cx="461.598" cy="221.642" r="9.51739" fill="#D9D9D9"/>
</svg>
