<svg width="333" height="313" viewBox="0 0 333 313" fill="none" xmlns="http://www.w3.org/2000/svg">
<path d="M289.277 78.4532C287.335 77.1631 285.411 75.8478 283.506 74.5073C262.95 60.0459 166.796 -5.63617 126.256 0.389393C80.7372 7.18623 -15.8371 156.62 8.76782 200.913C33.3728 245.206 156.391 322.113 188.991 309.787C221.591 297.46 308.937 162.164 314.474 128.951C319.198 100.586 296.122 82.9913 289.277 78.4532Z" fill="#C53F3F"/>
<path opacity="0.8" d="M289.277 78.4532C287.335 77.1631 285.411 75.8478 283.506 74.5073C262.95 60.0459 166.796 -5.63617 126.256 0.389393C80.7372 7.18623 -15.8371 156.62 8.76782 200.913C33.3728 245.206 156.391 322.113 188.991 309.787C221.591 297.46 308.937 162.164 314.474 128.951C319.198 100.586 296.122 82.9913 289.277 78.4532Z" fill="white"/>
<path d="M331.828 263.882H1" stroke="#263238" strokeLinecap="round" strokeLinejoin="round"/>
<g opacity="0.3">
<path d="M314.674 34.4425H259.748V107.273H314.674V34.4425Z" fill="white" stroke="black" strokeLinecap="round" strokeLinejoin="round"/>
<path d="M311.52 38.6294H262.909V103.093H311.52V38.6294Z" fill="white" stroke="black" strokeLinecap="round" strokeLinejoin="round"/>
<path d="M298.133 56.3687H276.282V85.3465H298.133V56.3687Z" fill="white" stroke="black" strokeLinecap="round" strokeLinejoin="round"/>
</g>
<g opacity="0.3">
<path d="M38.4549 39.0082H15.4682V69.4872H38.4549V39.0082Z" fill="white" stroke="black" strokeLinecap="round" strokeLinejoin="round"/>
<path d="M37.1327 40.7574H16.7904V67.7313H37.1327V40.7574Z" fill="white" stroke="black" strokeLinecap="round" strokeLinejoin="round"/>
<path d="M31.5341 48.1876H22.389V60.3145H31.5341V48.1876Z" fill="white" stroke="black" strokeLinecap="round" strokeLinejoin="round"/>
<path d="M72.9831 74.5763H49.9964V105.055H72.9831V74.5763Z" fill="white" stroke="black" strokeLinecap="round" strokeLinejoin="round"/>
<path d="M71.654 76.3323H51.3117V103.306H71.654V76.3323Z" fill="white" stroke="black" strokeLinecap="round" strokeLinejoin="round"/>
<path d="M66.0554 83.7557H56.9103V95.8826H66.0554V83.7557Z" fill="white" stroke="black" strokeLinecap="round" strokeLinejoin="round"/>
<path d="M14.876 78.3223L14.876 101.309H45.355V78.3223H14.876Z" fill="white" stroke="black" strokeLinecap="round" strokeLinejoin="round"/>
<path d="M16.632 79.6445V99.9868H43.6059V79.6445H16.632Z" fill="white" stroke="black" strokeLinecap="round" strokeLinejoin="round"/>
<path d="M24.0555 85.2432V94.3883H36.1824V85.2432H24.0555Z" fill="white" stroke="black" strokeLinecap="round" strokeLinejoin="round"/>
<path d="M74.5601 26.5232H41.0993V70.8989H74.5601V26.5232Z" fill="white" stroke="black" strokeLinecap="round" strokeLinejoin="round"/>
<path d="M72.6457 29.078H43.0274V68.3509H72.6457V29.078Z" fill="white" stroke="black" strokeLinecap="round" strokeLinejoin="round"/>
<path d="M64.4853 39.8828H51.174V57.5394H64.4853V39.8828Z" fill="white" stroke="black" strokeLinecap="round" strokeLinejoin="round"/>
</g>
<path d="M93.5251 155.057H90.4469V162.887H93.5251V155.057Z" fill="#6E6E6E" stroke="#263238" strokeLinecap="round" strokeLinejoin="round"/>
<path d="M240.632 155.057H237.553V162.887H240.632V155.057Z" fill="#6E6E6E" stroke="#263238" strokeLinecap="round" strokeLinejoin="round"/>
<path d="M244.86 41.2394H86.7834V155.883H244.86V41.2394Z" fill="#6E6E6E" stroke="#263238" strokeLinecap="round" strokeLinejoin="round"/>
<path d="M240.632 44.3107H91.0116V152.819H240.632V44.3107Z" fill="#263238" stroke="#263238" strokeLinecap="round" strokeLinejoin="round"/>
<path d="M131.269 129.764C131.269 129.764 133.9 131.774 135.608 127.904C137.315 124.034 139.636 121.548 143.045 120.467C145.709 119.513 148.299 118.362 150.792 117.024C149.925 118.62 148.83 120.081 147.542 121.362C145.682 123.063 143.355 124.771 143.203 125.701C143.052 126.63 143.203 126.162 146.922 125.701L150.641 125.232C150.641 125.232 149.401 127.402 148.162 127.711C146.922 128.021 142.115 128.799 140.098 130.349C138.08 131.898 136.923 133.716 134.988 135.617C133.053 137.518 126.311 140.575 126.311 135.927C126.311 131.279 127.241 129.908 131.269 129.764Z" fill="#263238" stroke="#263238" strokeLinecap="round" strokeLinejoin="round"/>
<path d="M153.457 125.756C153.457 125.756 151.391 119.558 154.58 117.706" stroke="#263238" strokeLinecap="round" strokeLinejoin="round"/>
<path d="M161.879 128.187C161.879 128.187 160.385 128.187 160.571 129.309C160.757 130.431 161.693 133.241 161.693 133.241" stroke="#263238" strokeLinecap="round" strokeLinejoin="round"/>
<path d="M143.72 119.2L142.969 116.018" stroke="#263238" strokeLinecap="round" strokeLinejoin="round"/>
<path d="M129.493 124.069C129.493 124.069 127.991 122.195 128.37 121.073C128.749 119.95 131.173 118.449 132.109 119.2" stroke="#263238" strokeLinecap="round" strokeLinejoin="round"/>
<path d="M128.37 137.173C127.955 136.298 127.84 135.31 128.043 134.363C128.246 133.415 128.756 132.561 129.493 131.933" stroke="#263238" strokeLinecap="round" strokeLinejoin="round"/>
<path d="M133.046 137.552L130.429 137.738" stroke="#263238" strokeLinecap="round" strokeLinejoin="round"/>
<path d="M128.405 83.3149C128.405 83.3149 131.159 86.2072 131.882 87.6533C132.605 89.0995 131.738 84.038 128.405 83.3149Z" fill="#263238" stroke="#263238" strokeLinecap="round" strokeLinejoin="round"/>
<path d="M200.636 91.2C200.838 92.7606 200.711 94.3463 200.264 95.8551C199.513 98.4651 197.654 99.5806 197.654 102.741C197.654 105.902 195.588 110.378 195.588 110.378" stroke="#263238" strokeLinecap="round" strokeLinejoin="round"/>
<path d="M185.727 94.5329L197.096 94.161C197.334 95.2479 197.267 96.3792 196.902 97.4303C196.537 98.4815 195.89 99.4114 195.03 100.118C192.062 102.542 185.355 99.7458 185.727 94.5329Z" fill="#263238" stroke="#263238" strokeLinecap="round" strokeLinejoin="round"/>
<path d="M181.368 94.0234L168.387 89.499C168.387 89.499 167.175 95.5108 170.935 97.7627C176.451 101.116 180.996 94.953 181.368 94.0234Z" fill="#263238" stroke="#263238" strokeLinecap="round" strokeLinejoin="round"/>
<path d="M180.782 101.261C180.782 101.261 176.878 105.021 178.468 105.599C178.985 105.746 179.528 105.771 180.055 105.67C180.583 105.57 181.079 105.347 181.505 105.021C181.505 105.021 183.096 107.913 184.398 107.045C185.699 106.178 184.983 102.273 184.108 101.116C183.911 100.854 183.654 100.644 183.357 100.504C183.061 100.364 182.735 100.298 182.407 100.312C182.08 100.326 181.76 100.42 181.477 100.585C181.194 100.751 180.956 100.983 180.782 101.261Z" fill="#263238" stroke="#263238" strokeLinecap="round" strokeLinejoin="round"/>
<path d="M185.857 119.2C185.046 120.531 183.956 121.67 182.662 122.54C181.848 123.132 180.99 123.659 180.094 124.117C178.358 124.991 173.434 122.822 172.422 121.803C171.742 120.857 171.251 119.788 170.976 118.656C170.425 116.838 170.081 114.696 170.398 113.408C170.628 112.699 170.996 112.042 171.482 111.476C171.968 110.909 172.561 110.445 173.228 110.11C174.382 109.433 175.75 109.217 177.057 109.504L184.129 111.274C184.626 111.4 185.075 111.669 185.421 112.047C185.767 112.425 185.996 112.896 186.078 113.402C186.078 113.526 186.119 113.663 186.14 113.808C186.367 115.543 186.539 117.926 185.857 119.2Z" fill="#263238" stroke="#263238" strokeLinecap="round" strokeLinejoin="round"/>
<path d="M179.054 98.0863C179.054 98.0863 177.608 99.8217 173.848 100.985C170.088 102.149 167.478 100.696 167.044 98.954" stroke="#263238" strokeLinecap="round" strokeLinejoin="round"/>
<path d="M186.291 99.5186C186.291 99.5186 187.669 103.258 192.654 102.962" stroke="#263238" strokeLinecap="round" strokeLinejoin="round"/>
<path d="M182.848 93.3002C183.282 93.1556 183.282 93.011 183.282 91.4202C183.282 89.8295 180.679 88.3765 179.522 87.5088" stroke="#263238" strokeLinecap="round" strokeLinejoin="round"/>
<path d="M184.404 93.011C184.477 92.3041 184.785 91.6421 185.279 91.131C186.147 90.1187 191.642 89.0651 192.076 89.0651" stroke="#263238" strokeLinecap="round" strokeLinejoin="round"/>
<path d="M176.595 102.562C175.248 103.427 173.845 104.2 172.395 104.876C169.936 106.033 167.189 105.565 167.189 110.95" stroke="#263238" strokeLinecap="round" strokeLinejoin="round"/>
<path d="M186.291 105.021C186.879 106.513 187.656 107.922 188.605 109.215C189.907 110.805 189.473 113.415 188.605 116.307" stroke="#263238" strokeLinecap="round" strokeLinejoin="round"/>
<path d="M196.71 104.284C196.71 104.284 196.276 105.441 193.956 105.875C191.635 106.309 189.473 106.164 189.617 108.333" stroke="#263238" strokeLinecap="round" strokeLinejoin="round"/>
<path d="M163.718 97.494C163.718 97.494 164.007 100.249 165.887 101.405C167.767 102.562 169.213 102.996 168.345 104.442" stroke="#263238" strokeLinecap="round" strokeLinejoin="round"/>
<path d="M165.164 87.798C164.911 87.4112 164.776 86.9589 164.776 86.4965C164.776 86.0342 164.911 85.5818 165.164 85.195C166.032 83.7489 166.755 81.1458 166.465 77.2344" stroke="#263238" strokeLinecap="round" strokeLinejoin="round"/>
<path d="M158.897 96.22C158.897 96.22 160.64 92.164 159.765 89.7055C158.89 87.2471 157.1 83.3563 157.1 83.3563C157.1 83.3563 156.157 86.2004 156.776 87.5708C157.396 88.9412 158.057 90.4424 158.057 90.4424C158.057 90.4424 155.681 90.8142 156.308 92.5634C156.935 94.3125 157.059 92.4394 157.685 92.3155C158.312 92.1915 158.897 96.22 158.897 96.22Z" fill="#263238" stroke="#263238" strokeLinecap="round" strokeLinejoin="round"/>
<path d="M167.189 65.8031C167.189 65.8031 170.37 69.1361 177.463 70.5822" stroke="#263238" strokeLinecap="round" strokeLinejoin="round"/>
<path d="M187.014 71.3053C191.531 72.3945 196.229 72.4932 200.787 71.5945" stroke="#263238" strokeLinecap="round" strokeLinejoin="round"/>
<path d="M170.225 65.5138L167.912 68.9914" stroke="#263238" strokeLinecap="round" strokeLinejoin="round"/>
<path d="M175.149 67.4006L173.703 71.016" stroke="#263238" strokeLinecap="round" strokeLinejoin="round"/>
<path d="M188.605 69.4252L188.171 73.4743" stroke="#263238" strokeLinecap="round" strokeLinejoin="round"/>
<path d="M195.257 69.7145L195.113 75.499" stroke="#263238" strokeLinecap="round" strokeLinejoin="round"/>
<path d="M174.715 80.8705C174.715 80.8705 178.475 82.6058 181.223 83.7628C183.971 84.9197 189.184 84.6304 192.365 84.3412" stroke="#263238" strokeLinecap="round" strokeLinejoin="round"/>
<path d="M194.39 81.2904C194.39 81.2904 187.159 81.435 185.437 81.2904" stroke="#263238" strokeLinecap="round" strokeLinejoin="round"/>
<path d="M170.652 123.228C170.652 123.228 172.243 125.432 176.044 125.921C178.26 126.229 180.516 126.063 182.662 125.432C182.662 125.432 179.474 128.235 176.044 127.691C172.615 127.147 170.652 123.228 170.652 123.228Z" fill="#263238" stroke="#263238" strokeLinecap="round" strokeLinejoin="round"/>
<path d="M180.431 110.179L180.541 108.492" stroke="#263238" strokeLinecap="round" strokeLinejoin="round"/>
<path d="M185.823 111.976C186.257 111.664 186.636 111.282 186.945 110.847" stroke="#263238" strokeLinecap="round" strokeLinejoin="round"/>
<path d="M170.948 118.656C170.948 118.656 169.647 119.613 169.647 120.288" stroke="#263238" strokeLinecap="round" strokeLinejoin="round"/>
<path d="M174.254 123.091L173.916 124.213" stroke="#263238" strokeLinecap="round" strokeLinejoin="round"/>
<path d="M182.662 122.54L182.566 124.551" stroke="#263238" strokeLinecap="round" strokeLinejoin="round"/>
<path d="M140.614 51.8306H98.2905C97.9252 51.8306 97.5749 51.6855 97.3166 51.4272C97.0583 51.1689 96.9132 50.8186 96.9132 50.4533C96.9132 50.088 97.0583 49.7377 97.3166 49.4794C97.5749 49.2212 97.9252 49.076 98.2905 49.076H140.614C140.979 49.076 141.33 49.2212 141.588 49.4794C141.846 49.7377 141.991 50.088 141.991 50.4533C141.991 50.6342 141.956 50.8133 141.886 50.9804C141.817 51.1475 141.716 51.2993 141.588 51.4272C141.46 51.5551 141.308 51.6565 141.141 51.7258C140.974 51.795 140.795 51.8306 140.614 51.8306Z" fill="#6E6E6E" stroke="#263238" strokeLinecap="round" strokeLinejoin="round"/>
<path d="M111.829 49.028H98.2905C97.9188 49.028 97.5624 49.1756 97.2996 49.4384C97.0368 49.7012 96.8891 50.0577 96.8891 50.4293C96.8891 50.801 97.0368 51.1574 97.2996 51.4202C97.5624 51.6831 97.9188 51.8307 98.2905 51.8307H111.829V49.028Z" fill="#C53F3F" stroke="#263238" strokeLinecap="round" strokeLinejoin="round"/>
<path d="M301.727 169.326H30.9901V277.008H301.727V169.326Z" fill="#CFCFCF" stroke="#263238" strokeLinecap="round" strokeLinejoin="round"/>
<path d="M301.727 169.326H30.9901V173.678H301.727V169.326Z" fill="#263238" stroke="#263238" strokeLinecap="round" strokeLinejoin="round"/>
<path d="M207.735 178.174H124.975V270.727H207.735V178.174Z" fill="#CFCFCF" stroke="#263238" strokeLinecap="round" strokeLinejoin="round"/>
<path d="M204.299 182.017H128.411V266.878H204.299V182.017Z" fill="#CFCFCF" stroke="#263238" strokeLinecap="round" strokeLinejoin="round"/>
<path d="M166.355 182.114V267.139" stroke="#263238" strokeLinecap="round" strokeLinejoin="round"/>
<path d="M119.803 235.194H35.2803V270.576H119.803V235.194Z" fill="#A1A1A1" stroke="#263238" strokeLinecap="round" strokeLinejoin="round"/>
<path d="M119.803 176.177H35.2803V211.559H119.803V176.177Z" fill="#A1A1A1" stroke="#263238" strokeLinecap="round" strokeLinejoin="round"/>
<path d="M298.291 176.177H213.768V221.228H298.291V176.177Z" fill="#A1A1A1" stroke="#263238" strokeLinecap="round" strokeLinejoin="round"/>
<path d="M298.291 225.518H213.768V270.569H298.291V225.518Z" fill="#CFCFCF" stroke="#263238" strokeLinecap="round" strokeLinejoin="round"/>
<path d="M268.273 245.475H243.785V250.619H268.273V245.475Z" fill="#263238" stroke="#263238" strokeLinecap="round" strokeLinejoin="round"/>
<path d="M89.1454 220.801H64.6575V225.945H89.1454V220.801Z" fill="#263238" stroke="#263238" strokeLinecap="round" strokeLinejoin="round"/>
<path d="M306.796 163.307H25.9217V170.414H306.796V163.307Z" fill="#CFCFCF" stroke="#263238" strokeLinecap="round" strokeLinejoin="round"/>
<path d="M289.139 207.455H220.682V221.235H289.139V207.455Z" fill="#263238" stroke="#263238" strokeLinecap="round" strokeLinejoin="round"/>
<path d="M285.916 216.607C285.916 216.111 271.792 215.712 254.377 215.712C236.961 215.712 222.837 216.111 222.837 216.607C222.837 217.103 236.961 217.509 254.377 217.509C271.792 217.509 285.916 217.103 285.916 216.607Z" fill="#CFCFCF" stroke="#263238" strokeLinecap="round" strokeLinejoin="round"/>
<path d="M43.1445 178.526H36.2031V211.332H43.1445V178.526Z" fill="#CFCFCF" stroke="#263238" strokeLinecap="round" strokeLinejoin="round"/>
<path d="M51.1671 178.526H44.2257V211.332H51.1671V178.526Z" fill="#CFCFCF" stroke="#263238" strokeLinecap="round" strokeLinejoin="round"/>
<path d="M119.204 178.526H112.263V211.332H119.204V178.526Z" fill="#CFCFCF" stroke="#263238" strokeLinecap="round" strokeLinejoin="round"/>
<path d="M111.877 178.526H104.936V211.332H111.877V178.526Z" fill="#CFCFCF" stroke="#263238" strokeLinecap="round" strokeLinejoin="round"/>
<path d="M104.55 178.526H97.6087V211.332H104.55V178.526Z" fill="#CFCFCF" stroke="#263238" strokeLinecap="round" strokeLinejoin="round"/>
<path d="M97.2231 178.526H90.2816V211.332H97.2231V178.526Z" fill="#CFCFCF" stroke="#263238" strokeLinecap="round" strokeLinejoin="round"/>
<path d="M89.896 178.526H82.9546V211.332H89.896V178.526Z" fill="#CFCFCF" stroke="#263238" strokeLinecap="round" strokeLinejoin="round"/>
<path d="M58.4573 178.208L51.7804 180.106L60.7515 211.663L67.4284 209.764L58.4573 178.208Z" fill="#CFCFCF" stroke="#263238" strokeLinecap="round" strokeLinejoin="round"/>
<path d="M89.9787 303.844C89.9787 303.844 105.328 280.313 108.138 270.858C110.948 261.403 108.737 247.954 107.883 239.436C107.029 230.917 111.23 209.377 111.23 209.377C111.23 209.377 107.401 194.475 109.529 193.194C111.657 191.913 119.17 191.41 122.214 190.384C125.257 189.358 127.069 189.62 129.789 190.983C131.178 191.632 132.492 192.431 133.707 193.366L131.834 196.258L124.679 197.794L129.279 221.807C129.279 221.807 143.245 225.388 143.926 226.579C144.608 227.77 144.009 232.777 142.549 236.963C141.089 241.15 141.785 244.036 139.23 244.883C136.675 245.73 135.139 246.26 134.885 245.482C134.63 244.704 131.393 258.001 129.093 262.174C127.51 265.232 126.201 268.423 125.182 271.712C125.182 271.712 121.236 310.737 121.828 311.653" fill="white"/>
<path d="M89.9787 303.844C89.9787 303.844 105.328 280.313 108.138 270.858C110.948 261.403 108.737 247.954 107.883 239.436C107.029 230.917 111.23 209.377 111.23 209.377C111.23 209.377 107.401 194.475 109.529 193.194C111.657 191.913 119.17 191.41 122.214 190.384C125.257 189.358 127.069 189.62 129.789 190.983C131.178 191.632 132.492 192.431 133.707 193.366L131.834 196.258L124.679 197.794L129.279 221.807C129.279 221.807 143.245 225.387 143.926 226.579C144.608 227.77 144.009 232.777 142.549 236.963C141.089 241.15 141.785 244.036 139.23 244.883C136.675 245.73 135.139 246.26 134.885 245.482C134.63 244.704 131.393 258.001 129.093 262.174C127.51 265.232 126.201 268.423 125.182 271.712C125.182 271.712 121.236 310.737 121.828 311.653" stroke="#263238" strokeLinecap="round" strokeLinejoin="round"/>
<path d="M124.424 201.574C124.424 201.574 118.227 199.612 117.331 198.751C117.41 200.359 117.93 201.915 118.832 203.248C120.334 205.438 120.1 209.934 120.1 209.934L128.983 226.772L134.382 246.57C134.65 245.757 134.83 245.323 134.878 245.482C135.133 246.246 136.668 245.737 139.223 244.883C141.778 244.029 141.096 241.137 142.542 236.963C143.255 234.877 143.755 232.725 144.037 230.538V226.916C144.003 226.8 143.959 226.687 143.906 226.579C143.217 225.387 129.258 221.807 129.258 221.807L125.691 203.069L124.424 201.574Z" fill="#263238" stroke="#263238" strokeLinecap="round" strokeLinejoin="round"/>
<path d="M134.065 235.641L136.682 230.208" stroke="#263238" strokeLinecap="round" strokeLinejoin="round"/>
<path d="M115.024 197.298C116.897 198.864 119.026 200.094 121.318 200.934" stroke="#263238" strokeLinecap="round" strokeLinejoin="round"/>
<path d="M260.313 283.233C260.313 283.233 232.485 258.442 231.962 257.444C231.438 256.445 219.001 225.002 216.846 219.693C214.691 214.383 211.006 213.268 209.271 210.94C207.536 208.612 203.762 198.544 202.791 193.841C201.82 189.138 202.853 185.261 193.839 185.144C184.824 185.027 189.17 183.98 186.016 184.455C182.862 184.93 181.581 188.077 181.581 188.077L190.444 186.975L192.145 187.664C193.846 188.353 193.956 190.763 193.956 190.763C193.956 190.763 195.533 207.159 195.822 210.368C196.111 213.577 197.998 227.405 197.998 227.405C197.998 227.405 186.78 223.487 185.844 223.019C184.907 222.55 181.76 226.517 180.768 229.96C179.777 233.403 182.4 235.469 184.852 238.713C187.304 241.956 191.621 242.101 191.621 242.101L210.394 262.112L232.802 304.677" fill="white"/>
<path d="M260.313 283.233C260.313 283.233 232.485 258.442 231.962 257.444C231.438 256.445 219.001 225.002 216.846 219.693C214.691 214.383 211.006 213.268 209.271 210.94C207.536 208.612 203.762 198.544 202.791 193.841C201.82 189.138 202.853 185.261 193.839 185.144C184.824 185.027 189.17 183.98 186.016 184.455C182.862 184.93 181.581 188.077 181.581 188.077L190.444 186.975L192.145 187.664C193.846 188.353 193.956 190.763 193.956 190.763C193.956 190.763 195.533 207.159 195.822 210.368C196.111 213.577 197.998 227.405 197.998 227.405C197.998 227.405 186.78 223.487 185.844 223.019C184.907 222.55 181.76 226.517 180.768 229.96C179.777 233.403 182.4 235.469 184.852 238.713C187.304 241.956 191.621 242.101 191.621 242.101L210.394 262.112L232.802 304.677" stroke="#263238" strokeLinecap="round" strokeLinejoin="round"/>
<path d="M197.723 213.274C196.702 210.863 195.927 208.355 195.409 205.789C195.602 207.855 195.76 209.535 195.836 210.354C196.104 213.274 197.688 225.009 197.971 227.088C198.563 226.723 199.052 226.482 199.052 226.482C199.682 225.047 200.014 223.498 200.03 221.93C200.064 219.217 199.513 216.91 197.723 213.274Z" fill="#263238" stroke="#263238" strokeLinecap="round" strokeLinejoin="round"/>
<path d="M197.261 239.573C197.495 238.534 195.932 230.408 195.76 229.306C195.664 228.693 196.717 227.88 197.654 227.281C195.746 226.593 186.691 223.432 185.857 223.019C185.024 222.605 181.774 226.517 180.782 229.96C179.791 233.403 182.414 235.469 184.866 238.713C187.317 241.956 191.635 242.101 191.635 242.101L192.475 242.996C194.968 241.467 197.165 240.014 197.261 239.573Z" fill="#263238" stroke="#263238" strokeLinecap="round" strokeLinejoin="round"/>
<path d="M193.673 189.523L197.309 221.744C197.395 222.51 197.173 223.277 196.692 223.879C196.212 224.48 195.513 224.867 194.748 224.953L128.088 232.453C127.322 232.538 126.553 232.316 125.951 231.836C125.348 231.356 124.96 230.657 124.872 229.891L121.25 197.67C121.207 197.29 121.239 196.905 121.345 196.538C121.451 196.17 121.628 195.827 121.867 195.529C122.105 195.23 122.4 194.981 122.735 194.797C123.07 194.612 123.438 194.496 123.818 194.454L190.471 186.961C191.235 186.878 192.001 187.101 192.601 187.581C193.201 188.061 193.587 188.76 193.673 189.523Z" fill="#C53F3F" stroke="#263238" strokeLinecap="round" strokeLinejoin="round"/>
<path d="M139.604 200.675L132.083 201.521L132.965 209.357L140.485 208.51L139.604 200.675Z" fill="#263238" stroke="#263238" strokeLinecap="round" strokeLinejoin="round"/>
<path d="M141.33 216.024L133.809 216.87L134.691 224.706L142.211 223.86L141.33 216.024Z" fill="#263238" stroke="#263238" strokeLinecap="round" strokeLinejoin="round"/>
<path d="M132.967 209.359L125.132 210.241L125.978 217.761L133.813 216.88L132.967 209.359Z" fill="#263238" stroke="#263238" strokeLinecap="round" strokeLinejoin="round"/>
<path d="M148.316 207.626L140.481 208.508L141.327 216.028L149.163 215.147L148.316 207.626Z" fill="#263238" stroke="#263238" strokeLinecap="round" strokeLinejoin="round"/>
<path d="M178.386 215.45C178.272 214.435 177.859 213.477 177.2 212.696C176.541 211.915 175.665 211.347 174.684 211.064C173.702 210.782 172.658 210.796 171.685 211.106C170.712 211.417 169.852 212.009 169.215 212.807C168.578 213.606 168.192 214.576 168.107 215.594C168.021 216.612 168.239 217.633 168.734 218.527C169.228 219.421 169.977 220.148 170.884 220.617C171.792 221.085 172.819 221.274 173.834 221.159C175.194 221.005 176.438 220.318 177.291 219.247C178.145 218.177 178.539 216.811 178.386 215.45Z" fill="#263238" stroke="#263238" strokeLinecap="round" strokeLinejoin="round"/>
<path d="M191.67 194.826C191.554 193.811 191.141 192.854 190.482 192.074C189.822 191.294 188.947 190.727 187.966 190.445C186.984 190.163 185.941 190.178 184.969 190.488C183.996 190.798 183.137 191.39 182.5 192.188C181.863 192.986 181.478 193.956 181.391 194.973C181.305 195.99 181.523 197.011 182.016 197.904C182.509 198.798 183.257 199.526 184.164 199.995C185.07 200.465 186.096 200.655 187.111 200.542C188.473 200.388 189.718 199.699 190.573 198.627C191.428 197.556 191.822 196.188 191.67 194.826Z" fill="#263238" stroke="#263238" strokeLinecap="round" strokeLinejoin="round"/>
<path d="M185.017 205.045C184.902 204.031 184.489 203.073 183.829 202.293C183.17 201.513 182.295 200.947 181.313 200.664C180.332 200.382 179.289 200.397 178.316 200.707C177.343 201.018 176.484 201.609 175.848 202.407C175.211 203.206 174.825 204.175 174.739 205.192C174.653 206.21 174.87 207.23 175.364 208.124C175.857 209.018 176.605 209.745 177.511 210.215C178.418 210.684 179.444 210.874 180.459 210.761C181.133 210.685 181.787 210.478 182.381 210.15C182.976 209.821 183.5 209.379 183.923 208.848C184.347 208.317 184.661 207.708 184.849 207.056C185.037 206.403 185.094 205.72 185.017 205.045Z" fill="#263238" stroke="#263238" strokeLinecap="round" strokeLinejoin="round"/>
<path d="M163.032 209.179L155.512 210.026L155.883 213.324L163.404 212.478L163.032 209.179Z" fill="#263238" stroke="#263238" strokeLinecap="round" strokeLinejoin="round"/>
<path d="M140.69 192.553C143.637 196.465 150.4 198.751 157.906 197.877C165.412 197.002 171.534 193.325 173.545 188.862L140.69 192.553ZM160.715 222.633C153.829 223.404 148.21 226.538 145.738 230.463L177.077 226.944C173.786 223.659 167.574 221.862 160.715 222.633Z" fill="white" stroke="#263238" strokeLinecap="round" strokeLinejoin="round"/>
<path d="M122.338 232.907C122.338 232.907 120.465 221.414 119.445 218.363C118.426 215.313 116.946 212.813 117.49 211.325C118.034 209.838 126.793 207.194 126.793 207.194C126.793 207.194 134.492 200.996 135.511 202.07C136.53 203.144 137.267 206.567 137.233 208.013C137.198 209.459 135.553 211.566 133.79 212.544C131.828 213.819 129.936 215.199 128.122 216.676C128.122 216.676 130.188 226.799 132.812 233.093C135.436 239.387 136.448 251.425 135.67 255.729C134.892 260.033 122.338 272.029 122.338 272.029" fill="white"/>
<path d="M122.338 232.907C122.338 232.907 120.465 221.414 119.445 218.363C118.426 215.313 116.946 212.813 117.49 211.325C118.034 209.838 126.793 207.194 126.793 207.194C126.793 207.194 134.492 200.996 135.511 202.07C136.53 203.144 137.267 206.567 137.233 208.013C137.198 209.459 135.553 211.566 133.79 212.544C131.828 213.819 129.936 215.199 128.122 216.676C128.122 216.676 130.188 226.799 132.812 233.093C135.436 239.387 136.448 251.425 135.67 255.729C134.892 260.033 122.338 272.029 122.338 272.029" stroke="#263238" strokeLinecap="round" strokeLinejoin="round"/>
<path d="M203.425 229.616C203.425 229.616 191.463 218.109 189.418 214.899C187.372 211.69 186.209 213.295 184.404 212.537C182.6 211.78 175.383 210.768 172.346 209.246C169.31 207.724 166.569 212.172 168.834 214.844C171.019 217.329 173.713 219.314 176.733 220.663C179.61 221.989 182.388 223.519 185.045 225.243C185.045 225.243 188.598 235.338 191.635 242.107C194.672 248.877 200.388 259.027 204.94 260.425C207.616 261.258 210.364 261.844 213.148 262.174" fill="white"/>
<path d="M203.425 229.616C203.425 229.616 191.463 218.109 189.418 214.899C187.372 211.69 186.209 213.295 184.404 212.537C182.6 211.78 175.383 210.768 172.346 209.246C169.31 207.724 166.569 212.172 168.834 214.844C171.019 217.329 173.713 219.314 176.733 220.663C179.61 221.989 182.388 223.519 185.045 225.243C185.045 225.243 188.598 235.338 191.635 242.107C194.672 248.877 200.388 259.027 204.94 260.425C207.616 261.258 210.364 261.844 213.148 262.174" stroke="#263238" strokeLinecap="round" strokeLinejoin="round"/>
<path d="M186.243 213.453C186.243 213.453 183.943 215.182 183.13 217.372" stroke="#263238" strokeLinecap="round" strokeLinejoin="round"/>
<rect x="97.4572" y="68.4749" width="6.88636" height="22.725" rx="3.44318" fill="#D9D9D9"/>
<rect x="222.789" y="120.123" width="6.88636" height="22.725" rx="3.44318" fill="#D9D9D9"/>
<line x1="166.132" y1="69.1636" x2="166.132" y2="142.848" stroke="white"/>
<circle cx="217.624" cy="130.108" r="4.47613" fill="#D9D9D9"/>
</svg>
