<svg width="189" height="138" viewBox="0 0 189 138" fill="none" xmlns="http://www.w3.org/2000/svg">
<path d="M36.7425 29.395C37.4211 28.1347 38.3905 27.1492 39.6507 26.4383C40.9433 25.6951 42.4782 25.3235 44.2554 25.3235C46.3881 25.3235 48.3108 25.8889 50.0234 27.0199C51.736 28.1186 53.077 29.7343 54.0464 31.8669C55.0481 33.9673 55.549 36.4555 55.549 39.3314C55.549 42.2073 55.0481 44.7116 54.0464 46.8443C53.077 48.9447 51.736 50.5603 50.0234 51.6913C48.3108 52.79 46.3881 53.3393 44.2554 53.3393C42.4782 53.3393 40.9433 52.9838 39.6507 52.2729C38.3905 51.5297 37.4211 50.528 36.7425 49.2678V66.087H25.9821V25.6628H36.7425V29.395ZM44.6432 39.3314C44.6432 37.8773 44.2716 36.7463 43.5284 35.9385C42.7851 35.1306 41.8319 34.7267 40.6686 34.7267C39.5053 34.7267 38.5521 35.1306 37.8089 35.9385C37.0657 36.7463 36.694 37.8773 36.694 39.3314C36.694 40.7855 37.0657 41.9165 37.8089 42.7243C38.5521 43.5321 39.5053 43.9361 40.6686 43.9361C41.8319 43.9361 42.7851 43.5321 43.5284 42.7243C44.2716 41.9165 44.6432 40.7855 44.6432 39.3314Z" fill="#2E2D2C"/>
<path d="M18.0597 78.6268C18.9892 76.9005 20.3171 75.5505 22.0434 74.5767C23.814 73.5586 25.9165 73.0495 28.351 73.0495C31.2725 73.0495 33.9062 73.8242 36.2522 75.3734C38.5981 76.8784 40.4351 79.0916 41.763 82.013C43.1352 84.8902 43.8213 88.2985 43.8213 92.238C43.8213 96.1775 43.1352 99.6079 41.763 102.529C40.4351 105.406 38.5981 107.62 36.2522 109.169C33.9062 110.674 31.2725 111.426 28.351 111.426C25.9165 111.426 23.814 110.939 22.0434 109.966C20.3171 108.948 18.9892 107.575 18.0597 105.849V128.889H3.31979V73.5143H18.0597V78.6268ZM28.8822 92.238C28.8822 90.2461 28.3732 88.6968 27.3551 87.5903C26.337 86.4837 25.0313 85.9304 23.4378 85.9304C21.8443 85.9304 20.5385 86.4837 19.5204 87.5903C18.5023 88.6968 17.9933 90.2461 17.9933 92.238C17.9933 94.2298 18.5023 95.7791 19.5204 96.8857C20.5385 97.9923 21.8443 98.5456 23.4378 98.5456C25.0313 98.5456 26.337 97.9923 27.3551 96.8857C28.3732 95.7791 28.8822 94.2298 28.8822 92.238Z" fill="#2E2D2C"/>
<path d="M125.796 73.2487C130.09 73.2487 133.432 74.6873 135.822 77.5645C138.256 80.4416 139.474 84.3369 139.474 89.2501V110.962H124.8V91.1092C124.8 89.3387 124.313 87.9444 123.34 86.9263C122.41 85.864 121.148 85.3328 119.555 85.3328C117.917 85.3328 116.634 85.864 115.704 86.9263C114.774 87.9444 114.31 89.3387 114.31 91.1092V110.962H99.5698V73.5143H114.31V79.2244C115.461 77.4538 116.988 76.0152 118.891 74.9086C120.839 73.802 123.14 73.2487 125.796 73.2487ZM159.344 73.0495C161.778 73.0495 163.881 73.5586 165.651 74.5767C167.422 75.5505 168.772 76.9005 169.702 78.6268V73.5143H184.375V110.298C184.375 113.795 183.733 116.982 182.45 119.859C181.166 122.736 179.085 125.038 176.208 126.764C173.375 128.49 169.724 129.353 165.253 129.353C159.233 129.353 154.453 127.937 150.911 125.104C147.415 122.315 145.423 118.509 144.936 113.684H159.41C159.809 115.631 161.402 116.605 164.191 116.605C165.917 116.605 167.267 116.163 168.241 115.277C169.215 114.392 169.702 112.732 169.702 110.298V105.849C168.772 107.575 167.422 108.948 165.651 109.966C163.881 110.939 161.778 111.426 159.344 111.426C156.422 111.426 153.789 110.674 151.443 109.169C149.097 107.62 147.238 105.406 145.865 102.529C144.537 99.6079 143.873 96.1775 143.873 92.238C143.873 88.2985 144.537 84.8902 145.865 82.013C147.238 79.0916 149.097 76.8784 151.443 75.3734C153.789 73.8242 156.422 73.0495 159.344 73.0495ZM169.702 92.238C169.702 90.2461 169.192 88.6968 168.174 87.5903C167.156 86.4837 165.851 85.9304 164.257 85.9304C162.664 85.9304 161.358 86.4837 160.34 87.5903C159.322 88.6968 158.813 90.2461 158.813 92.238C158.813 94.2298 159.322 95.7791 160.34 96.8857C161.358 97.9923 162.664 98.5456 164.257 98.5456C165.851 98.5456 167.156 97.9923 168.174 96.8857C169.192 95.7791 169.702 94.2298 169.702 92.238Z" fill="#2E2D2C"/>
<path d="M69.7675 100.532C80.9717 100.532 90.0545 91.4489 90.0545 80.2447C90.0545 69.0405 80.9717 59.9577 69.7675 59.9577C58.5633 59.9577 49.4805 69.0405 49.4805 80.2447C49.4805 91.4489 58.5633 100.532 69.7675 100.532Z" stroke="#2E2D2C" stroke-width="7.5979" stroke-miterlimit="10"/>
<path d="M56.9553 75.9457C57.2403 78.4027 57.8173 80.7057 58.7933 82.7967C59.7773 84.8737 61.1063 86.7497 62.7873 88.2367C64.4383 89.7567 66.4333 90.8737 68.6043 91.5987C70.7873 92.3167 73.1423 92.5957 75.6213 92.6537C73.3113 93.5367 70.7073 93.7977 68.1713 93.3347C67.5243 93.2677 66.9103 93.0597 66.2923 92.8607C65.6603 92.6937 65.0803 92.3977 64.4843 92.1297C63.3103 91.5597 62.2333 90.7947 61.2483 89.9357C59.3183 88.1677 57.8633 85.8957 57.1253 83.4277C56.3663 80.9717 56.2893 78.3357 56.9553 75.9457Z" fill="#1D1D1B"/>
<path d="M78.8396 72.2707C78.2046 73.6557 75.8196 73.9207 73.5116 72.8627C71.2036 71.8047 69.8476 69.8247 70.4826 68.4397C71.1176 67.0547 73.5026 66.7907 75.8106 67.8487C78.1186 68.9057 79.4746 70.8857 78.8396 72.2707Z" fill="#2E2D2C"/>
<path d="M79.8351 75.7917C80.2079 75.7917 80.5101 75.4895 80.5101 75.1167C80.5101 74.7439 80.2079 74.4417 79.8351 74.4417C79.4624 74.4417 79.1602 74.7439 79.1602 75.1167C79.1602 75.4895 79.4624 75.7917 79.8351 75.7917Z" fill="#2E2D2C"/>
<path d="M107.257 25.4689C110.391 25.4689 112.831 26.5191 114.576 28.6194C116.353 30.7198 117.242 33.5634 117.242 37.1502V53H106.53V38.5074C106.53 37.2148 106.174 36.197 105.463 35.4538C104.785 34.6782 103.864 34.2905 102.701 34.2905C101.505 34.2905 100.568 34.6782 99.8893 35.4538C99.2107 36.197 98.8714 37.2148 98.8714 38.5074V53H88.111V25.6628H98.8714V29.8312C99.7116 28.5387 100.826 27.4885 102.216 26.6806C103.638 25.8728 105.318 25.4689 107.257 25.4689ZM131.747 25.3235C133.524 25.3235 135.059 25.6951 136.352 26.4383C137.644 27.1492 138.63 28.1347 139.309 29.395V25.6628H150.02V52.5153C150.02 55.0681 149.552 57.3946 148.615 59.495C147.678 61.5954 146.159 63.2757 144.059 64.5359C141.991 65.7962 139.325 66.4263 136.061 66.4263C131.666 66.4263 128.177 65.3922 125.591 63.3242C123.039 61.2884 121.585 58.5095 121.229 54.9873H131.796C132.086 56.4091 133.25 57.12 135.285 57.12C136.546 57.12 137.531 56.7968 138.242 56.1506C138.953 55.5043 139.309 54.2925 139.309 52.5153V49.2678C138.63 50.528 137.644 51.5297 136.352 52.2729C135.059 52.9838 133.524 53.3393 131.747 53.3393C129.614 53.3393 127.692 52.79 125.979 51.6913C124.267 50.5603 122.909 48.9447 121.908 46.8443C120.938 44.7116 120.454 42.2073 120.454 39.3314C120.454 36.4555 120.938 33.9673 121.908 31.8669C122.909 29.7343 124.267 28.1186 125.979 27.0199C127.692 25.8889 129.614 25.3235 131.747 25.3235ZM139.309 39.3314C139.309 37.8773 138.937 36.7463 138.194 35.9385C137.45 35.1306 136.497 34.7267 135.334 34.7267C134.171 34.7267 133.217 35.1306 132.474 35.9385C131.731 36.7463 131.359 37.8773 131.359 39.3314C131.359 40.7855 131.731 41.9165 132.474 42.7243C133.217 43.5321 134.171 43.9361 135.334 43.9361C136.497 43.9361 137.45 43.5321 138.194 42.7243C138.937 41.9165 139.309 40.7855 139.309 39.3314Z" fill="#2E2D2C"/>
<path d="M76.7107 13.0347C72.4697 18.4837 68.9047 28.9907 70.4197 39.8537C71.2347 45.7007 72.7337 49.6607 74.0177 52.1517C77.9797 52.5227 81.4377 53.5947 83.4467 55.2617C75.2297 42.8257 70.3447 24.0607 83.1137 8.62671C58.2417 13.7347 51.8017 46.9337 52.2457 58.5927C53.4317 57.2377 54.9477 56.1107 56.6697 55.1887C56.7747 48.1777 59.2167 23.9327 75.7357 12.7727C70.1317 16.8077 63.7537 25.8867 62.1497 36.7367C60.7877 45.9527 62.3757 51.1397 63.0757 52.8657C64.9787 52.4317 66.9477 52.1667 68.8957 52.0617C67.3317 41.8207 66.9137 24.8727 76.7107 13.0347Z" fill="#2E2D2C"/>
<path d="M171.153 127.06H25.6553C21.1453 127.06 17.4883 123.404 17.4883 118.893V117.208C17.4883 112.698 21.1443 109.041 25.6553 109.041H171.152C175.662 109.041 179.319 112.697 179.319 117.208V118.893C179.32 123.403 175.663 127.06 171.153 127.06Z" fill="#2E2D2C"/>
<path d="M38.0777 115.078C37.9275 115.062 37.8232 115.053 37.7648 115.053C37.5563 115.053 37.3977 115.095 37.2893 115.178C37.1808 115.253 37.1057 115.387 37.064 115.579H38.0777V117.894H37.039V122.637H34.2608V117.894H33.5099V115.579H34.2608C34.2775 114.661 34.5653 113.952 35.1243 113.451C35.6916 112.942 36.4842 112.688 37.502 112.688C37.6188 112.688 37.8107 112.696 38.0777 112.713V115.078ZM43.2182 120.272V122.637H42.167C40.2314 122.637 39.2636 121.673 39.2636 119.746V117.894H38.3876V115.579H39.2636V113.877H42.0419V115.579H43.1932V117.894H42.0419V119.796C42.0419 119.963 42.0794 120.084 42.1545 120.159C42.2379 120.234 42.3714 120.272 42.555 120.272H43.2182ZM52.7111 123.163V125.866H44.2638V123.163H52.7111ZM58.2259 120.272V122.637H57.1746C55.2391 122.637 54.2713 121.673 54.2713 119.746V117.894H53.3953V115.579H54.2713V113.877H57.0495V115.579H58.2008V117.894H57.0495V119.796C57.0495 119.963 57.087 120.084 57.1621 120.159C57.2456 120.234 57.379 120.272 57.5626 120.272H58.2259ZM62.0621 116.88C62.3458 116.472 62.692 116.146 63.1008 115.904C63.5096 115.654 63.9351 115.529 64.3773 115.529V118.495H63.5889C63.0633 118.495 62.6753 118.586 62.4251 118.77C62.1831 118.954 62.0621 119.279 62.0621 119.746V122.637H59.2839V115.579H62.0621V116.88ZM64.7502 119.108C64.7502 118.365 64.8754 117.723 65.1256 117.181C65.3843 116.63 65.7347 116.213 66.1769 115.929C66.619 115.637 67.1154 115.491 67.6661 115.491C68.125 115.491 68.5212 115.587 68.855 115.779C69.1887 115.963 69.4431 116.217 69.6183 116.542V115.579H72.3841V122.637H69.6183V121.673C69.4431 121.999 69.1887 122.257 68.855 122.449C68.5212 122.633 68.125 122.725 67.6661 122.725C67.1154 122.725 66.619 122.583 66.1769 122.299C65.7347 122.007 65.3843 121.59 65.1256 121.048C64.8754 120.497 64.7502 119.85 64.7502 119.108ZM69.6183 119.108C69.6183 118.732 69.5224 118.44 69.3305 118.232C69.1386 118.023 68.8925 117.919 68.5922 117.919C68.2918 117.919 68.0457 118.023 67.8538 118.232C67.6619 118.44 67.566 118.732 67.566 119.108C67.566 119.483 67.6619 119.775 67.8538 119.984C68.0457 120.193 68.2918 120.297 68.5922 120.297C68.8925 120.297 69.1386 120.193 69.3305 119.984C69.5224 119.775 69.6183 119.483 69.6183 119.108ZM78.5748 115.529C79.3841 115.529 80.014 115.8 80.4645 116.342C80.9234 116.885 81.1528 117.619 81.1528 118.545V122.637H78.3871V118.895C78.3871 118.561 78.2953 118.299 78.1118 118.107C77.9366 117.907 77.6988 117.806 77.3985 117.806C77.0898 117.806 76.8478 117.907 76.6726 118.107C76.4974 118.299 76.4098 118.561 76.4098 118.895V122.637H73.6316V115.579H76.4098V116.655C76.6267 116.321 76.9146 116.05 77.2733 115.842C77.6404 115.633 78.0742 115.529 78.5748 115.529ZM85.4987 122.725C84.8312 122.725 84.2389 122.616 83.7216 122.399C83.2127 122.182 82.808 121.882 82.5077 121.498C82.2073 121.114 82.0363 120.681 81.9946 120.197H84.6602C84.6936 120.405 84.7812 120.56 84.923 120.66C85.0732 120.76 85.2609 120.81 85.4861 120.81C85.628 120.81 85.7406 120.781 85.824 120.722C85.9075 120.656 85.9492 120.576 85.9492 120.485C85.9492 120.326 85.8616 120.213 85.6864 120.147C85.5112 120.08 85.215 120.005 84.7978 119.921C84.2889 119.821 83.8676 119.713 83.5339 119.596C83.2085 119.479 82.9207 119.279 82.6704 118.995C82.4284 118.712 82.3075 118.32 82.3075 117.819C82.3075 117.385 82.4201 116.993 82.6454 116.643C82.879 116.284 83.221 116.004 83.6715 115.804C84.1221 115.596 84.6685 115.491 85.3109 115.491C86.262 115.491 87.0046 115.725 87.5385 116.192C88.0808 116.659 88.4062 117.268 88.5147 118.019H86.0493C86.0076 117.827 85.92 117.681 85.7865 117.581C85.653 117.473 85.4736 117.418 85.2484 117.418C85.1065 117.418 84.9981 117.448 84.923 117.506C84.8479 117.556 84.8104 117.635 84.8104 117.744C84.8104 117.886 84.898 117.994 85.0732 118.069C85.2484 118.136 85.5279 118.207 85.9116 118.282C86.4206 118.382 86.8502 118.495 87.2006 118.62C87.551 118.745 87.8556 118.962 88.1142 119.271C88.3728 119.571 88.5021 119.988 88.5021 120.522C88.5021 120.939 88.3812 121.315 88.1392 121.648C87.8973 121.982 87.5469 122.245 87.088 122.437C86.6375 122.629 86.1077 122.725 85.4987 122.725ZM89.2293 119.108C89.2293 118.374 89.3794 117.736 89.6798 117.193C89.9885 116.643 90.414 116.221 90.9563 115.929C91.5069 115.637 92.1326 115.491 92.8334 115.491C93.7512 115.491 94.5229 115.75 95.1486 116.267C95.7827 116.784 96.1831 117.502 96.35 118.42H93.4091C93.3006 118.053 93.0879 117.869 92.7709 117.869C92.5456 117.869 92.3662 117.973 92.2327 118.182C92.1076 118.39 92.045 118.699 92.045 119.108C92.045 119.517 92.1076 119.825 92.2327 120.034C92.3662 120.243 92.5456 120.347 92.7709 120.347C93.0879 120.347 93.3006 120.163 93.4091 119.796H96.35C96.1831 120.714 95.7827 121.431 95.1486 121.949C94.5229 122.466 93.7512 122.725 92.8334 122.725C92.1326 122.725 91.5069 122.579 90.9563 122.287C90.414 121.995 89.9885 121.577 89.6798 121.035C89.3794 120.485 89.2293 119.842 89.2293 119.108ZM104.064 119.045C104.064 119.237 104.051 119.421 104.026 119.596H99.5584C99.6001 120.205 99.8546 120.51 100.322 120.51C100.622 120.51 100.839 120.372 100.973 120.097H103.913C103.813 120.597 103.601 121.048 103.275 121.448C102.958 121.84 102.554 122.153 102.061 122.387C101.577 122.612 101.043 122.725 100.459 122.725C99.7586 122.725 99.1329 122.579 98.5823 122.287C98.04 121.995 97.6145 121.577 97.3058 121.035C97.0055 120.485 96.8553 119.842 96.8553 119.108C96.8553 118.374 97.0055 117.736 97.3058 117.193C97.6145 116.643 98.04 116.221 98.5823 115.929C99.1329 115.637 99.7586 115.491 100.459 115.491C101.16 115.491 101.782 115.637 102.324 115.929C102.875 116.213 103.3 116.622 103.601 117.156C103.909 117.69 104.064 118.32 104.064 119.045ZM101.248 118.382C101.248 118.148 101.173 117.973 101.023 117.856C100.872 117.731 100.685 117.669 100.459 117.669C99.9672 117.669 99.6794 117.907 99.596 118.382H101.248ZM109.886 115.529C110.695 115.529 111.325 115.8 111.775 116.342C112.234 116.885 112.463 117.619 112.463 118.545V122.637H109.698V118.895C109.698 118.561 109.606 118.299 109.422 118.107C109.247 117.907 109.009 117.806 108.709 117.806C108.4 117.806 108.159 117.907 107.983 118.107C107.808 118.299 107.721 118.561 107.721 118.895V122.637H104.942V115.579H107.721V116.655C107.937 116.321 108.225 116.05 108.584 115.842C108.951 115.633 109.385 115.529 109.886 115.529ZM113.293 119.108C113.293 118.365 113.418 117.723 113.668 117.181C113.927 116.63 114.277 116.213 114.719 115.929C115.162 115.637 115.658 115.491 116.209 115.491C116.668 115.491 117.06 115.587 117.385 115.779C117.719 115.963 117.973 116.217 118.148 116.542V113.376H120.927V122.637H118.148V121.673C117.973 121.999 117.719 122.257 117.385 122.449C117.06 122.633 116.668 122.725 116.209 122.725C115.658 122.725 115.162 122.583 114.719 122.299C114.277 122.007 113.927 121.59 113.668 121.048C113.418 120.497 113.293 119.85 113.293 119.108ZM118.161 119.108C118.161 118.732 118.065 118.44 117.873 118.232C117.681 118.023 117.435 117.919 117.135 117.919C116.834 117.919 116.588 118.023 116.396 118.232C116.204 118.44 116.109 118.732 116.109 119.108C116.109 119.483 116.204 119.775 116.396 119.984C116.588 120.193 116.834 120.297 117.135 120.297C117.435 120.297 117.681 120.193 117.873 119.984C118.065 119.775 118.161 119.483 118.161 119.108ZM129.007 119.045C129.007 119.237 128.995 119.421 128.97 119.596H124.502C124.544 120.205 124.798 120.51 125.265 120.51C125.566 120.51 125.783 120.372 125.916 120.097H128.857C128.757 120.597 128.544 121.048 128.219 121.448C127.902 121.84 127.497 122.153 127.005 122.387C126.521 122.612 125.987 122.725 125.403 122.725C124.702 122.725 124.076 122.579 123.526 122.287C122.983 121.995 122.558 121.577 122.249 121.035C121.949 120.485 121.799 119.842 121.799 119.108C121.799 118.374 121.949 117.736 122.249 117.193C122.558 116.643 122.983 116.221 123.526 115.929C124.076 115.637 124.702 115.491 125.403 115.491C126.104 115.491 126.725 115.637 127.268 115.929C127.818 116.213 128.244 116.622 128.544 117.156C128.853 117.69 129.007 118.32 129.007 119.045ZM126.191 118.382C126.191 118.148 126.116 117.973 125.966 117.856C125.816 117.731 125.628 117.669 125.403 117.669C124.911 117.669 124.623 117.907 124.539 118.382H126.191ZM134.829 115.529C135.638 115.529 136.268 115.8 136.719 116.342C137.178 116.885 137.407 117.619 137.407 118.545V122.637H134.641V118.895C134.641 118.561 134.549 118.299 134.366 118.107C134.191 117.907 133.953 117.806 133.653 117.806C133.344 117.806 133.102 117.907 132.927 118.107C132.752 118.299 132.664 118.561 132.664 118.895V122.637H129.886V115.579H132.664V116.655C132.881 116.321 133.169 116.05 133.527 115.842C133.895 115.633 134.328 115.529 134.829 115.529ZM138.236 119.108C138.236 118.374 138.386 117.736 138.687 117.193C138.995 116.643 139.421 116.221 139.963 115.929C140.514 115.637 141.14 115.491 141.84 115.491C142.758 115.491 143.53 115.75 144.156 116.267C144.79 116.784 145.19 117.502 145.357 118.42H142.416C142.308 118.053 142.095 117.869 141.778 117.869C141.553 117.869 141.373 117.973 141.24 118.182C141.115 118.39 141.052 118.699 141.052 119.108C141.052 119.517 141.115 119.825 141.24 120.034C141.373 120.243 141.553 120.347 141.778 120.347C142.095 120.347 142.308 120.163 142.416 119.796H145.357C145.19 120.714 144.79 121.431 144.156 121.949C143.53 122.466 142.758 122.725 141.84 122.725C141.14 122.725 140.514 122.579 139.963 122.287C139.421 121.995 138.995 121.577 138.687 121.035C138.386 120.485 138.236 119.842 138.236 119.108ZM153.071 119.045C153.071 119.237 153.058 119.421 153.033 119.596H148.565C148.607 120.205 148.862 120.51 149.329 120.51C149.629 120.51 149.846 120.372 149.98 120.097H152.92C152.82 120.597 152.608 121.048 152.282 121.448C151.965 121.84 151.561 122.153 151.068 122.387C150.584 122.612 150.05 122.725 149.466 122.725C148.766 122.725 148.14 122.579 147.589 122.287C147.047 121.995 146.621 121.577 146.313 121.035C146.012 120.485 145.862 119.842 145.862 119.108C145.862 118.374 146.012 117.736 146.313 117.193C146.621 116.643 147.047 116.221 147.589 115.929C148.14 115.637 148.766 115.491 149.466 115.491C150.167 115.491 150.789 115.637 151.331 115.929C151.882 116.213 152.307 116.622 152.608 117.156C152.916 117.69 153.071 118.32 153.071 119.045ZM150.255 118.382C150.255 118.148 150.18 117.973 150.03 117.856C149.879 117.731 149.692 117.669 149.466 117.669C148.974 117.669 148.686 117.907 148.603 118.382H150.255Z" fill="white"/>
</svg>
