<svg width="433" height="425" viewBox="0 0 433 425" fill="none" xmlns="http://www.w3.org/2000/svg">
<path d="M278.56 4.29589C278.56 4.29589 204.957 -11.8977 136.781 35.1113C68.6053 82.1204 37.9389 163.307 11.3141 228.653C-15.3107 293.999 6.40979 354.83 62.2375 377.311C118.065 399.791 152.027 353.325 227.559 342.59C303.091 331.854 324.172 339.837 384.352 291.866C444.531 243.894 449.629 146.295 395.449 80.7297C341.269 15.1646 278.56 4.29589 278.56 4.29589Z" fill="#C53F3F"/>
<path opacity="0.7" d="M278.56 4.29589C278.56 4.29589 204.957 -11.8977 136.781 35.1113C68.6053 82.1204 37.9389 163.307 11.3141 228.653C-15.3107 293.999 6.40979 354.83 62.2375 377.311C118.065 399.791 152.027 353.325 227.559 342.59C303.091 331.854 324.172 339.837 384.352 291.866C444.531 243.894 449.629 146.295 395.449 80.7297C341.269 15.1646 278.56 4.29589 278.56 4.29589Z" fill="white"/>
<path d="M187.802 156.077L144.895 315.908L193.337 287.34L221.018 327.472L217.558 159.478L187.802 156.077Z" fill="#C53F3F"/>
<mask id="mask0_716_1432" style="mask-type:luminance" maskUnits="userSpaceOnUse" x="144" y="156" width="78" height="172">
<path d="M187.802 156.078L144.895 315.908L193.337 287.341L221.018 327.473L217.558 159.478L187.802 156.078Z" fill="white"/>
</mask>
<g mask="url(#mask0_716_1432)">
<path d="M195.262 278.749L155.262 302.344L192.645 163.07L211.167 165.184L214.075 306.011L195.262 278.749Z" fill="white"/>
<path opacity="0.3" d="M218.35 197.905L217.555 159.497L187.819 156.078L178.641 190.265C181.917 196.752 184.165 205.373 189.913 207.211C197.667 209.669 207.989 197.686 216.538 197.686C217.147 197.704 217.754 197.777 218.35 197.905Z" fill="black"/>
</g>
<path d="M246.925 157.297L315.304 308.316L270.147 285.893L242.049 331.702L218.109 165.336L246.925 157.297Z" fill="#C53F3F"/>
<mask id="mask1_716_1432" style="mask-type:luminance" maskUnits="userSpaceOnUse" x="218" y="157" width="98" height="175">
<path d="M246.925 157.297L315.304 308.316L270.147 285.893L242.049 331.702L218.109 165.337L246.925 157.297Z" fill="white"/>
</mask>
<g mask="url(#mask1_716_1432)">
<path d="M225.352 169.957L243.292 164.956L301.95 294.524L267.707 277.511L245.938 313.013L225.352 169.957Z" fill="white"/>
<path opacity="0.3" d="M246.944 157.297L218.129 165.337L222.713 197.095H223.14C231.688 197.095 242.059 209.031 249.774 206.573C255.687 204.668 257.896 195.59 261.337 189.046L246.944 157.297Z" fill="black"/>
</g>
<path d="M309.273 115.679C309.273 124.081 294.414 130.072 291.904 137.645C289.316 145.504 297.661 158.916 292.815 165.46C287.969 172.004 272.335 168.385 265.618 173.186C258.902 177.986 257.739 193.685 249.742 196.228C241.989 198.695 231.657 186.702 223.108 186.702C214.559 186.702 204.198 198.648 196.483 196.228C188.487 193.685 187.256 177.948 180.607 173.186C173.958 168.423 158.315 172.062 153.401 165.46C148.487 158.859 156.91 145.504 154.312 137.655C151.811 130.034 136.953 124.081 136.953 115.679C136.953 107.278 151.811 101.286 154.312 93.7131C156.91 85.8544 148.565 72.4423 153.401 65.8982C158.237 59.3541 173.881 62.9738 180.607 58.1729C187.334 53.372 188.487 37.6737 196.483 35.1304C204.237 32.6632 214.559 44.6084 223.108 44.6084C231.657 44.6084 242.027 32.6632 249.742 35.1304C257.729 37.6737 258.96 53.4101 265.618 58.1729C272.277 62.9357 287.911 59.2969 292.815 65.8982C297.719 72.4995 289.316 85.9021 291.904 93.7036C294.434 101.248 309.273 107.24 309.273 115.679Z" fill="#C53F3F"/>
<path opacity="0.6" d="M299.868 115.679C299.868 123.167 286.628 128.501 284.36 135.255C282.044 142.256 289.478 154.201 285.164 160.021C280.851 165.841 266.924 162.631 260.934 166.908C254.944 171.185 253.916 185.169 246.793 187.446C239.921 189.636 230.684 178.996 223.066 178.996C215.448 178.996 206.23 189.598 199.388 187.407C192.264 185.131 191.168 171.119 185.237 166.87C179.305 162.622 165.368 165.87 161.006 159.983C156.645 154.096 164.127 142.218 161.82 135.216C159.581 128.463 146.312 123.128 146.312 115.641C146.312 108.154 159.542 102.82 161.82 96.0661C164.127 89.0647 156.693 77.1196 161.006 71.2994C165.319 65.4793 179.257 68.6894 185.237 64.4124C191.217 60.1354 192.264 46.1517 199.388 43.8751C206.25 41.6842 215.496 52.3243 223.105 52.3243C230.713 52.3243 239.96 41.6842 246.831 43.8751C253.955 46.1517 255.05 60.1639 260.972 64.4124C266.894 68.6608 280.851 65.3649 285.203 71.2994C289.555 77.2339 282.082 89.0647 284.399 96.0661C286.676 102.82 299.868 108.154 299.868 115.679Z" fill="white"/>
<path d="M223.11 178.548C258.46 178.548 287.118 150.384 287.118 115.641C287.118 80.8983 258.46 52.7338 223.11 52.7338C187.759 52.7338 159.102 80.8983 159.102 115.641C159.102 150.384 187.759 178.548 223.11 178.548Z" fill="white"/>
<path d="M192.609 86.1499C200.257 82.4539 206.295 80.3488 216.094 68.8704H239.976V143.513H252.45V161.05H198.783V143.551H212.198V94.6277L198.783 100.829L192.609 86.1499Z" fill="#263238"/>
<path d="M174.09 22.0614L179.072 26.91L181.824 22.6139L174.09 22.0614Z" fill="#9C9C9C"/>
<path d="M111.723 30.2057L116.705 35.0447L119.457 30.7486L111.723 30.2057Z" fill="#9C9C9C"/>
<path d="M72.5039 10.4878L77.4858 15.3363L80.2384 11.0308L72.5039 10.4878Z" fill="#9C9C9C"/>
<path d="M230.318 48.1423L227.188 54.3054L232.198 55.5342L230.318 48.1423Z" fill="#9C9C9C"/>
<path d="M278.084 4.51526L274.953 10.6784L279.964 11.9072L278.084 4.51526Z" fill="#9C9C9C"/>
<path d="M174.457 58.3351L169.582 53.3817L166.742 57.6206L174.457 58.3351Z" fill="#C53F3F"/>
<path d="M145.883 60.1737L141.018 55.2203L138.168 59.4593L145.883 60.1737Z" fill="#C53F3F"/>
<path d="M207.438 38.1027L213.137 34.0924L209.289 30.7013L207.438 38.1027Z" fill="#C53F3F"/>
<path d="M143.27 18.1463L148.969 14.1455L145.121 10.7449L143.27 18.1463Z" fill="#C53F3F"/>
<path d="M252.352 53.8487L258.051 49.8479L254.203 46.4473L252.352 53.8487Z" fill="#C53F3F"/>
<path d="M24.2126 57.1536L21.082 63.3071L26.093 64.5455L24.2126 57.1536Z" fill="#9C9C9C"/>
<path d="M56.0564 61.7549L52.9258 67.918L57.9367 69.1468L56.0564 61.7549Z" fill="#9C9C9C"/>
<path d="M38.6115 40.6364L33.7363 35.6831L30.8867 39.922L38.6115 40.6364Z" fill="#C53F3F"/>
<path d="M172.227 89.2265L177.935 85.2257L174.087 81.8251L172.227 89.2265Z" fill="#C53F3F"/>
<path d="M324.086 41.1984L329.068 46.0374L331.82 41.7413L324.086 41.1984Z" fill="#9C9C9C"/>
<path d="M380.324 53.7722L377.184 59.9353L382.204 61.1641L380.324 53.7722Z" fill="#9C9C9C"/>
<path d="M304.443 21.1848L301.312 27.3479L306.323 28.5862L304.443 21.1848Z" fill="#9C9C9C"/>
<path d="M412.172 58.3732L409.031 64.5363L414.052 65.7746L412.172 58.3732Z" fill="#9C9C9C"/>
<path d="M428.097 34.9016L424.957 41.0647L429.978 42.2935L428.097 34.9016Z" fill="#9C9C9C"/>
<path d="M324.463 63.9552L319.588 59.0018L316.738 63.2503L324.463 63.9552Z" fill="#C53F3F"/>
<path d="M295.901 65.8032L291.025 60.8499L288.176 65.0888L295.901 65.8032Z" fill="#C53F3F"/>
<path d="M356.5 18.9938L362.199 14.9931L358.351 11.5924L356.5 18.9938Z" fill="#C53F3F"/>
<path d="M293.277 12.5261L298.976 8.51576L295.129 5.12463L293.277 12.5261Z" fill="#C53F3F"/>
<path d="M387.422 26.8716L393.121 22.8709L389.273 19.4797L387.422 26.8716Z" fill="#C53F3F"/>
<path d="M322.234 94.8564L327.933 90.8461L324.086 87.455L322.234 94.8564Z" fill="#C53F3F"/>
<path d="M90.9375 53.8294L96.6366 49.8286L92.7887 46.428L90.9375 53.8294Z" fill="#C53F3F"/>
<path d="M276.965 127.996L271.983 123.148L269.23 127.444L276.965 127.996Z" fill="#9C9C9C"/>
<path d="M325.203 124.767L320.221 119.928L317.469 124.224L325.203 124.767Z" fill="#9C9C9C"/>
<path d="M380.086 130.911L375.104 126.062L372.352 130.368L380.086 130.911Z" fill="#9C9C9C"/>
<path d="M220.724 115.413L223.864 109.25L218.844 108.021L220.724 115.413Z" fill="#9C9C9C"/>
<path d="M188.88 110.812L192.021 104.649L187 103.42L188.88 110.812Z" fill="#9C9C9C"/>
<path d="M346.383 121.805L351.258 126.758L354.108 122.509L346.383 121.805Z" fill="#C53F3F"/>
<path d="M207.34 112.679L201.641 116.68L205.488 120.071L207.34 112.679Z" fill="#C53F3F"/>
<path d="M210.14 90.5796L204.441 94.5899L208.289 97.981L210.14 90.5796Z" fill="#C53F3F"/>
<path d="M426.847 106.411L429.978 100.248L424.957 99.0188L426.847 106.411Z" fill="#9C9C9C"/>
<path d="M394.986 101.81L398.126 95.6471L393.105 94.4183L394.986 101.81Z" fill="#9C9C9C"/>
<path d="M413.441 103.677L407.742 107.678L411.59 111.069L413.441 103.677Z" fill="#C53F3F"/>
<path d="M143.067 90.8366L138.085 85.988L135.332 90.2936L143.067 90.8366Z" fill="#9C9C9C"/>
<path d="M70.7358 109.783L73.8664 103.63L68.8555 102.391L70.7358 109.783Z" fill="#9C9C9C"/>
<path d="M38.8842 105.182L42.0148 99.0188L37.0039 97.79L38.8842 105.182Z" fill="#9C9C9C"/>
<path d="M22.9623 128.663L26.093 122.5L21.082 121.271L22.9623 128.663Z" fill="#9C9C9C"/>
<path d="M56.3281 126.301L61.2034 131.254L64.0529 127.015L56.3281 126.301Z" fill="#C53F3F"/>
<path d="M157.785 126.281L152.086 130.292L155.934 133.683L157.785 126.281Z" fill="#C53F3F"/>
<path d="M60.1502 84.9497L54.4414 88.96L58.2893 92.3511L60.1502 84.9497Z" fill="#C53F3F"/>
<path d="M350.941 87.2264L345.242 91.2272L349.09 94.6183L350.941 87.2264Z" fill="#C53F3F"/>
<path d="M125.84 151.324L130.822 156.173L133.574 151.877L125.84 151.324Z" fill="#9C9C9C"/>
<path d="M70.957 145.19L75.9389 150.029L78.6915 145.733L70.957 145.19Z" fill="#9C9C9C"/>
<path d="M230.318 160.678L227.188 166.841L232.198 168.07L230.318 160.678Z" fill="#9C9C9C"/>
<path d="M80.3494 192.846L77.2188 199.009L82.2297 200.238L80.3494 192.846Z" fill="#9C9C9C"/>
<path d="M174.457 170.871L169.582 165.918L166.742 170.157L174.457 170.871Z" fill="#C53F3F"/>
<path d="M145.883 172.709L141.018 167.756L138.168 171.995L145.883 172.709Z" fill="#C53F3F"/>
<path d="M104.674 154.296L99.7988 149.343L96.9492 153.582L104.674 154.296Z" fill="#C53F3F"/>
<path d="M244.717 144.17L239.842 139.217L236.992 143.456L244.717 144.17Z" fill="#C53F3F"/>
<path d="M207.438 150.639L213.137 146.628L209.289 143.237L207.438 150.639Z" fill="#C53F3F"/>
<path d="M243.719 163.422L249.418 159.412L245.57 156.021L243.719 163.422Z" fill="#C53F3F"/>
<path d="M240.91 185.521L246.609 181.511L242.761 178.12L240.91 185.521Z" fill="#C53F3F"/>
<path d="M24.2126 169.68L21.082 175.843L26.093 177.082L24.2126 169.68Z" fill="#9C9C9C"/>
<path d="M56.0564 174.291L52.9258 180.454L57.9367 181.683L56.0564 174.291Z" fill="#9C9C9C"/>
<path d="M38.6115 153.172L33.7363 148.219L30.8867 152.458L38.6115 153.172Z" fill="#C53F3F"/>
<path d="M37.6133 172.424L43.3124 168.413L39.4645 165.022L37.6133 172.424Z" fill="#C53F3F"/>
<path d="M172.227 201.763L177.935 197.753L174.087 194.361L172.227 201.763Z" fill="#C53F3F"/>
<path d="M275.848 156.954L280.829 161.803L283.582 157.497L275.848 156.954Z" fill="#9C9C9C"/>
<path d="M380.324 166.308L377.184 172.471L382.204 173.7L380.324 166.308Z" fill="#9C9C9C"/>
<path d="M412.172 170.909L409.031 177.072L414.052 178.311L412.172 170.909Z" fill="#9C9C9C"/>
<path d="M428.097 147.438L424.957 153.601L429.978 154.83L428.097 147.438Z" fill="#9C9C9C"/>
<path d="M295.901 178.339L291.025 173.386L288.176 177.625L295.901 178.339Z" fill="#C53F3F"/>
<path d="M286.442 285.036L281.566 280.083L278.727 284.322L286.442 285.036Z" fill="#C53F3F"/>
<path d="M230.977 7.40143L236.676 3.39113L232.828 0L230.977 7.40143Z" fill="#C53F3F"/>
<path d="M322.234 207.392L327.933 203.382L324.086 199.991L322.234 207.392Z" fill="#C53F3F"/>
<path d="M100.098 188.874L105.806 184.864L101.959 181.473L100.098 188.874Z" fill="#C53F3F"/>
<path d="M325.203 237.303L320.221 232.464L317.469 236.76L325.203 237.303Z" fill="#9C9C9C"/>
<path d="M220.724 227.949L223.864 221.786L218.844 220.557L220.724 227.949Z" fill="#9C9C9C"/>
<path d="M188.88 223.348L192.021 217.185L187 215.956L188.88 223.348Z" fill="#9C9C9C"/>
<path d="M276.59 217.766L281.465 222.719L284.315 218.48L276.59 217.766Z" fill="#C53F3F"/>
<path d="M305.16 215.927L310.035 220.881L312.885 216.632L305.16 215.927Z" fill="#C53F3F"/>
<path d="M346.383 305.182L351.258 310.136L354.108 305.897L346.383 305.182Z" fill="#C53F3F"/>
<path d="M243.613 237.998L237.914 242.009L241.762 245.4L243.613 237.998Z" fill="#C53F3F"/>
<path d="M210.14 203.115L204.441 207.126L208.289 210.517L210.14 203.115Z" fill="#C53F3F"/>
<path d="M426.847 289.799L429.978 283.635L424.957 282.407L426.847 289.799Z" fill="#9C9C9C"/>
<path d="M394.986 214.346L398.126 208.183L393.105 206.954L394.986 214.346Z" fill="#9C9C9C"/>
<path d="M413.441 287.055L407.742 291.066L411.59 294.457L413.441 287.055Z" fill="#C53F3F"/>
<path d="M278.816 186.864L273.117 190.875L276.965 194.266L278.816 186.864Z" fill="#C53F3F"/>
<path d="M175.203 231.682L170.221 226.834L167.469 231.13L175.203 231.682Z" fill="#9C9C9C"/>
<path d="M70.7358 222.319L73.8664 216.166L68.8555 214.927L70.7358 222.319Z" fill="#9C9C9C"/>
<path d="M146.611 230.149L149.741 223.986L144.73 222.757L146.611 230.149Z" fill="#9C9C9C"/>
<path d="M38.8842 217.718L42.0148 211.565L37.0039 210.326L38.8842 217.718Z" fill="#9C9C9C"/>
<path d="M22.9623 241.199L26.093 235.036L21.082 233.807L22.9623 241.199Z" fill="#9C9C9C"/>
<path d="M155.16 210.297L160.035 215.251L162.875 211.012L155.16 210.297Z" fill="#C53F3F"/>
<path d="M56.3281 238.837L61.2034 243.79L64.0529 239.551L56.3281 238.837Z" fill="#C53F3F"/>
<path d="M93.6092 232.368L87.9102 236.379L91.758 239.77L93.6092 232.368Z" fill="#C53F3F"/>
<path d="M112.637 333.845L106.938 337.856L110.785 341.247L112.637 333.845Z" fill="#C53F3F"/>
<path d="M224.43 288.113L218.73 292.123L222.578 295.514L224.43 288.113Z" fill="#C53F3F"/>
<path d="M350.941 199.753L345.242 203.763L349.09 207.154L350.941 199.753Z" fill="#C53F3F"/>
<path d="M174.09 340.999L179.072 345.848L181.824 341.542L174.09 340.999Z" fill="#9C9C9C"/>
<path d="M67.5391 297.353L72.5209 302.192L75.2735 297.896L67.5391 297.353Z" fill="#9C9C9C"/>
<path d="M230.318 353.573L227.188 359.736L232.198 360.964L230.318 353.573Z" fill="#9C9C9C"/>
<path d="M154.449 266.518L151.309 272.681L156.329 273.91L154.449 266.518Z" fill="#9C9C9C"/>
<path d="M262.158 358.183L259.027 364.337L264.038 365.575L262.158 358.183Z" fill="#9C9C9C"/>
<path d="M278.084 334.703L274.953 340.866L279.964 342.095L278.084 334.703Z" fill="#9C9C9C"/>
<path d="M174.457 363.765L169.582 358.812L166.742 363.051L174.457 363.765Z" fill="#C53F3F"/>
<path d="M101.254 306.459L96.3886 301.506L93.5391 305.745L101.254 306.459Z" fill="#C53F3F"/>
<path d="M207.438 343.533L213.137 339.522L209.289 336.131L207.438 343.533Z" fill="#C53F3F"/>
<path d="M240.91 378.415L246.609 374.405L242.761 371.014L240.91 378.415Z" fill="#C53F3F"/>
<path d="M20.7966 321.843L17.6562 328.006L22.6769 329.235L20.7966 321.843Z" fill="#9C9C9C"/>
<path d="M52.6462 326.444L49.5156 332.607L54.5265 333.845L52.6462 326.444Z" fill="#9C9C9C"/>
<path d="M35.1877 305.335L30.3222 300.382L27.4727 304.621L35.1877 305.335Z" fill="#C53F3F"/>
<path d="M172.227 401.429L177.935 397.429L174.087 394.028L172.227 401.429Z" fill="#C53F3F"/>
<path d="M324.086 267.394L329.068 272.243L331.82 267.937L324.086 267.394Z" fill="#9C9C9C"/>
<path d="M380.324 350.82L377.184 356.983L382.204 358.212L380.324 350.82Z" fill="#9C9C9C"/>
<path d="M304.443 272.148L301.312 278.311L306.323 279.54L304.443 272.148Z" fill="#9C9C9C"/>
<path d="M412.172 355.421L409.031 361.584L414.052 362.813L412.172 355.421Z" fill="#9C9C9C"/>
<path d="M428.097 331.95L424.957 338.103L429.978 339.341L428.097 331.95Z" fill="#9C9C9C"/>
<path d="M295.901 371.224L291.025 366.28L288.176 370.519L295.901 371.224Z" fill="#C53F3F"/>
<path d="M394.715 334.302L389.85 329.349L387 333.588L394.715 334.302Z" fill="#C53F3F"/>
<path d="M357.438 340.771L363.137 336.76L359.289 333.369L357.438 340.771Z" fill="#C53F3F"/>
<path d="M390.906 375.654L396.605 371.643L392.757 368.252L390.906 375.654Z" fill="#C53F3F"/>
<path d="M322.234 407.059L327.933 403.049L324.086 399.658L322.234 407.059Z" fill="#C53F3F"/>
<path d="M78.1484 368.528L83.8475 364.518L79.9997 361.127L78.1484 368.528Z" fill="#C53F3F"/>
<path d="M174.09 414.48L179.072 415.518L181.824 414.594L174.09 414.48Z" fill="#9C9C9C"/>
<path d="M125.84 395.019L130.822 396.067L133.574 395.143L125.84 395.019Z" fill="#9C9C9C"/>
<path d="M70.957 393.704L75.9389 394.743L78.6915 393.819L70.957 393.704Z" fill="#9C9C9C"/>
<path d="M230.318 397.029L227.188 398.353L232.198 398.62L230.318 397.029Z" fill="#9C9C9C"/>
<path d="M154.449 395.352L151.309 396.676L156.329 396.943L154.449 395.352Z" fill="#9C9C9C"/>
<path d="M262.158 398.019L259.027 399.343L264.038 399.61L262.158 398.019Z" fill="#9C9C9C"/>
<path d="M278.084 392.98L274.953 394.305L279.964 394.571L278.084 392.98Z" fill="#9C9C9C"/>
<path d="M161.578 411.832L156.713 410.765L153.863 411.679L161.578 411.832Z" fill="#C53F3F"/>
<path d="M145.883 399.61L141.018 398.553L138.168 399.458L145.883 399.61Z" fill="#C53F3F"/>
<path d="M104.674 395.657L99.7988 394.6L96.9492 395.505L104.674 395.657Z" fill="#C53F3F"/>
<path d="M244.717 393.485L239.842 392.428L236.992 393.333L244.717 393.485Z" fill="#C53F3F"/>
<path d="M207.438 394.876L213.137 394.019L209.289 393.285L207.438 394.876Z" fill="#C53F3F"/>
<path d="M143.27 393.495L148.969 392.628L145.121 391.904L143.27 393.495Z" fill="#C53F3F"/>
<path d="M243.719 397.619L249.418 396.762L245.57 396.029L243.719 397.619Z" fill="#C53F3F"/>
<path d="M240.91 402.363L246.609 401.506L242.761 400.772L240.91 402.363Z" fill="#C53F3F"/>
<path d="M24.2126 398.963L21.082 400.287L26.093 400.553L24.2126 398.963Z" fill="#9C9C9C"/>
<path d="M56.0564 399.953L52.9258 401.277L57.9367 401.544L56.0564 399.953Z" fill="#9C9C9C"/>
<path d="M26.592 409.984L21.7167 408.926L18.8672 409.841L26.592 409.984Z" fill="#C53F3F"/>
<path d="M48.1719 412.499L53.871 411.641L50.0231 410.908L48.1719 412.499Z" fill="#C53F3F"/>
<path d="M34.8008 404.297L40.4999 403.44L36.652 402.706L34.8008 404.297Z" fill="#C53F3F"/>
<path d="M172.227 405.849L177.935 404.992L174.087 404.259L172.227 405.849Z" fill="#C53F3F"/>
<path d="M324.086 395.543L329.068 396.581L331.82 395.657L324.086 395.543Z" fill="#9C9C9C"/>
<path d="M275.848 396.229L280.829 397.276L283.582 396.352L275.848 396.229Z" fill="#9C9C9C"/>
<path d="M380.324 398.239L377.184 399.563L382.204 399.829L380.324 398.239Z" fill="#9C9C9C"/>
<path d="M304.443 396.562L301.312 397.886L306.323 398.143L304.443 396.562Z" fill="#9C9C9C"/>
<path d="M412.172 399.229L409.031 400.553L414.052 400.82L412.172 399.229Z" fill="#9C9C9C"/>
<path d="M242.193 410.908L239.062 412.232L244.073 412.499L242.193 410.908Z" fill="#9C9C9C"/>
<path d="M428.097 394.19L424.957 395.514L429.978 395.781L428.097 394.19Z" fill="#9C9C9C"/>
<path d="M324.463 400.429L319.588 399.363L316.738 400.277L324.463 400.429Z" fill="#C53F3F"/>
<path d="M295.901 400.82L291.025 399.763L288.176 400.668L295.901 400.82Z" fill="#C53F3F"/>
<path d="M414.907 411.984L410.041 410.917L407.191 411.832L414.907 411.984Z" fill="#C53F3F"/>
<path d="M394.715 394.695L389.85 393.628L387 394.543L394.715 394.695Z" fill="#C53F3F"/>
<path d="M357.438 396.086L363.137 395.219L359.289 394.495L357.438 396.086Z" fill="#C53F3F"/>
<path d="M293.277 394.705L298.976 393.838L295.129 393.114L293.277 394.705Z" fill="#C53F3F"/>
<path d="M393.719 398.829L399.418 397.972L395.57 397.238L393.719 398.829Z" fill="#C53F3F"/>
<path d="M390.906 403.573L396.605 402.715L392.757 401.982L390.906 403.573Z" fill="#C53F3F"/>
<path d="M356.218 419.471L353.078 420.795L358.099 421.062L356.218 419.471Z" fill="#9C9C9C"/>
<path d="M388.064 420.462L384.934 421.786L389.945 422.052L388.064 420.462Z" fill="#9C9C9C"/>
<path d="M370.61 415.928L365.744 414.861L362.895 415.775L370.61 415.928Z" fill="#C53F3F"/>
<path d="M369.609 420.062L375.308 419.204L371.461 418.471L369.609 420.062Z" fill="#C53F3F"/>
<path d="M366.805 424.805L372.504 423.948L368.656 423.215L366.805 424.805Z" fill="#C53F3F"/>
<path d="M275.035 417.109L280.734 416.242L276.886 415.518L275.035 417.109Z" fill="#C53F3F"/>
<path d="M100.098 403.087L105.806 402.22L101.959 401.496L100.098 403.087Z" fill="#C53F3F"/>
<path d="M83.5312 409.869L88.5131 410.908L91.2657 409.984L83.5312 409.869Z" fill="#9C9C9C"/>
<path d="M103.578 414.461L98.7128 413.403L95.8633 414.308L103.578 414.461Z" fill="#C53F3F"/>
<path d="M62.3654 410.508L57.4902 409.441L54.6406 410.355L62.3654 410.508Z" fill="#C53F3F"/>
<path d="M57.793 417.937L63.5017 417.071L59.6539 416.347L57.793 417.937Z" fill="#C53F3F"/>
<path d="M156.902 260.965H159.917V349.287C159.917 349.482 159.878 349.674 159.801 349.854C159.725 350.034 159.614 350.197 159.473 350.334C159.333 350.471 159.166 350.58 158.983 350.654C158.799 350.727 158.603 350.765 158.405 350.763C158.207 350.765 158.011 350.727 157.828 350.654C157.645 350.58 157.479 350.471 157.34 350.334C157.2 350.196 157.089 350.033 157.014 349.853C156.939 349.674 156.901 349.481 156.902 349.287V260.965Z" fill="#263238"/>
<path d="M141.941 271.386H144.956V357.393C144.957 357.587 144.919 357.78 144.844 357.961C144.769 358.141 144.659 358.305 144.519 358.443C144.38 358.581 144.213 358.691 144.031 358.765C143.848 358.84 143.652 358.879 143.453 358.879C143.052 358.879 142.668 358.722 142.384 358.444C142.101 358.165 141.941 357.787 141.941 357.393V271.386Z" fill="#263238"/>
<path d="M158.404 287.484L143.449 293.342V285.188L158.404 279.33V287.484Z" fill="#263238"/>
<path d="M324.046 260.965H321.031V349.287C321.031 349.482 321.07 349.674 321.147 349.854C321.223 350.034 321.334 350.197 321.475 350.334C321.615 350.471 321.782 350.58 321.965 350.654C322.149 350.727 322.345 350.765 322.543 350.763C322.741 350.765 322.937 350.727 323.12 350.654C323.303 350.58 323.469 350.471 323.608 350.334C323.748 350.196 323.859 350.033 323.934 349.853C324.009 349.674 324.047 349.481 324.046 349.287V260.965Z" fill="#263238"/>
<path d="M339.007 271.386H335.992V357.393C335.991 357.587 336.029 357.78 336.104 357.961C336.179 358.141 336.289 358.305 336.429 358.443C336.568 358.581 336.734 358.691 336.917 358.765C337.1 358.84 337.296 358.879 337.495 358.879C337.896 358.879 338.28 358.722 338.564 358.444C338.847 358.165 339.007 357.787 339.007 357.393V271.386Z" fill="#263238"/>
<path d="M322.535 287.484L337.49 293.342V285.188L322.535 279.33V287.484Z" fill="#263238"/>
<path d="M240.473 259.831C240.132 259.829 239.805 259.694 239.564 259.457C239.323 259.22 239.186 258.9 239.184 258.564V247.372C239.186 247.036 239.323 246.716 239.564 246.479C239.805 246.242 240.132 246.107 240.473 246.105C240.814 246.107 241.14 246.242 241.381 246.479C241.623 246.716 241.759 247.036 241.762 247.372V258.564C241.759 258.9 241.623 259.22 241.381 259.457C241.14 259.694 240.814 259.829 240.473 259.831Z" fill="black"/>
<path d="M362.917 267.833H118.031L166.144 252.973H314.814L362.917 267.833Z" fill="#C53F3F"/>
<path opacity="0.8" d="M333.113 258.622L314.814 252.973H166.134L147.835 258.622L146.565 259.012L118.031 267.833H362.917L334.383 259.003L333.113 258.622ZM168.063 253.287H312.885L329.769 258.669H151.179L168.063 253.287ZM356.695 267.252H124.254L149.948 259.003H331L356.695 267.252Z" fill="white"/>
<path d="M362.927 267.833H118.031V271.433H362.927V267.833Z" fill="#C53F3F"/>
<path opacity="0.2" d="M362.927 267.833H118.031V271.433H362.927V267.833Z" fill="black"/>
<path d="M240.472 265.813C240.33 265.813 240.194 265.759 240.092 265.661C239.991 265.563 239.932 265.429 239.93 265.29V242.723C239.932 242.583 239.991 242.45 240.092 242.352C240.194 242.254 240.33 242.199 240.472 242.199C240.615 242.199 240.751 242.254 240.853 242.352C240.954 242.45 241.013 242.583 241.015 242.723V265.29C241.013 265.429 240.954 265.563 240.853 265.661C240.751 265.759 240.615 265.813 240.472 265.813Z" fill="#C53F3F"/>
<path opacity="0.9" d="M240.472 265.813C240.33 265.813 240.194 265.759 240.092 265.661C239.991 265.563 239.932 265.429 239.93 265.29V242.723C239.932 242.583 239.991 242.45 240.092 242.352C240.194 242.254 240.33 242.199 240.472 242.199C240.615 242.199 240.751 242.254 240.853 242.352C240.954 242.45 241.013 242.583 241.015 242.723V265.29C241.013 265.429 240.954 265.563 240.853 265.661C240.751 265.759 240.615 265.813 240.472 265.813Z" fill="white"/>
<path d="M240.473 274.701C240.13 274.699 239.802 274.563 239.561 274.324C239.319 274.085 239.184 273.762 239.184 273.425V262.232C239.186 261.897 239.323 261.576 239.564 261.339C239.805 261.102 240.132 260.968 240.473 260.965C240.814 260.968 241.14 261.102 241.381 261.339C241.623 261.576 241.759 261.897 241.762 262.232V273.425C241.762 273.762 241.626 274.085 241.385 274.324C241.143 274.563 240.815 274.699 240.473 274.701Z" fill="black"/>
<path d="M283.257 214.47C283.887 215.89 282.676 217.776 280.543 218.69C278.411 219.605 276.182 219.195 275.562 217.738C274.941 216.28 276.143 214.432 278.266 213.518C280.388 212.603 282.627 213.061 283.257 214.47Z" fill="white"/>
<path d="M278.273 219.414C277.99 219.413 277.708 219.388 277.429 219.338C276.975 219.305 276.538 219.15 276.166 218.891C275.794 218.631 275.502 218.277 275.32 217.866C275.139 217.455 275.075 217.003 275.136 216.559C275.196 216.115 275.38 215.696 275.665 215.347C276.28 214.454 277.146 213.756 278.156 213.337C279.157 212.889 280.269 212.74 281.355 212.908C281.803 212.962 282.23 213.124 282.599 213.38C282.968 213.636 283.266 213.978 283.468 214.375C284.146 215.909 282.876 217.947 280.628 218.909C279.886 219.234 279.085 219.406 278.273 219.414ZM280.512 213.308C279.766 213.319 279.031 213.477 278.35 213.775C277.427 214.155 276.636 214.79 276.072 215.604C275.826 215.887 275.666 216.232 275.611 216.6C275.555 216.968 275.606 217.344 275.758 217.685C275.909 218.026 276.156 218.318 276.469 218.528C276.781 218.738 277.148 218.857 277.526 218.871C278.515 219.02 279.526 218.881 280.434 218.471C282.44 217.614 283.594 215.861 283.022 214.565C282.852 214.24 282.604 213.961 282.297 213.753C281.991 213.545 281.637 213.415 281.268 213.375C281.022 213.324 280.772 213.292 280.521 213.279L280.512 213.308Z" fill="#C53F3F"/>
<path d="M221.427 248.353L221.117 247.991C230.713 240.142 247.422 228.892 272.486 219.852L272.651 220.3C247.655 229.321 230.994 240.533 221.427 248.353Z" fill="#C53F3F"/>
<path d="M204.232 249.543C196.484 243.876 188.239 238.896 179.594 234.664L179.807 234.236C188.479 238.481 196.75 243.477 204.522 249.162L204.232 249.543Z" fill="#C53F3F"/>
<path d="M171.933 231.378C169.128 230.274 166.265 229.32 163.355 228.52L163.491 228.063C166.416 228.864 169.296 229.818 172.117 230.921L171.933 231.378Z" fill="#C53F3F"/>
<path d="M261.02 220.138L260.875 219.69C263.769 218.784 266.71 218.03 269.685 217.433L269.782 217.9C266.824 218.496 263.9 219.244 261.02 220.138Z" fill="#C53F3F"/>
<path d="M93.8892 138.01L98.3961 189.334L124.565 187.277C124.73 184.276 124.565 172.664 124.565 172.664C124.565 172.664 135.44 171.007 135.576 160.281C135.644 155.09 134.888 144.354 134.093 134.686C133.671 129.529 131.211 124.74 127.24 121.345C123.268 117.949 118.102 116.217 112.847 116.52C110.152 116.666 107.513 117.343 105.089 118.511C102.665 119.678 100.504 121.313 98.7357 123.318C96.9672 125.323 95.6268 127.656 94.7942 130.18C93.9616 132.704 93.6538 135.367 93.8892 138.01Z" fill="#FFBE9D"/>
<path d="M124.518 172.512C119.492 172.607 114.552 171.227 110.328 168.549C110.328 168.549 113.682 176.246 124.537 175.284L124.518 172.512Z" fill="#EB996E"/>
<path d="M130.199 141.82C130.202 142.219 130.047 142.603 129.766 142.891C129.486 143.179 129.102 143.348 128.697 143.363C128.499 143.377 128.301 143.353 128.113 143.291C127.925 143.229 127.752 143.131 127.603 143.002C127.454 142.874 127.332 142.717 127.246 142.542C127.159 142.367 127.109 142.176 127.098 141.982C127.095 141.585 127.249 141.202 127.527 140.914C127.806 140.627 128.187 140.456 128.59 140.439C128.788 140.425 128.988 140.449 129.176 140.511C129.364 140.573 129.538 140.671 129.688 140.799C129.838 140.928 129.96 141.084 130.048 141.259C130.135 141.435 130.187 141.625 130.199 141.82Z" fill="#263238"/>
<path d="M131.703 140.106C131.509 140.306 130.336 139.448 128.659 139.448C126.983 139.448 125.752 140.277 125.587 140.077C125.422 139.877 125.694 139.629 126.227 139.248C126.949 138.755 127.809 138.492 128.689 138.496C129.559 138.492 130.408 138.763 131.112 139.267C131.625 139.658 131.839 140.01 131.703 140.106Z" fill="#263238"/>
<path d="M113.418 142.201C113.421 142.6 113.266 142.984 112.985 143.272C112.705 143.56 112.321 143.729 111.916 143.744C111.719 143.76 111.52 143.736 111.332 143.676C111.145 143.615 110.971 143.517 110.822 143.39C110.673 143.262 110.552 143.106 110.465 142.931C110.378 142.757 110.328 142.567 110.317 142.373C110.311 141.975 110.464 141.591 110.743 141.302C111.022 141.014 111.405 140.844 111.809 140.829C112.007 140.813 112.206 140.835 112.395 140.895C112.584 140.956 112.759 141.053 112.909 141.18C113.059 141.308 113.182 141.465 113.269 141.64C113.356 141.815 113.407 142.006 113.418 142.201Z" fill="#263238"/>
<path d="M115.258 140.411C115.064 140.611 113.891 139.753 112.214 139.753C110.537 139.753 109.306 140.582 109.142 140.382C108.977 140.182 109.248 139.934 109.781 139.553C110.504 139.06 111.363 138.797 112.243 138.801C113.113 138.802 113.961 139.072 114.666 139.572C115.18 139.963 115.354 140.325 115.258 140.411Z" fill="#263238"/>
<path d="M121.33 152.594C122.216 152.331 123.13 152.171 124.054 152.118C124.48 152.118 124.878 151.984 124.955 151.698C124.989 151.266 124.888 150.834 124.664 150.46C124.267 149.441 123.85 148.374 123.404 147.259C121.65 142.716 120.38 138.972 120.574 138.905C120.768 138.839 122.329 142.468 124.083 147.021L125.294 150.231C125.563 150.738 125.642 151.321 125.517 151.879C125.455 152.028 125.358 152.162 125.236 152.269C125.113 152.376 124.968 152.455 124.81 152.499C124.575 152.559 124.335 152.591 124.093 152.594C123.175 152.708 122.247 152.708 121.33 152.594Z" fill="#263238"/>
<path d="M116.409 153.737C116.681 153.737 116.681 155.499 118.232 156.766C119.782 158.033 121.721 157.842 121.74 158.09C121.76 158.338 121.304 158.433 120.49 158.452C119.437 158.48 118.407 158.143 117.582 157.499C116.796 156.861 116.289 155.951 116.167 154.956C116.08 154.165 116.322 153.727 116.409 153.737Z" fill="#263238"/>
<path d="M115.693 133.971C115.528 134.419 113.861 134.209 111.893 134.438C109.926 134.667 108.346 135.19 108.084 134.79C107.968 134.6 108.249 134.181 108.889 133.752C109.736 133.214 110.704 132.887 111.709 132.8C112.715 132.681 113.734 132.799 114.685 133.142C115.402 133.409 115.761 133.762 115.693 133.971Z" fill="#263238"/>
<path d="M131.088 135.343C130.788 135.724 129.644 135.343 128.258 135.343C126.872 135.343 125.699 135.591 125.428 135.2C125.312 135.01 125.496 134.638 126.01 134.247C126.698 133.824 127.498 133.612 128.309 133.638C129.121 133.663 129.906 133.925 130.565 134.39C131.059 134.781 131.214 135.162 131.088 135.343Z" fill="#263238"/>
<path d="M105.663 126.265H105.605C103.872 127.608 102.734 129.556 102.426 131.704C102.422 131.777 102.422 131.85 102.426 131.923C102.009 134.971 102.077 138.076 101.631 141.125C101.186 144.173 100.1 147.269 97.7544 149.364C96.7852 150.231 95.1472 150.822 94.3718 149.812C94.11 149.391 93.9756 148.905 93.9841 148.412C93.4026 141.048 91.3575 134.514 91.3672 126.817C91.3651 125.785 91.6127 124.768 92.0896 123.848C92.5666 122.929 93.2591 122.135 94.1101 121.53C95.7578 120.378 97.7545 119.178 99.5766 120.025C101.399 120.873 103.764 124.226 105.179 125.645" fill="#263238"/>
<path d="M97.5625 142.839C97.3686 142.763 90.08 140.667 90.3223 147.983C90.5646 155.299 97.9792 153.546 97.9792 153.337C97.9792 153.127 97.5625 142.839 97.5625 142.839Z" fill="#FFBE9D"/>
<path d="M95.6226 150.641C95.6226 150.641 95.4966 150.736 95.2737 150.841C94.9633 150.967 94.6148 150.967 94.3045 150.841C93.5097 150.584 92.8119 149.374 92.7343 148.06C92.7091 147.446 92.8216 146.835 93.0639 146.269C93.1288 146.035 93.2512 145.821 93.4202 145.645C93.5892 145.469 93.7997 145.336 94.0331 145.259C94.1819 145.215 94.3416 145.223 94.4848 145.282C94.6281 145.341 94.746 145.448 94.8182 145.583C94.9248 145.783 94.8763 145.935 94.9151 145.945C94.9539 145.954 95.0702 145.811 95.0023 145.516C94.9543 145.336 94.8448 145.178 94.6922 145.068C94.484 144.924 94.2264 144.866 93.9749 144.907C93.6717 144.975 93.3914 145.119 93.1607 145.324C92.9299 145.529 92.7564 145.789 92.6568 146.078C92.3608 146.72 92.2278 147.423 92.2691 148.126C92.366 149.603 93.1802 150.984 94.2657 151.232C94.4684 151.281 94.6798 151.286 94.8845 151.245C95.0891 151.203 95.2818 151.118 95.4482 150.993C95.6129 150.822 95.642 150.65 95.6226 150.641Z" fill="#EB996E"/>
<path d="M98.6215 122.369C96.3535 119.759 100.647 114.844 104.088 113.167C107.529 111.491 112.588 112.481 116.388 113.1C118.782 113.491 121.234 114.177 123.599 113.701C125.179 113.287 126.688 112.645 128.076 111.795C129.466 110.951 131.016 110.394 132.632 110.157C133.442 110.053 134.266 110.167 135.016 110.487C135.765 110.808 136.412 111.322 136.887 111.976C137.73 113.339 137.178 115.482 135.617 115.949C136.084 115.592 136.632 115.352 137.214 115.25C137.795 115.147 138.394 115.185 138.958 115.36C139.522 115.534 140.034 115.841 140.45 116.253C140.867 116.665 141.176 117.17 141.35 117.726C141.525 118.281 141.559 118.869 141.451 119.44C141.343 120.012 141.096 120.549 140.73 121.005C140.365 121.462 139.892 121.824 139.353 122.062C138.813 122.299 138.223 122.405 137.633 122.369C138.554 121.416 140.357 122.464 140.434 123.769C140.39 124.421 140.176 125.051 139.813 125.598C139.45 126.145 138.949 126.591 138.36 126.894C135.51 128.694 131.866 128.799 128.522 128.256C125.178 127.713 121.98 126.522 118.656 125.884C115.331 125.246 109.739 124.036 106.763 125.617C104.563 126.779 103.39 129.78 101.975 129.427C101.308 129.201 100.704 128.825 100.211 128.329C99.7183 127.833 99.3498 127.23 99.1352 126.57C98.7355 125.228 98.562 123.832 98.6215 122.436" fill="#263238"/>
<path d="M95.6598 142.525C95.6598 142.525 95.9797 142.325 96.2608 141.744C96.6329 140.913 96.7637 139.996 96.6388 139.096C96.474 136.734 94.3514 134.209 94.08 130.952C93.8929 129.449 94.1805 127.926 94.9038 126.589C95.5401 125.533 96.5101 124.71 97.6661 124.246C98.4485 123.92 99.3048 123.805 100.147 123.912C100.748 124.008 101.068 124.141 101.117 124.084C101.165 124.027 100.855 123.827 100.235 123.636C99.3338 123.41 98.3846 123.457 97.5111 123.769C96.1815 124.205 95.0519 125.089 94.3223 126.265C93.484 127.708 93.1439 129.379 93.3531 131.028C93.5351 132.636 94.0216 134.197 94.7875 135.629C95.3898 136.743 95.8364 137.932 96.1154 139.163C96.3215 140.303 96.1623 141.478 95.6598 142.525Z" fill="#455A64"/>
<path d="M127.899 104.965C127.899 104.965 128.016 105.051 128.19 105.261C128.429 105.574 128.618 105.921 128.752 106.29C128.966 106.99 129.019 107.728 128.908 108.451C128.798 109.174 128.526 109.864 128.113 110.471C127.444 111.33 126.589 112.032 125.61 112.526C124.631 113.021 123.552 113.295 122.452 113.329C119.971 113.519 117.344 112.796 114.698 112.119C113.407 111.774 112.087 111.541 110.754 111.424C109.523 111.321 108.283 111.43 107.09 111.748C105.39 112.21 103.814 113.034 102.474 114.162C101.134 115.289 100.063 116.693 99.3361 118.273C98.9193 119.225 98.8127 119.721 98.7546 119.711C98.6964 119.702 98.7546 119.568 98.8127 119.311C98.896 118.93 99.0128 118.557 99.1616 118.197C99.6836 116.857 100.471 115.634 101.478 114.596C102.97 113.03 104.866 111.891 106.964 111.3C108.206 110.961 109.498 110.839 110.783 110.938C112.146 111.053 113.495 111.289 114.815 111.643C117.509 112.319 120.068 113.034 122.433 112.872C123.473 112.855 124.497 112.613 125.432 112.163C126.366 111.714 127.189 111.068 127.841 110.271C128.24 109.706 128.511 109.063 128.638 108.387C128.765 107.71 128.745 107.015 128.578 106.347C128.412 105.86 128.184 105.396 127.899 104.965Z" fill="#263238"/>
<path d="M88.6319 363.958L73.9578 345.555C73.9578 345.555 49.9984 354.033 46.9453 350.889L82.235 321.645L106.291 349.403L88.6319 363.958Z" fill="#455A64"/>
<path d="M86.1654 338.02C86.4083 337.634 86.5028 337.175 86.4317 336.726C86.3606 336.277 86.1287 335.868 85.7777 335.572C85.3963 335.312 84.9282 335.204 84.4688 335.271C84.0094 335.338 83.5935 335.576 83.3061 335.934C83.0419 336.341 82.9393 336.829 83.018 337.305C83.0967 337.781 83.3511 338.212 83.7326 338.516C84.1574 338.751 84.6587 338.815 85.1307 338.694C85.6027 338.574 86.0084 338.277 86.2623 337.868" fill="#E0E0E0"/>
<path d="M82.235 321.645L84.5515 324.503L49.853 351.461C49.853 351.461 47.7013 352.089 46.9453 350.851L82.235 321.645Z" fill="#E0E0E0"/>
<path d="M73.5449 346.202C73.3995 346.031 74.1943 345.25 74.582 343.992C74.9696 342.735 74.7952 341.659 75.0181 341.601C75.241 341.544 75.8129 342.726 75.3283 344.231C74.8437 345.736 73.6806 346.393 73.5449 346.202Z" fill="#263238"/>
<path d="M68.5517 347.774C68.3676 347.641 68.8619 346.736 68.8328 345.526C68.8037 344.316 68.3288 343.43 68.5032 343.297C68.6777 343.164 69.6179 344.03 69.6179 345.526C69.6179 347.021 68.6874 347.926 68.5517 347.774Z" fill="#263238"/>
<path d="M62.7113 345.155C62.8373 344.993 63.8065 345.641 64.1554 346.936C64.5044 348.232 64.0197 349.26 63.8259 349.184C63.6321 349.108 63.7096 348.232 63.3994 347.136C63.0893 346.041 62.5562 345.355 62.7113 345.155Z" fill="#263238"/>
<path d="M77.35 350.041C77.2919 349.822 78.3193 349.403 79.2013 348.527C80.0833 347.65 80.626 346.727 80.8393 346.793C81.0525 346.86 80.8392 348.079 79.744 349.089C78.6488 350.099 77.3888 350.241 77.35 350.041Z" fill="#263238"/>
<path d="M80.3883 353.699C80.3302 353.632 80.9214 352.956 82.162 352.242C82.8937 351.83 83.6752 351.51 84.4881 351.289C84.9716 351.152 85.4637 351.047 85.9614 350.975C86.254 350.935 86.5508 350.935 86.8434 350.975C87.061 350.999 87.2638 351.095 87.4187 351.248C87.5736 351.4 87.6714 351.599 87.6963 351.813C87.7125 352.003 87.6822 352.193 87.608 352.369C87.5338 352.545 87.4178 352.7 87.2699 352.823C87.0497 353.014 86.8013 353.171 86.5332 353.29C86.0798 353.511 85.606 353.69 85.1182 353.823C84.2961 354.053 83.4427 354.156 82.5885 354.128C81.7986 354.179 81.0123 353.986 80.3398 353.575C80.3398 353.451 81.2218 353.652 82.5788 353.575C83.3698 353.525 84.1513 353.378 84.9049 353.137C85.3463 352.996 85.7743 352.818 86.1843 352.604C86.6398 352.394 86.9597 352.127 86.9209 351.889C86.8822 351.651 86.9209 351.765 86.7077 351.727C86.4928 351.691 86.2732 351.691 86.0583 351.727C85.595 351.783 85.1355 351.866 84.682 351.975C83.9027 352.161 83.1433 352.419 82.414 352.747C81.764 353.114 81.0869 353.432 80.3883 353.699Z" fill="#263238"/>
<path d="M80.4102 353.27C80.4102 353.194 81.3116 353.518 82.3486 354.556C82.9338 355.174 83.4059 355.886 83.7443 356.662C83.9422 357.122 84.0948 357.601 84.1999 358.09C84.2982 358.399 84.3152 358.727 84.249 359.043C84.1829 359.36 84.0359 359.655 83.8219 359.9C83.6623 360.028 83.4685 360.108 83.2638 360.13C83.0591 360.152 82.8524 360.115 82.6685 360.024C82.4017 359.901 82.1564 359.737 81.9416 359.538C81.5594 359.199 81.2326 358.804 80.9723 358.367C80.5134 357.635 80.2439 356.805 80.1872 355.947C80.1097 354.48 80.6525 353.68 80.7203 353.728C80.6734 354.448 80.6734 355.17 80.7203 355.89C80.844 356.64 81.1317 357.355 81.5636 357.986C81.8146 358.342 82.1147 358.663 82.4552 358.938C82.8236 359.262 83.2209 359.443 83.3275 359.281C83.4298 359.123 83.4951 358.944 83.5185 358.758C83.542 358.572 83.5231 358.383 83.4632 358.205C83.3797 357.76 83.2565 357.323 83.0949 356.9C82.8089 356.179 82.4241 355.499 81.9512 354.88C81.0595 353.851 80.3326 353.375 80.4102 353.27Z" fill="#263238"/>
<path d="M52.1436 376.18L37.4695 357.738C37.4695 357.738 13.5101 366.206 10.457 363.072L45.7467 333.829L69.803 361.625L52.1436 376.18Z" fill="#455A64"/>
<path d="M49.6663 350.232C49.9188 349.85 50.019 349.39 49.9474 348.94C49.8758 348.49 49.6377 348.081 49.2786 347.793C48.8984 347.532 48.431 347.422 47.9717 347.488C47.5124 347.553 47.0959 347.789 46.8071 348.146C46.5422 348.554 46.4393 349.043 46.5179 349.521C46.5966 349.999 46.8513 350.432 47.2335 350.737C47.6625 350.957 48.1601 351.012 48.6282 350.891C49.0964 350.769 49.5013 350.48 49.7632 350.079" fill="#E0E0E0"/>
<path d="M45.7467 333.866L48.0632 336.724L13.3647 363.682C13.3647 363.682 11.213 364.31 10.457 363.082L45.7467 333.866Z" fill="#E0E0E0"/>
<path d="M37.0566 358.424C36.9112 358.253 37.706 357.472 38.0937 356.214C38.4814 354.957 38.3166 353.88 38.5298 353.814C38.7431 353.747 39.3246 354.938 38.84 356.443C38.3554 357.948 37.1535 358.605 37.0566 358.424Z" fill="#263238"/>
<path d="M32.055 359.986C31.8708 359.853 32.3749 358.948 32.3458 357.748C32.3167 356.547 31.8321 355.643 32.0065 355.509C32.181 355.376 33.1212 356.243 33.1212 357.738C33.1212 359.234 32.1907 360.139 32.055 359.986Z" fill="#263238"/>
<path d="M26.1917 357.376C26.3177 357.205 27.2869 357.852 27.6359 359.148C27.9848 360.443 27.5001 361.482 27.3063 361.396C27.1125 361.31 27.19 360.443 26.8799 359.348C26.5697 358.252 26.0657 357.528 26.1917 357.376Z" fill="#263238"/>
<path d="M40.8703 362.253C40.8025 362.034 41.8396 361.615 42.7119 360.748C43.5842 359.881 44.1367 358.938 44.3499 359.015C44.5631 359.091 44.3499 360.291 43.2547 361.301C42.1594 362.31 40.8994 362.501 40.8703 362.253Z" fill="#263238"/>
<path d="M43.896 365.911C43.8378 365.844 44.4291 365.177 45.6697 364.454C46.8383 363.8 48.1198 363.364 49.4497 363.168C49.742 363.124 50.0394 363.124 50.3317 363.168C50.5478 363.192 50.7495 363.286 50.9042 363.437C51.0589 363.587 51.1577 363.784 51.1846 363.996C51.1988 364.186 51.1687 364.377 51.0965 364.553C51.0242 364.73 50.9118 364.888 50.7678 365.016C50.54 365.199 50.2892 365.352 50.0215 365.473C49.5665 365.693 49.093 365.875 48.6064 366.016C47.7841 366.243 46.9305 366.343 46.0767 366.311C45.2869 366.362 44.5006 366.169 43.8281 365.759C43.8281 365.644 44.7101 365.844 46.067 365.759C46.8586 365.713 47.6408 365.566 48.3932 365.32C48.8346 365.179 49.2626 365.001 49.6726 364.787C50.1281 364.577 50.448 364.32 50.4092 364.072C50.4092 363.987 50.4092 363.958 50.196 363.911C49.9836 363.884 49.7686 363.884 49.5563 363.911C49.0897 363.966 48.6268 364.048 48.1703 364.158C47.3949 364.346 46.6389 364.605 45.912 364.93C45.2653 365.305 44.5915 365.633 43.896 365.911Z" fill="#263238"/>
<path d="M43.9136 365.482C43.9136 365.406 44.815 365.73 45.8521 366.778C46.4394 367.39 46.9119 368.099 47.2478 368.873C47.4486 369.333 47.6013 369.812 47.7033 370.302C47.8017 370.611 47.8186 370.939 47.7525 371.255C47.6864 371.572 47.5394 371.867 47.3253 372.112C47.1657 372.239 46.9725 372.32 46.7683 372.343C46.5641 372.367 46.3573 372.333 46.1719 372.246C45.9092 372.115 45.6649 371.952 45.445 371.76C45.0651 371.418 44.7385 371.023 44.4758 370.588C44.0052 369.875 43.716 369.062 43.6326 368.216C43.555 366.74 44.0978 365.949 44.1656 365.987C44.1188 366.707 44.1188 367.429 44.1656 368.149C44.2875 368.9 44.5753 369.616 45.0089 370.245C45.2606 370.601 45.5606 370.922 45.9006 371.198C46.2786 371.522 46.6663 371.703 46.7826 371.55C46.881 371.388 46.9432 371.208 46.9649 371.021C46.9866 370.833 46.9674 370.644 46.9086 370.464C46.8232 370.023 46.7 369.59 46.5403 369.169C46.2565 368.449 45.8715 367.773 45.3966 367.159C44.6018 366.063 43.8361 365.587 43.9136 365.482Z" fill="#263238"/>
<path d="M68.7452 70.4543C69.1038 70.359 70.6836 83.1806 69.8598 84.8856C69.0359 86.5907 63.3175 91.5536 61.1367 91.5536C58.9559 91.5536 55.961 94.7066 55.3213 95.7925L40.9961 92.9253L44.2042 85.1619L43.8166 75.4076C43.7236 73.3779 44.2068 71.3628 45.2123 69.5875C46.3172 67.6823 47.8873 65.6534 49.3799 66.2535C52.0938 67.3394 52.0938 68.1586 52.0938 68.1586C52.0938 68.1586 54.6622 65.8629 55.5345 68.5301C55.5345 68.5301 58.8784 66.1011 60.4873 69.2541C60.4873 69.2541 64.1801 67.0727 65.1687 72.0451L65.537 75.4362C65.537 75.4362 65.1687 71.4259 68.7452 70.4543Z" fill="#FFBE9D"/>
<path d="M57.207 85.9046C57.5968 85.2254 58.1168 84.6269 58.7384 84.1424C60.7533 82.3725 63.2488 81.2173 65.9204 80.8179L65.7169 81.056C65.7169 79.4367 65.5327 78.0459 65.5036 77.0267C65.454 76.4919 65.4834 75.9529 65.5909 75.4264C65.7219 75.9442 65.7967 76.4743 65.8138 77.0076C66.019 78.3458 66.1484 79.6942 66.2015 81.0465V81.2561H65.998C65.2652 81.3776 64.5428 81.5527 63.8366 81.78C62.0784 82.3605 60.438 83.2408 58.9904 84.3805C57.808 85.3045 57.207 85.9617 57.207 85.9046Z" fill="#EB996E"/>
<path d="M48.4833 71.521C48.6505 71.7529 48.7691 72.0152 48.8322 72.2926C49.1351 73.0452 49.1557 73.8792 48.8903 74.6454C48.6965 75.1598 48.1344 75.4837 48.018 75.9314C47.965 76.1946 47.9798 76.4667 48.0611 76.7229C48.1423 76.9791 48.2875 77.2113 48.4833 77.3983C48.7141 77.6126 48.9863 77.7791 49.2837 77.8881C49.5811 77.9972 49.8978 78.0465 50.215 78.0332C50.5321 78.0199 50.8434 77.9442 51.1303 77.8106C51.4172 77.677 51.6739 77.4882 51.8853 77.2555C52.2911 76.6974 52.5234 76.0356 52.554 75.3503C52.6122 74.674 52.6219 73.9977 52.6219 73.369C52.6221 72.242 52.5541 71.116 52.4183 69.9969C52.3835 69.247 52.1956 68.5117 51.8659 67.8346C51.5945 67.3869 51.3134 67.2345 51.3425 67.1964C51.3716 67.1583 51.6817 67.2726 52.0307 67.7298C52.4476 68.4044 52.7028 69.1634 52.777 69.9493C52.9582 71.0779 53.0618 72.2172 53.0871 73.3595C53.109 74.0393 53.0928 74.7198 53.0387 75.398C53.0045 76.1695 52.7418 76.9145 52.2827 77.5412C52.0272 77.8304 51.7138 78.0646 51.3619 78.2292C51.0101 78.3938 50.6275 78.4852 50.2381 78.4977C49.8487 78.5102 49.4608 78.4436 49.0988 78.3019C48.7368 78.1603 48.4085 77.9467 48.1343 77.6746C47.8945 77.4243 47.724 77.1177 47.6392 76.7842C47.5543 76.4506 47.558 76.1012 47.6497 75.7695C47.7636 75.4855 47.9427 75.2312 48.1731 75.0265C48.3462 74.8639 48.4904 74.6739 48.5996 74.4644C48.8569 73.7726 48.8806 73.0178 48.6674 72.3117C48.5779 72.0552 48.5162 71.7902 48.4833 71.521Z" fill="#EB996E"/>
<path d="M51.8789 77.5699C51.8789 77.5699 51.9661 77.7794 52.2084 78.0842C52.5564 78.4958 53.0532 78.7588 53.5944 78.8177C53.9891 78.8502 54.3859 78.7864 54.7495 78.6318C55.113 78.4773 55.4321 78.2368 55.6783 77.9318C56.3138 77.1706 56.6841 76.229 56.7347 75.2456C56.936 73.414 56.7004 71.5615 56.0466 69.835C55.562 68.5014 55.0773 67.7584 55.0773 67.7108C55.6373 68.2802 56.064 68.9629 56.3276 69.7112C57.1061 71.466 57.4035 73.3905 57.1903 75.2932C57.1282 76.3835 56.6986 77.4225 55.969 78.2462C55.6731 78.6005 55.2895 78.8741 54.855 79.0409C54.4205 79.2077 53.9498 79.2621 53.4878 79.1987C53.1843 79.1538 52.894 79.0455 52.6366 78.8812C52.3791 78.7169 52.1604 78.5004 51.9952 78.2462C51.8304 77.8175 51.8498 77.5699 51.8789 77.5699Z" fill="#EB996E"/>
<path d="M56.2319 77.9029C56.2319 77.9029 56.3676 78.0648 56.6196 78.303C56.9862 78.6308 57.4462 78.8402 57.9377 78.9031C58.2929 78.9551 58.6552 78.9327 59.001 78.8375C59.3467 78.7423 59.6681 78.5764 59.9441 78.3506C60.6257 77.7742 61.09 76.989 61.2622 76.1216C61.6208 74.2165 61.0102 72.4828 60.8067 71.2159C60.626 70.531 60.5284 69.8276 60.5159 69.1202C60.8099 69.7628 61.0246 70.4375 61.1556 71.1302C61.3204 71.7684 61.5336 72.5018 61.6984 73.3687C61.9085 74.3082 61.9282 75.2793 61.7565 76.2264C61.5626 77.2052 61.0238 78.0855 60.2348 78.7126C59.9067 78.9669 59.5253 79.1466 59.1181 79.2388C58.7108 79.331 58.2879 79.3335 57.8796 79.246C57.3283 79.1482 56.8303 78.8613 56.4742 78.4363C56.2319 78.1315 56.1641 77.9124 56.2319 77.9029Z" fill="#EB996E"/>
<path d="M61.2253 77.5413C61.2253 77.5413 61.3125 77.7508 61.4191 78.1414C61.5476 78.6766 61.7886 79.1796 62.1266 79.6178C62.3568 79.9281 62.6729 80.1667 63.0372 80.3052C63.4016 80.4438 63.7988 80.4763 64.1814 80.3989C64.6174 80.2142 64.9801 79.8948 65.2145 79.489C65.4489 79.0833 65.5422 78.6135 65.4802 78.1509C65.4764 76.2861 65.311 74.4251 64.9859 72.5879C64.8044 71.8285 64.6716 71.0585 64.5885 70.2827C64.9488 70.985 65.2004 71.7363 65.3348 72.5117C65.7711 74.3607 65.989 76.2529 65.9842 78.1509C66.0501 78.7221 65.9187 79.2985 65.6111 79.7874C65.3034 80.2764 64.8375 80.6494 64.288 80.8467C63.8226 80.9319 63.342 80.8807 62.906 80.6994C62.47 80.5182 62.0978 80.2149 61.8359 79.8274C61.5001 79.3345 61.2906 78.7691 61.2253 78.1795C61.1749 77.9696 61.1749 77.7511 61.2253 77.5413Z" fill="#EB996E"/>
<path d="M198.384 207.062C198.384 207.062 193.538 214.11 192.297 216.473C191.328 218.378 187.374 226.36 187.199 231.514L196.892 242.583C196.892 242.583 201.272 239.296 201.98 238.058C202.354 237.088 202.354 236.018 201.98 235.048C202.61 234.515 203.296 234.049 204.025 233.657C204.025 233.657 203.608 235.858 205.285 236.267C206.962 236.677 212.564 230.904 212.564 230.904C212.564 230.904 212.981 228.437 211.44 228.294C211.44 228.294 212.564 224.855 211.44 223.893C211.44 223.893 212.7 221.15 211.159 219.912C211.159 219.912 210.461 216.749 209.346 215.644C208.232 214.539 196.843 217.845 196.843 217.845C196.843 217.845 199.538 211.958 199.819 210.31C200.1 208.662 198.384 207.062 198.384 207.062Z" fill="#FFBE9D"/>
<path d="M205.392 228.789C205.392 228.789 205.295 228.97 205.072 229.237C204.737 229.585 204.462 229.984 204.258 230.418C204.099 230.691 204 230.992 203.967 231.304C203.949 231.659 204.022 232.013 204.18 232.333C204.442 233 205.46 233.124 206.187 232.638C206.901 232.115 207.58 231.549 208.222 230.942L209.908 229.513C210.399 229.04 210.945 228.628 211.537 228.285C211.137 228.833 210.672 229.332 210.151 229.771L208.542 231.285C207.888 231.927 207.188 232.522 206.448 233.066C206.002 233.354 205.465 233.473 204.936 233.4C204.678 233.368 204.433 233.271 204.226 233.117C204.018 232.963 203.855 232.759 203.754 232.523C203.58 232.131 203.51 231.702 203.55 231.276C203.605 230.913 203.738 230.566 203.938 230.256C204.174 229.809 204.505 229.416 204.907 229.104C205.208 228.875 205.363 228.761 205.392 228.789Z" fill="#EB996E"/>
<path d="M206.003 218.921C205.454 219.639 204.838 220.306 204.162 220.912C203.437 221.533 202.824 222.271 202.349 223.093C202.271 223.337 202.252 223.597 202.293 223.85C202.334 224.103 202.435 224.343 202.588 224.551C202.74 224.759 202.94 224.93 203.171 225.049C203.402 225.167 203.659 225.232 203.92 225.236C204.486 225.12 205.003 224.838 205.402 224.426L206.711 223.283L208.96 221.378C209.623 220.759 210.344 220.201 211.111 219.711C210.525 220.403 209.877 221.041 209.173 221.616L206.992 223.617L205.703 224.779C205.228 225.271 204.607 225.604 203.929 225.731C203.585 225.736 203.245 225.658 202.938 225.506C202.631 225.353 202.367 225.129 202.167 224.854C201.967 224.579 201.837 224.26 201.79 223.925C201.742 223.591 201.778 223.249 201.894 222.931C202.129 222.433 202.458 221.984 202.863 221.607C203.202 221.245 203.571 220.95 203.832 220.654C204.5 220.012 205.227 219.432 206.003 218.921Z" fill="#EB996E"/>
<path d="M204.119 225.722C204.119 225.77 203.925 225.808 203.634 226.008C203.238 226.283 202.962 226.695 202.859 227.161C202.803 227.495 202.861 227.837 203.022 228.136C203.182 228.436 203.439 228.675 203.751 228.818C203.925 228.909 204.116 228.965 204.313 228.981C204.509 228.998 204.707 228.975 204.894 228.913C205.323 228.763 205.721 228.537 206.067 228.246C209.207 225.817 211.349 223.398 211.456 223.484C211.114 224.102 210.676 224.665 210.157 225.151C209 226.41 207.735 227.57 206.377 228.618C205.982 228.955 205.525 229.214 205.03 229.38C204.551 229.575 204.012 229.574 203.533 229.378C203.054 229.183 202.674 228.808 202.476 228.337C202.278 227.866 202.279 227.337 202.478 226.866C202.677 226.395 203.058 226.022 203.537 225.827C203.712 225.724 203.919 225.687 204.119 225.722Z" fill="#EB996E"/>
<path d="M202.25 236.905C202.172 236.905 202.114 236.305 201.736 235.381C201.476 234.762 201.094 234.2 200.612 233.728C200.129 233.255 199.556 232.882 198.926 232.628L197.859 232.228L198.984 232.181V232.647H198.926V232.19L198.732 232.314C199.231 231.42 199.587 230.456 199.788 229.456C200.193 227.396 199.995 225.266 199.216 223.312C198.615 221.798 197.927 221.026 198.005 220.969C198.082 220.912 198.218 221.131 198.518 221.483C198.924 222.006 199.268 222.572 199.546 223.169C200.459 225.17 200.716 227.401 200.282 229.552C200.075 230.605 199.689 231.616 199.139 232.543L199.071 232.657H198.916V232.2H198.964V232.666L199.032 232.219C199.714 232.498 200.327 232.918 200.829 233.45C201.33 233.983 201.709 234.615 201.94 235.305C202.079 235.689 202.167 236.09 202.202 236.496C202.243 236.628 202.26 236.767 202.25 236.905Z" fill="#EB996E"/>
<path d="M79.9274 297.326L78.522 310.11C77.8337 316.182 77.8532 322.312 78.5801 328.38L84.2598 375.713L66.0964 354.528C66.0964 354.528 48.6503 364.834 48.3789 374.703C48.3789 374.703 82.6606 412.958 91.3352 418.34C100.01 423.722 122.351 418.34 123.32 401.518C123.32 401.518 125.375 416.997 145.234 416.549C165.094 416.101 165.326 369.426 165.326 369.426L156.652 299.203L79.9274 297.326Z" fill="#263238"/>
<path d="M123.343 401.937C123.318 401.718 123.318 401.498 123.343 401.28C123.343 400.813 123.343 400.194 123.343 399.422C123.401 397.755 123.488 395.431 123.585 392.592C123.828 386.782 124.177 378.837 124.555 370.074C124.768 365.673 124.971 361.501 125.155 357.69C125.34 353.88 125.378 350.432 126.037 347.574C126.474 345.285 127.683 343.208 129.469 341.678C129.958 341.279 130.507 340.958 131.097 340.725C131.246 340.655 131.401 340.6 131.562 340.563C131.669 340.563 131.727 340.516 131.727 340.563C130.956 340.9 130.238 341.342 129.595 341.878C127.907 343.425 126.78 345.472 126.386 347.707C125.776 350.508 125.815 353.966 125.621 357.776C125.427 361.586 125.262 365.778 125.059 370.159C124.632 378.923 124.235 386.858 123.944 392.668C123.779 395.526 123.653 397.822 123.556 399.489C123.498 400.26 123.45 400.87 123.421 401.394C123.404 401.576 123.378 401.757 123.343 401.937Z" fill="#455A64"/>
<path d="M128.652 298.346C128.787 298.716 128.878 299.099 128.924 299.489C129.059 300.232 129.234 301.308 129.428 302.642C129.815 305.319 130.252 309.024 130.562 313.12C130.872 317.216 130.979 320.96 130.988 323.656C130.988 325.008 130.988 326.104 130.988 326.856C131.002 327.249 130.972 327.641 130.901 328.028C130.822 327.642 130.786 327.249 130.794 326.856C130.794 325.999 130.717 324.951 130.668 323.665C130.571 320.979 130.397 317.254 130.097 313.187C129.796 309.119 129.408 305.385 129.127 302.709C128.982 301.451 128.866 300.384 128.778 299.537C128.698 299.145 128.656 298.746 128.652 298.346Z" fill="#455A64"/>
<path d="M121.717 301.537C121.717 301.537 121.853 301.375 122.221 301.298C122.482 301.251 122.75 301.254 123.009 301.308C123.268 301.362 123.515 301.465 123.733 301.613C124.05 301.815 124.305 302.098 124.47 302.432C124.663 302.823 124.714 303.266 124.615 303.689C124.505 304.173 124.243 304.61 123.865 304.939C123.487 305.267 123.014 305.47 122.512 305.518C122.012 305.524 121.522 305.383 121.104 305.113C120.686 304.843 120.359 304.457 120.166 304.004C120.011 303.638 119.956 303.239 120.007 302.846C120.058 302.453 120.213 302.08 120.457 301.765C120.754 301.338 121.187 301.019 121.688 300.86C122.037 300.756 122.241 300.775 122.241 300.803C121.639 301.035 121.12 301.436 120.748 301.956C120.554 302.232 120.437 302.553 120.41 302.888C120.383 303.222 120.446 303.558 120.593 303.861C120.759 304.217 121.025 304.519 121.36 304.732C121.695 304.944 122.084 305.059 122.483 305.061C122.881 305.022 123.256 304.862 123.558 304.605C123.86 304.347 124.073 304.004 124.169 303.623C124.246 303.312 124.226 302.987 124.112 302.688C123.998 302.389 123.795 302.13 123.53 301.946C123.162 301.665 122.707 301.517 122.241 301.527C121.911 301.47 121.727 301.537 121.717 301.537Z" fill="#455A64"/>
<path d="M84.6195 375.551C84.7067 375.551 84.319 376.989 83.9798 379.361C83.5392 382.396 83.4611 385.472 83.7472 388.525C84.0555 391.577 84.7322 394.583 85.7632 397.479C86.5579 399.698 87.2073 401.022 87.1298 401.06C86.9205 400.781 86.7418 400.481 86.5967 400.165C86.1578 399.333 85.7663 398.477 85.4239 397.603C83.1289 391.78 82.5053 385.451 83.6212 379.304C83.7858 378.378 84.0026 377.462 84.2706 376.56C84.3441 376.211 84.4613 375.872 84.6195 375.551Z" fill="#455A64"/>
<path d="M84.2863 396.422C84.6168 396.299 84.9403 396.159 85.2556 396.003C86.0706 395.472 86.6946 394.702 87.039 393.802C87.5954 392.376 87.8876 390.863 87.9016 389.335C87.9888 387.544 88.0857 385.524 88.0954 383.238C88.1536 378.723 87.9597 373.341 87.4266 367.397C86.8936 361.453 86.0213 354.928 84.8776 348.127C83.7339 341.325 82.532 334.791 81.776 328.895C81.0312 323.637 80.691 318.332 80.7584 313.025C80.8067 309.446 81.16 305.877 81.8148 302.356C82.028 301.108 82.3188 300.165 82.4642 299.498C82.5417 299.203 82.5999 298.965 82.6483 298.765C82.6668 298.679 82.6961 298.596 82.7356 298.517C82.745 298.606 82.745 298.695 82.7356 298.784C82.7356 298.974 82.658 299.222 82.5999 299.527C82.4836 300.184 82.2316 301.127 82.0474 302.385C81.4689 305.903 81.1676 309.461 81.146 313.025C81.1377 318.312 81.5167 323.594 82.28 328.828C83.0554 334.753 84.2767 341.211 85.4203 348.032C86.564 354.852 87.4267 361.367 87.9307 367.34C88.3988 372.626 88.5864 377.933 88.4928 383.238C88.4928 385.496 88.3377 387.544 88.2214 389.344C88.176 390.897 87.8477 392.43 87.2522 393.869C86.8707 394.797 86.1897 395.577 85.3137 396.088C84.9971 396.265 84.6479 396.379 84.2863 396.422Z" fill="#455A64"/>
<path d="M60.043 358.834C60.4357 359.087 60.8024 359.378 61.1382 359.701C61.807 360.282 62.7665 361.148 63.9005 362.273C66.8622 365.194 69.5573 368.366 71.9548 371.751C73.3699 373.722 74.6202 375.666 75.7348 377.466C76.6694 379.054 77.7532 380.553 78.9721 381.943C79.8052 382.864 80.8168 383.612 81.9476 384.143C82.7617 384.486 83.256 384.572 83.2463 384.62C83.2367 384.667 83.1204 384.62 82.8781 384.62C82.5479 384.562 82.2236 384.476 81.9088 384.362C80.712 383.883 79.6368 383.151 78.7588 382.219C77.4755 380.849 76.3447 379.348 75.3859 377.742C74.2519 375.98 72.9919 374.056 71.5768 372.093C69.188 368.733 66.551 365.549 63.6873 362.568C62.5921 361.425 61.6713 360.52 61.0413 359.891C60.6742 359.572 60.3398 359.217 60.043 358.834Z" fill="#455A64"/>
<path d="M87.1829 170.864C87.1829 170.864 75.998 166.739 70.8708 162.624C65.7436 158.509 51.1276 135.505 51.1276 135.505L58.5131 94.0492L40.5048 85.3047C40.5048 85.3047 19.5888 134.638 21.915 143.792C24.2411 152.946 62.0508 203.87 62.0508 203.87L71.336 240.068L81.1252 272.579C81.1252 272.579 76.9285 274.417 79.2643 280.828C81.6002 287.239 84.5951 290.02 81.5905 291.363C76.7443 293.535 79.9331 297.365 79.9331 297.365L158.576 299.27C158.576 299.27 148.506 236.524 150.241 225.065C152.005 213.377 150.299 193.449 150.299 193.449L132.388 188.086L87.1829 170.864Z" fill="#C53F3F"/>
<path d="M150.299 193.401C158.46 197.088 167.145 249.355 167.145 249.355L186.19 229.447L197.821 243.859C197.821 243.859 181.344 272.255 177.593 275.151C174.404 277.589 164.789 284.971 158.315 282.447C151.84 279.923 147.789 234.714 147.789 234.714L150.299 193.401Z" fill="#C53F3F"/>
<path d="M95.6229 175.369C95.6229 175.369 94.6537 169.263 96.7085 170.178C96.7957 170.178 125.592 179.113 125.388 181.085C125.223 182.752 125.592 188.039 125.592 188.039H106.633L95.6229 175.369Z" fill="#C53F3F"/>
<path d="M77.7334 215.111C77.6978 214.606 77.6978 214.1 77.7334 213.596C77.7334 213.101 77.7334 212.51 77.7334 211.815C77.7334 211.119 77.7334 210.338 77.6849 209.471C77.5988 207.436 77.3982 205.407 77.084 203.394C76.6881 200.932 76.1313 198.498 75.4169 196.107C74.6808 193.72 73.7906 191.381 72.7516 189.106C71.8804 187.253 70.9098 185.447 69.8439 183.695C69.4077 182.942 68.9522 182.295 68.5742 181.704C68.1962 181.113 67.8569 180.628 67.6049 180.228C67.2856 179.828 67.0034 179.401 66.7617 178.951C67.1176 179.311 67.4418 179.7 67.7309 180.113C68.0411 180.494 68.4191 180.971 68.8068 181.552C69.1945 182.133 69.6888 182.761 70.1443 183.514C71.2557 185.253 72.2591 187.057 73.1489 188.915C75.3347 193.479 76.8208 198.336 77.5589 203.327C77.8545 205.36 78.0228 207.409 78.0629 209.462C78.0629 210.338 78.0629 211.129 78.0629 211.824C78.0629 212.52 78.0629 213.11 77.966 213.605C77.9378 214.113 77.8599 214.617 77.7334 215.111Z" fill="#263238"/>
<path d="M92.7719 282.59C92.0013 282.371 91.2644 282.051 90.5815 281.638C87.168 279.844 84.2123 277.313 81.9359 274.236C81.4292 273.626 81.0116 272.95 80.6953 272.226C82.3661 274.296 84.1934 276.238 86.1618 278.037C88.2479 279.713 90.4573 281.235 92.7719 282.59Z" fill="#263238"/>
<path d="M116.87 291.497C116.464 291.683 116.042 291.832 115.61 291.945C114.446 292.312 113.262 292.611 112.062 292.84C110.288 293.206 108.491 293.46 106.683 293.602C104.469 293.751 102.248 293.751 100.034 293.602C97.818 293.43 95.6161 293.112 93.4435 292.649C91.6732 292.27 89.9285 291.783 88.2193 291.192C87.066 290.806 85.9366 290.354 84.8367 289.839C84.4204 289.674 84.0212 289.47 83.6445 289.23C84.0815 289.334 84.5068 289.481 84.9142 289.668C85.709 289.982 86.8527 290.401 88.3356 290.859C90.0439 291.401 91.7815 291.849 93.5404 292.202C95.6972 292.626 97.879 292.915 100.073 293.069C102.264 293.207 104.463 293.207 106.654 293.069C108.445 292.949 110.228 292.733 111.995 292.421C113.507 292.154 114.718 291.897 115.552 291.687C115.984 291.586 116.426 291.522 116.87 291.497Z" fill="#263238"/>
<path d="M143.069 243.859C143.108 244.012 143.134 244.168 143.146 244.326C143.146 244.621 143.243 245.078 143.262 245.659C143.354 247.302 143.302 248.95 143.107 250.584C142.489 256.025 140.432 261.213 137.139 265.63C133.847 270.047 129.435 273.54 124.343 275.76C122.814 276.44 121.229 276.988 119.604 277.399C119.032 277.551 118.576 277.627 118.276 277.684C118.121 277.728 117.961 277.751 117.801 277.751C117.801 277.751 118.431 277.551 119.555 277.208C121.141 276.732 122.689 276.143 124.188 275.446C129.895 272.764 134.704 268.536 138.049 263.259C141.394 257.982 143.135 251.876 143.069 245.659C143.031 245.06 143.031 244.458 143.069 243.859Z" fill="#263238"/>
<path d="M150.415 210.567C150.441 210.842 150.441 211.12 150.415 211.395L150.299 213.777C150.231 214.806 150.192 216.073 150.173 217.54C150.154 219.006 150.105 220.673 150.173 222.521C150.173 226.217 150.386 230.609 150.687 235.476C150.987 240.344 151.539 245.697 152.179 251.298C153.488 262.51 154.99 272.617 155.979 279.942C156.473 283.609 156.861 286.61 157.103 288.629C157.219 289.63 157.306 290.411 157.374 291.001C157.42 291.275 157.439 291.553 157.432 291.83C157.357 291.561 157.302 291.287 157.268 291.011C157.18 290.43 157.064 289.649 156.909 288.658C156.599 286.562 156.163 283.619 155.62 279.999C154.544 272.674 152.993 262.577 151.675 251.356C151.035 245.745 150.541 240.392 150.221 235.514C149.901 230.637 149.766 226.217 149.814 222.521C149.814 220.673 149.863 218.997 149.931 217.53C149.998 216.063 150.037 214.796 150.144 213.767C150.25 212.739 150.299 211.977 150.347 211.386C150.349 211.112 150.372 210.838 150.415 210.567Z" fill="#263238"/>
<path d="M125.397 185.391C125.01 185.557 124.603 185.675 124.186 185.743C123.062 185.985 121.915 186.112 120.764 186.124C119.052 186.144 117.344 185.962 115.676 185.581C113.638 185.123 111.647 184.485 109.725 183.676C106.255 182.172 102.946 180.331 99.8484 178.18C98.6563 177.37 97.7064 176.703 97.0474 176.227C96.6975 176 96.3727 175.739 96.0781 175.446C96.4622 175.618 96.829 175.825 97.1734 176.065L100.081 177.884C103.212 179.928 106.513 181.71 109.948 183.209C111.832 183.994 113.777 184.631 115.763 185.114C117.399 185.5 119.073 185.711 120.755 185.743C122.309 185.727 123.859 185.609 125.397 185.391Z" fill="#263238"/>
<path d="M164.445 263.072C164.649 260.655 165.025 258.255 165.57 255.89C165.944 253.494 166.485 251.126 167.188 248.803C166.983 251.22 166.607 253.62 166.064 255.985C165.687 258.381 165.146 260.748 164.445 263.072Z" fill="#263238"/>
<g opacity="0.3">
<path d="M119.236 277.352C116.583 278.19 113.847 278.752 111.075 279.028C109.868 279.271 108.613 279.06 107.557 278.437C107.068 278.008 106.729 277.439 106.587 276.81C106.444 276.181 106.506 275.525 106.762 274.932C107.306 273.748 108.291 272.814 109.514 272.322C113.769 270.417 119.207 272.455 123.2 269.988C125.138 268.75 126.35 266.607 127.755 264.749C130.177 261.554 133.441 259.07 137.196 257.567C137.704 257.302 138.293 257.227 138.853 257.357C140.055 257.805 139.822 259.548 139.25 260.682C135.218 269.083 128.502 275.532 119.236 277.352Z" fill="black"/>
</g>
<g opacity="0.3">
<path d="M150.191 225.141C156.006 239.058 153.942 255.547 161.415 268.673C162.83 271.169 164.613 273.598 164.943 276.427C165.272 279.256 163.382 282.619 160.484 282.6C159.564 282.577 158.667 282.321 157.878 281.855C157.09 281.389 156.438 280.73 155.987 279.942C155.163 278.37 155.231 276.351 155.018 274.598C153.758 263.853 151.945 253.089 150.937 242.316C150.404 236.6 150.579 230.885 150.113 225.169" fill="black"/>
</g>
<g opacity="0.3">
<path d="M97.25 176.293C101.65 181.339 106.927 185.577 112.835 188.81C114.259 189.664 115.814 190.288 117.439 190.658C119.096 191.032 120.837 190.751 122.285 189.877C122.919 189.497 123.39 188.905 123.613 188.21C123.714 187.864 123.705 187.496 123.587 187.155C123.47 186.815 123.249 186.518 122.954 186.304C122.497 186.08 121.991 185.972 121.481 185.99C112.758 185.523 104.325 181.027 97.25 176.293Z" fill="black"/>
</g>
<path d="M104.985 180.895C104.304 179.675 103.972 178.296 104.025 176.905C104.078 175.515 104.513 174.164 105.285 172.998C104.917 174.282 104.664 175.595 104.529 176.922C104.563 178.257 104.715 179.586 104.985 180.895Z" fill="#263238"/>
<path d="M114.797 184.809C114.652 184.809 115.098 182.904 115.04 180.504C114.982 178.103 114.458 176.265 114.604 176.217C115.785 178.945 115.854 182.014 114.797 184.79V184.809Z" fill="#263238"/>
<path d="M121.712 186.41C121.576 186.352 122.167 184.905 122.274 183.028C122.38 181.151 121.993 179.637 122.138 179.599C122.708 180.659 122.931 181.867 122.778 183.057C122.789 184.257 122.416 185.43 121.712 186.41Z" fill="#263238"/>
<path d="M98.3165 177.046C97.9713 176.585 97.7232 176.062 97.5867 175.505C97.4502 174.949 97.4281 174.372 97.5218 173.807C97.553 172.981 97.8329 172.182 98.3262 171.512C98.4108 171.406 98.5161 171.317 98.6359 171.252C98.7558 171.186 98.8877 171.145 99.024 171.131C99.2179 171.131 99.3148 171.188 99.3051 171.216C99.2954 171.245 98.9077 171.216 98.6073 171.731C98.2592 172.386 98.0607 173.107 98.0257 173.845C98.0071 174.919 98.1045 175.992 98.3165 177.046Z" fill="#263238"/>
<path d="M43.2031 138.524C44.327 137.501 45.6725 136.742 47.1382 136.305C48.543 135.706 50.0663 135.423 51.5967 135.476C51.5967 135.629 49.6582 135.924 47.3127 136.762C44.9671 137.6 43.2904 138.648 43.2031 138.524Z" fill="#263238"/>
<path d="M149.282 228.961L148.468 228.77L146.132 228.208C145.163 227.951 143.884 227.646 142.439 227.332C140.995 227.018 139.357 226.618 137.525 226.265C133.881 225.484 129.52 224.693 124.644 223.931C119.769 223.169 114.4 222.522 108.73 222.026C103.06 221.531 97.6416 221.293 92.7179 221.178C87.7942 221.064 83.3455 221.178 79.6139 221.264C77.753 221.264 76.0666 221.417 74.5933 221.483C73.1201 221.55 71.8407 221.636 70.7939 221.712L68.3999 221.874C67.8572 221.874 67.5664 221.874 67.5664 221.874C67.5664 221.874 72.1509 221.379 79.6139 221.093C83.3358 220.931 87.7845 220.883 92.7179 220.959C97.6513 221.036 103.069 221.312 108.749 221.788C114.429 222.264 119.798 222.969 124.673 223.693C129.549 224.417 133.91 225.275 137.555 226.065C144.892 227.685 149.282 228.961 149.282 228.961Z" fill="#FAFAFA"/>
<path d="M141.318 257.28C141.318 257.28 141.095 257.28 140.659 257.195L138.798 256.937C137.984 256.804 136.985 256.699 135.832 256.566C134.679 256.433 133.36 256.29 131.907 256.166C126.091 255.623 117.979 255.28 109.033 255.309C100.087 255.337 92.0034 255.709 86.1589 256.09C83.2512 256.271 80.8669 256.452 79.2386 256.585L77.3583 256.737H76.6992L77.3486 256.661L79.2289 256.471C80.8572 256.318 83.2221 256.109 86.1492 255.909C91.9646 255.499 100.087 255.108 109.033 255.07C117.979 255.032 126.082 255.413 131.916 256.023C137.751 256.633 141.318 257.28 141.318 257.28Z" fill="#FAFAFA"/>
<path d="M152.951 263.015C152.771 263.03 152.589 263.03 152.408 263.015L150.945 262.929L146.099 262.558L141.253 262.129L139.799 261.977L139.266 261.891C139.446 261.873 139.628 261.873 139.808 261.891L141.262 261.986L146.108 262.358L150.955 262.787L152.408 262.939C152.592 262.941 152.774 262.967 152.951 263.015Z" fill="#FAFAFA"/>
<path d="M157.362 295.116L156.577 294.964C156.063 294.869 155.317 294.688 154.338 294.545C151.572 294.095 148.776 293.85 145.974 293.811C141.822 293.775 137.671 293.953 133.538 294.345C128.867 294.745 123.739 295.297 118.331 295.583C109.089 296.069 99.8226 295.869 90.6111 294.983C83.5454 294.278 79.2227 293.488 79.2227 293.488L80.0174 293.583L82.2757 293.897C84.2142 294.154 87.1219 294.516 90.6305 294.85C99.8315 295.698 109.084 295.879 118.312 295.393C123.72 295.126 128.847 294.564 133.529 294.173C137.668 293.785 141.826 293.623 145.983 293.688C148.788 293.735 151.585 293.999 154.348 294.478C155.317 294.631 156.073 294.821 156.587 294.935L157.362 295.116Z" fill="#FAFAFA"/>
<path d="M155.099 205.985L154.236 205.747L151.784 205.032L142.761 202.394C135.133 200.184 124.568 197.212 112.86 194.097C101.152 190.982 90.4997 188.334 82.8137 186.477L73.6739 184.276L71.1829 183.686L70.3203 183.466L71.1926 183.647L73.6835 184.2L82.8525 186.334C90.6063 188.172 101.268 190.801 112.957 193.954C124.646 197.107 135.249 200.06 142.838 202.308L151.842 205.004L154.285 205.756C154.779 205.88 155.099 205.985 155.099 205.985Z" fill="#FAFAFA"/>
<path d="M74.9395 190.715L74.765 190.772L74.2707 190.915L72.4389 191.392L66.3618 192.944C65.1793 193.249 64.0357 193.497 63.018 193.783C62.1183 194.017 61.2683 194.408 60.5077 194.935C59.8138 195.414 59.2699 196.074 58.9375 196.84C58.9811 196.613 59.063 196.394 59.1798 196.193C59.485 195.638 59.9082 195.153 60.4204 194.773C61.1892 194.223 62.0527 193.813 62.9695 193.563C63.9872 193.259 65.1212 193.001 66.3133 192.706L72.4001 191.249L74.2513 190.83L74.7553 190.725L74.9395 190.715Z" fill="#FAFAFA"/>
<path d="M66.19 158.376H65.8701L64.9687 158.452C64.1933 158.452 63.0303 158.623 61.6733 158.814C54.416 159.827 47.4703 162.382 41.3195 166.301C40.1467 167.054 39.2066 167.692 38.5863 168.206L37.8593 168.73C37.7806 168.799 37.6925 168.857 37.5977 168.902C38.7544 167.938 39.9715 167.048 41.242 166.234C47.3671 162.228 54.3478 159.66 61.6443 158.728C63.1509 158.521 64.6689 158.403 66.19 158.376Z" fill="#FAFAFA"/>
<path d="M52.2263 130.723C52.1389 130.687 52.0573 130.639 51.984 130.58L51.3056 130.142C50.7337 129.742 49.8614 129.189 48.7759 128.58C45.9301 126.964 42.8752 125.734 39.6942 124.922C36.5061 124.132 33.2197 123.792 29.934 123.912C28.674 123.912 27.6467 124.036 26.9488 124.131L26.1444 124.226H25.8633C27.2033 123.972 28.5608 123.816 29.9244 123.76C33.2271 123.597 36.536 123.918 39.7427 124.712C42.9417 125.529 46.0061 126.79 48.8437 128.456C50.0222 129.135 51.1523 129.893 52.2263 130.723Z" fill="#FAFAFA"/>
<path d="M55.6217 102.336C55.6217 102.336 55.5636 102.336 55.4667 102.203L55.0499 101.774C54.701 101.403 54.1582 100.888 53.4603 100.279C51.6537 98.6892 49.6393 97.3437 47.4705 96.2779C45.2958 95.2193 42.9885 94.4475 40.6084 93.9822C39.6973 93.8108 38.951 93.6965 38.4373 93.6488L37.8364 93.5726H37.6328C37.6328 93.5726 37.7007 93.5726 37.846 93.5726H38.447C39.182 93.6276 39.9133 93.723 40.6374 93.8584C43.0408 94.282 45.3709 95.0389 47.5577 96.1064C49.7418 97.1829 51.7614 98.5553 53.5573 100.183C54.1051 100.67 54.6229 101.189 55.108 101.736L55.4957 102.184C55.5927 102.279 55.6314 102.336 55.6217 102.336Z" fill="#FAFAFA"/>
<path d="M165.048 240.106C164.86 240.143 164.668 240.166 164.476 240.173C164.108 240.173 163.585 240.249 162.935 240.344C159.538 240.818 156.303 242.075 153.495 244.011C152.962 244.383 152.526 244.697 152.254 244.964C152.109 245.091 151.954 245.206 151.789 245.307C151.911 245.157 152.051 245.023 152.206 244.907C152.591 244.567 152.995 244.249 153.417 243.954C154.808 242.954 156.323 242.131 157.924 241.506C159.526 240.879 161.204 240.459 162.916 240.258C163.434 240.194 163.955 240.159 164.476 240.154C164.664 240.115 164.856 240.099 165.048 240.106Z" fill="#FAFAFA"/>
<path d="M186.465 261.405C185.365 261 184.312 260.48 183.325 259.853C182.246 259.178 181.234 258.407 180.301 257.547C179.173 256.478 178.157 255.301 177.267 254.032C176.396 252.753 175.666 251.386 175.086 249.955C174.621 248.784 174.27 247.572 174.04 246.336C173.811 245.201 173.71 244.044 173.739 242.887C173.749 242.967 173.749 243.046 173.739 243.126C173.739 243.345 173.739 243.564 173.788 243.811C173.836 244.059 173.836 244.478 173.904 244.897C173.957 245.371 174.034 245.841 174.137 246.307C174.387 247.531 174.751 248.73 175.222 249.889C175.808 251.302 176.535 252.655 177.393 253.928C178.275 255.182 179.278 256.349 180.388 257.414C181.31 258.269 182.305 259.044 183.364 259.729C183.765 260 184.183 260.248 184.614 260.472C184.924 260.663 185.248 260.832 185.583 260.977L186.203 261.281C186.397 261.358 186.475 261.396 186.465 261.405Z" fill="#FAFAFA"/>
</svg>
